<?xml version="1.0" encoding="UTF-8" standalone="no"?>
<svg
   xmlns:dc="http://purl.org/dc/elements/1.1/"
   xmlns:cc="http://creativecommons.org/ns#"
   xmlns:rdf="http://www.w3.org/1999/02/22-rdf-syntax-ns#"
   xmlns:svg="http://www.w3.org/2000/svg"
   xmlns="http://www.w3.org/2000/svg"
   viewBox="0 0 822.67731 556.01068"
   height="556.01068"
   width="822.67731"
   xml:space="preserve"
   id="svg2"
   version="1.1"><metadata
     id="metadata8"><rdf:RDF><cc:Work
         rdf:about=""><dc:format>image/svg+xml</dc:format><dc:type
           rdf:resource="http://purl.org/dc/dcmitype/StillImage" /></cc:Work></rdf:RDF></metadata><defs
     id="defs6"><clipPath
       id="clipPath18"
       clipPathUnits="userSpaceOnUse"><path
         id="path16"
         d="M 0,417.008 H 617.008 V 0 H 0 Z" /></clipPath></defs><g
     transform="matrix(1.3333333,0,0,-1.3333333,0,556.01067)"
     id="g10"><g
       id="g12"><g
         clip-path="url(#clipPath18)"
         id="g14"><g
           transform="translate(300.7974,224.3345)"
           id="g20"><path
             id="path22"
             style="fill:#000000;fill-opacity:1;fill-rule:nonzero;stroke:none"
             d="m 0,0 h -71.423 c -1.234,0 -2.426,-1.01 -2.648,-2.244 l -2.64,-14.378 c -0.222,-1.234 0.606,-2.244 1.84,-2.244 h 71.423 c 1.235,0 2.426,1.01 2.648,2.244 L 1.84,-2.244 C 2.062,-1.01 1.234,0 0,0" /></g><g
           transform="translate(482.3291,224.3345)"
           id="g24"><path
             id="path26"
             style="fill:#000000;fill-opacity:1;fill-rule:nonzero;stroke:none"
             d="m 0,0 h -71.423 c -1.234,0 -2.426,-1.01 -2.647,-2.244 l -2.641,-14.378 c -0.222,-1.234 0.607,-2.244 1.841,-2.244 h 71.423 c 1.234,0 2.426,1.01 2.647,2.244 L 1.841,-2.244 C 2.063,-1.01 1.234,0 0,0" /></g><g
           transform="translate(572.0547,261.311)"
           id="g28"><path
             id="path30"
             style="fill:#000000;fill-opacity:1;fill-rule:nonzero;stroke:none"
             d="m 0,0 h -6.962 c -0.531,0 -1.045,-0.435 -1.141,-0.967 l -2.658,-14.534 c -0.095,-0.532 0.262,-0.967 0.793,-0.967 h 6.962 c 0.532,0 1.045,0.435 1.141,0.967 L 0.793,-0.967 C 0.889,-0.435 0.532,0 0,0" /></g><g
           transform="translate(584.6953,261.311)"
           id="g32"><path
             id="path34"
             style="fill:#000000;fill-opacity:1;fill-rule:nonzero;stroke:none"
             d="m 0,0 h -6.962 c -0.531,0 -1.045,-0.435 -1.141,-0.967 l -2.658,-14.534 c -0.094,-0.532 0.262,-0.967 0.794,-0.967 h 6.961 c 0.532,0 1.046,0.435 1.141,0.967 L 0.793,-0.967 C 0.889,-0.435 0.532,0 0,0" /></g><g
           transform="translate(147.5464,219.5356)"
           id="g36"><path
             id="path38"
             style="fill:#000000;fill-opacity:1;fill-rule:nonzero;stroke:none"
             d="m 0,0 h -14.81 c -1.234,0 -2.425,-1.01 -2.647,-2.244 l -7.091,-39.155 c -0.222,-1.233 0.607,-2.243 1.84,-2.243 h 14.81 c 1.234,0 2.426,1.01 2.648,2.243 L 1.84,-2.244 C 2.063,-1.01 1.234,0 0,0" /></g><g
           transform="translate(211.0054,219.5356)"
           id="g40"><path
             id="path42"
             style="fill:#000000;fill-opacity:1;fill-rule:nonzero;stroke:none"
             d="m 0,0 h -14.81 c -1.234,0 -2.425,-1.01 -2.648,-2.244 l -7.09,-39.155 c -0.222,-1.233 0.606,-2.243 1.84,-2.243 h 14.81 c 1.234,0 2.425,1.01 2.648,2.243 L 1.84,-2.244 C 2.062,-1.01 1.234,0 0,0" /></g><g
           transform="translate(579.6387,172.4873)"
           id="g44"><path
             id="path46"
             style="fill:#000000;fill-opacity:1;fill-rule:nonzero;stroke:none"
             d="m 0,0 -31.751,36.713 c 5.805,5.783 9.983,9.942 10.143,10.09 0.537,0.499 1.688,2.737 -0.92,2.737 h -23.783 c -2.107,0 -2.885,-0.672 -3.669,-1.494 L -96.403,0 c -0.785,-0.821 -0.417,-1.493 0.817,-1.493 h 23.337 c 1.233,0 2.886,0.672 3.67,1.493 0,0 11.168,11.137 22.613,22.546 L -26.479,0.001 c 0.671,-0.822 2.23,-1.494 3.464,-1.494 H -1.024 C 0.21,-1.493 0.671,-0.821 0,0" /></g><g
           transform="translate(575.7764,240.9009)"
           id="g48"><path
             id="path50"
             style="fill:#000000;fill-opacity:1;fill-rule:nonzero;stroke:none"
             d="m 0,0 h -3.126 v -0.009 h -13.205 c -1.233,0 -2.062,1.009 -1.84,2.243 l 1.159,6.348 c 0.222,1.234 -0.606,2.244 -1.84,2.244 h -61.274 c -1.233,0 -2.425,-1.01 -2.646,-2.244 l -2.866,-15.499 c -0.221,-1.235 0.607,-2.245 1.84,-2.245 H -1.66 c 1.234,0 2.426,1.01 2.647,2.245 l 0.854,4.673 C 2.063,-1.01 1.234,0 0,0" /></g><g
           transform="translate(398.5752,248.0625)"
           id="g52"><path
             id="path54"
             style="fill:#000000;fill-opacity:1;fill-rule:nonzero;stroke:none"
             d="m 0,0 h -58.053 l 1.544,8.583 c 0.222,1.234 -0.606,2.244 -1.841,2.244 h -16.156 c -1.234,0 -2.426,-1.01 -2.647,-2.244 l -8.796,-48.917 c -0.222,-1.234 0.606,-2.244 1.84,-2.244 h 16.156 c 1.234,0 2.426,1.01 2.647,2.244 l 3.47,19.293 c 0.245,1.182 1.371,2.138 2.558,2.176 h 35.29 c 1.193,-0.039 1.988,-1.027 1.77,-2.237 l -0.898,-5.021 c -0.223,-1.234 -1.413,-2.244 -2.648,-2.244 l -23.807,-0.003 c -1.235,0 -2.426,-1.009 -2.648,-2.244 l -2.477,-13.244 c -0.222,-1.235 0.606,-2.245 1.841,-2.245 h 23.871 c 1.234,0 2.062,-1.009 1.84,-2.244 l -1.339,-7.421 c -0.239,-1.217 -1.416,-2.209 -2.638,-2.209 l -24.822,-0.008 c -1.235,0 -2.426,-1.01 -2.648,-2.244 l -2.687,-14.595 c -0.222,-1.235 0.606,-2.244 1.84,-2.244 h 45.5 c 1.235,0 2.426,1.009 2.648,2.244 L 1.841,-2.244 C 2.063,-1.01 1.234,0 0,0" /></g><g
           transform="translate(103.248,219.7334)"
           id="g56"><path
             id="path58"
             style="fill:#000000;fill-opacity:1;fill-rule:nonzero;stroke:none"
             d="m 0,0 h -16.156 c -1.234,0 -2.426,-1.01 -2.647,-2.244 l -4.527,-25.123 c -0.216,-1.203 -1.354,-2.185 -2.554,-2.235 h -18.774 c -1.234,0 -2.425,-1.009 -2.647,-2.244 l -2.724,-14.586 c -0.222,-1.233 0.606,-2.243 1.84,-2.243 h 23.275 16.156 c 1.234,0 2.425,1.01 2.648,2.243 L 1.84,-2.244 C 2.063,-1.01 1.234,0 0,0" /></g><g
           transform="translate(117.7813,248.0625)"
           id="g60"><path
             id="path62"
             style="fill:#000000;fill-opacity:1;fill-rule:nonzero;stroke:none"
             d="m 0,0 -5.329,0.007 c -1.234,0 -2.063,1.01 -1.84,2.244 l 1.152,6.332 c 0.222,1.234 -0.607,2.244 -1.84,2.244 h -17.054 c -1.235,0 -2.426,-1.01 -2.648,-2.244 L -28.721,2.24 C -28.944,1.008 -30.134,0 -31.367,0 l -16.731,0.005 c -1.235,0 -2.063,1.01 -1.84,2.244 l 1.137,6.334 c 0.222,1.234 -0.606,2.244 -1.84,2.244 h -16.156 c -1.235,0 -2.426,-1.01 -2.648,-2.244 L -70.584,2.248 C -70.807,1.014 -71.998,0.005 -73.231,0.005 L -82.954,0 c -1.234,0 -2.425,-1.01 -2.647,-2.244 l -2.64,-14.377 c -0.222,-1.234 0.606,-2.244 1.84,-2.244 h 9.801 c 1.22,-0.014 2.037,-1.016 1.816,-2.241 l -3.457,-19.228 c -0.222,-1.234 0.606,-2.244 1.84,-2.244 h 16.156 c 1.235,0 2.426,1.01 2.648,2.244 l 3.46,19.245 c 0.223,1.204 1.368,2.186 2.573,2.224 h 48.117 c 1.234,0 2.425,1.01 2.647,2.244 L 1.84,-2.244 C 2.063,-1.01 1.234,0 0,0" /></g><g
           transform="translate(214.79,237.2207)"
           id="g64"><path
             id="path66"
             style="fill:#000000;fill-opacity:1;fill-rule:nonzero;stroke:none"
             d="m 0,0 c -6.761,0 -12.446,4.601 -14.1,10.842 l -9.824,0.007 c -1.217,0 -2.034,0.982 -1.845,2.192 l 1.14,6.384 c 0.222,1.234 -0.607,2.244 -1.841,2.244 h -18.848 c -1.235,0 -2.426,-1.01 -2.648,-2.244 l -1.133,-6.339 c -0.222,-1.234 -1.414,-2.244 -2.648,-2.244 h -28.137 c -1.234,0 -2.426,-1.01 -2.648,-2.244 l -2.64,-14.377 c -0.222,-1.235 0.606,-2.244 1.84,-2.244 l 28.219,-0.009 c 1.235,0 2.063,-1.01 1.841,-2.243 l -9.606,-53.851 c -0.222,-1.234 0.607,-2.244 1.841,-2.244 h 18.849 c 1.233,0 2.425,1.01 2.647,2.244 l 9.614,53.869 c 0.224,1.222 1.398,2.22 2.62,2.234 h 26.929 c 1.234,0 2.425,1.009 2.648,2.244 L 3.405,0.404 C 2.312,0.142 1.173,0 0,0" /></g><g
           transform="translate(214.79,246.1821)"
           id="g68"><path
             id="path70"
             style="fill:#000000;fill-opacity:1;fill-rule:nonzero;stroke:none"
             d="m 0,0 c -3.107,0 -5.626,2.519 -5.626,5.626 0,3.108 2.519,5.627 5.626,5.627 3.107,0 5.626,-2.519 5.626,-5.627 C 5.626,2.519 3.107,0 0,0 m 0,16.804 c -6.173,0 -11.177,-5.005 -11.177,-11.178 0,-6.172 5.004,-11.176 11.177,-11.176 6.173,0 11.177,5.004 11.177,11.176 0,6.173 -5.004,11.178 -11.177,11.178" /></g></g></g></g></svg>