<svg id="レイヤー_1" data-name="レイヤー 1" xmlns="http://www.w3.org/2000/svg" viewBox="0 0 936.88 305"><defs><style>.cls-1{fill:#f5e929;}.cls-2{fill:#231815;}.cls-3{fill:#2096d5;}.cls-4{fill:#fff100;}.cls-5{fill:#00a0e9;}.cls-6{fill:#e4007f;}</style></defs><title>about_c</title><rect class="cls-1" x="3.25" y="4.78" width="316" height="72"/><path class="cls-2" d="M321.25,78.78H1.25v-76h320Zm-316-4h312v-68H5.25Z"/><path class="cls-2" d="M81.15,59.91h4.58a4,4,0,0,0,3.73-2.57l2.31-6H102l2.26,6a4,4,0,0,0,3.71,2.57h5.58a4,4,0,0,0,2.67-1,3.85,3.85,0,0,0,2.63,1h10.35a41.51,41.51,0,0,0,8.33-.59,13.21,13.21,0,0,0,5.85-2.83,11.38,11.38,0,0,0,3.77-5.78,18.07,18.07,0,0,0,28.4,5.51,19.54,19.54,0,0,0,1.82-1.82,20.32,20.32,0,0,0,3.3-5.82,15.94,15.94,0,0,0,3.45,7.26c2.84,3.25,7.06,4.9,12.55,4.9,6.42,0,11.33-2.79,14.19-8.06,1.35-2.49,2-6.15,2-11.17v-12a3.22,3.22,0,0,0,.76.08h9.2V55.91a4,4,0,0,0,4,4H232a4,4,0,0,0,4-4V29.54h9.22a4,4,0,0,0,4-4h0v-4a4,4,0,0,0-4-4H213.58a4.05,4.05,0,0,0-2.38.8,4,4,0,0,0-2.39-.8h-4.6a4,4,0,0,0-4,4V42.29c0,3.86-.72,5.26-1,5.68a3.46,3.46,0,0,1-2.63.81c-1.78,0-2.17-.55-2.31-.76-.3-.42-1-1.82-1-5.6V21.58a4,4,0,0,0-4-4H184a4,4,0,0,0-4,4v5.81a20,20,0,0,0-2.67-4.31,18.47,18.47,0,0,0-26.05-1.78,20.05,20.05,0,0,0-1.79,1.78,20.62,20.62,0,0,0-3.56,6.52h0c0-4.47-2.08-12-16-12H118.8a4,4,0,0,0-4,4V48.3L103.73,20.11A4,4,0,0,0,100,17.58H94.73A4,4,0,0,0,91,20.11L77.43,54.44a4,4,0,0,0,2.25,5.19A3.84,3.84,0,0,0,81.15,59.91Zm78.74-29.36a4.24,4.24,0,0,1,5.91-1.08,4.47,4.47,0,0,1,1.09,1.08c1.16,1.76,1.74,4.51,1.74,8.17s-.58,6.43-1.74,8.19A4.25,4.25,0,0,1,161,48a4.15,4.15,0,0,1-1.1-1.11c-1.15-1.76-1.74-4.52-1.74-8.2S158.73,32.31,159.89,30.55Zm-15.09,4a32.13,32.13,0,0,0-.27,4.15v.16a14.42,14.42,0,0,0-1.64-1.49,11.41,11.41,0,0,0,1.91-2.79Zm-16.72-5a17.78,17.78,0,0,1,4.47.51v.42c0,1.24-2.51,1.69-4.49,1.85Zm0,14.25a11,11,0,0,1,4.65,1.29c1.3.79,1.3,1.43,1.3,1.85a4,4,0,0,1,0,.49,16,16,0,0,1-5.11.52h-.76ZM96.83,38.16l.46,1.2h-.92Z"/><path class="cls-3" d="M81.15,55.91,94.73,21.58H100l13.5,34.33h-5.58l-3.18-8.59H89l-3.26,8.59Zm9.41-12.55h12.55l-6.3-16.45Z"/><path class="cls-3" d="M118.8,55.91V21.58h11.07q12,0,12,8a7.41,7.41,0,0,1-2.07,5.26,11.47,11.47,0,0,1-5.74,3.07q9.54,2,9.55,9.07a7.82,7.82,0,0,1-2.81,6.37,9.34,9.34,0,0,1-4.15,2,39.2,39.2,0,0,1-7.49.5Zm5.28-19.48h1.84q10.63,0,10.64-5.94c0-1.94-.68-3.26-2.05-3.94s-4-1-8-1H124Zm0,15.52h4.76c3.48,0,5.87-.35,7.17-1.07a4.06,4.06,0,0,0,2-3.94,6,6,0,0,0-3.28-5.27q-3.22-2-8.78-2H124Z"/><path class="cls-3" d="M148.53,38.73q0-8.22,4-13.1A14.46,14.46,0,0,1,173,24.39a16.26,16.26,0,0,1,1.25,1.24q4,4.89,4,13.1t-4,13.12a14.45,14.45,0,0,1-20.4,1.28,12.79,12.79,0,0,1-1.27-1.28Q148.54,47,148.53,38.73Zm5.62,0q0,6.75,2.39,10.39a8.23,8.23,0,0,0,11.4,2.29,8.32,8.32,0,0,0,2.29-2.29q2.42-3.63,2.41-10.39t-2.41-10.37a8.24,8.24,0,0,0-11.42-2.26,8.11,8.11,0,0,0-2.26,2.26Q154.15,32,154.15,38.73Z"/><path class="cls-3" d="M184,21.58h5.28V42.42c0,3.64.57,6.28,1.72,7.91s3,2.45,5.58,2.45c2.72,0,4.67-.81,5.87-2.45s1.78-4.3,1.78-8V21.58h4.6V41.51q0,6.45-1.52,9.26-3.24,6-10.68,6-6.45,0-9.54-3.54T184,42.37Z"/><path class="cls-3" d="M226.78,55.91V25.54h-13.2v-4h31.69v4H232.05V55.91Z"/><path class="cls-2" d="M49.93,222.91v-94H74.18a4.25,4.25,0,0,0,4.25-4.25v-10.5a4.25,4.25,0,0,0-4.25-4.25H35.48a4.25,4.25,0,0,0-4.25,4.25V222.91a4.25,4.25,0,0,0,4.25,4.25h10.2A4.25,4.25,0,0,0,49.93,222.91Z"/><path class="cls-2" d="M420.48,248.56V139.66a4.25,4.25,0,0,0-4.25-4.25H406a4.25,4.25,0,0,0-4.25,4.25V233.8H377.53a4.26,4.26,0,0,0-4.25,4.26v10.5a4.26,4.26,0,0,0,4.25,4.25h38.7A4.25,4.25,0,0,0,420.48,248.56Z"/><path class="cls-2" d="M530.38,183.37c2.44,2.54,3.53,6.24,3.35,11.32-.64,15.84-21.74,23.21-35.8,23.21h-8.85a4.25,4.25,0,0,0-4.25,4.26v11.1a4.25,4.25,0,0,0,4.25,4.25h8.85c39.51,0,55.22-25.88,55.84-42.2.37-10.26-2.54-18.67-8.63-25-7.28-7.53-18.83-11.51-33.41-11.51h-45a4.25,4.25,0,0,0-4.25,4.25V174a4.25,4.25,0,0,0,4.25,4.25h45C521,178.26,527.06,179.93,530.38,183.37Z"/><path class="cls-2" d="M632.32,194.42c-2.05,14.82.87,27.26,8.46,36,7.91,9.07,20.65,13.87,36.85,13.87,2.49,0,6.4-.15,11.93-.46a4.25,4.25,0,0,0,4-4.24V229.21a4.26,4.26,0,0,0-4.26-4.26l-.36,0c-5,.43-9.4.58-11,.58-9.68,0-17.07-2.63-21.38-7.61-4.11-4.76-5.55-11.66-4.26-20.51,2.18-14.75,14-29.49,22.57-40.26,2.55-3.19,4.82-6,6.66-8.61h20.56a4.25,4.25,0,0,0,4.26-4.25V134a4.25,4.25,0,0,0-4.26-4.25H605.18a4.25,4.25,0,0,0-4.25,4.25v10.35a4.23,4.23,0,0,0,4.25,4.25l52.35-.13C644.71,164.48,634.71,177.5,632.32,194.42Z"/><rect class="cls-2" x="792.32" y="218.95" width="25.15" height="25.9" rx="4.25" ry="4.25"/><path class="cls-2" d="M848.38,149.86c0-21.14-16.62-35.9-40.4-35.9-25.2,0-41.83,16.65-43.4,43.45a4.24,4.24,0,0,0,4.25,4.5H782a4.26,4.26,0,0,0,4.25-4.09c.26-7.16,2.9-23.81,21.55-23.81,5.75,0,19.14,1.55,19.14,15.85,0,6.64-2.69,11.39-9.06,15.92-6.7,4.91-14.22,10.84-18.78,19.12-4,7.5-4.86,17.55-4.86,24.66a4.25,4.25,0,0,0,4.26,4.25h12.9a4.25,4.25,0,0,0,4.25-4.25c0-4.64.12-9.54,1.56-13.91,1.88-5.14,5.55-9.39,11.89-13.79C842.08,173,848.38,162.5,848.38,149.86Z"/><polygon class="cls-4" points="130.69 124.96 115.78 124.96 108.41 124.96 108.41 141.52 130.69 141.52 130.69 133.77 130.69 124.96"/><path class="cls-2" d="M130.69,143H108.41a1.47,1.47,0,0,1-1.48-1.47V125a1.47,1.47,0,0,1,1.48-1.47h22.28a1.47,1.47,0,0,1,1.48,1.47v16.56A1.47,1.47,0,0,1,130.69,143Zm-20.81-3h19.34v-13.6H109.88Z"/><polygon class="cls-4" points="130.69 157.87 97.07 157.87 89.7 157.87 89.7 172.75 115.08 172.75 115.08 236.85 130.69 236.85 130.69 229.1 130.69 157.87"/><path class="cls-2" d="M130.69,238.32H115.08a1.47,1.47,0,0,1-1.48-1.47V174.23H89.7a1.48,1.48,0,0,1-1.48-1.48V157.87a1.48,1.48,0,0,1,1.48-1.48h41a1.48,1.48,0,0,1,1.48,1.48v79A1.47,1.47,0,0,1,130.69,238.32Zm-14.14-2.95h12.67v-76h-38v11.94h23.91a1.47,1.47,0,0,1,1.47,1.47Z"/><path class="cls-4" d="M252.13,185.44q0-13.17-8-21.06t-21.44-7.89q-15.45,0-25.78,10.41v-9H182.18v79H196.9V193.9q0-11,6.63-17.73a21.63,21.63,0,0,1,3.95-3.17,24.72,24.72,0,0,1,13.5-3.58q7.8,0,12.12,3.94t4.31,10.94v52.55h14.72V185.44Z"/><path class="cls-2" d="M252.13,238.32H237.41a1.47,1.47,0,0,1-1.48-1.47V184.3c0-4.27-1.25-7.49-3.83-9.85s-6.32-3.56-11.12-3.56a23.37,23.37,0,0,0-12.71,3.36,20.51,20.51,0,0,0-3.69,2.95c-4.11,4.2-6.2,9.82-6.2,16.7v42.95a1.47,1.47,0,0,1-1.48,1.47H182.18a1.47,1.47,0,0,1-1.48-1.47v-79a1.48,1.48,0,0,1,1.48-1.48H196.9a1.48,1.48,0,0,1,1.48,1.48v5.66c6.7-5.66,14.86-8.52,24.31-8.52s16.86,2.8,22.46,8.31,8.46,13,8.46,22.12v51.41A1.47,1.47,0,0,1,252.13,238.32Zm-13.25-2.95h11.77V185.44c0-8.33-2.54-15.06-7.57-20S231.19,158,222.69,158c-9.85,0-18.18,3.36-24.74,10a1.48,1.48,0,0,1-2.52-1v-7.56H183.65v76h11.78V193.9c0-7.69,2.37-14,7-18.76a23.25,23.25,0,0,1,4.21-3.39A26.31,26.31,0,0,1,221,167.94c5.56,0,10,1.46,13.11,4.34s4.79,6.95,4.79,12Z"/><path class="cls-4" d="M346.81,219a33.87,33.87,0,0,1-8.83,4.44,28.74,28.74,0,0,1-9.31,1.83q-5.54,0-8.54-3.7t-3-10.46V169.82h29.69V157H317.12V136.56H302.4V157H286.05v12.85H302.4v39.86q0,14,6.62,21.27t19.32,7.28q11.39,0,18.47-4.64V219Z"/><path class="cls-2" d="M328.34,239.71c-8.85,0-15.72-2.62-20.41-7.77s-7-12.59-7-22.26V171.3H286.05a1.47,1.47,0,0,1-1.48-1.47V157a1.47,1.47,0,0,1,1.48-1.47h14.87V136.55a1.49,1.49,0,0,1,1.48-1.48h0l14.72,0a1.47,1.47,0,0,1,1.47,1.47V155.5h28.22a1.47,1.47,0,0,1,1.47,1.47v12.86a1.47,1.47,0,0,1-1.47,1.47H318.59v39.84c0,4.14.9,7.34,2.68,9.53s4.15,3.15,7.4,3.15a27.38,27.38,0,0,0,8.82-1.75,32.51,32.51,0,0,0,8.45-4.23,1.47,1.47,0,0,1,2.34,1.19v14.56a1.47,1.47,0,0,1-.67,1.24C342.67,238.06,336.19,239.71,328.34,239.71Zm-40.82-71.36H302.4a1.47,1.47,0,0,1,1.47,1.48v39.85c0,8.91,2.1,15.73,6.25,20.28s10.23,6.8,18.22,6.8c6.91,0,12.62-1.34,17-4v-11a38.86,38.86,0,0,1-6.86,3.11c-8.88,3.1-15.61,2.44-19.49-2.33-2.21-2.73-3.34-6.56-3.34-11.39V169.83a1.48,1.48,0,0,1,1.48-1.48h28.21v-9.9H317.12a1.48,1.48,0,0,1-1.48-1.48V138H303.87V157a1.47,1.47,0,0,1-1.47,1.48H287.52Z"/><path class="cls-5" d="M328.67,225.3a28.74,28.74,0,0,0,9.31-1.83,33.87,33.87,0,0,0,8.83-4.44l7.37-7.74a33.64,33.64,0,0,1-8.82,4.43,28.79,28.79,0,0,1-9.32,1.83q-5.52,0-8.54-3.7l-7.37,7.75Q323.13,225.29,328.67,225.3Z"/><path class="cls-2" d="M328.67,226.77c-4.14,0-7.4-1.43-9.69-4.24a1.48,1.48,0,0,1,.08-1.95l7.37-7.75a1.48,1.48,0,0,1,1.13-.45,1.46,1.46,0,0,1,1.09.54c1.72,2.12,4.14,3.16,7.39,3.16a27.39,27.39,0,0,0,8.83-1.75,32.82,32.82,0,0,0,8.45-4.23,1.46,1.46,0,0,1,2,.22,1.48,1.48,0,0,1,0,2l-7.37,7.74a1.18,1.18,0,0,1-.21.18,35.63,35.63,0,0,1-9.2,4.63A30.32,30.32,0,0,1,328.67,226.77Zm-6.51-5.17c3.16,2.88,8.43,2.88,15.33.47a32.45,32.45,0,0,0,8.34-4.15L347,216.7l-1.15.42c-8.06,2.81-14.36,2.54-18.34-1.12Z"/><polygon class="cls-5" points="108.41 124.96 115.78 124.96 130.69 124.96 138.07 117.22 115.78 117.22 108.41 124.96"/><path class="cls-2" d="M130.69,126.44H108.41a1.47,1.47,0,0,1-1.07-2.49l7.37-7.75a1.5,1.5,0,0,1,1.07-.46h22.29a1.49,1.49,0,0,1,1.07,2.5L131.76,126A1.48,1.48,0,0,1,130.69,126.44Zm-18.84-3h18.21l4.57-4.8H116.41Z"/><polygon class="cls-5" points="196.9 157.87 204.28 150.12 189.56 150.12 182.18 157.87 189.56 157.87 196.9 157.87"/><path class="cls-2" d="M196.9,159.34H182.18a1.47,1.47,0,0,1-1.07-2.49l7.38-7.74a1.44,1.44,0,0,1,1.07-.46h14.72a1.48,1.48,0,0,1,1.07,2.49L198,158.89A1.49,1.49,0,0,1,196.9,159.34Zm-11.28-3h10.65l4.57-4.79H190.19Z"/><polygon class="cls-5" points="89.7 157.87 97.07 157.87 130.69 157.87 138.07 150.12 97.07 150.12 89.7 157.87"/><path class="cls-2" d="M130.69,159.34h-41a1.47,1.47,0,0,1-1.07-2.49L96,149.11a1.42,1.42,0,0,1,1.06-.46h41a1.48,1.48,0,0,1,1.07,2.49l-7.38,7.75A1.47,1.47,0,0,1,130.69,159.34Zm-37.55-3h36.92l4.57-4.79H97.71Z"/><polygon class="cls-5" points="302.4 156.97 302.4 149.23 293.42 149.23 286.05 156.97 293.42 156.97 302.4 156.97"/><path class="cls-2" d="M302.4,158.45H286.05A1.47,1.47,0,0,1,285,156l7.37-7.75a1.5,1.5,0,0,1,1.07-.46h9a1.47,1.47,0,0,1,1.47,1.48V157A1.47,1.47,0,0,1,302.4,158.45Zm-12.91-2.95h11.43v-4.8h-6.86Z"/><polygon class="cls-5" points="317.12 136.56 324.49 128.82 309.77 128.8 302.4 136.55 309.77 136.56 317.12 136.56"/><path class="cls-2" d="M317.12,138h0l-14.73,0a1.47,1.47,0,0,1-1.06-2.49l7.37-7.74a1.46,1.46,0,0,1,1.07-.46H324.5a1.47,1.47,0,0,1,1.06,2.49l-7.37,7.75A1.5,1.5,0,0,1,317.12,138Zm-11.28-3h10.64l4.57-4.8H310.41Z"/><polygon class="cls-5" points="346.81 156.97 354.18 149.23 324.49 149.23 317.12 156.97 346.81 156.97"/><path class="cls-2" d="M346.81,158.45H317.12a1.47,1.47,0,0,1-1.07-2.49l7.37-7.75a1.5,1.5,0,0,1,1.07-.46h29.69a1.48,1.48,0,0,1,1.07,2.5L347.88,158A1.5,1.5,0,0,1,346.81,158.45Zm-26.25-2.95h25.61l4.57-4.8H325.13Z"/><path class="cls-5" d="M251.49,156.63q-8-7.89-21.43-7.89-15.45,0-25.78,10.41l-7.38,7.75q10.33-10.41,25.78-10.41,13.42,0,21.44,7.89t8,21.06l7.38-7.74Q259.51,164.52,251.49,156.63Z"/><path class="cls-2" d="M252.13,186.92a1.54,1.54,0,0,1-.55-.11,1.48,1.48,0,0,1-.93-1.37c0-8.33-2.54-15.06-7.57-20S231.19,158,222.69,158c-9.85,0-18.18,3.36-24.74,10a1.48,1.48,0,0,1-2.12-2.06l7.38-7.75c7.16-7.22,16.19-10.86,26.85-10.86,9.31,0,16.87,2.79,22.47,8.31h0c5.61,5.52,8.45,13,8.45,22.12a1.45,1.45,0,0,1-.4,1l-7.38,7.75A1.48,1.48,0,0,1,252.13,186.92ZM222.69,155c9.3,0,16.86,2.8,22.46,8.31,4.87,4.8,7.66,11,8.31,18.59l4.57-4.8c-.12-8.06-2.66-14.6-7.57-19.43h0c-5-5-11.9-7.46-20.4-7.46a33.74,33.74,0,0,0-22,7.46A38.88,38.88,0,0,1,222.69,155Z"/><polygon class="cls-6" points="130.69 133.77 130.69 141.52 138.07 133.77 138.07 117.22 130.69 124.96 130.69 133.77"/><path class="cls-2" d="M130.69,143a1.52,1.52,0,0,1-.55-.1,1.48,1.48,0,0,1-.92-1.37V125a1.46,1.46,0,0,1,.4-1L137,116.2a1.48,1.48,0,0,1,1.62-.35,1.47,1.47,0,0,1,.92,1.37v16.55a1.47,1.47,0,0,1-.4,1l-7.38,7.75A1.49,1.49,0,0,1,130.69,143Zm1.48-17.44v12.28l4.42-4.65V120.91Z"/><path class="cls-6" d="M196.9,193.9v42.95l7.38-7.75V186.16a26.07,26.07,0,0,1,3.2-13.16,21.63,21.63,0,0,0-3.95,3.17Q196.9,182.92,196.9,193.9Z"/><path class="cls-2" d="M196.9,238.32a1.52,1.52,0,0,1-.55-.1,1.48,1.48,0,0,1-.92-1.37V193.9c0-7.69,2.37-14,7-18.76a23.25,23.25,0,0,1,4.21-3.39,1.48,1.48,0,0,1,2.07,2,24.84,24.84,0,0,0-3,12.43V229.1a1.47,1.47,0,0,1-.4,1L198,237.86A1.46,1.46,0,0,1,196.9,238.32ZM203.84,178c-3.63,4.1-5.46,9.44-5.46,15.9v39.26l4.42-4.65V186.16A30.85,30.85,0,0,1,203.84,178Z"/><polygon class="cls-6" points="196.9 166.9 204.28 159.15 204.28 150.12 196.9 157.87 196.9 166.9"/><path class="cls-2" d="M196.9,168.37a1.52,1.52,0,0,1-.55-.1,1.48,1.48,0,0,1-.92-1.37v-9a1.49,1.49,0,0,1,.4-1l7.38-7.74a1.47,1.47,0,0,1,2.54,1v9a1.47,1.47,0,0,1-.4,1L198,167.91A1.46,1.46,0,0,1,196.9,168.37Zm1.48-9.91v4.75l4.42-4.65v-4.75Z"/><polygon class="cls-6" points="130.69 229.1 130.69 236.85 138.07 229.1 138.07 150.12 130.69 157.87 130.69 229.1"/><path class="cls-2" d="M130.69,238.32a1.52,1.52,0,0,1-.55-.1,1.48,1.48,0,0,1-.92-1.37v-79a1.49,1.49,0,0,1,.4-1l7.38-7.74a1.47,1.47,0,0,1,2.54,1v79a1.47,1.47,0,0,1-.4,1l-7.38,7.74A1.46,1.46,0,0,1,130.69,238.32Zm1.48-79.86v74.7l4.42-4.65v-74.7Z"/><polygon class="cls-6" points="346.81 229.1 346.81 233.59 354.18 225.85 354.18 211.29 346.81 219.03 346.81 229.1"/><path class="cls-2" d="M346.81,235.07a1.5,1.5,0,0,1-.55-.11,1.47,1.47,0,0,1-.93-1.37V219a1.47,1.47,0,0,1,.41-1l7.37-7.75a1.5,1.5,0,0,1,1.62-.35,1.48,1.48,0,0,1,.93,1.37v14.56a1.5,1.5,0,0,1-.41,1l-7.37,7.74A1.49,1.49,0,0,1,346.81,235.07Zm1.47-15.45v10.29l4.43-4.65V215Z"/><path class="cls-6" d="M317.12,169.82v41.32q0,6.77,3,10.46l7.37-7.75q-3-3.71-3-10.45V169.82Z"/><path class="cls-2" d="M320.13,223.07h-.06a1.53,1.53,0,0,1-1.09-.54c-2.21-2.73-3.34-6.56-3.34-11.39V169.83a1.48,1.48,0,0,1,1.48-1.48h7.37a1.48,1.48,0,0,1,1.48,1.48V203.4c0,4.13.9,7.33,2.68,9.52a1.48,1.48,0,0,1-.08,2l-7.37,7.74A1.46,1.46,0,0,1,320.13,223.07Zm-1.54-51.77v39.84a16.68,16.68,0,0,0,1.73,8.11l5.27-5.53c-1.71-2.62-2.57-6.09-2.57-10.32V171.3Z"/><polygon class="cls-6" points="346.81 162.08 346.81 169.82 354.18 162.08 354.18 149.23 346.81 156.97 346.81 162.08"/><path class="cls-2" d="M346.81,171.3a1.46,1.46,0,0,1-1.48-1.47V157a1.46,1.46,0,0,1,.41-1l7.37-7.75a1.48,1.48,0,0,1,2.55,1v12.85a1.5,1.5,0,0,1-.41,1l-7.37,7.74A1.49,1.49,0,0,1,346.81,171.3Zm1.47-13.74v8.58l4.43-4.65v-8.57Z"/><polygon class="cls-6" points="317.12 156.97 324.49 149.23 324.49 128.82 317.12 136.56 317.12 156.97"/><path class="cls-2" d="M317.12,158.45a1.5,1.5,0,0,1-.55-.11,1.47,1.47,0,0,1-.93-1.37V136.56a1.5,1.5,0,0,1,.41-1l7.37-7.74a1.49,1.49,0,0,1,1.62-.35,1.47,1.47,0,0,1,.93,1.37v20.41a1.5,1.5,0,0,1-.41,1L318.19,158A1.49,1.49,0,0,1,317.12,158.45Zm1.47-21.3v16.14l4.43-4.65V132.5Z"/><polygon class="cls-6" points="252.13 185.44 252.13 229.1 252.13 236.85 259.51 229.1 259.51 177.7 252.13 185.44"/><path class="cls-2" d="M252.13,238.32a1.52,1.52,0,0,1-.55-.1,1.49,1.49,0,0,1-.93-1.37V185.44a1.5,1.5,0,0,1,.41-1l7.38-7.74a1.48,1.48,0,0,1,2.54,1v51.4a1.47,1.47,0,0,1-.4,1l-7.38,7.74A1.48,1.48,0,0,1,252.13,238.32ZM253.61,186v47.13l4.42-4.65V181.38Z"/><path class="cls-4" d="M45.68,222.91H35.48V114.16h38.7v10.5H45.68Z"/><path class="cls-4" d="M377.53,238.06H406v-98.4h10.2v108.9h-38.7Z"/><path class="cls-4" d="M549.52,195.16c-.6,15.75-16.35,38.1-51.59,38.1h-8.85v-11.1h8.85c16.35,0,39.29-8.55,40-27.3.61-16.2-10.49-20.85-26.24-20.85h-45V163.06h45C535.42,163.06,550.27,174,549.52,195.16Z"/><path class="cls-4" d="M648.08,196.81c-3.15,21.6,8.85,33,29.84,33,1.66,0,6.16-.15,11.4-.6v10.35q-8.1.45-11.69.45c-29.85,0-45-16.8-41.1-45,2.55-18,14.25-31.2,29.85-50.85l-61.2.15V134h96.89v10.35H679.28C671.78,155.71,651.23,175.51,648.08,196.81Z"/><path class="cls-4" d="M808,118.21c19.19,0,36.15,11,36.15,31.65,0,12.75-7.36,21.6-17.4,28.5-5.85,4-11,8.85-13.5,15.9-1.65,5-1.8,10.2-1.8,15.3h-12.9c0-7.2.9-16.2,4.35-22.65,4-7.35,10.8-12.75,17.55-17.7s10.79-10.65,10.79-19.35c0-14.1-10.79-20.1-23.39-20.1-16.8,0-25.2,11.85-25.8,27.9h-13.2C770.18,134.56,783.68,118.21,808,118.21Zm-11.4,105h16.65v17.4H796.58Z"/></svg>