<?xml version="1.0" encoding="UTF-8" standalone="no"?>
<!DOCTYPE svg PUBLIC "-//W3C//DTD SVG 1.1//EN" "http://www.w3.org/Graphics/SVG/1.1/DTD/svg11.dtd">
<svg version="1.1" xmlns="http://www.w3.org/2000/svg" xmlns:xlink="http://www.w3.org/1999/xlink" preserveAspectRatio="xMidYMid meet" viewBox="-7.063291139240507 243.07341772151898 655.1265822784811 154.87341772151905" width="650.13" height="149.87"><defs><path d="M570.13 245.07C611.51 245.07 645.06 278.62 645.06 320.01C645.06 320.01 645.06 320.01 645.06 320.01C645.06 361.4 611.51 394.95 570.13 394.95C570.13 394.95 570.13 394.95 570.13 394.95C520.1 394.95 119.9 394.95 69.87 394.95C28.49 394.95 -5.06 361.4 -5.06 320.01C-5.06 320.01 -5.06 320.01 -5.06 320.01C-5.06 278.62 28.49 245.07 69.87 245.07C169.92 245.07 520.1 245.07 570.13 245.07Z" id="c4aOhLUSXK"></path><path d="M322.73 274.2L324.16 274.32L325.59 274.5L327 274.74L328.41 275.03L329.81 275.37L331.19 275.77L332.57 276.22L333.92 276.72L335.26 277.28L336.58 277.89L337.88 278.56L339.15 279.28L340.41 280.05L341.63 280.88L342.83 281.75L344 282.69L345.14 283.67L346.25 284.71L347.32 285.8L348.35 286.94L348.51 287.14L348.67 287.34L348.83 287.54L348.98 287.75L349.14 287.95L349.29 288.16L349.44 288.36L349.59 288.57L349.74 288.78L349.89 288.99L350.04 289.2L350.18 289.41L350.32 289.62L350.47 289.84L350.61 290.05L350.75 290.27L350.89 290.48L351.02 290.7L351.16 290.92L351.29 291.13L351.43 291.35L351.56 291.57L351.69 291.79L351.82 292.01L351.94 292.24L352.07 292.46L352.19 292.68L352.32 292.91L352.44 293.13L352.56 293.36L352.68 293.59L352.79 293.82L352.91 294.04L353.02 294.27L353.14 294.5L353.25 294.74L353.36 294.97L353.47 295.2L353.58 295.43L353.68 295.67L353.68 283.9L353.69 283.56L353.71 283.23L353.74 282.91L353.79 282.58L353.85 282.27L353.92 281.95L354 281.64L354.09 281.34L354.2 281.04L354.32 280.75L354.45 280.46L354.59 280.18L354.73 279.9L354.89 279.63L355.06 279.37L355.24 279.11L355.43 278.87L355.63 278.63L355.84 278.39L356.05 278.17L356.28 277.95L356.51 277.75L356.75 277.55L357 277.36L357.25 277.18L357.51 277.01L357.78 276.85L358.06 276.7L358.34 276.56L358.63 276.43L358.92 276.32L359.22 276.21L359.53 276.12L359.84 276.03L360.15 275.96L360.47 275.9L360.79 275.86L361.12 275.82L361.45 275.8L361.78 275.8L372.46 275.8L372.79 275.8L373.12 275.82L373.45 275.86L373.77 275.9L374.09 275.96L374.4 276.03L374.71 276.12L375.02 276.21L375.32 276.32L375.61 276.43L375.9 276.56L376.18 276.7L376.45 276.85L376.72 277.01L376.99 277.18L377.24 277.36L377.49 277.55L377.73 277.75L377.96 277.95L378.18 278.17L378.4 278.39L378.61 278.63L378.8 278.87L378.99 279.11L379.17 279.37L379.34 279.63L379.5 279.9L379.65 280.18L379.79 280.46L379.92 280.75L380.04 281.04L380.14 281.34L380.24 281.64L380.32 281.95L380.39 282.27L380.45 282.58L380.5 282.91L380.53 283.23L380.55 283.56L380.56 283.9L380.56 326.11L380.56 326.67L380.57 327.22L380.58 327.75L380.6 328.26L380.62 328.76L380.65 329.24L380.68 329.7L380.71 330.14L380.75 330.57L380.79 330.99L380.83 331.39L380.88 331.77L380.93 332.14L380.98 332.49L381.04 332.83L381.09 333.16L381.15 333.47L381.22 333.77L381.28 334.06L381.34 334.33L381.41 334.59L381.47 334.84L381.54 335.07L381.61 335.29L381.67 335.5L381.74 335.7L381.81 335.89L381.88 336.07L381.94 336.24L382.01 336.39L382.07 336.54L382.14 336.68L382.2 336.8L382.26 336.92L382.32 337.03L382.38 337.13L382.43 337.22L382.49 337.31L382.54 337.38L382.58 337.45L382.6 337.48L382.63 337.52L382.66 337.55L382.68 337.59L382.72 337.64L382.75 337.68L382.79 337.72L382.83 337.77L382.88 337.82L382.93 337.87L382.98 337.92L383.04 337.97L383.1 338.02L383.17 338.07L383.24 338.12L383.31 338.17L383.4 338.23L383.48 338.28L383.58 338.33L383.68 338.38L383.78 338.43L383.89 338.47L384.01 338.52L384.14 338.57L384.27 338.61L384.41 338.66L384.56 338.7L384.71 338.74L384.88 338.77L385.05 338.81L385.23 338.84L385.42 338.87L385.61 338.89L385.82 338.92L386.04 338.94L386.26 338.96L386.5 338.97L386.74 338.98L387 338.99L387.26 338.99L387.41 339L387.55 339.01L387.69 339.02L387.84 339.03L387.98 339.03L388.13 339.03L388.27 339.03L388.41 339.02L388.56 339.01L388.7 339L388.84 338.98L388.98 338.97L389.12 338.94L389.26 338.92L389.4 338.89L389.54 338.86L389.68 338.83L389.82 338.8L389.96 338.76L390.09 338.72L390.23 338.68L390.36 338.63L390.5 338.58L390.63 338.53L390.76 338.48L390.89 338.42L391.02 338.36L391.15 338.3L391.28 338.23L391.4 338.16L391.53 338.09L391.65 338.02L391.77 337.95L391.9 337.87L392.01 337.79L392.13 337.7L392.25 337.62L392.36 337.53L392.48 337.44L392.59 337.35L392.63 337.28L392.68 337.2L392.73 337.12L392.78 337.03L392.84 336.93L392.89 336.82L392.95 336.7L393.02 336.57L393.08 336.44L393.14 336.29L393.21 336.13L393.27 335.96L393.34 335.79L393.41 335.6L393.48 335.39L393.55 335.18L393.61 334.96L393.68 334.72L393.75 334.47L393.81 334.21L393.88 333.93L393.94 333.64L394 333.34L394.06 333.02L394.12 332.69L394.18 332.35L394.23 331.99L394.28 331.61L394.33 331.22L394.38 330.82L394.42 330.4L394.46 329.96L394.49 329.51L394.52 329.03L394.55 328.55L394.57 328.04L394.59 327.52L394.6 326.98L394.61 326.42L394.61 325.84L394.61 283.82L394.62 283.48L394.64 283.15L394.67 282.83L394.72 282.5L394.78 282.19L394.85 281.87L394.93 281.56L395.03 281.26L395.13 280.96L395.25 280.66L395.38 280.38L395.52 280.09L395.67 279.82L395.83 279.55L396 279.29L396.18 279.03L396.36 278.79L396.56 278.55L396.77 278.31L396.99 278.09L397.21 277.87L397.44 277.67L397.68 277.47L397.93 277.28L398.18 277.1L398.45 276.93L398.72 276.77L398.99 276.62L399.27 276.48L399.56 276.35L399.85 276.24L400.15 276.13L400.46 276.03L400.77 275.95L401.08 275.88L401.4 275.82L401.72 275.78L402.05 275.74L402.38 275.72L402.71 275.72L412.03 275.72L412.16 275.72L412.29 275.72L412.42 275.72L412.55 275.73L412.68 275.74L412.81 275.75L412.94 275.76L413.07 275.78L413.2 275.8L413.32 275.82L413.45 275.84L413.58 275.86L413.71 275.89L413.83 275.91L413.96 275.94L414.08 275.98L414.21 276.01L414.33 276.05L414.45 276.08L414.58 276.12L414.7 276.17L414.82 276.21L414.94 276.26L415.06 276.3L415.18 276.35L415.3 276.41L415.41 276.46L415.53 276.52L415.65 276.57L415.76 276.63L415.87 276.7L415.99 276.76L416.1 276.82L416.21 276.89L416.32 276.96L416.43 277.03L416.53 277.11L416.64 277.18L416.75 277.26L416.85 277.34L416.96 277.26L417.06 277.18L417.17 277.11L417.28 277.04L417.38 276.97L417.49 276.9L417.61 276.83L417.72 276.76L417.83 276.7L417.94 276.64L418.06 276.58L418.17 276.52L418.29 276.47L418.41 276.41L418.53 276.36L418.65 276.31L418.76 276.26L418.89 276.22L419.01 276.17L419.13 276.13L419.25 276.09L419.37 276.05L419.5 276.02L419.62 275.98L419.75 275.95L419.87 275.92L420 275.89L420.12 275.87L420.25 275.84L420.38 275.82L420.51 275.8L420.63 275.78L420.76 275.77L420.89 275.75L421.02 275.74L421.15 275.73L421.28 275.73L421.41 275.72L421.54 275.72L421.67 275.72L485.87 275.72L486.21 275.72L486.54 275.74L486.86 275.78L487.19 275.82L487.51 275.88L487.82 275.95L488.13 276.03L488.43 276.13L488.73 276.24L489.03 276.35L489.31 276.48L489.6 276.62L489.87 276.77L490.14 276.93L490.4 277.1L490.66 277.28L490.91 277.47L491.15 277.67L491.38 277.87L491.6 278.09L491.82 278.31L492.02 278.55L492.22 278.79L492.41 279.03L492.59 279.29L492.76 279.55L492.92 279.82L493.07 280.09L493.21 280.38L493.34 280.66L493.46 280.96L493.56 281.26L493.66 281.56L493.74 281.87L493.81 282.19L493.87 282.5L493.91 282.83L493.95 283.15L493.97 283.48L493.97 283.82L493.97 291.92L493.97 292.25L493.95 292.58L493.91 292.91L493.87 293.23L493.81 293.55L493.74 293.87L493.66 294.18L493.56 294.48L493.46 294.78L493.34 295.07L493.21 295.36L493.07 295.64L492.92 295.92L492.76 296.19L492.59 296.45L492.41 296.7L492.22 296.95L492.02 297.19L491.82 297.42L491.6 297.65L491.38 297.86L491.15 298.07L490.91 298.27L490.66 298.46L490.4 298.64L490.14 298.81L489.87 298.97L489.6 299.12L489.31 299.26L489.03 299.38L488.73 299.5L488.43 299.61L488.13 299.7L487.82 299.78L487.51 299.86L487.19 299.91L486.86 299.96L486.54 299.99L486.21 300.01L485.87 300.02L467.2 300.02L467.2 353.43L467.19 353.76L467.17 354.09L467.14 354.42L467.09 354.74L467.04 355.06L466.96 355.37L466.88 355.68L466.79 355.99L466.68 356.29L466.56 356.58L466.43 356.87L466.3 357.15L466.15 357.43L465.99 357.7L465.82 357.96L465.64 358.21L465.45 358.46L465.25 358.7L465.04 358.93L464.83 359.16L464.6 359.37L464.37 359.58L464.13 359.78L463.88 359.97L463.63 360.15L463.37 360.32L463.1 360.48L462.82 360.62L462.54 360.76L462.25 360.89L461.96 361.01L461.66 361.12L461.35 361.21L461.05 361.29L460.73 361.36L460.41 361.42L460.09 361.47L459.76 361.5L459.43 361.52L459.1 361.53L448.43 361.53L448.09 361.52L447.76 361.5L447.43 361.47L447.11 361.42L446.79 361.36L446.48 361.29L446.17 361.21L445.86 361.12L445.57 361.01L445.27 360.89L444.98 360.76L444.7 360.62L444.43 360.48L444.16 360.32L443.9 360.15L443.64 359.97L443.39 359.78L443.15 359.58L442.92 359.37L442.7 359.16L442.48 358.93L442.27 358.7L442.08 358.46L441.89 358.21L441.71 357.96L441.54 357.7L441.38 357.43L441.23 357.15L441.09 356.87L440.96 356.58L440.84 356.29L440.74 355.99L440.64 355.68L440.56 355.37L440.49 355.06L440.43 354.74L440.38 354.42L440.35 354.09L440.33 353.76L440.32 353.43L440.32 300.12L421.69 300.12L421.65 300.12L421.61 300.12L421.57 300.12L421.54 300.12L421.5 300.11L421.46 300.11L421.42 300.11L421.38 300.11L421.34 300.11L421.3 300.1L421.27 300.1L421.23 300.1L421.19 300.1L421.15 300.09L421.11 300.09L421.07 300.09L421.03 300.08L421 300.08L420.96 300.08L420.92 300.07L420.88 300.07L420.84 300.06L420.8 300.06L420.76 300.05L420.73 300.05L420.69 300.04L420.65 300.04L420.61 300.03L420.57 300.03L420.53 300.02L420.5 300.02L420.46 300.01L420.42 300.01L420.38 300L420.34 299.99L420.3 299.99L420.27 299.98L420.23 299.97L420.19 299.97L420.15 299.96L420.15 324.26L420.15 325.02L420.14 325.77L420.13 326.5L420.11 327.23L420.09 327.95L420.06 328.65L420.03 329.35L419.99 330.04L419.95 330.71L419.9 331.38L419.85 332.03L419.79 332.68L419.73 333.32L419.66 333.94L419.59 334.56L419.51 335.17L419.43 335.76L419.34 336.35L419.25 336.93L419.15 337.5L419.05 338.05L418.94 338.6L418.83 339.14L418.71 339.67L418.58 340.19L418.46 340.7L418.32 341.21L418.18 341.7L418.04 342.18L417.89 342.65L417.73 343.12L417.57 343.57L417.41 344.02L417.24 344.46L417.06 344.88L416.88 345.3L416.69 345.71L416.5 346.11L416.3 346.5L416.1 346.89L415.66 347.68L415.2 348.45L414.73 349.2L414.24 349.94L413.74 350.65L413.22 351.35L412.68 352.02L412.14 352.68L411.57 353.32L411 353.94L410.4 354.54L409.8 355.12L409.18 355.68L408.54 356.22L407.89 356.74L407.23 357.24L406.55 357.72L405.86 358.19L405.15 358.63L404.44 359.05L403.7 359.45L402.96 359.83L402.2 360.2L401.43 360.54L400.64 360.86L399.84 361.16L399.03 361.44L398.21 361.7L397.37 361.94L396.52 362.16L395.66 362.36L394.79 362.54L393.9 362.69L393 362.83L392.09 362.95L391.17 363.04L390.24 363.12L389.29 363.17L388.33 363.2L387.36 363.21L386.53 363.2L385.71 363.19L384.9 363.15L384.1 363.11L383.31 363.05L382.53 362.98L381.76 362.9L381 362.81L380.25 362.7L379.51 362.59L378.78 362.45L378.06 362.31L377.34 362.15L376.64 361.99L375.95 361.81L375.27 361.61L374.6 361.41L373.93 361.19L373.28 360.96L372.64 360.72L372.01 360.46L371.39 360.19L370.78 359.91L370.17 359.62L369.58 359.32L369 359L368.43 358.67L367.87 358.33L367.32 357.98L366.78 357.61L366.25 357.24L365.73 356.85L365.22 356.44L364.72 356.03L364.23 355.6L363.75 355.16L363.29 354.71L362.83 354.25L362.38 353.77L361.94 353.29L361.68 352.97L361.42 352.64L361.17 352.32L360.92 351.99L360.67 351.66L360.43 351.33L360.2 350.99L359.96 350.65L359.74 350.31L359.51 349.96L359.29 349.61L359.08 349.26L358.87 348.91L358.66 348.56L358.46 348.2L358.27 347.84L358.07 347.48L357.89 347.11L357.7 346.74L357.52 346.37L357.35 346L357.18 345.63L357.02 345.25L356.86 344.88L356.7 344.5L356.55 344.11L356.41 343.73L356.27 343.34L356.13 342.96L356 342.57L355.87 342.18L355.75 341.78L355.63 341.39L355.52 340.99L355.42 340.59L355.31 340.19L355.22 339.79L355.13 339.39L355.04 338.99L354.96 338.58L354.84 338.9L354.72 339.22L354.59 339.54L354.47 339.86L354.34 340.17L354.21 340.49L354.08 340.8L353.94 341.11L353.8 341.42L353.66 341.73L353.51 342.04L353.37 342.35L353.22 342.65L353.07 342.96L352.91 343.26L352.76 343.56L352.6 343.86L352.44 344.16L352.27 344.46L352.11 344.75L351.94 345.05L351.77 345.34L351.59 345.64L351.42 345.93L351.24 346.22L351.06 346.5L350.87 346.79L350.69 347.07L350.5 347.36L350.31 347.64L350.12 347.92L349.92 348.2L349.72 348.48L349.52 348.75L349.32 349.02L349.12 349.3L348.91 349.57L348.7 349.84L348.49 350.1L348.27 350.37L348.19 350.47L348.1 350.56L348.02 350.66L347.93 350.76L347.84 350.85L347.75 350.95L347.67 351.05L347.58 351.14L347.49 351.24L347.4 351.33L347.31 351.43L347.23 351.52L347.14 351.61L347.05 351.71L346.96 351.8L346.87 351.89L346.77 351.99L346.68 352.08L346.59 352.17L346.5 352.26L346.41 352.35L346.32 352.45L346.22 352.54L346.13 352.63L346.04 352.72L345.95 352.81L345.85 352.9L345.76 352.99L345.66 353.08L345.57 353.16L345.47 353.25L345.38 353.34L345.28 353.43L345.19 353.52L345.09 353.6L345 353.69L344.9 353.78L344.8 353.86L344.71 353.95L344.61 354.04L343.43 355.02L342.22 355.95L340.98 356.82L339.72 357.63L338.43 358.39L337.13 359.09L335.8 359.74L334.45 360.33L333.09 360.86L331.72 361.34L330.33 361.76L328.93 362.13L327.52 362.44L326.1 362.7L324.68 362.9L323.25 363.04L321.82 363.14L320.38 363.17L318.95 363.16L317.52 363.08L316.09 362.96L314.67 362.78L313.26 362.54L311.85 362.25L310.46 361.91L309.08 361.51L307.71 361.06L306.36 360.56L305.02 360L303.7 359.39L302.41 358.72L301.13 358.01L299.88 357.24L298.66 356.41L297.46 355.54L296.3 354.61L295.16 353.63L294.05 352.59L292.98 351.51L291.95 350.37L291.81 350.2L291.67 350.02L291.53 349.85L291.39 349.67L291.26 349.5L291.12 349.32L290.99 349.14L290.85 348.96L290.72 348.78L290.59 348.6L290.46 348.42L290.33 348.24L290.2 348.06L290.07 347.88L289.95 347.69L289.82 347.51L289.7 347.33L289.57 347.14L289.45 346.95L289.33 346.77L289.21 346.58L289.09 346.39L288.97 346.2L288.86 346.01L288.74 345.82L288.63 345.63L288.51 345.44L288.4 345.25L288.29 345.06L288.18 344.86L288.07 344.67L287.96 344.47L287.85 344.28L287.74 344.08L287.64 343.89L287.53 343.69L287.43 343.49L287.33 343.29L287.23 343.1L287.13 342.9L287.03 343.24L286.93 343.58L286.82 343.92L286.7 344.26L286.59 344.59L286.46 344.93L286.33 345.26L286.2 345.59L286.06 345.92L285.92 346.24L285.77 346.56L285.61 346.88L285.46 347.2L285.29 347.51L285.13 347.82L284.95 348.13L284.78 348.44L284.59 348.74L284.41 349.04L284.22 349.34L284.02 349.63L283.82 349.93L283.62 350.21L283.41 350.5L283.2 350.78L282.98 351.06L282.76 351.34L282.53 351.61L282.3 351.88L282.06 352.15L281.83 352.41L281.58 352.67L281.34 352.92L281.08 353.17L280.83 353.42L280.57 353.66L280.31 353.9L280.04 354.14L279.77 354.37L279.49 354.6L279.23 354.82L278.97 355.03L278.71 355.23L278.44 355.44L278.17 355.64L277.9 355.83L277.62 356.02L277.35 356.21L277.07 356.4L276.79 356.58L276.51 356.76L276.22 356.94L275.94 357.11L275.65 357.28L275.36 357.44L275.06 357.6L274.77 357.76L274.47 357.91L274.17 358.06L273.87 358.21L273.57 358.35L273.27 358.49L272.96 358.62L272.66 358.76L272.35 358.88L272.04 359.01L271.73 359.13L271.41 359.24L271.1 359.36L270.78 359.46L270.46 359.57L270.14 359.67L269.82 359.77L269.5 359.86L269.18 359.95L268.85 360.03L268.53 360.11L268.2 360.19L267.87 360.27L267.54 360.33L267.13 360.4L266.71 360.47L266.29 360.54L265.87 360.6L265.45 360.66L265.04 360.72L264.62 360.78L264.2 360.84L263.78 360.89L263.36 360.94L262.94 360.99L262.52 361.04L262.1 361.08L261.68 361.13L261.25 361.17L260.83 361.21L260.41 361.24L259.99 361.28L259.57 361.31L259.15 361.34L258.73 361.37L258.3 361.4L257.88 361.42L257.46 361.45L257.04 361.47L256.62 361.48L256.19 361.5L255.77 361.52L255.35 361.53L254.92 361.54L254.5 361.55L254.08 361.55L253.66 361.56L253.23 361.56L252.81 361.56L252.39 361.56L251.96 361.55L251.54 361.55L251.12 361.54L250.69 361.53L229.71 361.53L229.56 361.53L229.42 361.52L229.27 361.52L229.13 361.51L228.98 361.49L228.83 361.48L228.69 361.46L228.55 361.44L228.4 361.42L228.26 361.39L228.12 361.36L227.97 361.33L227.83 361.3L227.69 361.27L227.55 361.23L227.41 361.19L227.27 361.14L227.14 361.1L227 361.05L226.86 361L226.73 360.95L226.6 360.89L226.46 360.84L226.33 360.78L226.2 360.71L226.07 360.65L225.94 360.58L225.81 360.51L225.69 360.44L225.56 360.37L225.44 360.29L225.32 360.21L225.19 360.13L225.07 360.05L224.96 359.96L224.84 359.88L224.72 359.79L224.61 359.69L224.5 359.6L224.38 359.5L224.27 359.6L224.16 359.7L224.04 359.79L223.92 359.88L223.81 359.97L223.69 360.06L223.56 360.14L223.44 360.22L223.32 360.3L223.19 360.38L223.06 360.45L222.93 360.52L222.81 360.59L222.67 360.66L222.54 360.73L222.41 360.79L222.28 360.85L222.14 360.91L222 360.96L221.87 361.01L221.73 361.06L221.59 361.11L221.45 361.16L221.31 361.2L221.17 361.24L221.03 361.28L220.88 361.31L220.74 361.35L220.6 361.38L220.45 361.4L220.31 361.43L220.16 361.45L220.01 361.47L219.87 361.49L219.72 361.5L219.57 361.51L219.42 361.52L219.28 361.53L219.13 361.53L218.98 361.53L207.68 361.53L207.43 361.52L207.18 361.51L206.93 361.49L206.69 361.46L206.44 361.43L206.2 361.38L205.96 361.34L205.73 361.28L205.49 361.22L205.26 361.15L205.03 361.07L204.81 360.98L204.58 360.89L204.36 360.8L204.15 360.69L203.93 360.59L203.72 360.47L203.52 360.35L203.31 360.22L203.11 360.09L202.92 359.95L202.73 359.8L202.54 359.65L202.36 359.5L202.18 359.34L202.01 359.17L201.84 359L201.68 358.82L201.52 358.64L201.37 358.45L201.22 358.26L201.08 358.06L200.95 357.86L200.81 357.65L200.69 357.44L200.57 357.23L200.46 357.01L200.35 356.78L200.25 356.56L200.16 356.32L195.58 344.17L174.97 344.17L170.29 356.32L170.2 356.56L170.1 356.79L169.99 357.01L169.88 357.23L169.76 357.45L169.63 357.66L169.5 357.86L169.36 358.07L169.22 358.26L169.07 358.46L168.92 358.65L168.76 358.83L168.6 359.01L168.43 359.18L168.26 359.35L168.08 359.51L167.89 359.66L167.71 359.81L167.52 359.96L167.32 360.1L167.12 360.23L166.92 360.36L166.71 360.48L166.5 360.6L166.28 360.71L166.06 360.81L165.84 360.9L165.62 360.99L165.39 361.08L165.16 361.15L164.93 361.22L164.69 361.29L164.45 361.34L164.21 361.39L163.97 361.43L163.73 361.47L163.48 361.49L163.23 361.51L162.98 361.52L162.73 361.53L153.46 361.53L153.38 361.53L153.31 361.53L153.23 361.52L153.15 361.52L153.08 361.52L153 361.51L152.92 361.51L152.85 361.5L152.77 361.5L152.7 361.49L152.62 361.48L152.55 361.47L152.47 361.46L152.39 361.45L152.32 361.44L152.24 361.43L152.17 361.42L152.09 361.41L152.02 361.4L151.94 361.38L151.87 361.37L151.79 361.35L151.72 361.34L151.65 361.32L151.57 361.3L151.5 361.28L151.42 361.27L151.35 361.25L151.28 361.23L151.2 361.21L151.13 361.18L151.06 361.16L150.98 361.14L150.91 361.12L150.84 361.09L150.77 361.07L150.7 361.04L150.62 361.02L150.55 360.99L150.48 360.96L150.17 360.83L149.87 360.69L149.58 360.54L149.3 360.38L149.02 360.21L148.76 360.03L148.5 359.84L148.25 359.64L148.01 359.43L147.78 359.21L147.56 358.99L147.35 358.75L147.15 358.51L146.96 358.26L146.78 358.01L146.61 357.75L146.45 357.48L146.29 357.21L146.15 356.93L146.03 356.65L145.91 356.36L145.8 356.07L145.7 355.77L145.62 355.47L145.55 355.17L145.48 354.87L145.43 354.56L145.4 354.25L145.37 353.93L145.36 353.62L145.36 353.3L145.37 352.98L145.39 352.67L145.43 352.35L145.48 352.03L145.54 351.71L145.62 351.39L145.7 351.08L145.81 350.76L145.92 350.45L173.43 280.98L173.52 280.75L173.62 280.53L173.73 280.3L173.85 280.09L173.97 279.87L174.09 279.67L174.22 279.46L174.36 279.26L174.5 279.07L174.65 278.88L174.81 278.69L174.97 278.51L175.13 278.34L175.3 278.17L175.47 278L175.65 277.84L175.83 277.69L176.02 277.54L176.21 277.4L176.41 277.26L176.61 277.13L176.81 277L177.02 276.88L177.23 276.77L177.44 276.66L177.66 276.56L177.88 276.47L178.1 276.38L178.33 276.3L178.55 276.22L178.79 276.16L179.02 276.09L179.26 276.04L179.49 275.99L179.73 275.95L179.98 275.92L180.22 275.89L180.47 275.87L180.71 275.86L180.96 275.86L191.64 275.86L191.88 275.86L192.13 275.87L192.38 275.89L192.62 275.92L192.87 275.95L193.11 275.99L193.35 276.04L193.58 276.09L193.82 276.15L194.05 276.22L194.28 276.29L194.51 276.38L194.73 276.46L194.95 276.56L195.17 276.66L195.38 276.77L195.59 276.88L195.8 277L196 277.12L196.2 277.25L196.4 277.39L196.59 277.53L196.78 277.68L196.96 277.84L197.14 278L197.31 278.16L197.48 278.33L197.65 278.51L197.81 278.69L197.96 278.87L198.11 279.06L198.25 279.26L198.39 279.46L198.52 279.66L198.65 279.87L198.77 280.09L198.89 280.3L198.99 280.53L199.09 280.75L199.19 280.98L221.61 338.02L221.61 283.94L221.62 283.61L221.64 283.27L221.67 282.95L221.72 282.63L221.77 282.31L221.85 281.99L221.93 281.68L222.02 281.38L222.13 281.08L222.25 280.79L222.38 280.5L222.51 280.22L222.66 279.94L222.82 279.67L222.99 279.41L223.17 279.15L223.36 278.91L223.56 278.67L223.77 278.43L223.98 278.21L224.21 278L224.44 277.79L224.68 277.59L224.93 277.4L225.18 277.22L225.44 277.05L225.71 276.89L225.99 276.74L226.27 276.6L226.56 276.47L226.85 276.36L227.15 276.25L227.46 276.16L227.76 276.07L228.08 276L228.4 275.94L228.72 275.9L229.05 275.86L229.38 275.84L229.71 275.84L252.35 275.84L254.42 275.87L256.41 275.95L258.3 276.09L260.11 276.27L261.84 276.51L263.49 276.8L265.06 277.12L266.55 277.5L267.97 277.91L269.31 278.36L270.58 278.85L271.79 279.38L272.92 279.93L273.99 280.52L275 281.14L275.94 281.79L276.82 282.46L277.65 283.15L278.42 283.86L279.13 284.59L279.79 285.34L280.4 286.11L280.96 286.89L281.47 287.68L281.94 288.47L282.36 289.28L282.75 290.09L283.09 290.9L283.39 291.71L283.66 292.53L283.89 293.33L284.1 294.14L284.27 294.93L284.41 295.72L284.52 296.5L284.61 297.26L284.68 298.01L284.73 298.74L284.75 299.45L284.76 300.14L284.88 299.78L285 299.42L285.13 299.07L285.26 298.71L285.39 298.35L285.52 298L285.66 297.65L285.8 297.3L285.95 296.95L286.1 296.6L286.25 296.25L286.4 295.91L286.56 295.57L286.72 295.22L286.89 294.88L287.05 294.54L287.22 294.21L287.4 293.87L287.57 293.54L287.75 293.21L287.94 292.87L288.12 292.55L288.31 292.22L288.5 291.89L288.7 291.57L288.89 291.25L289.09 290.93L289.3 290.61L289.5 290.29L289.71 289.98L289.93 289.66L290.14 289.35L290.36 289.04L290.58 288.74L290.81 288.43L291.03 288.13L291.26 287.83L291.5 287.53L291.73 287.23L291.97 286.94L292.05 286.84L292.14 286.74L292.22 286.65L292.31 286.55L292.39 286.46L292.48 286.36L292.56 286.27L292.65 286.17L292.74 286.08L292.82 285.99L292.91 285.89L293 285.8L293.08 285.71L293.17 285.62L293.26 285.52L293.35 285.43L293.44 285.34L293.53 285.25L293.62 285.16L293.71 285.07L293.8 284.98L293.89 284.89L293.98 284.8L294.07 284.71L294.16 284.62L294.25 284.53L294.35 284.45L294.44 284.36L294.53 284.27L294.63 284.18L294.72 284.1L294.81 284.01L294.91 283.92L295 283.84L295.1 283.75L295.19 283.67L295.29 283.58L295.38 283.5L295.48 283.42L295.57 283.33L295.61 283.3L296.79 282.32L298 281.38L299.24 280.51L300.5 279.69L301.79 278.93L303.09 278.22L304.42 277.57L305.77 276.98L307.13 276.44L308.51 275.96L309.9 275.54L311.3 275.17L312.71 274.85L314.13 274.59L315.56 274.39L316.99 274.24L318.43 274.15L319.86 274.11L321.3 274.12L322.73 274.2ZM318.44 298.48L317.8 298.62L317.17 298.82L316.55 299.06L315.95 299.35L315.38 299.69L314.83 300.07L314.3 300.5L313.81 300.98L313.35 301.5L312.93 302.07L312.59 302.62L312.26 303.19L311.95 303.8L311.66 304.44L311.39 305.1L311.13 305.8L310.9 306.52L310.68 307.28L310.47 308.06L310.29 308.87L310.12 309.71L309.97 310.58L309.84 311.48L309.72 312.41L309.63 313.37L309.55 314.35L309.49 315.37L309.44 316.41L309.42 317.49L309.41 318.59L309.42 319.7L309.44 320.77L309.49 321.82L309.55 322.84L309.63 323.83L309.73 324.79L309.84 325.73L309.98 326.63L310.13 327.51L310.3 328.35L310.48 329.17L310.69 329.96L310.91 330.72L311.14 331.45L311.4 332.15L311.67 332.82L311.96 333.46L312.27 334.07L312.59 334.65L312.93 335.2L313.02 335.33L313.12 335.46L313.21 335.59L313.31 335.71L313.41 335.84L313.52 335.96L313.62 336.08L313.73 336.19L313.84 336.31L313.95 336.42L314.06 336.53L314.18 336.64L314.3 336.75L314.42 336.85L314.54 336.95L314.66 337.05L314.79 337.15L314.92 337.24L315.05 337.34L315.18 337.43L315.78 337.8L316.39 338.12L317.02 338.39L317.66 338.6L318.32 338.76L318.97 338.86L319.63 338.92L320.3 338.92L320.95 338.88L321.61 338.78L322.25 338.64L322.88 338.44L323.49 338.2L324.09 337.91L324.66 337.57L325.21 337.19L325.74 336.76L326.23 336.28L326.69 335.76L327.11 335.2L327.45 334.65L327.78 334.07L328.09 333.46L328.38 332.82L328.65 332.15L328.91 331.45L329.14 330.72L329.36 329.96L329.57 329.17L329.75 328.35L329.92 327.5L330.07 326.63L330.2 325.72L330.32 324.79L330.41 323.83L330.49 322.84L330.55 321.83L330.6 320.78L330.62 319.71L330.63 318.61L330.62 317.51L330.6 316.44L330.55 315.4L330.49 314.39L330.41 313.4L330.32 312.44L330.2 311.51L330.07 310.61L329.92 309.74L329.75 308.9L329.57 308.08L329.36 307.3L329.14 306.54L328.91 305.81L328.65 305.11L328.38 304.44L328.09 303.8L327.78 303.2L327.45 302.62L327.11 302.07L327.02 301.94L326.93 301.81L326.83 301.68L326.74 301.56L326.64 301.44L326.54 301.32L326.44 301.2L326.33 301.08L326.22 300.97L326.11 300.85L326 300.74L325.89 300.64L325.77 300.53L325.65 300.43L325.53 300.33L325.41 300.23L325.29 300.13L325.16 300.04L325.03 299.95L324.9 299.86L324.89 299.85L324.87 299.84L324.27 299.46L323.66 299.14L323.03 298.88L322.38 298.66L321.73 298.5L321.07 298.4L320.41 298.34L319.75 298.34L319.09 298.38L318.44 298.48ZM250.21 337.41L251.7 337.45L253.19 337.44L254.68 337.35L256.16 337.2L257.64 336.98L259.1 336.7L260.56 336.35L260.57 336.21L260.58 336.07L260.59 335.93L260.59 335.79L260.58 335.65L260.57 335.5L260.56 335.36L260.55 334.97L260.5 334.53L260.35 334.03L260.07 333.49L259.6 332.91L258.9 332.28L257.92 331.62L256.67 330.97L255.37 330.4L254.05 329.92L252.69 329.53L251.31 329.23L249.92 329.02L248.51 328.9L248.67 337.41L250.21 337.41ZM186.15 319.87L185.22 317.44L184.3 319.87L186.15 319.87ZM280.65 313.2L279.63 314.58L278.5 315.88L279.39 316.57L280.23 317.31L281.05 318.08L281.82 318.9L281.82 318.57L281.86 316.47L281.96 314.37L282.13 312.29L282.37 310.23L281.56 311.75L280.65 313.2ZM250.95 305.4L253.4 304.94L255.51 304.23L257 303.25L257.56 301.92L257.57 301.75L257.57 301.58L257.57 301.41L257.57 301.24L257.56 301.07L255.78 300.67L253.97 300.37L252.16 300.16L250.34 300.05L248.51 300.04L248.47 305.67L250.95 305.4Z" id="a2fNchKD5z"></path><path d="M207.68 353.43L201.22 336.03L169.34 336.03L162.73 353.43L153.46 353.43L180.96 283.9L191.64 283.9L218.98 353.43L207.68 353.43ZM197.93 328.01L185.17 294.69L172.54 328.01L197.93 328.01Z" id="c5htWCm6T"></path><path d="M255.6 284L257.18 284.13L258.67 284.31L260.07 284.53L261.39 284.79L262.62 285.09L263.78 285.43L264.86 285.8L265.86 286.2L266.79 286.63L267.66 287.09L268.46 287.57L269.2 288.08L269.88 288.6L270.51 289.14L271.08 289.69L271.6 290.25L272.08 290.82L272.51 291.39L272.9 291.97L273.25 292.55L273.57 293.13L273.85 293.7L274.11 294.26L274.34 294.82L274.54 295.36L274.73 295.89L274.9 296.4L275.05 296.89L275.19 297.35L275.33 297.79L275.46 298.21L275.58 298.59L275.71 298.94L275.84 299.25L275.98 299.53L276.12 299.76L276.28 299.96L276.46 300.1L276.46 300.4L276.45 300.69L276.44 300.99L276.43 301.29L276.4 301.58L276.38 301.87L276.34 302.17L276.31 302.46L276.26 302.75L276.21 303.04L276.16 303.32L276.09 303.61L276.03 303.89L275.96 304.18L275.88 304.46L275.8 304.74L275.71 305.02L275.61 305.29L275.51 305.57L275.41 305.84L275.3 306.11L275.19 306.38L275.07 306.65L274.94 306.91L274.81 307.17L274.68 307.43L274.54 307.69L274.39 307.94L274.24 308.19L274.08 308.44L273.92 308.69L273.76 308.93L273.59 309.17L273.41 309.4L273.23 309.64L273.05 309.87L272.86 310.09L272.67 310.32L272.47 310.54L272.26 310.75L272.02 310.99L271.78 311.22L271.53 311.44L271.28 311.67L271.02 311.88L270.76 312.1L270.5 312.31L270.24 312.52L269.97 312.72L269.71 312.92L269.44 313.12L269.16 313.31L268.89 313.49L268.61 313.68L268.33 313.86L268.04 314.03L267.76 314.2L267.47 314.37L267.18 314.53L266.88 314.69L266.59 314.85L266.29 315L265.99 315.15L265.69 315.29L265.39 315.43L265.08 315.56L264.77 315.69L264.46 315.81L264.15 315.94L263.84 316.05L263.52 316.16L263.21 316.27L262.89 316.38L262.57 316.47L262.25 316.57L261.92 316.66L261.6 316.74L261.27 316.82L260.95 316.9L260.62 316.97L262.03 317.29L263.37 317.64L264.63 318.02L265.81 318.42L266.93 318.85L267.98 319.3L268.96 319.77L269.88 320.26L270.74 320.77L271.54 321.29L272.28 321.83L272.97 322.38L273.61 322.94L274.19 323.51L274.74 324.08L275.23 324.66L275.69 325.24L276.1 325.82L276.48 326.41L276.82 326.99L277.13 327.56L277.41 328.13L277.67 328.7L277.89 329.25L278.09 329.79L278.28 330.32L278.44 330.83L278.59 331.33L278.72 331.81L278.84 332.27L278.96 332.7L279.06 333.11L279.17 333.5L279.27 333.86L279.37 334.19L279.47 334.49L279.58 334.76L279.7 334.99L279.82 335.18L279.96 335.34L279.97 335.71L279.98 336.08L279.97 336.45L279.96 336.82L279.94 337.19L279.91 337.56L279.87 337.92L279.83 338.28L279.77 338.64L279.71 339L279.64 339.36L279.56 339.72L279.47 340.07L279.37 340.42L279.27 340.77L279.16 341.11L279.04 341.45L278.91 341.79L278.78 342.13L278.64 342.46L278.49 342.79L278.33 343.12L278.16 343.44L277.99 343.76L277.81 344.08L277.62 344.39L277.43 344.69L277.23 345L277.02 345.29L276.8 345.59L276.58 345.88L276.35 346.16L276.11 346.44L275.87 346.71L275.62 346.98L275.36 347.25L275.1 347.5L274.83 347.76L274.55 348L274.27 348.24L274.09 348.39L273.9 348.54L273.71 348.69L273.53 348.83L273.34 348.97L273.15 349.11L272.95 349.24L272.76 349.38L272.56 349.51L272.37 349.64L272.17 349.76L271.97 349.89L271.77 350.01L271.56 350.13L271.36 350.24L271.15 350.36L270.94 350.47L270.74 350.58L270.53 350.68L270.32 350.79L270.1 350.89L269.89 350.98L269.67 351.08L269.46 351.17L269.24 351.26L269.02 351.35L268.8 351.44L268.58 351.52L268.36 351.6L268.14 351.67L267.92 351.75L267.69 351.82L267.47 351.89L267.24 351.96L267.01 352.02L266.78 352.08L266.56 352.14L266.33 352.19L266.09 352.24L265.86 352.29L265.49 352.35L265.11 352.41L264.73 352.47L264.36 352.52L263.98 352.57L263.6 352.62L263.23 352.67L262.85 352.72L262.47 352.76L262.09 352.81L261.71 352.85L261.33 352.89L260.96 352.93L260.58 352.97L260.2 353L259.82 353.03L259.44 353.07L259.06 353.1L258.68 353.12L258.3 353.15L257.92 353.17L257.54 353.2L257.16 353.22L256.78 353.24L256.4 353.25L256.02 353.27L255.64 353.28L255.26 353.3L254.88 353.31L254.5 353.32L254.12 353.32L253.74 353.33L253.36 353.33L252.98 353.33L252.6 353.33L252.22 353.33L251.84 353.33L251.46 353.32L251.07 353.32L250.69 353.31L229.71 353.43L229.71 283.9L252.15 283.9L253.93 283.93L255.6 284ZM240.41 345.41L250.05 345.41L251.73 345.39L253.28 345.34L254.69 345.26L255.98 345.16L257.14 345.04L258.19 344.89L259.14 344.74L259.98 344.58L260.74 344.41L261.41 344.23L262 344.06L262.52 343.9L262.98 343.74L263.38 343.6L263.74 343.48L264.05 343.37L264.33 343.29L264.59 343.24L265.04 342.95L265.47 342.64L265.88 342.3L266.26 341.94L266.62 341.56L266.95 341.16L267.26 340.74L267.53 340.3L267.78 339.84L268 339.38L268.19 338.89L268.35 338.4L268.48 337.89L268.58 337.38L268.65 336.86L268.68 336.33L268.67 335.8L268.64 335.26L268.6 334.51L268.53 333.77L268.4 333.04L268.24 332.33L268.03 331.62L267.78 330.94L267.49 330.27L267.16 329.62L266.8 328.99L266.39 328.39L265.95 327.81L265.48 327.26L264.97 326.73L264.44 326.24L263.86 325.77L263.26 325.34L262.63 324.95L261.97 324.59L261.23 324.15L260.47 323.73L259.67 323.34L258.84 322.98L257.98 322.64L257.1 322.33L256.19 322.04L255.24 321.78L254.27 321.54L253.27 321.33L252.24 321.15L251.18 320.98L250.09 320.85L248.97 320.74L247.83 320.65L246.65 320.59L245.45 320.55L244.21 320.54L240.32 320.54L240.41 345.41ZM240.41 313.97L244.13 313.97L247.9 313.85L251.16 313.51L253.95 312.97L256.3 312.26L258.26 311.43L259.87 310.49L261.17 309.47L262.2 308.41L263 307.34L263.62 306.28L264.09 305.27L264.45 304.33L264.76 303.5L265.04 302.81L265.34 302.28L265.7 301.94L265.68 301.2L265.64 300.49L265.55 299.82L265.44 299.18L265.29 298.58L265.11 298L264.9 297.46L264.66 296.95L264.38 296.47L264.07 296.03L263.73 295.61L263.35 295.22L262.94 294.87L262.51 294.54L262.03 294.24L261.53 293.96L260.98 293.71L260.37 293.48L259.7 293.27L258.97 293.07L258.17 292.88L257.32 292.72L256.4 292.57L255.43 292.44L254.38 292.32L253.28 292.22L252.12 292.13L250.89 292.06L249.59 292.01L248.23 291.97L246.81 291.95L245.33 291.94L240.34 291.94L240.41 313.97Z" id="e14nF2tIMd"></path><path d="M322.68 282.33L323.8 282.46L324.92 282.62L326.03 282.84L327.14 283.09L328.23 283.39L329.32 283.73L330.4 284.11L331.46 284.54L332.52 285.02L333.55 285.53L334.57 286.09L335.58 286.7L336.56 287.35L337.53 288.04L338.47 288.78L339.39 289.56L339.4 289.57L339.47 289.63L339.54 289.69L339.6 289.75L339.67 289.81L339.73 289.87L339.8 289.93L339.86 289.99L339.93 290.05L339.99 290.11L340.06 290.17L340.12 290.24L340.19 290.3L340.25 290.36L340.32 290.42L340.38 290.48L340.44 290.55L340.51 290.61L340.57 290.67L340.63 290.73L340.7 290.8L340.76 290.86L340.82 290.92L340.88 290.99L340.95 291.05L341.01 291.12L341.07 291.18L341.13 291.25L341.19 291.31L341.25 291.38L341.31 291.44L341.38 291.51L341.44 291.57L341.5 291.64L341.56 291.7L341.62 291.77L341.68 291.83L341.74 291.9L341.8 291.97L341.85 292.03L341.91 292.1L342.5 292.85L343.06 293.62L343.59 294.39L344.09 295.18L344.55 295.98L344.99 296.78L345.4 297.59L345.79 298.41L346.15 299.23L346.48 300.05L346.79 300.88L347.08 301.7L347.35 302.52L347.6 303.34L347.82 304.15L348.03 304.95L348.22 305.75L348.4 306.54L348.56 307.32L348.7 308.09L348.83 308.84L348.95 309.58L349.05 310.3L349.15 311L349.23 311.68L349.31 312.35L349.38 312.99L349.44 313.6L349.5 314.2L349.55 314.76L349.59 315.3L349.64 315.81L349.68 316.28L349.72 316.73L349.77 317.14L349.81 317.51L349.86 317.85L349.9 318.15L349.96 318.41L350.02 318.63L350 319.86L349.96 321.06L349.9 322.22L349.81 323.35L349.7 324.44L349.57 325.5L349.42 326.53L349.25 327.53L349.06 328.49L348.86 329.43L348.65 330.33L348.42 331.2L348.18 332.05L347.93 332.86L347.67 333.65L347.4 334.4L347.12 335.13L346.84 335.84L346.56 336.51L346.27 337.16L345.98 337.78L345.69 338.38L345.4 338.95L345.12 339.49L344.83 340.01L344.56 340.51L344.28 340.99L344.02 341.44L343.77 341.86L343.52 342.27L343.29 342.65L343.07 343.02L342.86 343.36L342.67 343.68L342.49 343.98L342.34 344.26L342.2 344.53L342.08 344.77L341.99 345L341.91 345.21L341.1 346.09L340.25 346.94L339.38 347.75L338.49 348.51L337.57 349.24L336.62 349.92L335.66 350.56L334.68 351.16L333.67 351.71L332.65 352.23L331.62 352.7L330.57 353.13L329.5 353.52L328.43 353.87L327.34 354.18L326.25 354.44L325.14 354.66L324.03 354.84L322.92 354.97L321.8 355.06L320.67 355.11L319.55 355.12L318.43 355.08L317.3 355L316.18 354.88L315.07 354.72L313.96 354.51L312.85 354.25L311.76 353.96L310.67 353.62L309.59 353.24L308.53 352.81L307.48 352.34L306.44 351.83L305.42 351.27L304.41 350.67L303.43 350.02L302.46 349.33L301.52 348.6L300.6 347.82L300.53 347.76L300.46 347.7L300.39 347.64L300.33 347.57L300.26 347.51L300.19 347.45L300.13 347.39L300.06 347.33L299.99 347.27L299.93 347.2L299.86 347.14L299.79 347.08L299.73 347.02L299.66 346.95L299.6 346.89L299.53 346.83L299.47 346.76L299.4 346.7L299.34 346.63L299.27 346.57L299.21 346.51L299.15 346.44L299.08 346.38L299.02 346.31L298.95 346.25L298.89 346.18L298.83 346.11L298.76 346.05L298.7 345.98L298.64 345.92L298.58 345.85L298.52 345.78L298.45 345.72L298.39 345.65L298.33 345.58L298.27 345.52L298.21 345.45L298.15 345.38L298.09 345.31L298.03 345.25L297.63 344.75L297.24 344.24L296.86 343.72L296.49 343.2L296.13 342.66L295.78 342.12L295.44 341.57L295.12 341.01L294.8 340.44L294.49 339.87L294.19 339.28L293.9 338.69L293.62 338.09L293.36 337.48L293.1 336.86L292.85 336.23L292.61 335.6L292.38 334.95L292.17 334.3L291.96 333.64L291.76 332.97L291.57 332.29L291.4 331.61L291.23 330.91L291.07 330.21L290.93 329.5L290.79 328.77L290.66 328.05L290.54 327.31L290.44 326.56L290.34 325.81L290.25 325.04L290.18 324.27L290.11 323.49L290.06 322.7L290.01 321.91L289.97 321.1L289.95 320.29L289.93 319.46L289.92 318.63L298.03 292.1L298.84 291.21L299.69 290.37L300.56 289.56L301.46 288.79L302.38 288.07L303.33 287.39L304.29 286.75L305.28 286.15L306.29 285.6L307.31 285.08L308.35 284.61L309.4 284.18L310.46 283.79L311.54 283.45L312.63 283.14L313.73 282.88L314.83 282.66L315.94 282.49L317.06 282.35L318.18 282.26L319.31 282.22L320.43 282.21L321.56 282.25L322.68 282.33ZM318.18 290.35L317.33 290.47L316.48 290.63L315.64 290.84L314.8 291.09L313.97 291.39L313.16 291.73L312.35 292.13L311.56 292.56L310.79 293.05L310.61 293.17L310.42 293.3L310.25 293.43L310.07 293.56L309.89 293.69L309.72 293.82L309.55 293.96L309.38 294.1L309.21 294.24L309.05 294.38L308.88 294.53L308.72 294.68L308.56 294.83L308.4 294.98L308.25 295.13L308.09 295.29L307.94 295.45L307.79 295.61L307.65 295.77L307.5 295.93L307.36 296.1L307.22 296.26L307.08 296.43L306.94 296.6L306.81 296.78L306.67 296.95L306.54 297.13L306.42 297.31L306.29 297.49L306.17 297.67L305.85 298.17L305.54 298.68L305.24 299.2L304.96 299.74L304.68 300.3L304.42 300.86L304.16 301.44L303.92 302.04L303.69 302.65L303.47 303.27L303.26 303.9L303.06 304.55L302.87 305.22L302.69 305.9L302.52 306.59L302.36 307.29L302.22 308.01L302.08 308.75L301.96 309.49L301.85 310.25L301.74 311.03L301.65 311.82L301.57 312.62L301.5 313.44L301.44 314.27L301.39 315.11L301.35 315.97L301.33 316.85L301.31 317.73L301.31 318.63L306.17 339.68L306.69 340.42L307.26 341.13L307.85 341.8L308.47 342.43L309.12 343.02L309.79 343.58L310.49 344.09L311.22 344.57L311.96 345.01L312.72 345.4L313.5 345.75L314.3 346.07L315.11 346.34L315.93 346.57L316.76 346.76L317.6 346.9L318.44 347.01L319.29 347.07L320.15 347.08L321 347.06L321.86 346.98L322.71 346.87L323.56 346.71L324.41 346.5L325.24 346.25L326.07 345.95L326.89 345.61L327.69 345.22L328.48 344.78L329.26 344.29L329.44 344.17L329.62 344.05L329.79 343.92L329.97 343.79L330.14 343.66L330.32 343.52L330.49 343.39L330.66 343.25L330.82 343.11L330.99 342.97L331.15 342.83L331.31 342.68L331.47 342.53L331.63 342.38L331.79 342.23L331.94 342.07L332.09 341.92L332.24 341.76L332.39 341.6L332.53 341.44L332.68 341.27L332.82 341.11L332.96 340.94L333.1 340.77L333.23 340.6L333.36 340.43L333.49 340.25L333.62 340.07L333.75 339.9L333.87 339.72L334.35 338.96L334.78 338.19L335.19 337.39L335.56 336.57L335.9 335.74L336.22 334.89L336.5 334.04L336.76 333.17L337 332.31L337.21 331.44L337.4 330.58L337.57 329.72L337.72 328.87L337.85 328.03L337.97 327.21L338.07 326.41L338.16 325.62L338.24 324.86L338.3 324.13L338.36 323.42L338.41 322.75L338.46 322.11L338.49 321.52L338.53 320.96L338.56 320.45L338.6 319.99L338.63 319.57L338.67 319.22L338.71 318.91L338.75 318.67L338.74 317.34L338.69 316.05L338.63 314.82L338.53 313.65L338.42 312.52L338.29 311.45L338.13 310.42L337.97 309.45L337.78 308.51L337.59 307.63L337.38 306.79L337.17 305.99L336.95 305.23L336.72 304.52L336.49 303.84L336.26 303.2L336.03 302.6L335.8 302.04L335.57 301.51L335.35 301.02L335.14 300.55L334.94 300.12L334.74 299.72L334.57 299.35L334.4 299.01L334.26 298.69L334.13 298.4L334.02 298.13L333.93 297.89L333.87 297.67L333.35 296.92L332.79 296.22L332.19 295.54L331.57 294.91L330.92 294.32L330.25 293.76L329.55 293.25L328.83 292.77L328.08 292.34L327.32 291.94L326.54 291.58L325.75 291.27L324.94 291L324.12 290.77L323.29 290.58L322.45 290.43L321.6 290.33L320.75 290.27L319.9 290.25L319.04 290.28L318.18 290.35Z" id="a8NB4WlSF"></path><path d="M361.74 283.9L372.42 283.9C372.42 309.22 372.42 323.29 372.42 326.11C372.42 333.48 373.59 338.81 375.92 342.13C378.25 345.45 381.99 347.09 387.22 347.09C392.45 347.09 396.68 345.43 399.09 342.13C401.5 338.83 402.71 333.42 402.71 325.92C402.71 323.12 402.71 309.11 402.71 283.9L412.03 283.9C412.03 308.12 412.03 321.57 412.03 324.26C412.03 332.97 411 339.21 408.95 343.02C402.39 355.17 389.48 353.95 387.32 355.17C374.26 355.17 369.93 348.72 368 348C363.83 343.22 361.74 335.89 361.74 326.01L361.74 283.9Z" id="a1ouDjl7M"></path><path d="M448.41 353.43L448.41 291.92L421.67 291.92L421.67 283.82L485.85 283.82L485.85 291.92L459.08 291.92L459.08 353.43L448.41 353.43Z" id="c58nqefSls"></path></defs><g><g><use xlink:href="#c4aOhLUSXK" opacity="1" fill="#f5e929" fill-opacity="1"></use><g><use xlink:href="#c4aOhLUSXK" opacity="1" fill-opacity="0" stroke="#231815" stroke-width="4" stroke-opacity="1"></use></g></g><g><use xlink:href="#a2fNchKD5z" opacity="1" fill="#231815" fill-opacity="1"></use><g><use xlink:href="#a2fNchKD5z" opacity="1" fill-opacity="0" stroke="#000000" stroke-width="1" stroke-opacity="0"></use></g></g><g><use xlink:href="#c5htWCm6T" opacity="1" fill="#2096d5" fill-opacity="1"></use><g><use xlink:href="#c5htWCm6T" opacity="1" fill-opacity="0" stroke="#000000" stroke-width="1" stroke-opacity="0"></use></g></g><g><use xlink:href="#e14nF2tIMd" opacity="1" fill="#2096d5" fill-opacity="1"></use><g><use xlink:href="#e14nF2tIMd" opacity="1" fill-opacity="0" stroke="#000000" stroke-width="1" stroke-opacity="0"></use></g></g><g><use xlink:href="#a8NB4WlSF" opacity="1" fill="#2096d5" fill-opacity="1"></use><g><use xlink:href="#a8NB4WlSF" opacity="1" fill-opacity="0" stroke="#000000" stroke-width="1" stroke-opacity="0"></use></g></g><g><use xlink:href="#a1ouDjl7M" opacity="1" fill="#2096d5" fill-opacity="1"></use><g><use xlink:href="#a1ouDjl7M" opacity="1" fill-opacity="0" stroke="#000000" stroke-width="1" stroke-opacity="0"></use></g></g><g><use xlink:href="#c58nqefSls" opacity="1" fill="#2096d5" fill-opacity="1"></use><g><use xlink:href="#c58nqefSls" opacity="1" fill-opacity="0" stroke="#000000" stroke-width="1" stroke-opacity="0"></use></g></g></g></svg>