<svg xmlns="http://www.w3.org/2000/svg" viewBox="0 0 294.78 273.24"><defs><style>.cls-1{fill:#231815;}.cls-2{fill:#e4007f;}.cls-3,.cls-7{fill:#fff;}.cls-4,.cls-5,.cls-6{fill:none;}.cls-4,.cls-5,.cls-6,.cls-7,.cls-8{stroke:#231815;stroke-width:5px;}.cls-4,.cls-5,.cls-8{stroke-linejoin:round;}.cls-5{stroke-linecap:round;}.cls-6{stroke-miterlimit:10;}.cls-8{fill:#094;}</style></defs><title>デザイナー</title><g id="レイヤー_1" data-name="レイヤー 1"><ellipse class="cls-1" cx="148.33" cy="43.95" rx="34.5" ry="10.25"/><polygon class="cls-2" points="185.28 114.7 198.92 203.2 88.2 203.58 99.83 114.68 185.28 114.7"/><polygon class="cls-2" points="216.16 175.35 198.92 203.2 185.28 114.7 197.83 94.43 216.16 175.35"/><path class="cls-2" d="M197.83,94.43,185.28,114.7l-85.45,0,12.54-20.27h1.46V96.7c0,5.66,15.44,10.25,34.5,10.25s34.5-4.59,34.5-10.25V94.43Z"/><path class="cls-3" d="M182.83,94.43V96.7c0,5.66-15.45,10.25-34.5,10.25s-34.5-4.59-34.5-10.25V94.41Z"/><circle class="cls-1" cx="152.14" cy="77.14" r="4.06"/><path class="cls-3" d="M129.76,80.83a4.07,4.07,0,1,0-4.06-4.07A4.07,4.07,0,0,0,129.76,80.83ZM182.83,44V94.43l-69,0V44c0,5.66,15.44,10.25,34.5,10.25S182.83,49.61,182.83,44ZM156.2,77.14a4.06,4.06,0,1,0-4.06,4.06A4.06,4.06,0,0,0,156.2,77.14Z"/><path class="cls-1" d="M133.83,76.76a4.07,4.07,0,1,1-4.07-4.06A4.07,4.07,0,0,1,133.83,76.76Z"/><line class="cls-4" x1="182.83" y1="94.43" x2="197.83" y2="94.43"/><polyline class="cls-4" points="99.83 114.68 112.37 94.41 113.83 94.41"/><polyline class="cls-4" points="185.28 114.7 99.83 114.68 88.2 203.58 198.92 203.2"/><polygon class="cls-4" points="197.83 94.43 185.28 114.7 198.92 203.2 216.16 175.35 197.83 94.43"/><path class="cls-5" d="M182.83,44c0-5.66-15.45-10.25-34.5-10.25s-34.5,4.59-34.5,10.25"/><path class="cls-6" d="M182.83,44c0,5.66-15.45,10.25-34.5,10.25s-34.5-4.59-34.5-10.25V96.7c0,5.66,15.44,10.25,34.5,10.25s34.5-4.59,34.5-10.25V44Z"/><circle class="cls-7" cx="85.97" cy="135.88" r="15.94"/><path class="cls-8" d="M68.53,103.07,91.41,160l7.75,8.25-.25-10.88L77,99.82S70.91,97.2,68.53,103.07Z"/><path class="cls-3" d="M133.4,128.92h8a21.61,21.61,0,0,1,5.32.57,9.89,9.89,0,0,1,4,2.16q4.71,4,4.71,12.26a23.81,23.81,0,0,1-.47,5,14.45,14.45,0,0,1-1.46,4,12.63,12.63,0,0,1-2.53,3.22,10.41,10.41,0,0,1-2.65,1.75,11.61,11.61,0,0,1-3.1.92,23.31,23.31,0,0,1-3.73.27h-8a5.05,5.05,0,0,1-2.51-.5,2.36,2.36,0,0,1-1.1-1.42,9.07,9.07,0,0,1-.26-2.38V132.66a3.2,3.2,0,0,1,3.74-3.74Zm2.37,4.83v20.47h4.63c1,0,1.81,0,2.38-.09a7.09,7.09,0,0,0,1.79-.41,4.81,4.81,0,0,0,1.61-.92q3.06-2.6,3.06-8.93,0-4.45-1.34-6.68a6,6,0,0,0-3.33-2.83,16.13,16.13,0,0,0-4.77-.61Z"/><path class="cls-1" d="M61.51,263.39a2.85,2.85,0,0,1-1.89-.72l-2.24-2a2.88,2.88,0,0,1-.94-2,2.84,2.84,0,0,1,.74-2.06c5.1-5.59,6-8.21,6.26-12.13H52.87A2.84,2.84,0,0,1,50,241.67v-3a2.84,2.84,0,0,1,2.83-2.84h28a2.84,2.84,0,0,1,2.83,2.84v3a2.84,2.84,0,0,1-2.83,2.84H72.19c-.31,6.46-1.76,10.57-8.6,18A2.85,2.85,0,0,1,61.51,263.39Zm21-27.64a2.89,2.89,0,0,1-1.32-.32,2.89,2.89,0,0,1-1.24.28H77.55a2.76,2.76,0,0,1-1.4-.37,2.81,2.81,0,0,1-1.16.25H57.15a2.83,2.83,0,0,1-2.83-2.83v-3a2.84,2.84,0,0,1,2.83-2.84H74.71v-.08A2.84,2.84,0,0,1,77.55,224h2.36a2.84,2.84,0,0,1,1.32.33,2.83,2.83,0,0,1,1.24-.29h2.36a2.84,2.84,0,0,1,2.83,2.84v6a2.83,2.83,0,0,1-2.83,2.83Z"/><path class="cls-2" d="M61.51,260.55l-2.24-2c6.6-7.24,7-10.2,7.08-16.88H52.87v-3h28v3H69.43C69.35,249,68.87,252.59,61.51,260.55Zm-4.36-27.79v-3H75v3Zm22.76.12H77.55v-6h2.36Zm4.92,0H82.47v-6h2.36Z"/><path class="cls-1" d="M106.51,263.55a2.86,2.86,0,0,1-1.85-.69l-2.32-2a2.83,2.83,0,0,1-.3-4c5.48-6.34,6.87-9.35,7.16-15h-3.82v6.88a2.83,2.83,0,0,1-2.83,2.84h-3a2.84,2.84,0,0,1-2.83-2.84v-6.88H92.47a2.83,2.83,0,0,1-2.83-2.83v-2.84a2.84,2.84,0,0,1,2.83-2.84h4.21v-5.6A2.84,2.84,0,0,1,99.51,225h3a2.83,2.83,0,0,1,2.83,2.84v5.6h3.89v-5.52a2.84,2.84,0,0,1,2.84-2.84h3a2.84,2.84,0,0,1,1.16.25,2.78,2.78,0,0,1,1.32-.33h2.28a2.8,2.8,0,0,1,1.35.35,2.82,2.82,0,0,1,1.29-.31h2.28a2.84,2.84,0,0,1,2.83,2.84V234a2.84,2.84,0,0,1-2.4,2.8v2.32a2.83,2.83,0,0,1-2.83,2.83h-4.51c-.35,8.2-2.51,12.73-9.25,20.64a2.83,2.83,0,0,1-1.94,1Z"/><path class="cls-2" d="M112.11,239.08h-9.56v9.71h-3v-9.71h-7v-2.84h7V227.8h3v8.44h9.56v-8.36h3v8.36h7.28v2.84h-7.28c0,9.43-1.68,13.47-8.64,21.63l-2.32-2C110.83,251,112.07,247.55,112.11,239.08Zm7.8-5.16h-2.28V227.8h2.28Zm4.92,0h-2.28v-6.12h2.28Z"/><path class="cls-1" d="M147.19,263.59a2.84,2.84,0,0,1-2.84-2.84V247.54c-1.56,1.05-3.31,2.21-5.32,3.54l-2.11,1.4a2.86,2.86,0,0,1-1.57.47,2.76,2.76,0,0,1-.57-.06,2.84,2.84,0,0,1-1.8-1.22l-1.68-2.56a2.85,2.85,0,0,1,.83-3.94l3-1.95c10.75-6.93,16.67-10.75,16.67-14.9a2.84,2.84,0,0,1,2.84-2.84h3.08a2.84,2.84,0,0,1,2.83,2.84c0,4.81-2.17,8.57-7.44,12.75v19.68a2.84,2.84,0,0,1-2.83,2.84Z"/><path class="cls-2" d="M150.31,239.67v21.08h-3.12V242.11c-3,2.16-6.52,4.48-11.84,8l-1.68-2.56c14-9,21-13.07,21-19.23h3.08C157.75,232.48,155.63,235.72,150.31,239.67Z"/><path class="cls-1" d="M181.55,263.63a2.83,2.83,0,0,1-1.76-.61l-2.48-2a2.84,2.84,0,0,1-.43-4c5.62-6.8,6.9-9.29,7.17-13.92H173a2.83,2.83,0,0,1-2.83-2.83v-3a2.84,2.84,0,0,1,2.83-2.84h11.16V227.6a2.84,2.84,0,0,1,2.84-2.84h3.24A2.84,2.84,0,0,1,193,227.6v6.88h8.85a2.84,2.84,0,0,1,2.83,2.84v3a2.83,2.83,0,0,1-2.83,2.83H193c-.4,7.73-2.67,11.58-9.23,19.49A2.82,2.82,0,0,1,181.55,263.63Z"/><path class="cls-2" d="M181.55,260.79l-2.48-2c6.84-8.28,7.88-10.88,7.88-18.55H173v-3h14V227.6h3.24v9.72h11.68v3H190.19C190.19,249.19,188.51,252.39,181.55,260.79Z"/><rect class="cls-1" x="209.8" y="239.6" width="35.18" height="8.71" rx="2.83" ry="2.83"/><path class="cls-2" d="M212.63,242.43h29.52v3H212.63Z"/></g></svg>