<svg xmlns="http://www.w3.org/2000/svg" viewBox="0 0 294.78 273.24"><defs><style>.cls-1{fill:#00a0e9;}.cls-2{fill:#fff;}.cls-3{fill:#231815;}.cls-4,.cls-5,.cls-6{fill:none;}.cls-4,.cls-5,.cls-6,.cls-7{stroke:#231815;stroke-width:5px;}.cls-4,.cls-5,.cls-7{stroke-linejoin:round;}.cls-5,.cls-7{stroke-linecap:round;}.cls-6{stroke-miterlimit:10;}.cls-7{fill:#dcdddd;}</style></defs><title>エンジニア</title><g id="レイヤー_1" data-name="レイヤー 1"><polygon class="cls-1" points="191.83 93.72 210.16 174.64 192.92 202.49 179.28 113.99 191.83 93.72"/><polygon class="cls-1" points="179.28 113.99 192.92 202.49 82.2 202.87 93.83 113.97 179.28 113.99"/><path class="cls-1" d="M191.83,93.72,179.28,114l-85.45,0L106.37,93.7h1.46V96c0,5.66,15.44,10.25,34.5,10.25s34.5-4.59,34.5-10.25V93.72Z"/><path class="cls-2" d="M176.83,93.72V96c0,5.66-15.45,10.25-34.5,10.25s-34.5-4.59-34.5-10.25V93.7Z"/><path class="cls-2" d="M176.83,43.24V93.72l-69,0V43.24c0,5.66,15.44,10.25,34.5,10.25S176.83,48.9,176.83,43.24ZM150.2,76.43a4.06,4.06,0,1,0-4.06,4.06A4.06,4.06,0,0,0,150.2,76.43Zm-22.37-.38a4.07,4.07,0,1,0-4.07,4.07A4.07,4.07,0,0,0,127.83,76.05Z"/><ellipse class="cls-3" cx="142.33" cy="43.24" rx="34.5" ry="10.25"/><circle class="cls-3" cx="146.14" cy="76.43" r="4.06"/><path class="cls-3" d="M123.76,72a4.07,4.07,0,1,1-4.06,4.06A4.07,4.07,0,0,1,123.76,72Z"/><line class="cls-4" x1="176.83" y1="93.72" x2="191.83" y2="93.72"/><polyline class="cls-4" points="93.83 113.97 106.37 93.7 107.83 93.7"/><polyline class="cls-4" points="179.28 113.99 93.83 113.97 82.2 202.87 192.92 202.49"/><polygon class="cls-4" points="191.83 93.72 179.28 113.99 192.92 202.49 210.16 174.64 191.83 93.72"/><path class="cls-5" d="M176.83,43.24c0-5.66-15.45-10.25-34.5-10.25s-34.5,4.59-34.5,10.25"/><path class="cls-6" d="M176.83,43.24c0,5.66-15.45,10.25-34.5,10.25s-34.5-4.59-34.5-10.25V96c0,5.66,15.44,10.25,34.5,10.25s34.5-4.59,34.5-10.25V43.24Z"/><path class="cls-2" d="M144,133.46H130.28v7.4H143a3,3,0,0,1,2.08.63,2.13,2.13,0,0,1,.69,1.65,2.19,2.19,0,0,1-.68,1.68,2.94,2.94,0,0,1-2.09.65H130.28v8.58h14.23a3.15,3.15,0,0,1,2.17.66,2.29,2.29,0,0,1,.73,1.78,2.22,2.22,0,0,1-.73,1.74,3.1,3.1,0,0,1-2.17.67h-16.6A3.91,3.91,0,0,1,125,158a4,4,0,0,1-.87-2.86V132.49a5.07,5.07,0,0,1,.39-2.15,2.4,2.4,0,0,1,1.22-1.21,5.07,5.07,0,0,1,2.13-.39H144a3.16,3.16,0,0,1,2.17.65,2.2,2.2,0,0,1,.71,1.7,2.23,2.23,0,0,1-.71,1.72A3.16,3.16,0,0,1,144,133.46Z"/><polygon class="cls-7" points="44.53 174.99 55.25 157.62 117.28 157.62 106.57 174.99 44.53 174.99"/><rect class="cls-7" x="44.53" y="130.99" width="62.03" height="44"/><polygon class="cls-2" points="65.71 147.24 64.21 147.24 63.47 147.24 63.47 148.91 65.71 148.91 65.71 148.13 65.71 147.24"/><polygon class="cls-2" points="65.71 150.55 62.33 150.55 61.59 150.55 61.59 152.04 64.14 152.04 64.14 158.48 65.71 158.48 65.71 157.7 65.71 150.55"/><path class="cls-2" d="M77.9,153.32a2.87,2.87,0,0,0-.8-2.12,3,3,0,0,0-2.16-.79,3.48,3.48,0,0,0-2.58,1.05v-.91H70.88v7.93h1.48v-4.31a2.43,2.43,0,0,1,.66-1.78,2,2,0,0,1,.4-.32,2.47,2.47,0,0,1,1.35-.36,1.75,1.75,0,0,1,1.22.39,1.43,1.43,0,0,1,.43,1.1v5.28H77.9v-5.16Z"/><path class="cls-2" d="M87.41,156.69a3.52,3.52,0,0,1-.89.45,2.92,2.92,0,0,1-.93.18,1,1,0,0,1-.86-.37,1.64,1.64,0,0,1-.3-1v-4.15h3v-1.29h-3v-2.05H83v2.05H81.31v1.29H83v4a3.05,3.05,0,0,0,.67,2.14,2.48,2.48,0,0,0,1.94.73,3.32,3.32,0,0,0,1.85-.47v-1.46Z"/><path class="cls-3" d="M81.91,251.58h-10V238.69H79a2.84,2.84,0,0,0,2.83-2.84V233A2.83,2.83,0,0,0,79,230.18H55.79A2.83,2.83,0,0,0,53,233v2.84a2.84,2.84,0,0,0,2.83,2.84H63v12.89H52.87A2.83,2.83,0,0,0,50,254.41v2.76A2.83,2.83,0,0,0,52.87,260h29a2.83,2.83,0,0,0,2.83-2.83v-2.76A2.83,2.83,0,0,0,81.91,251.58Z"/><rect class="cls-3" x="92.92" y="228.7" width="16.79" height="8.71" rx="2.83" ry="2.83"/><path class="cls-3" d="M122.83,237.13,120,235.57a2.84,2.84,0,0,0-1.36-.35,3.09,3.09,0,0,0-.8.11,2.88,2.88,0,0,0-1.69,1.37l0,.09c-6.93,12.75-8.58,15.79-19.26,15.79A2.83,2.83,0,0,0,94,255.41v3a2.83,2.83,0,0,0,2.83,2.83c16.22,0,20-7,26.92-19.85L124,241A2.83,2.83,0,0,0,122.83,237.13Z"/><path class="cls-3" d="M147.23,243.81a2.84,2.84,0,0,0,2.83-2.84v-3a2.84,2.84,0,0,0-1.12-2.26,2.81,2.81,0,0,0,1.12-2.26v-3.12a2.83,2.83,0,0,0-2.83-2.83H137a2.83,2.83,0,0,0-2.83,2.83v3.12a2.81,2.81,0,0,0,1.12,2.26,2.84,2.84,0,0,0-1.12,2.26v3a2.84,2.84,0,0,0,2.83,2.84Z"/><path class="cls-3" d="M162.31,226.66H160a2.85,2.85,0,0,0-1.33.33,2.72,2.72,0,0,0-1.39-.37H155a2.84,2.84,0,0,0-2.84,2.83v6.16a2.84,2.84,0,0,0,2.84,2.84h.25c-.24.49-.5,1-.79,1.57l-.32.65c-4.18,8.37-6.32,12.07-13.38,12.07h-2.92a2.83,2.83,0,0,0-2.83,2.83v2.92a2.83,2.83,0,0,0,2.83,2.83h2.92c13.1,0,17.41-8.75,21.58-17.22l.13-.27c.45-.93,1.91-4.17,1.91-4.17a2.8,2.8,0,0,0,.06-2.18,2.8,2.8,0,0,0,.67-1.83v-6.16A2.83,2.83,0,0,0,162.31,226.66Z"/><rect class="cls-3" x="174.48" y="230.14" width="25.79" height="8.71" rx="2.83" ry="2.83"/><rect class="cls-3" x="170.16" y="250.06" width="34.55" height="8.79" rx="2.83" ry="2.83"/><path class="cls-3" d="M240.75,227.54H214.19a2.83,2.83,0,0,0-2.83,2.83v2.92a2.84,2.84,0,0,0,2.83,2.84H222c0,12.25-.41,12.71-6.22,19.38a2.82,2.82,0,0,0-.69,2.08,2.89,2.89,0,0,0,1,2l2.39,2a2.86,2.86,0,0,0,4-.34l.29-.35c4.29-5,6.46-7.87,7.44-13.66a3,3,0,0,0,.89.13,2.89,2.89,0,0,0,1.47-.39c6.9-4,11.06-6.34,11.06-12.65v-3.92A2.83,2.83,0,0,0,240.75,227.54Zm-9.94,10.28c0-.55,0-1.11,0-1.69h2.66C232.91,236.55,232.06,237.09,230.81,237.82Z"/><path class="cls-1" d="M79,233v2.84H69.07v18.56H81.91v2.76h-29v-2.76h13V235.85H55.79V233Z"/><path class="cls-1" d="M106.87,231.53v3H95.75v-3Zm-10,26.84v-3c12.4,0,14.76-4.4,21.8-17.36l2.84,1.56C114.59,252.37,111.51,258.37,96.83,258.37Z"/><path class="cls-1" d="M147.23,230.33v3.12H137v-3.12ZM137,241v-3h10.28v3Zm23,1.64c-4.2,8.52-7.72,15.88-19.16,15.88h-2.92v-2.92h2.92c9.36,0,12.16-6.12,16.24-14.28,1.12-2.16,2-4.12,2-4.12l2.84,1.32S160.39,241.69,160,242.61Zm-2.64-7H155v-6.16h2.28Zm5,0H160v-6.16h2.28Z"/><path class="cls-1" d="M201.87,252.89V256H173v-3.12ZM177.31,236v-3h20.12v3Z"/><path class="cls-1" d="M237.55,234.29v-1H214.19v-2.92h26.56v3.92c0,4.68-3,6.36-9.72,10.24l-1.56-2.68C236.47,237.93,237.55,237,237.55,234.29Zm-12.76,1.44H228c0,14.8-1.6,16.44-7.72,23.64l-2.4-2C224.11,250.21,224.79,249.17,224.79,235.73Z"/></g></svg>