<?xml version="1.0" encoding="UTF-8" standalone="no"?>
<!DOCTYPE svg PUBLIC "-//W3C//DTD SVG 1.1//EN" "http://www.w3.org/Graphics/SVG/1.1/DTD/svg11.dtd">
<svg version="1.1" xmlns="http://www.w3.org/2000/svg" xmlns:xlink="http://www.w3.org/1999/xlink" preserveAspectRatio="xMidYMid meet" viewBox="-7.063291139240507 243.07341772151898 655.1265822784811 154.87341772151905" width="650.13" height="149.87"><defs><path d="M570.13 245.07C611.51 245.07 645.06 278.62 645.06 320.01C645.06 320.01 645.06 320.01 645.06 320.01C645.06 361.4 611.51 394.95 570.13 394.95C570.13 394.95 570.13 394.95 570.13 394.95C520.1 394.95 119.9 394.95 69.87 394.95C28.49 394.95 -5.06 361.4 -5.06 320.01C-5.06 320.01 -5.06 320.01 -5.06 320.01C-5.06 278.62 28.49 245.07 69.87 245.07C169.92 245.07 520.1 245.07 570.13 245.07Z" id="h52wsDlo39"></path><path d="M219.55 292.91L219.5 293.23L219.44 293.55L219.37 293.87L219.29 294.18L219.19 294.48L219.09 294.78L218.97 295.07L218.84 295.36L218.7 295.64L218.55 295.92L218.39 296.19L218.22 296.45L218.04 296.7L217.85 296.95L217.65 297.19L217.45 297.42L217.23 297.65L217.01 297.86L216.78 298.07L216.54 298.27L216.29 298.46L216.03 298.64L215.77 298.81L215.5 298.97L215.23 299.12L214.95 299.26L214.66 299.38L214.36 299.5L214.06 299.61L213.76 299.7L213.45 299.78L213.14 299.86L212.82 299.91L212.5 299.96L212.17 299.99L211.84 300.01L211.5 300.02L183.29 300.02L183.29 304.82L205.97 304.82L206.31 304.83L206.64 304.85L206.97 304.88L207.29 304.93L207.61 304.98L207.92 305.06L208.23 305.14L208.54 305.23L208.83 305.34L209.13 305.46L209.42 305.59L209.7 305.72L209.97 305.87L210.24 306.03L210.5 306.2L210.76 306.38L211.01 306.57L211.25 306.77L211.48 306.98L211.7 307.19L211.92 307.42L212.13 307.65L212.32 307.89L212.51 308.14L212.69 308.39L212.86 308.65L213.02 308.92L213.17 309.2L213.31 309.48L213.44 309.77L213.56 310.06L213.66 310.36L213.76 310.67L213.84 310.97L213.91 311.29L213.97 311.61L214.02 311.93L214.05 312.26L214.07 312.59L214.08 312.92L214.08 321.02L214.07 321.36L214.05 321.69L214.02 322.01L213.97 322.34L213.91 322.66L213.84 322.97L213.76 323.28L213.66 323.58L213.56 323.88L213.44 324.18L213.31 324.46L213.17 324.75L213.02 325.02L212.86 325.29L212.69 325.55L212.51 325.81L212.32 326.05L212.13 326.3L211.92 326.53L211.7 326.75L211.48 326.97L211.25 327.17L211.01 327.37L210.76 327.56L210.5 327.74L210.24 327.91L209.97 328.07L209.7 328.22L209.42 328.36L209.13 328.49L208.83 328.6L208.54 328.71L208.23 328.81L207.92 328.89L207.61 328.96L207.29 329.02L206.97 329.06L206.64 329.1L206.31 329.12L205.97 329.12L183.29 329.12L183.29 337.23L213.99 337.23L214.15 337.23L214.31 337.24L214.47 337.24L214.62 337.26L214.78 337.27L214.93 337.29L215.09 337.31L215.24 337.34L215.4 337.36L215.55 337.39L215.7 337.43L215.85 337.46L216 337.5L216.15 337.54L216.3 337.59L216.45 337.64L216.6 337.69L216.74 337.74L216.89 337.8L217.03 337.85L217.17 337.91L217.31 337.98L217.45 338.05L217.59 338.11L217.73 338.19L217.86 338.26L218 338.34L218.13 338.42L218.26 338.5L218.39 338.59L218.52 338.67L218.65 338.76L218.78 338.86L218.9 338.95L219.02 339.05L219.14 339.15L219.26 339.25L219.38 339.36L219.49 339.46L219.61 339.57L219.61 291.92L219.6 292.25L219.58 292.58L219.55 292.91ZM382.2 308.22L383.54 308.09L384.85 307.82L386.13 307.41L387.35 306.87L388.52 306.2L389.19 305.62L389.72 304.92L390.09 304.13L390.3 303.28L390.32 302.39L390.32 302.11L390.32 301.83L390.29 301.55L390.25 301.27L390.2 300.99L388.63 300.59L387.04 300.3L385.43 300.1L383.82 300.01L382.2 300.02L382.2 308.22ZM219.63 283.01L219.67 282.68L219.71 282.36L219.77 282.04L219.84 281.73L219.92 281.42L220.02 281.12L220.12 280.82L220.24 280.52L220.37 280.23L220.51 279.95L220.66 279.68L220.82 279.41L220.99 279.15L221.17 278.89L221.36 278.64L221.56 278.4L221.76 278.17L221.98 277.95L222.2 277.73L222.43 277.52L222.67 277.33L222.92 277.14L223.18 276.96L223.44 276.79L223.71 276.63L223.98 276.48L224.27 276.34L224.55 276.21L224.85 276.09L225.15 275.99L225.45 275.89L225.76 275.81L226.07 275.74L226.39 275.68L226.72 275.63L227.04 275.6L227.37 275.58L227.71 275.57L237.83 275.57L238.04 275.58L238.25 275.58L238.46 275.6L238.66 275.61L238.87 275.64L239.07 275.67L239.27 275.7L239.47 275.74L239.67 275.78L239.87 275.83L240.07 275.88L240.26 275.94L240.46 276L240.65 276.07L240.84 276.14L241.02 276.22L241.21 276.3L241.39 276.39L241.57 276.48L241.75 276.57L241.93 276.67L242.1 276.78L242.27 276.89L242.44 277L242.61 277.11L242.77 277.24L242.93 277.36L243.09 277.49L243.24 277.62L243.39 277.76L243.54 277.9L243.68 278.05L243.82 278.2L243.96 278.35L244.09 278.5L244.22 278.66L244.35 278.83L244.47 279L244.58 279.17L244.7 279.34L261.71 306.34L261.71 283.51L261.72 283.18L261.74 282.85L261.77 282.52L261.82 282.2L261.88 281.88L261.95 281.57L262.03 281.26L262.12 280.95L262.23 280.65L262.35 280.36L262.48 280.07L262.62 279.79L262.77 279.52L262.93 279.25L263.09 278.98L263.27 278.73L263.46 278.48L263.66 278.24L263.87 278.01L264.08 277.79L264.31 277.57L264.54 277.36L264.78 277.16L265.03 276.98L265.28 276.8L265.55 276.63L265.81 276.47L266.09 276.32L266.37 276.18L266.66 276.05L266.95 275.93L267.25 275.83L267.56 275.73L267.87 275.65L268.18 275.58L268.5 275.52L268.82 275.47L269.15 275.44L269.48 275.42L269.81 275.41L278.54 275.41L278.67 275.41L278.8 275.42L278.93 275.42L279.06 275.43L279.19 275.44L279.32 275.45L279.45 275.46L279.58 275.47L279.71 275.49L279.84 275.51L279.96 275.53L280.09 275.56L280.22 275.58L280.34 275.61L280.47 275.64L280.59 275.67L280.72 275.71L280.84 275.74L280.96 275.78L281.09 275.82L281.21 275.86L281.33 275.91L281.45 275.95L281.57 276L281.69 276.05L281.81 276.1L281.92 276.16L282.04 276.21L282.16 276.27L282.27 276.33L282.38 276.39L282.5 276.46L282.61 276.52L282.72 276.59L282.83 276.66L282.94 276.73L283.05 276.8L283.15 276.88L283.26 276.95L283.36 277.03L283.46 276.96L283.56 276.9L283.67 276.83L283.77 276.77L283.88 276.71L283.98 276.65L284.09 276.59L284.19 276.53L284.3 276.48L284.41 276.42L284.52 276.37L284.63 276.32L284.74 276.27L284.85 276.23L284.96 276.18L285.08 276.14L285.19 276.1L285.3 276.06L285.42 276.02L285.53 275.99L285.65 275.95L285.77 275.92L285.88 275.89L286 275.86L286.12 275.83L286.23 275.8L286.35 275.78L286.47 275.76L286.59 275.74L286.71 275.72L286.83 275.7L286.95 275.69L287.07 275.68L287.19 275.66L287.31 275.65L287.43 275.65L287.55 275.64L287.68 275.64L287.8 275.64L287.92 275.64L352.12 275.64L352.28 275.64L352.44 275.64L352.6 275.65L352.75 275.66L352.91 275.68L353.06 275.69L353.22 275.71L353.38 275.74L353.53 275.76L353.68 275.79L353.84 275.82L353.99 275.86L354.14 275.89L354.29 275.93L354.44 275.98L354.59 276.02L354.74 276.07L354.88 276.13L355.03 276.18L355.17 276.24L355.32 276.3L355.46 276.36L355.6 276.43L355.74 276.49L355.88 276.57L356.01 276.64L356.15 276.72L356.28 276.79L356.42 276.88L356.55 276.96L356.68 277.05L356.81 277.14L356.93 277.23L357.06 277.32L357.18 277.42L357.3 277.52L357.42 277.62L357.54 277.73L357.66 277.83L357.77 277.94L357.89 277.83L358 277.72L358.12 277.62L358.24 277.52L358.36 277.41L358.48 277.32L358.61 277.22L358.74 277.13L358.86 277.04L358.99 276.95L359.13 276.86L359.26 276.78L359.39 276.7L359.53 276.63L359.67 276.55L359.81 276.48L359.95 276.41L360.09 276.34L360.23 276.28L360.38 276.22L360.52 276.16L360.67 276.11L360.81 276.06L360.96 276.01L361.11 275.96L361.26 275.92L361.41 275.88L361.57 275.84L361.72 275.81L361.87 275.78L362.03 275.75L362.18 275.72L362.34 275.7L362.49 275.68L362.65 275.67L362.81 275.65L362.97 275.65L363.13 275.64L363.28 275.64L363.44 275.64L382.89 275.64L383.59 275.64L384.28 275.64L384.95 275.65L385.62 275.66L386.28 275.67L386.92 275.69L387.55 275.71L388.18 275.74L388.79 275.76L389.39 275.79L389.98 275.83L390.56 275.86L391.13 275.9L391.69 275.95L392.24 275.99L392.78 276.04L393.31 276.1L393.83 276.15L394.34 276.21L394.84 276.28L395.33 276.35L395.81 276.42L396.28 276.49L396.74 276.57L397.19 276.65L397.64 276.73L398.07 276.82L398.49 276.91L398.91 277.01L399.32 277.11L399.71 277.21L400.1 277.31L400.48 277.42L400.86 277.53L401.22 277.65L401.58 277.77L401.92 277.9L402.26 278.02L402.59 278.15L402.92 278.29L403.61 278.55L404.29 278.84L404.95 279.14L405.61 279.47L406.25 279.81L406.87 280.18L407.48 280.56L408.08 280.96L408.67 281.37L409.23 281.81L409.79 282.26L410.33 282.73L410.85 283.21L411.36 283.71L411.85 284.22L412.32 284.75L412.78 285.29L413.21 285.84L413.64 286.41L414.04 286.99L414.43 287.58L414.79 288.19L415.14 288.8L415.47 289.43L415.78 290.06L416.07 290.71L416.35 291.37L416.6 292.03L416.83 292.71L417.04 293.39L417.22 294.08L417.39 294.78L417.54 295.48L417.66 296.19L417.76 296.91L417.84 297.63L417.9 298.36L417.93 299.09L417.94 299.83L417.92 300.57L417.93 301.02L417.94 301.47L417.93 301.92L417.92 302.37L417.9 302.81L417.87 303.26L417.84 303.71L417.8 304.15L417.75 304.6L417.7 305.04L417.64 305.48L417.57 305.92L417.5 306.36L417.42 306.8L417.33 307.24L417.23 307.67L417.13 308.11L417.02 308.54L416.91 308.97L416.78 309.4L416.66 309.82L416.52 310.25L416.38 310.67L416.23 311.09L416.07 311.51L415.91 311.92L415.74 312.33L415.57 312.74L415.38 313.15L415.2 313.56L415 313.96L414.8 314.36L414.59 314.75L414.38 315.15L414.16 315.54L413.93 315.92L413.7 316.31L413.46 316.69L413.21 317.06L412.96 317.44L412.83 317.62L412.69 317.81L412.55 317.99L412.41 318.17L412.26 318.35L412.12 318.53L411.98 318.71L411.83 318.89L411.68 319.07L411.53 319.24L411.38 319.42L411.23 319.59L411.08 319.76L410.93 319.93L410.77 320.1L410.62 320.27L410.46 320.44L410.3 320.61L410.14 320.77L409.98 320.93L409.82 321.1L409.66 321.26L409.49 321.42L409.33 321.58L409.16 321.74L408.99 321.89L408.82 322.05L408.65 322.2L408.48 322.36L408.31 322.51L408.13 322.66L407.96 322.81L407.78 322.96L407.61 323.1L407.43 323.25L407.25 323.39L407.07 323.54L406.89 323.68L406.71 323.82L406.52 323.96L425.15 348.53L425.23 348.63L425.31 348.74L425.39 348.85L425.46 348.96L425.53 349.07L425.6 349.18L425.67 349.3L425.74 349.41L425.8 349.52L425.87 349.64L425.93 349.76L425.98 349.88L426.04 349.99L426.1 350.11L426.15 350.23L426.2 350.35L426.25 350.48L426.3 350.6L426.34 350.72L426.38 350.85L426.42 350.97L426.46 351.1L426.5 351.22L426.53 351.35L426.57 351.48L426.6 351.6L426.63 351.73L426.65 351.86L426.68 351.99L426.7 352.12L426.72 352.25L426.74 352.38L426.75 352.51L426.77 352.64L426.78 352.78L426.79 352.91L426.8 353.04L426.8 353.17L426.8 353.31L426.81 353.44L426.8 353.77L426.78 354.1L426.74 354.43L426.7 354.75L426.64 355.07L426.57 355.38L426.48 355.69L426.39 356L426.28 356.3L426.16 356.59L426.04 356.88L425.9 357.16L425.75 357.44L425.59 357.7L425.42 357.97L425.24 358.22L425.05 358.47L424.85 358.71L424.64 358.94L424.43 359.16L424.2 359.38L423.97 359.59L423.73 359.78L423.48 359.97L423.22 360.15L422.96 360.32L422.69 360.48L422.42 360.63L422.14 360.77L421.85 360.9L421.55 361.01L421.25 361.12L420.95 361.21L420.64 361.3L420.33 361.37L420.01 361.42L419.68 361.47L419.36 361.5L419.03 361.52L418.69 361.53L405.77 361.53L405.58 361.53L405.39 361.52L405.2 361.51L405.01 361.5L404.82 361.48L404.63 361.46L404.44 361.43L404.25 361.4L404.07 361.36L403.88 361.32L403.7 361.28L403.52 361.23L403.34 361.18L403.16 361.12L402.98 361.06L402.81 361L402.63 360.93L402.46 360.85L402.29 360.78L402.12 360.7L401.95 360.61L401.79 360.52L401.62 360.43L401.46 360.33L401.3 360.23L401.15 360.13L400.99 360.02L400.84 359.91L400.69 359.8L400.54 359.68L400.4 359.56L400.26 359.43L400.12 359.3L399.98 359.17L399.85 359.04L399.72 358.9L399.59 358.76L399.47 358.61L399.35 358.46L399.23 358.31L382.2 335.85L382.2 353.43L382.19 353.76L382.17 354.09L382.14 354.42L382.09 354.74L382.03 355.06L381.96 355.37L381.88 355.68L381.78 355.99L381.68 356.29L381.56 356.58L381.43 356.87L381.29 357.15L381.14 357.43L380.98 357.7L380.81 357.96L380.63 358.21L380.45 358.46L380.25 358.7L380.04 358.93L379.82 359.16L379.6 359.37L379.37 359.58L379.13 359.78L378.88 359.97L378.63 360.15L378.36 360.32L378.09 360.48L377.82 360.62L377.54 360.76L377.25 360.89L376.96 361.01L376.66 361.12L376.35 361.21L376.04 361.29L375.73 361.36L375.41 361.42L375.09 361.47L374.76 361.5L374.43 361.52L374.1 361.53L363.42 361.53L363.09 361.52L362.76 361.5L362.43 361.47L362.11 361.42L361.79 361.36L361.48 361.29L361.17 361.21L360.86 361.12L360.56 361.01L360.27 360.89L359.98 360.76L359.7 360.62L359.42 360.48L359.16 360.32L358.89 360.15L358.64 359.97L358.39 359.78L358.15 359.58L357.92 359.37L357.69 359.16L357.48 358.93L357.27 358.7L357.07 358.46L356.88 358.21L356.71 357.96L356.54 357.7L356.38 357.43L356.23 357.15L356.09 356.87L355.96 356.58L355.84 356.29L355.73 355.99L355.64 355.68L355.56 355.37L355.49 355.06L355.43 354.74L355.38 354.42L355.35 354.09L355.33 353.76L355.32 353.43L355.32 299.33L355.25 299.36L355.17 299.4L355.09 299.43L355.01 299.46L354.94 299.49L354.86 299.52L354.78 299.54L354.7 299.57L354.62 299.6L354.55 299.62L354.47 299.65L354.39 299.67L354.31 299.7L354.23 299.72L354.15 299.74L354.07 299.76L353.99 299.78L353.91 299.8L353.83 299.82L353.75 299.84L353.66 299.85L353.58 299.87L353.5 299.88L353.42 299.9L353.34 299.91L353.26 299.93L353.18 299.94L353.09 299.95L353.01 299.96L352.93 299.97L352.85 299.98L352.76 299.99L352.68 299.99L352.6 300L352.52 300L352.43 300.01L352.35 300.01L352.27 300.02L352.18 300.02L352.1 300.02L333.43 300.02L333.43 353.43L333.42 353.76L333.4 354.09L333.37 354.42L333.32 354.74L333.26 355.06L333.19 355.37L333.11 355.68L333.01 355.99L332.91 356.29L332.79 356.58L332.66 356.87L332.52 357.15L332.37 357.43L332.21 357.7L332.04 357.96L331.86 358.21L331.68 358.46L331.48 358.7L331.27 358.93L331.06 359.16L330.83 359.37L330.6 359.58L330.36 359.78L330.11 359.97L329.86 360.15L329.59 360.32L329.33 360.48L329.05 360.62L328.77 360.76L328.48 360.89L328.19 361.01L327.89 361.12L327.58 361.21L327.27 361.29L326.96 361.36L326.64 361.42L326.32 361.47L325.99 361.5L325.66 361.52L325.33 361.53L314.63 361.53L314.3 361.52L313.97 361.5L313.64 361.47L313.32 361.42L313 361.36L312.69 361.29L312.38 361.21L312.07 361.12L311.77 361.01L311.48 360.89L311.19 360.76L310.91 360.62L310.63 360.48L310.37 360.32L310.1 360.15L309.85 359.97L309.6 359.78L309.36 359.58L309.13 359.37L308.9 359.16L308.69 358.93L308.48 358.7L308.28 358.46L308.09 358.21L307.92 357.96L307.75 357.7L307.59 357.43L307.44 357.15L307.3 356.87L307.17 356.58L307.05 356.29L306.94 355.99L306.85 355.68L306.77 355.37L306.7 355.06L306.64 354.74L306.59 354.42L306.56 354.09L306.54 353.76L306.53 353.43L306.53 300.02L287.92 300.02L287.89 300.02L287.86 300.02L287.82 300.01L287.79 300.01L287.76 300.01L287.73 300.01L287.7 300L287.66 300L287.63 299.99L287.6 299.99L287.57 299.99L287.54 299.98L287.5 299.98L287.47 299.97L287.44 299.97L287.41 299.96L287.38 299.96L287.31 299.95L287.28 299.94L287.25 299.94L287.22 299.93L287.19 299.93L287.15 299.92L287.12 299.92L287.09 299.91L287.06 299.91L287.03 299.91L286.99 299.9L286.96 299.9L286.93 299.89L286.9 299.89L286.87 299.89L286.83 299.89L286.8 299.88L286.77 299.88L286.74 299.88L286.71 299.88L286.67 299.88L286.64 299.88L286.64 353.43L286.64 353.76L286.62 354.09L286.58 354.42L286.54 354.74L286.48 355.06L286.41 355.37L286.32 355.68L286.23 355.99L286.12 356.29L286.01 356.58L285.88 356.87L285.74 357.15L285.59 357.43L285.43 357.7L285.26 357.96L285.08 358.21L284.89 358.46L284.69 358.7L284.49 358.93L284.27 359.16L284.05 359.37L283.81 359.58L283.57 359.78L283.33 359.97L283.07 360.15L282.81 360.32L282.54 360.48L282.26 360.62L281.98 360.76L281.7 360.89L281.4 361.01L281.1 361.12L280.8 361.21L280.49 361.29L280.17 361.36L279.86 361.42L279.53 361.47L279.21 361.5L278.88 361.52L278.54 361.53L268.68 361.53L268.47 361.53L268.26 361.52L268.06 361.5L267.85 361.49L267.65 361.46L267.44 361.43L267.24 361.4L267.04 361.36L266.84 361.32L266.64 361.27L266.45 361.21L266.25 361.15L266.06 361.09L265.87 361.02L265.68 360.95L265.49 360.87L265.31 360.79L265.13 360.7L264.95 360.61L264.77 360.52L264.59 360.42L264.42 360.31L264.25 360.2L264.08 360.09L263.92 359.97L263.75 359.85L263.6 359.73L263.44 359.6L263.29 359.46L263.14 359.33L262.99 359.18L262.85 359.04L262.71 358.89L262.57 358.74L262.44 358.58L262.31 358.42L262.18 358.26L262.06 358.09L261.95 357.92L261.83 357.74L244.54 330.26L244.54 353.43L244.53 353.76L244.51 354.09L244.48 354.42L244.43 354.74L244.37 355.06L244.3 355.37L244.22 355.68L244.12 355.99L244.02 356.29L243.9 356.58L243.77 356.87L243.63 357.15L243.48 357.43L243.32 357.7L243.15 357.96L242.97 358.21L242.78 358.46L242.59 358.7L242.38 358.93L242.16 359.16L241.94 359.37L241.71 359.58L241.47 359.78L241.22 359.97L240.96 360.15L240.7 360.32L240.43 360.48L240.16 360.62L239.88 360.76L239.59 360.89L239.3 361.01L239 361.12L238.69 361.21L238.38 361.29L238.07 361.36L237.75 361.42L237.43 361.47L237.1 361.5L236.77 361.52L236.44 361.53L227.71 361.53L227.5 361.53L227.29 361.52L227.08 361.5L226.88 361.48L226.67 361.46L226.47 361.43L226.27 361.39L226.06 361.35L225.87 361.31L225.67 361.26L225.47 361.2L225.28 361.14L225.08 361.08L224.89 361.01L224.7 360.94L224.52 360.86L224.33 360.78L224.15 360.69L223.97 360.6L223.79 360.5L223.61 360.4L223.44 360.29L223.27 360.18L223.1 360.07L222.94 359.95L222.78 359.83L222.62 359.7L222.46 359.57L222.31 359.44L222.16 359.3L222.01 359.15L221.87 359.01L221.73 358.86L221.59 358.7L221.46 358.55L221.33 358.38L221.21 358.22L221.09 358.05L220.97 357.88L220.86 357.7L220.75 357.88L220.63 358.05L220.51 358.22L220.39 358.39L220.26 358.55L220.12 358.71L219.99 358.86L219.85 359.01L219.71 359.16L219.56 359.3L219.41 359.44L219.26 359.57L219.1 359.71L218.94 359.83L218.78 359.95L218.61 360.07L218.44 360.19L218.27 360.3L218.1 360.4L217.92 360.5L217.74 360.6L217.56 360.69L217.38 360.78L217.19 360.86L217.01 360.94L216.82 361.02L216.63 361.08L216.43 361.15L216.24 361.21L216.04 361.26L215.84 361.31L215.64 361.36L215.44 361.4L215.24 361.43L215.03 361.46L214.83 361.48L214.62 361.5L214.41 361.52L214.2 361.53L213.99 361.53L164.52 361.53L164.18 361.52L163.85 361.5L163.53 361.47L163.2 361.42L162.88 361.36L162.57 361.29L162.26 361.21L161.96 361.12L161.66 361.01L161.36 360.89L161.08 360.76L160.79 360.62L160.52 360.48L160.25 360.32L159.99 360.15L159.73 359.97L159.48 359.78L159.24 359.58L159.01 359.37L158.79 359.16L158.57 358.93L158.37 358.7L158.17 358.46L157.98 358.21L157.8 357.96L157.63 357.7L157.47 357.43L157.32 357.15L157.18 356.87L157.05 356.58L156.93 356.29L156.83 355.99L156.73 355.68L156.65 355.37L156.58 355.06L156.52 354.74L156.48 354.42L156.44 354.09L156.42 353.76L156.42 353.43L156.42 283.82L156.42 283.48L156.44 283.15L156.48 282.83L156.52 282.5L156.58 282.19L156.65 281.87L156.73 281.56L156.83 281.26L156.93 280.96L157.05 280.66L157.18 280.38L157.32 280.09L157.47 279.82L157.63 279.55L157.8 279.29L157.98 279.03L158.17 278.79L158.37 278.55L158.57 278.31L158.79 278.09L159.01 277.87L159.24 277.67L159.48 277.47L159.73 277.28L159.99 277.1L160.25 276.93L160.52 276.77L160.79 276.62L161.08 276.48L161.36 276.35L161.66 276.24L161.96 276.13L162.26 276.03L162.57 275.95L162.88 275.88L163.2 275.82L163.53 275.78L163.85 275.74L164.18 275.72L164.52 275.72L211.5 275.72L211.84 275.72L212.17 275.74L212.5 275.78L212.82 275.82L213.14 275.88L213.45 275.95L213.76 276.03L214.06 276.13L214.36 276.24L214.66 276.35L214.95 276.48L215.23 276.62L215.5 276.77L215.77 276.93L216.03 277.1L216.29 277.28L216.54 277.47L216.78 277.67L217.01 277.87L217.23 278.09L217.45 278.31L217.65 278.55L217.85 278.79L218.04 279.03L218.22 279.29L218.39 279.55L218.55 279.82L218.7 280.09L218.84 280.38L218.97 280.66L219.09 280.96L219.19 281.26L219.29 281.56L219.37 281.87L219.44 282.19L219.5 282.5L219.55 282.83L219.58 283.15L219.6 283.48L219.61 283.82L219.61 283.68L219.61 283.34L219.63 283.01Z" id="aO7Hn66qC"></path><path d="M440.34 327.34C440.34 342.99 440.34 351.69 440.34 353.43C440.34 357.9 443.97 361.53 448.45 361.53C449.51 361.53 458.05 361.53 459.12 361.53C463.59 361.53 467.22 357.9 467.22 353.43C467.22 351.7 467.22 343.03 467.22 327.44C483.02 304.03 491.79 291.02 493.55 288.42C496.04 284.7 495.05 279.67 491.34 277.17C489.99 276.27 488.41 275.79 486.78 275.8C485.77 275.8 477.67 275.8 476.66 275.8C474 275.8 471.51 277.11 469.99 279.3C468.99 280.76 463.94 288.07 454.87 301.24C446.68 288.23 442.13 281.01 441.22 279.56C439.73 277.22 437.15 275.8 434.37 275.8C433.13 275.8 423.21 275.8 421.97 275.8C417.5 275.8 413.87 279.42 413.87 283.9C413.88 285.45 414.34 286.97 415.19 288.27C418.54 293.48 426.93 306.51 440.34 327.34Z" id="aZkOZqwZ"></path><path d="M164.52 353.43L164.52 283.9L211.5 283.9L211.5 292L175.19 292L175.19 312.92L205.97 312.92L205.97 321.02L175.19 321.02L175.19 345.33L213.99 345.33L213.99 353.43L164.52 353.43Z" id="a4nZjYXOzg"></path><path d="M227.71 353.43L227.71 283.68L237.83 283.68L269.71 334.19L269.81 334.19L269.81 283.68L278.54 283.68L278.54 353.43L268.68 353.43L236.6 302.43L236.44 302.43L236.44 353.43L227.71 353.43Z" id="b1c8FsnnDM"></path><path d="M314.63 353.43L314.63 291.92L287.92 291.92L287.92 283.82L352.1 283.82L352.1 291.92L325.33 291.92L325.33 353.43L314.63 353.43Z" id="fe7yHbn"></path><path d="M383.98 283.9L384.57 283.91L385.14 283.92L385.71 283.93L386.26 283.94L386.81 283.96L387.35 283.98L387.88 284L388.39 284.02L388.9 284.05L389.4 284.08L389.9 284.11L390.38 284.15L390.85 284.18L391.31 284.22L391.77 284.26L392.21 284.31L392.65 284.35L393.07 284.4L393.49 284.45L393.9 284.51L394.3 284.57L394.69 284.62L395.07 284.69L395.44 284.75L395.8 284.82L396.15 284.89L396.49 284.96L396.83 285.04L397.15 285.11L397.47 285.19L397.77 285.27L398.07 285.36L398.36 285.45L398.63 285.54L398.9 285.63L399.16 285.73L399.41 285.82L399.66 285.92L400.12 286.09L400.58 286.27L401.03 286.46L401.47 286.67L401.91 286.89L402.33 287.12L402.74 287.37L403.15 287.63L403.54 287.9L403.93 288.18L404.3 288.47L404.67 288.78L405.02 289.1L405.36 289.42L405.7 289.76L406.02 290.11L406.33 290.47L406.62 290.83L406.91 291.21L407.18 291.59L407.44 291.98L407.69 292.39L407.93 292.79L408.15 293.21L408.36 293.63L408.56 294.07L408.74 294.5L408.91 294.95L409.06 295.4L409.2 295.85L409.33 296.31L409.44 296.78L409.54 297.25L409.62 297.72L409.69 298.2L409.74 298.68L409.77 299.17L409.79 299.66L409.8 300.15L409.78 300.65L409.79 300.97L409.8 301.3L409.8 301.62L409.79 301.94L409.78 302.26L409.76 302.59L409.74 302.91L409.72 303.23L409.69 303.55L409.65 303.87L409.61 304.18L409.56 304.5L409.51 304.82L409.45 305.13L409.39 305.45L409.33 305.76L409.26 306.07L409.18 306.38L409.1 306.69L409.01 307L408.92 307.31L408.83 307.62L408.73 307.92L408.62 308.22L408.51 308.52L408.4 308.82L408.28 309.12L408.15 309.41L408.02 309.71L407.89 310L407.75 310.29L407.61 310.58L407.46 310.86L407.31 311.15L407.15 311.43L406.99 311.71L406.82 311.98L406.65 312.26L406.48 312.53L406.3 312.8L406.06 313.09L405.82 313.38L405.58 313.66L405.33 313.94L405.08 314.22L404.82 314.49L404.57 314.76L404.31 315.03L404.05 315.3L403.78 315.56L403.51 315.82L403.24 316.07L402.97 316.32L402.69 316.57L402.41 316.82L402.13 317.06L401.84 317.3L401.56 317.54L401.26 317.77L400.97 318L400.68 318.22L400.38 318.45L400.08 318.66L399.77 318.88L399.47 319.09L399.16 319.3L398.85 319.5L398.53 319.71L398.22 319.9L397.9 320.1L397.58 320.29L397.25 320.47L396.93 320.66L396.6 320.84L396.27 321.01L395.94 321.18L395.61 321.35L395.27 321.52L394.93 321.68L394.59 321.83L418.53 353.43L405.69 353.43L383.74 324.49L374.1 324.49L374.1 353.43L363.42 353.43L363.42 283.9L382.78 283.9L383.39 283.9L383.98 283.9ZM374.1 316.47L379.73 316.47L380.58 316.49L381.43 316.49L382.28 316.45L383.13 316.38L383.97 316.28L384.81 316.14L385.64 315.98L386.46 315.78L387.28 315.55L388.08 315.3L388.88 315.01L389.66 314.69L390.44 314.34L391.2 313.97L391.95 313.56L392.68 313.12L393.4 312.66L393.96 312.22L394.5 311.76L395 311.27L395.47 310.75L395.91 310.21L396.32 309.65L396.7 309.07L397.03 308.46L397.34 307.84L397.61 307.2L397.84 306.54L398.04 305.88L398.19 305.2L398.31 304.51L398.39 303.81L398.42 303.1L398.42 302.39L398.41 301.69L398.37 301.02L398.3 300.37L398.21 299.75L398.09 299.16L397.95 298.6L397.78 298.06L397.58 297.55L397.36 297.07L397.11 296.61L396.84 296.18L396.54 295.77L396.21 295.4L395.85 295.05L395.47 294.72L395.07 294.42L394.63 294.15L394.16 293.89L393.65 293.66L393.09 293.43L392.49 293.22L391.85 293.03L391.16 292.85L390.42 292.69L389.65 292.55L388.82 292.41L387.96 292.3L387.05 292.2L386.09 292.11L385.09 292.04L384.05 291.99L382.96 291.95L381.83 291.93L380.66 291.92L374.1 291.92L374.1 316.47Z" id="assZvsjm0"></path><path d="M448.45 353.43L448.45 325.07L421.97 283.9L434.29 283.9L454.54 315.98L476.66 283.9L486.78 283.9L459.12 325.07L459.12 353.43L448.45 353.43Z" id="aFVhRu9Sg"></path></defs><g><g><use xlink:href="#h52wsDlo39" opacity="1" fill="#d31577" fill-opacity="1"></use><g><use xlink:href="#h52wsDlo39" opacity="1" fill-opacity="0" stroke="#231815" stroke-width="4" stroke-opacity="1"></use></g></g><g><use xlink:href="#aO7Hn66qC" opacity="1" fill="#231815" fill-opacity="1"></use><g><use xlink:href="#aO7Hn66qC" opacity="1" fill-opacity="0" stroke="#000000" stroke-width="1" stroke-opacity="0"></use></g></g><g><use xlink:href="#aZkOZqwZ" opacity="1" fill="#231815" fill-opacity="1"></use><g><use xlink:href="#aZkOZqwZ" opacity="1" fill-opacity="0" stroke="#000000" stroke-width="1" stroke-opacity="0"></use></g></g><g><use xlink:href="#a4nZjYXOzg" opacity="1" fill="#f5e929" fill-opacity="1"></use><g><use xlink:href="#a4nZjYXOzg" opacity="1" fill-opacity="0" stroke="#000000" stroke-width="1" stroke-opacity="0"></use></g></g><g><use xlink:href="#b1c8FsnnDM" opacity="1" fill="#f5e929" fill-opacity="1"></use><g><use xlink:href="#b1c8FsnnDM" opacity="1" fill-opacity="0" stroke="#000000" stroke-width="1" stroke-opacity="0"></use></g></g><g><use xlink:href="#fe7yHbn" opacity="1" fill="#f5e929" fill-opacity="1"></use><g><use xlink:href="#fe7yHbn" opacity="1" fill-opacity="0" stroke="#000000" stroke-width="1" stroke-opacity="0"></use></g></g><g><use xlink:href="#assZvsjm0" opacity="1" fill="#f5e929" fill-opacity="1"></use><g><use xlink:href="#assZvsjm0" opacity="1" fill-opacity="0" stroke="#000000" stroke-width="1" stroke-opacity="0"></use></g></g><g><use xlink:href="#aFVhRu9Sg" opacity="1" fill="#f5e929" fill-opacity="1"></use><g><use xlink:href="#aFVhRu9Sg" opacity="1" fill-opacity="0" stroke="#000000" stroke-width="1" stroke-opacity="0"></use></g></g></g></svg>