<?xml version="1.0" encoding="UTF-8" standalone="no"?>
<!DOCTYPE svg PUBLIC "-//W3C//DTD SVG 1.1//EN" "http://www.w3.org/Graphics/SVG/1.1/DTD/svg11.dtd">
<svg version="1.1" xmlns="http://www.w3.org/2000/svg" xmlns:xlink="http://www.w3.org/1999/xlink" preserveAspectRatio="xMidYMid meet" viewBox="0 0 640 640" width="640" height="640"><defs><path d="M635 320C635 493.85 493.86 635 320 635C146.15 635 5 493.85 5 320C5 146.15 146.15 5 320 5C493.86 5 635 146.15 635 320Z" id="a13QjZJ1K"></path><path d="M396.88 122.23L396.89 121.7L396.92 121.18L396.97 120.66L397.04 120.15L397.14 119.65L397.25 119.15L397.38 118.66L397.53 118.18L397.7 117.71L397.88 117.25L398.09 116.79L398.31 116.34L398.54 115.91L398.8 115.48L399.07 115.07L399.35 114.67L399.65 114.27L399.96 113.89L400.29 113.53L400.63 113.17L400.99 112.83L401.35 112.5L401.73 112.19L402.12 111.89L402.53 111.61L402.94 111.34L403.37 111.09L403.8 110.85L404.25 110.63L404.7 110.43L405.17 110.24L405.64 110.07L406.12 109.92L406.61 109.79L407.11 109.68L407.61 109.59L408.12 109.51L408.64 109.46L409.16 109.43L409.69 109.42L460.94 109.42L461.47 109.43L461.99 109.46L462.51 109.51L463.02 109.59L463.52 109.68L464.02 109.79L464.51 109.92L464.99 110.07L465.46 110.24L465.92 110.43L466.38 110.63L466.83 110.85L467.26 111.09L467.69 111.34L468.1 111.61L468.5 111.89L468.9 112.19L469.28 112.5L469.64 112.83L470 113.17L470.34 113.53L470.67 113.89L470.98 114.27L471.28 114.67L471.56 115.07L471.83 115.48L472.08 115.91L472.32 116.34L472.54 116.79L472.74 117.25L472.93 117.71L473.1 118.18L473.25 118.66L473.38 119.15L473.49 119.65L473.58 120.15L473.66 120.66L473.71 121.18L473.74 121.7L473.75 122.23L473.75 256.76L525 314.42L473.75 314.42L473.75 493.79L359.67 493.79L359.67 493.76L359.68 493.19L359.68 368.75L359.67 368.18L359.64 367.62L359.58 367.06L359.51 366.51L359.41 365.96L359.29 365.43L359.16 364.9L359 364.38L358.83 363.87L358.64 363.37L358.43 362.88L358.2 362.4L357.96 361.93L357.7 361.47L357.42 361.02L357.13 360.59L356.82 360.16L356.49 359.75L356.16 359.36L355.8 358.97L355.44 358.61L355.06 358.25L354.67 357.91L354.26 357.59L353.85 357.28L353.42 356.99L352.98 356.72L352.53 356.47L352.07 356.23L351.6 356.01L351.12 355.81L350.63 355.63L350.14 355.47L349.63 355.32L349.12 355.2L348.6 355.1L348.07 355.02L347.54 354.97L347 354.93L346.45 354.92L293.55 354.92L293.01 354.93L292.47 354.97L291.93 355.02L291.41 355.1L290.89 355.2L290.37 355.32L289.87 355.47L289.37 355.63L288.88 355.81L288.4 356.01L287.93 356.23L287.47 356.47L287.02 356.72L286.59 356.99L286.16 357.28L285.74 357.59L285.34 357.91L284.95 358.25L284.57 358.61L284.2 358.97L283.85 359.36L283.51 359.75L283.19 360.16L282.88 360.59L282.58 361.02L282.31 361.47L282.05 361.93L281.8 362.4L281.57 362.88L281.36 363.37L281.17 363.87L281 364.38L280.84 364.9L280.71 365.43L280.59 365.96L280.5 366.51L280.42 367.06L280.37 367.62L280.34 368.18L280.32 368.75L280.32 493.19L280.34 493.76L280.34 493.79L166.25 493.79L166.25 314.42L115 314.42L320 83.79L396.88 170.28L396.88 122.23Z" id="c14x4qUzxn"></path></defs><g><g><g><use xlink:href="#a13QjZJ1K" opacity="1" fill="#fff000" fill-opacity="1"></use><g><use xlink:href="#a13QjZJ1K" opacity="1" fill-opacity="0" stroke="#000000" stroke-width="2" stroke-opacity="1"></use></g></g><g><use xlink:href="#c14x4qUzxn" opacity="1" fill="#0072ff" fill-opacity="1"></use><g><use xlink:href="#c14x4qUzxn" opacity="1" fill-opacity="0" stroke="#000000" stroke-width="3" stroke-opacity="1"></use></g></g></g></g></svg>