<?xml version="1.0" encoding="UTF-8" standalone="no"?>
<!DOCTYPE svg PUBLIC "-//W3C//DTD SVG 1.1//EN" "http://www.w3.org/Graphics/SVG/1.1/DTD/svg11.dtd">
<svg version="1.1" xmlns="http://www.w3.org/2000/svg" xmlns:xlink="http://www.w3.org/1999/xlink" preserveAspectRatio="xMidYMid meet" viewBox="0 0 640 640" width="640" height="640"><defs><path d="M635 318.31C635.93 492.16 495.55 634.06 321.7 635C147.85 635.93 5.94 495.54 5 321.69C4.07 147.84 144.45 5.94 318.3 5C492.15 4.07 634.06 144.46 635 318.31Z" id="b13buVs7V"></path><path d="M415.69 113.36L415.7 112.78L415.74 112.2L415.81 111.62L415.9 111.06L416.01 110.5L416.15 109.95L416.32 109.4L416.5 108.87L416.71 108.34L416.94 107.83L417.2 107.32L417.47 106.83L417.77 106.34L418.08 105.87L418.41 105.41L418.77 104.96L419.14 104.53L419.53 104.11L419.94 103.7L420.36 103.31L420.8 102.93L421.26 102.56L421.73 102.22L422.22 101.88L422.72 101.57L423.24 101.27L423.77 100.99L424.31 100.73L424.87 100.48L425.43 100.26L426.01 100.05L426.6 99.86L427.2 99.7L427.81 99.55L428.43 99.43L429.05 99.32L429.69 99.24L430.33 99.19L430.98 99.15L431.64 99.14L495.43 99.14L496.09 99.15L496.74 99.19L497.38 99.24L498.02 99.32L498.64 99.43L499.26 99.55L499.87 99.7L500.47 99.86L501.06 100.05L501.64 100.26L502.2 100.48L502.76 100.73L503.3 100.99L503.83 101.27L504.35 101.57L504.85 101.88L505.33 102.22L505.81 102.56L506.26 102.93L506.71 103.31L507.13 103.7L507.54 104.11L507.93 104.53L508.3 104.96L508.65 105.41L508.99 105.87L509.3 106.34L509.6 106.83L509.87 107.32L510.13 107.83L510.36 108.34L510.57 108.87L510.75 109.4L510.92 109.95L511.06 110.5L511.17 111.06L511.26 111.62L511.33 112.2L511.37 112.78L511.38 113.36L511.38 262.72L575.17 326.72L511.38 326.72L511.38 525.86L369.37 525.86L369.37 525.83L369.39 525.19L369.39 387.04L369.37 386.41L369.33 385.78L369.27 385.16L369.17 384.55L369.05 383.95L368.91 383.35L368.74 382.77L368.55 382.19L368.33 381.62L368.09 381.07L367.83 380.52L367.55 379.99L367.25 379.47L366.92 378.96L366.58 378.46L366.21 377.98L365.83 377.51L365.42 377.05L365 376.61L364.56 376.19L364.11 375.78L363.64 375.39L363.15 375.01L362.65 374.65L362.13 374.31L361.59 373.99L361.05 373.69L360.49 373.41L359.92 373.14L359.33 372.9L358.73 372.68L358.13 372.47L357.51 372.29L356.88 372.14L356.24 372L355.59 371.89L354.94 371.8L354.27 371.74L353.6 371.7L352.93 371.69L287.07 371.69L286.4 371.7L285.73 371.74L285.06 371.8L284.41 371.89L283.76 372L283.12 372.14L282.49 372.29L281.87 372.47L281.27 372.68L280.67 372.9L280.08 373.14L279.51 373.41L278.95 373.69L278.41 373.99L277.87 374.31L277.35 374.65L276.85 375.01L276.36 375.39L275.89 375.78L275.44 376.19L275 376.61L274.58 377.05L274.17 377.51L273.79 377.98L273.42 378.46L273.08 378.96L272.75 379.47L272.45 379.99L272.17 380.52L271.91 381.07L271.67 381.62L271.45 382.19L271.26 382.77L271.09 383.35L270.95 383.95L270.83 384.55L270.73 385.16L270.67 385.78L270.63 386.41L270.61 387.04L270.61 525.19L270.63 525.83L270.63 525.86L128.62 525.86L128.62 326.72L64.83 326.72L320 70.69L415.69 166.7L415.69 113.36Z" id="d2fflQqJQn"></path></defs><g><g><g><use xlink:href="#b13buVs7V" opacity="1" fill="#fff000" fill-opacity="1"></use><g><use xlink:href="#b13buVs7V" opacity="1" fill-opacity="0" stroke="#000000" stroke-width="5" stroke-opacity="1"></use></g></g><g><use xlink:href="#d2fflQqJQn" opacity="1" fill="#1da1f2" fill-opacity="1"></use><g><use xlink:href="#d2fflQqJQn" opacity="1" fill-opacity="0" stroke="#000000" stroke-width="4" stroke-opacity="1"></use></g></g></g></g></svg>