<svg id="レイヤー_1" data-name="レイヤー 1" xmlns="http://www.w3.org/2000/svg" viewBox="0 0 436 268"><defs><style>.cls-1{fill:#fff100;}.cls-2{fill:#231815;}.cls-3{fill:#00a0e9;}.cls-4{fill:#e4007f;}.cls-5{fill:#3e3a39;}</style></defs><title>int　タイトル</title><polygon class="cls-1" points="75.55 21.12 52.23 21.12 40.69 21.12 40.69 47.01 75.55 47.01 75.55 34.9 75.55 21.12"/><path class="cls-2" d="M75.55,49.32H40.69A2.31,2.31,0,0,1,38.38,47V21.12a2.32,2.32,0,0,1,2.31-2.31H75.55a2.31,2.31,0,0,1,2.3,2.31V47A2.3,2.3,0,0,1,75.55,49.32ZM43,44.71H73.24V23.43H43Z"/><polygon class="cls-1" points="75.55 72.58 22.97 72.58 11.43 72.58 11.43 95.86 51.12 95.86 51.12 196.1 75.55 196.1 75.55 183.99 75.55 72.58"/><path class="cls-2" d="M75.55,198.41H51.12a2.31,2.31,0,0,1-2.31-2.31V98.17H11.43a2.3,2.3,0,0,1-2.3-2.31V72.58a2.3,2.3,0,0,1,2.3-2.3H75.55a2.3,2.3,0,0,1,2.3,2.3V196.1A2.3,2.3,0,0,1,75.55,198.41ZM53.43,193.8H73.24V74.89H13.74V93.55H51.12a2.31,2.31,0,0,1,2.31,2.31Z"/><path class="cls-1" d="M265.47,115.71q0-20.61-12.53-32.95T219.42,70.42q-24.16,0-40.33,16.28V72.58h-23V196.1h23V128.94q0-17.18,10.37-27.73a33.46,33.46,0,0,1,6.18-5c5.89-3.72,12.91-5.6,21.11-5.6s14.46,2,18.95,6.17,6.75,9.81,6.75,17.11V196.1h23V115.71Z"/><path class="cls-2" d="M265.47,198.41h-23a2.3,2.3,0,0,1-2.3-2.31V113.93c0-6.68-2-11.72-6-15.41S224.26,93,216.75,93c-7.68,0-14.37,1.77-19.88,5.25a31.89,31.89,0,0,0-5.76,4.62c-6.44,6.56-9.71,15.35-9.71,26.12V196.1a2.3,2.3,0,0,1-2.3,2.31h-23a2.31,2.31,0,0,1-2.31-2.31V72.58a2.31,2.31,0,0,1,2.31-2.3h23a2.3,2.3,0,0,1,2.3,2.3v8.86c10.49-8.85,23.25-13.33,38-13.33,14.55,0,26.38,4.38,35.14,13s13.22,20.28,13.22,34.59V196.1A2.3,2.3,0,0,1,265.47,198.41Zm-20.72-4.61h18.41V115.71c0-13-4-23.56-11.84-31.31s-18.6-11.67-31.9-11.67C204,72.73,191,78,180.73,88.33a2.3,2.3,0,0,1-3.94-1.63V74.89H158.38V193.8h18.41V128.94c0-12,3.71-21.9,11-29.35a36.8,36.8,0,0,1,6.59-5.3c6.26-4,13.78-6,22.34-6s15.6,2.28,20.51,6.77,7.49,10.88,7.49,18.82Z"/><path class="cls-1" d="M413.54,168.24a52.94,52.94,0,0,1-13.8,6.94A44.91,44.91,0,0,1,385.17,178q-8.64,0-13.35-5.79t-4.71-16.34V91.28h46.43V71.18H367.11V39.26h-23V71.18H318.52v20.1h25.57v62.34q0,21.87,10.36,33.26t30.22,11.39q17.81,0,28.87-7.25V168.24Z"/><path class="cls-2" d="M384.66,200.57c-13.84,0-24.58-4.08-31.91-12.14s-11-19.7-11-34.81v-60H318.52a2.3,2.3,0,0,1-2.31-2.31V71.18a2.3,2.3,0,0,1,2.31-2.3h23.26V39.24a2.31,2.31,0,0,1,.67-1.63,2.36,2.36,0,0,1,1.64-.68h0l23,0a2.32,2.32,0,0,1,2.31,2.31V68.88h44.12a2.3,2.3,0,0,1,2.31,2.3v20.1a2.3,2.3,0,0,1-2.31,2.31H369.42v62.32c0,6.46,1.41,11.47,4.19,14.89s6.48,4.93,11.56,4.93A43,43,0,0,0,399,173a51.38,51.38,0,0,0,13.21-6.62,2.3,2.3,0,0,1,3.66,1.86V191a2.32,2.32,0,0,1-1,1.93C407.08,198,396.94,200.57,384.66,200.57ZM320.82,89h23.27a2.3,2.3,0,0,1,2.3,2.3v62.34c0,13.92,3.29,24.59,9.77,31.71s16,10.63,28.5,10.63c10.81,0,19.74-2.09,26.57-6.22V172.5a62,62,0,0,1-10.73,4.86c-13.89,4.84-24.42,3.8-30.47-3.65-3.47-4.26-5.23-10.25-5.23-17.8V91.28a2.3,2.3,0,0,1,2.31-2.3h44.12V73.49H367.11a2.3,2.3,0,0,1-2.31-2.31V41.56H346.39V71.18a2.3,2.3,0,0,1-2.3,2.31H320.82Z"/><path class="cls-3" d="M385.17,178a44.91,44.91,0,0,0,14.57-2.86,52.94,52.94,0,0,0,13.8-6.94l11.54-12.11a52.63,52.63,0,0,1-13.8,6.93,45,45,0,0,1-14.57,2.87q-8.65,0-13.36-5.79l-11.53,12.11Q376.52,178,385.17,178Z"/><path class="cls-2" d="M385.17,180.35c-6.47,0-11.56-2.24-15.14-6.64a2.3,2.3,0,0,1,.11-3.05l11.54-12.11a2.3,2.3,0,0,1,3.46.13c2.7,3.32,6.49,4.94,11.57,4.94a43,43,0,0,0,13.81-2.73,51.46,51.46,0,0,0,13.2-6.62,2.31,2.31,0,0,1,3,3.45l-11.54,12.12a2,2,0,0,1-.31.27,56,56,0,0,1-14.4,7.25A47.51,47.51,0,0,1,385.17,180.35ZM375,172.26c4.94,4.5,13.2,4.5,24,.74a51.51,51.51,0,0,0,13-6.5l1.82-1.91-1.81.65c-12.61,4.4-22.46,4-28.69-1.75Z"/><polygon class="cls-3" points="40.69 21.12 52.23 21.12 75.55 21.12 87.08 9.01 52.23 9.01 40.69 21.12"/><path class="cls-2" d="M75.55,23.43H40.69A2.31,2.31,0,0,1,39,19.53L50.56,7.42a2.29,2.29,0,0,1,1.67-.72H87.08a2.31,2.31,0,0,1,1.67,3.9L77.22,22.71A2.31,2.31,0,0,1,75.55,23.43ZM46.07,18.81H74.56l7.14-7.49H53.22Z"/><polygon class="cls-3" points="179.09 72.58 190.63 60.47 167.61 60.47 156.07 72.58 167.61 72.58 179.09 72.58"/><path class="cls-2" d="M179.1,74.89h-23A2.31,2.31,0,0,1,154.4,71l11.54-12.11a2.29,2.29,0,0,1,1.67-.72h23a2.31,2.31,0,0,1,1.67,3.9L180.77,74.17A2.31,2.31,0,0,1,179.1,74.89Zm-17.65-4.61h16.66l7.14-7.5H168.6Z"/><polygon class="cls-3" points="11.43 72.58 22.97 72.58 75.55 72.58 87.08 60.47 22.97 60.47 11.43 72.58"/><path class="cls-2" d="M75.55,74.89H11.43A2.31,2.31,0,0,1,9.76,71L21.3,58.88A2.29,2.29,0,0,1,23,58.16H87.08a2.31,2.31,0,0,1,1.67,3.9L77.22,74.17A2.31,2.31,0,0,1,75.55,74.89ZM16.82,70.28H74.56l7.14-7.5H24Z"/><polygon class="cls-3" points="344.08 71.18 344.08 59.07 330.05 59.07 318.52 71.18 330.05 71.18 344.08 71.18"/><path class="cls-2" d="M344.09,73.49H318.52a2.31,2.31,0,0,1-1.68-3.9l11.54-12.11a2.31,2.31,0,0,1,1.67-.72h14a2.31,2.31,0,0,1,2.3,2.31V71.18A2.3,2.3,0,0,1,344.09,73.49ZM323.9,68.88h17.88v-7.5H331Z"/><polygon class="cls-3" points="367.11 39.26 378.65 27.15 355.62 27.13 344.08 39.24 355.62 39.25 367.11 39.26"/><path class="cls-2" d="M367.11,41.57h0l-23,0a2.31,2.31,0,0,1-1.67-3.9L354,25.54a2.31,2.31,0,0,1,1.67-.72h0l23,0a2.31,2.31,0,0,1,1.67,3.9L368.78,40.85A2.31,2.31,0,0,1,367.11,41.57Zm-17.65-4.63h16.66l7.15-7.5H356.61Z"/><polygon class="cls-3" points="413.54 71.18 425.08 59.07 378.65 59.07 367.11 71.18 413.54 71.18"/><path class="cls-2" d="M413.54,73.49H367.11a2.31,2.31,0,0,1-1.67-3.9L377,57.48a2.33,2.33,0,0,1,1.68-.72h46.43a2.31,2.31,0,0,1,1.67,3.9L415.21,72.77A2.29,2.29,0,0,1,413.54,73.49Zm-41.05-4.61h40.06l7.15-7.5H379.64Z"/><path class="cls-3" d="M264.48,70.65Q251.94,58.31,231,58.31q-24.18,0-40.33,16.28L179.09,86.7q16.16-16.28,40.33-16.28,21,0,33.52,12.34t12.53,32.95L277,103.59Q277,83,264.48,70.65Z"/><path class="cls-2" d="M265.47,118a2.34,2.34,0,0,1-.86-.16,2.32,2.32,0,0,1-1.45-2.14c0-13-4-23.56-11.84-31.31s-18.6-11.67-31.9-11.67C204,72.73,191,78,180.73,88.33a2.31,2.31,0,0,1-3.31-3.22L189,73c11.2-11.29,25.32-17,42-17,14.55,0,26.37,4.37,35.13,13h0c8.77,8.64,13.21,20.28,13.21,34.59a2.26,2.26,0,0,1-.63,1.59L267.14,117.3A2.32,2.32,0,0,1,265.47,118Zm-46.05-49.9c14.55,0,26.38,4.38,35.14,13,7.61,7.5,12,17.26,13,29.06l7.14-7.5c-.18-12.61-4.16-22.83-11.83-30.39h0C255,64.54,244.26,60.61,231,60.61s-24.84,3.93-34.36,11.67A61.15,61.15,0,0,1,219.42,68.11Z"/><polygon class="cls-4" points="75.55 34.9 75.55 47.01 87.08 34.9 87.08 9.01 75.55 21.12 75.55 34.9"/><path class="cls-2" d="M75.55,49.32a2.34,2.34,0,0,1-.86-.16A2.3,2.3,0,0,1,73.24,47V21.12a2.34,2.34,0,0,1,.63-1.59L85.41,7.42a2.31,2.31,0,0,1,4,1.59V34.9a2.31,2.31,0,0,1-.64,1.59L77.22,48.6A2.32,2.32,0,0,1,75.55,49.32ZM77.85,22V41.25L84.77,34V14.78Z"/><path class="cls-4" d="M179.09,128.94V196.1L190.63,184V116.82a40.83,40.83,0,0,1,5-20.57,33.46,33.46,0,0,0-6.18,5Q179.1,111.77,179.09,128.94Z"/><path class="cls-2" d="M179.1,198.41a2.34,2.34,0,0,1-.86-.16,2.31,2.31,0,0,1-1.45-2.15V128.94c0-12,3.71-21.9,11-29.35a36.8,36.8,0,0,1,6.59-5.3,2.31,2.31,0,0,1,3.23,3.1,38.74,38.74,0,0,0-4.7,19.43V184a2.31,2.31,0,0,1-.64,1.59l-11.53,12.11A2.32,2.32,0,0,1,179.1,198.41ZM190,104.06c-5.67,6.42-8.55,14.77-8.55,24.88v61.4l6.92-7.27V116.82A48.31,48.31,0,0,1,190,104.06Z"/><polygon class="cls-4" points="179.09 86.7 190.63 74.59 190.63 60.47 179.09 72.58 179.09 86.7"/><path class="cls-2" d="M179.1,89a2.34,2.34,0,0,1-.86-.16,2.3,2.3,0,0,1-1.45-2.15V72.58a2.34,2.34,0,0,1,.63-1.59L189,58.88a2.31,2.31,0,0,1,4,1.59V74.59a2.31,2.31,0,0,1-.64,1.59L180.77,88.29A2.32,2.32,0,0,1,179.1,89Zm2.3-15.5v7.43l6.92-7.27V66.24Z"/><polygon class="cls-4" points="75.55 183.99 75.55 196.1 87.08 183.99 87.08 60.47 75.55 72.58 75.55 183.99"/><path class="cls-2" d="M75.55,198.41a2.34,2.34,0,0,1-.86-.16,2.31,2.31,0,0,1-1.45-2.15V72.58A2.34,2.34,0,0,1,73.87,71L85.41,58.88a2.31,2.31,0,0,1,4,1.59V184a2.31,2.31,0,0,1-.64,1.59L77.22,197.69A2.32,2.32,0,0,1,75.55,198.41Zm2.3-124.9V190.34l6.92-7.27V66.24Z"/><polygon class="cls-4" points="413.54 183.99 413.54 191.01 425.08 178.9 425.08 156.13 413.54 168.25 413.54 183.99"/><path class="cls-2" d="M413.54,193.32a2.25,2.25,0,0,1-.85-.16,2.31,2.31,0,0,1-1.46-2.14V168.24a2.31,2.31,0,0,1,.64-1.59l11.54-12.11a2.31,2.31,0,0,1,4,1.59V178.9a2.27,2.27,0,0,1-.64,1.59l-11.54,12.12A2.32,2.32,0,0,1,413.54,193.32Zm2.31-24.15v16.08l6.92-7.27V161.9Z"/><path class="cls-4" d="M367.11,91.28v64.63q0,10.56,4.71,16.34l11.53-12.11q-4.71-5.79-4.7-16.35V91.28Z"/><path class="cls-2" d="M371.82,174.56h-.09a2.31,2.31,0,0,1-1.7-.85c-3.47-4.26-5.23-10.25-5.23-17.8V91.28a2.3,2.3,0,0,1,2.31-2.3h11.54a2.3,2.3,0,0,1,2.3,2.3v52.51c0,6.46,1.41,11.47,4.19,14.89a2.3,2.3,0,0,1-.12,3l-11.53,12.11A2.31,2.31,0,0,1,371.82,174.56Zm-2.4-81v62.32c0,5.18.9,9.43,2.7,12.68l8.24-8.65c-2.67-4.11-4-9.53-4-16.15V93.59Z"/><polygon class="cls-4" points="413.54 79.17 413.54 91.28 425.08 79.17 425.08 59.07 413.54 71.18 413.54 79.17"/><path class="cls-2" d="M413.54,93.59a2.25,2.25,0,0,1-.85-.16,2.32,2.32,0,0,1-1.46-2.15V71.18a2.31,2.31,0,0,1,.64-1.59l11.54-12.11a2.31,2.31,0,0,1,4,1.59v20.1a2.31,2.31,0,0,1-.64,1.59L415.21,92.87A2.29,2.29,0,0,1,413.54,93.59Zm2.31-21.48V85.52l6.92-7.27V64.84Z"/><polygon class="cls-4" points="367.11 71.18 378.65 59.07 378.65 27.15 367.11 39.26 367.11 71.18"/><path class="cls-2" d="M367.11,73.49a2.29,2.29,0,0,1-2.31-2.31V39.26a2.31,2.31,0,0,1,.64-1.59L377,25.56a2.3,2.3,0,0,1,4,1.59V59.07a2.3,2.3,0,0,1-.63,1.59L368.78,72.77A2.29,2.29,0,0,1,367.11,73.49Zm2.31-33.31V65.42l6.92-7.27V32.91Z"/><polygon class="cls-4" points="265.47 115.71 265.47 183.99 265.47 196.1 277.01 183.99 277.01 103.59 265.47 115.71"/><path class="cls-2" d="M265.47,198.41a2.29,2.29,0,0,1-2.31-2.31V115.71a2.27,2.27,0,0,1,.64-1.59L275.34,102a2.3,2.3,0,0,1,4,1.59V184a2.3,2.3,0,0,1-.63,1.59l-11.54,12.11A2.29,2.29,0,0,1,265.47,198.41Zm2.31-81.78v73.71l6.92-7.27V109.36Z"/><path class="cls-5" d="M87.49,241.53h3.44v2H85.35v2.84h5.26v1.91H85.35v1.44h0a34.41,34.41,0,0,1,4.59,3.48l-1.21,2a36.11,36.11,0,0,0-3.35-3.31v7.78h-2v-8.49a31.09,31.09,0,0,1-5,6.45l-1.46-1.89a23.5,23.5,0,0,0,5.9-7.43h-5v-1.91h5.58V243.5H77.09v-2h3.79a38.5,38.5,0,0,0-1.14-4.44h-2v-1.91h5.51v-4.27h2.17v4.27h5.14v1.91H88.92C88.51,238.59,88,240.09,87.49,241.53Zm-4.6,0h2.59a31.17,31.17,0,0,0,1.3-4.44H81.9A39.53,39.53,0,0,1,82.89,241.53Zm7.27,18.68-1.68-1.59c2.74-3.89,3.28-9.7,3.28-14.35V234.22a37.05,37.05,0,0,0,9.44-2.1l1.75,1.94a62.46,62.46,0,0,1-9,1.92h0v5.35h10.43v2.08h-4v16.2H98.23v-16.2h-4.3C93.9,249.4,93.74,255,90.16,260.21Z"/><path class="cls-5" d="M121.8,258.24c-3.57,0-6.51-2.2-6.51-6.73V233.17h2.52v18.34c0,2.61,1.18,4.43,3.89,4.43,2.52,0,6.06-1.4,10-6.63l1.72,1.56C129.67,255.94,125.66,258.24,121.8,258.24Z"/><path class="cls-5" d="M144.15,247.11V236.29h2.55v10.82c0,5.42.64,5.64,4.37,8.19l-1.43,2C144.85,254,144.15,252.91,144.15,247.11Zm15.59-7.59,2-1.44c3.8,4.34,4,5.74,4,10.52v3.7h-2.55v-3.7C163.22,243.82,163,243.25,159.74,239.52Z"/><path class="cls-5" d="M180.92,256c1.78.86,5.39.92,7.36.92,3.93,0,7.85-.22,11.77-.45a11.47,11.47,0,0,0-.67,2.4h-1c-2.9,0-6,.22-8.93.22a31.4,31.4,0,0,1-8.16-.77,5.87,5.87,0,0,1-3.45-2.52l-.06.07c-1.27,1.27-2.36,2.71-3.73,3.92l-1.24-2.3a24.3,24.3,0,0,0,3.7-2.9v-8.77h-3.67v-2.07h5.77V254h0A6.17,6.17,0,0,0,180.92,256Zm-7.47-22.33,1.5-1.46a31.35,31.35,0,0,1,4.31,4.75l-1.63,1.56h-.06A30.45,30.45,0,0,0,173.45,233.71Zm8.77,6.89v-3h-2.74v-1.85h3.73v-4.87h2v4.87h3.86v1.73a32.7,32.7,0,0,0,2-6.67l2,.61a24.13,24.13,0,0,1-.89,3.54h7.43v1.85h-8.07a26.82,26.82,0,0,1-2.13,4.21l-1.37-1.69a17.71,17.71,0,0,0,.92-1.73H184.2v3.42h4.34c0,2.68-.13,5.32-.29,8,0,.13,0,.32,0,.41a30.67,30.67,0,0,1-.42,3.61c-.25,1.27-.82,2.07-2.23,2.07a10.35,10.35,0,0,1-2.23-.22l-.45-2.14a8.54,8.54,0,0,0,2.11.38c.67,0,.8-.47,1-1.08a11.71,11.71,0,0,0,.28-2.23c0-.19,0-.39,0-.58.16-2.1.19-4.21.26-6.34h-2.39c-.19,3.92-1,9-3.48,12.21l-1.37-1.69C181.81,250.17,182.22,244.55,182.22,240.6Zm10.53,12.6c.54,0,.73-.39.73-.93v-4.05h-4.37v-1.91h4.28v-2.9a12.22,12.22,0,0,0,2.32-1.92h-5.1v-1.78h7l1.05,1.31a40,40,0,0,1-3.29,3v2.33h4.47v1.91h-4.37v4.95c0,1.37-.7,2-2.14,2a14.14,14.14,0,0,1-3-.29l-.28-2.14A10,10,0,0,0,192.75,253.2Z"/><path class="cls-5" d="M210.06,250.07c0,1,.13,3.57,2,4.91a5,5,0,0,0,4.46.64c3.22-1,4.5-4.43,5.11-6.35a22.33,22.33,0,0,0,1-6.82c0-2.62-.39-7-.39-7l2.3-.06c.09,2.2.22,5.13,1.75,7.72a14.19,14.19,0,0,0,4.63,4.59l-1.53,1.82a19.2,19.2,0,0,1-4.79-5.2,22.25,22.25,0,0,1-.79,5.64c-1.12,4.24-3.48,7-6.54,8a7.74,7.74,0,0,1-6.6-1,8.15,8.15,0,0,1-3-6.92c.1-4.18,2.23-8.61,6-12.44h-6.44V235.5h9.89v1.91l-.42.32C212.68,241.43,210.19,245.89,210.06,250.07Zm18.12-9.82h-1.82v-4.91h1.82Zm3.92,0h-1.82v-4.91h1.82Z"/><path class="cls-5" d="M249.22,242.23a4,4,0,0,1,4.27,3c1.66-.7,3.29-1.34,5.58-2.26L260,245c-2.33.93-4.3,1.72-6,2.49v4.72h-2.29v-3.83c-2.65,1.41-6.41,3.19-5.43,5.9.77,2.11,4.34,2,5.52,2a55.35,55.35,0,0,0,6.09-.51L258,258a49.6,49.6,0,0,1-6.32.51c-4.2,0-6.63-1-7.55-3.19-2-4.65,3.73-7.3,7.33-9.28a2.09,2.09,0,0,0-2.2-1.75h-4l.93-7h-5.55v-2.17h5.87l.51-3.83h2.39l-.54,3.83h8.1v2.17h-8.42l-.64,4.91Z"/><path class="cls-5" d="M270,248.22l-1.34-2a42.61,42.61,0,0,0,6.44-14.8l2.3.64a53.13,53.13,0,0,1-2.27,6.72v20.8h-2.23v-16A30.39,30.39,0,0,1,270,248.22Zm7.72-.95-1.6-1.76a37.22,37.22,0,0,0,5.55-14.45l2.3.48a44.1,44.1,0,0,1-1.15,4.63H295v2.1h-8.92v4.63h7.49V245h-7.49v4.59h7.94v2.08h-7.94v7.94h-2.27V238.27h-1.69A38.21,38.21,0,0,1,277.73,247.27Z"/><path class="cls-5" d="M317.94,255.27A5.52,5.52,0,0,0,321,249.4c-.41-2.17-2.87-3.19-4.91-3.38s-5.45.45-9.63,2.65l-1.4-1.5,11.29-11.74h-9.7V233.3h13.2V235l-9.82,10.11a13.42,13.42,0,0,1,6.19-1.15c2.9.22,6.5,1.59,7.21,5a7.59,7.59,0,0,1-4.44,8.33c-3.34,1.56-6.69,1.11-10.3.38v-2.2C312.2,256.19,315.48,256.45,317.94,255.27Z"/><path class="cls-5" d="M342.78,257.15c1.56-1.37,3-2.68,4.37-4.11,2.1-2.08,4.4-4.56,4.18-8-.16-2.32-1.6-3.6-4.12-3.6H337.13v-2.26h10.08c3.54,0,5.87,1.78,6.44,4.78a9.64,9.64,0,0,1,.16,2.58c-.38,4.18-2.58,6-9.21,12.25Zm-2.58-24.27,1.5-1.91c3.31,2,4.75,2.45,8.93,2.45v2.43C345.62,235.85,343.74,235.21,340.2,232.88Z"/><path class="cls-5" d="M375.85,232.05h3.57l-.54,19.2h-2.49Zm0,22.1h3.57v3.7h-3.57Z"/></svg>