<?xml version="1.0" encoding="UTF-8" standalone="no"?>
<!DOCTYPE svg PUBLIC "-//W3C//DTD SVG 1.1//EN" "http://www.w3.org/Graphics/SVG/1.1/DTD/svg11.dtd">
<svg version="1.1" xmlns="http://www.w3.org/2000/svg" xmlns:xlink="http://www.w3.org/1999/xlink" preserveAspectRatio="xMidYMid meet" viewBox="157.59608008851592 245.29537467950036 321.95780003154647 151.39026121117428" width="317.96" height="147.39"><defs><path d="M191.36 257.27L182.59 257.27L182.59 276.95L209.09 276.95L209.09 267.74L209.09 257.27L209.09 257.27L191.36 257.27Z" id="miDZg0aEa"></path><path d="M209.24 255.52L209.38 255.54L209.51 255.57L209.64 255.6L209.77 255.65L209.9 255.71L210.01 255.78L210.12 255.85L210.23 255.94L210.33 256.03L210.42 256.13L210.5 256.23L210.58 256.35L210.64 256.46L210.7 256.59L210.75 256.72L210.79 256.85L210.82 256.98L210.83 257.13L210.84 257.27L210.84 276.94L210.84 277.09L210.82 277.23L210.79 277.36L210.76 277.5L210.71 277.62L210.65 277.75L210.59 277.87L210.51 277.98L210.43 278.08L210.34 278.18L210.24 278.28L210.14 278.36L210.03 278.44L209.91 278.5L209.79 278.56L209.66 278.61L209.53 278.65L209.39 278.68L209.25 278.7L209.11 278.71L209.09 278.71L182.59 278.71L182.45 278.7L182.31 278.68L182.17 278.66L182.04 278.62L181.91 278.57L181.78 278.51L181.67 278.44L181.55 278.37L181.45 278.28L181.35 278.19L181.26 278.09L181.17 277.99L181.1 277.88L181.03 277.76L180.97 277.63L180.92 277.51L180.89 277.37L180.86 277.24L180.84 277.09L180.84 276.95L180.84 257.27L180.84 257.13L180.86 256.98L180.89 256.85L180.93 256.71L180.98 256.59L181.03 256.46L181.1 256.35L181.18 256.23L181.26 256.13L181.35 256.03L181.45 255.94L181.56 255.85L181.67 255.78L181.79 255.71L181.91 255.65L182.04 255.6L182.17 255.57L182.31 255.54L182.45 255.52L182.59 255.51L209.09 255.51L209.24 255.52ZM184.35 275.2L207.34 275.2L207.34 259.02L184.35 259.02L184.35 275.2Z" id="bBKvZki6A"></path><path d="M169.12 296.39L160.35 296.39L160.35 314.09L190.52 314.09L190.52 390.29L209.09 390.29L209.09 381.08L209.09 296.39L209.09 296.39L169.12 296.39Z" id="b1iHZnvpJ"></path><path d="M209.16 294.64L209.23 294.65L209.31 294.65L209.38 294.66L209.44 294.68L209.51 294.69L209.58 294.71L209.64 294.73L209.71 294.75L209.77 294.78L209.83 294.81L209.89 294.84L209.95 294.87L210.01 294.9L210.07 294.94L210.12 294.98L210.18 295.02L210.23 295.06L210.28 295.11L210.33 295.15L210.37 295.2L210.42 295.25L210.46 295.3L210.5 295.36L210.54 295.41L210.58 295.47L210.61 295.53L210.64 295.58L210.67 295.65L210.7 295.71L210.73 295.77L210.75 295.84L210.77 295.9L210.79 295.97L210.8 296.04L210.82 296.1L210.83 296.17L210.83 296.24L210.84 296.32L210.84 296.39L210.84 390.29L210.84 390.36L210.83 390.43L210.83 390.5L210.82 390.57L210.81 390.64L210.79 390.71L210.77 390.77L210.75 390.84L210.73 390.91L210.71 390.97L210.68 391.03L210.65 391.09L210.62 391.15L210.58 391.21L210.55 391.27L210.51 391.32L210.47 391.38L210.42 391.43L210.38 391.48L210.33 391.53L210.29 391.57L210.24 391.62L210.18 391.66L210.13 391.7L210.08 391.74L210.02 391.78L209.96 391.81L209.9 391.84L209.84 391.88L209.78 391.9L209.72 391.93L209.65 391.95L209.59 391.97L209.52 391.99L209.45 392.01L209.38 392.02L209.31 392.03L209.24 392.04L209.17 392.04L209.09 392.04L190.52 392.04L190.45 392.04L190.38 392.04L190.31 392.03L190.24 392.02L190.17 392.01L190.1 391.99L190.03 391.97L189.96 391.95L189.9 391.93L189.84 391.91L189.77 391.88L189.71 391.85L189.65 391.82L189.59 391.78L189.54 391.74L189.48 391.7L189.43 391.66L189.38 391.62L189.33 391.58L189.28 391.53L189.23 391.48L189.19 391.43L189.14 391.38L189.1 391.32L189.06 391.27L189.03 391.21L188.99 391.15L188.96 391.09L188.93 391.03L188.9 390.97L188.88 390.91L188.85 390.84L188.83 390.78L188.81 390.71L188.8 390.64L188.79 390.57L188.78 390.5L188.77 390.43L188.77 390.36L188.76 390.29L188.76 315.84L160.35 315.84L160.28 315.84L160.2 315.84L160.13 315.83L160.06 315.82L160 315.81L159.93 315.79L159.86 315.77L159.8 315.75L159.73 315.73L159.67 315.7L159.61 315.68L159.54 315.65L159.48 315.61L159.43 315.58L159.37 315.54L159.32 315.5L159.26 315.46L159.21 315.42L159.16 315.38L159.11 315.33L159.06 315.28L159.02 315.23L158.98 315.18L158.94 315.13L158.9 315.07L158.86 315.01L158.83 314.96L158.79 314.9L158.76 314.84L158.74 314.77L158.71 314.71L158.69 314.65L158.67 314.58L158.65 314.51L158.63 314.45L158.62 314.38L158.61 314.31L158.61 314.24L158.6 314.17L158.6 314.09L158.6 296.39L158.6 296.32L158.61 296.24L158.61 296.17L158.62 296.1L158.63 296.04L158.65 295.97L158.67 295.9L158.69 295.84L158.71 295.77L158.74 295.71L158.76 295.65L158.79 295.58L158.83 295.53L158.86 295.47L158.9 295.41L158.94 295.36L158.98 295.3L159.02 295.25L159.06 295.2L159.11 295.15L159.16 295.11L159.21 295.06L159.26 295.02L159.32 294.98L159.37 294.94L159.43 294.9L159.48 294.87L159.54 294.84L159.61 294.81L159.67 294.78L159.73 294.75L159.8 294.73L159.86 294.71L159.93 294.69L160 294.68L160.06 294.66L160.13 294.65L160.2 294.65L160.28 294.64L160.35 294.64L209.09 294.64L209.16 294.64ZM162.1 312.33L190.52 312.33L190.59 312.33L190.66 312.34L190.73 312.34L190.8 312.35L190.87 312.37L190.94 312.38L191.01 312.4L191.07 312.42L191.14 312.44L191.2 312.47L191.27 312.5L191.33 312.53L191.39 312.56L191.44 312.59L191.5 312.63L191.56 312.67L191.61 312.71L191.66 312.75L191.71 312.8L191.76 312.84L191.81 312.89L191.85 312.94L191.9 312.99L191.94 313.05L191.98 313.1L192.01 313.16L192.05 313.22L192.08 313.28L192.11 313.34L192.14 313.4L192.16 313.47L192.19 313.53L192.21 313.6L192.22 313.66L192.24 313.73L192.25 313.8L192.26 313.87L192.27 313.94L192.27 314.01L192.28 314.09L192.28 388.54L207.34 388.54L207.34 298.14L162.1 298.14L162.1 312.33Z" id="cR8BTpOIR"></path><path d="M343.97 304.13C334.44 294.75 321.03 295.68 318.48 294.75C306.23 294.75 296.01 298.87 287.82 307.12L287.82 296.39L270.34 296.39L270.34 390.29L287.82 390.29C287.82 359.65 287.82 342.64 287.82 339.23C287.82 326.17 294.92 320.26 295.71 318.15C297.12 316.7 298.69 315.43 300.41 314.35C304.88 311.52 310.22 310.09 316.45 310.09C322.69 310.09 327.45 311.65 330.86 314.79C334.27 317.92 335.99 322.24 335.99 327.79C335.99 331.96 335.99 352.79 335.99 390.29L353.48 390.29L353.48 329.18C347.77 314.15 344.6 305.8 343.97 304.13Z" id="bazYxbCXW"></path><path d="M320.13 293.02L320.94 293.05L321.74 293.09L322.53 293.15L323.32 293.21L324.1 293.3L324.87 293.39L325.63 293.49L326.39 293.61L327.13 293.74L327.87 293.89L328.6 294.04L329.33 294.21L330.04 294.39L330.75 294.58L331.45 294.79L332.14 295L332.82 295.23L333.49 295.47L334.16 295.73L334.81 295.99L335.46 296.27L336.1 296.56L336.73 296.87L337.36 297.18L337.97 297.51L338.58 297.85L339.18 298.2L339.77 298.56L340.35 298.94L340.92 299.33L341.49 299.73L342.04 300.14L342.59 300.57L343.13 301L343.66 301.45L344.18 301.91L344.69 302.39L345.2 302.87L345.69 303.37L346.17 303.87L346.64 304.39L347.1 304.91L347.54 305.44L347.97 305.98L348.39 306.52L348.8 307.08L349.19 307.64L349.58 308.22L349.95 308.8L350.3 309.39L350.65 309.98L350.98 310.59L351.3 311.2L351.61 311.83L351.91 312.46L352.19 313.1L352.46 313.74L352.72 314.4L352.96 315.06L353.2 315.73L353.42 316.41L353.63 317.1L353.82 317.8L354.01 318.5L354.18 319.21L354.33 319.93L354.48 320.66L354.61 321.39L354.73 322.13L354.84 322.89L354.94 323.64L355.02 324.41L355.09 325.18L355.14 325.97L355.19 326.75L355.22 327.55L355.24 328.36L355.25 329.17L355.25 390.29L355.25 390.36L355.24 390.43L355.23 390.5L355.22 390.57L355.21 390.64L355.2 390.71L355.18 390.77L355.16 390.84L355.14 390.91L355.11 390.97L355.08 391.03L355.05 391.09L355.02 391.15L354.99 391.21L354.95 391.27L354.91 391.32L354.87 391.38L354.83 391.43L354.79 391.48L354.74 391.53L354.69 391.57L354.64 391.62L354.59 391.66L354.54 391.7L354.48 391.74L354.43 391.78L354.37 391.81L354.31 391.84L354.25 391.88L354.19 391.9L354.12 391.93L354.06 391.95L353.99 391.97L353.93 391.99L353.86 392.01L353.79 392.02L353.72 392.03L353.65 392.04L353.58 392.04L353.49 392.04L336.01 392.04L335.93 392.04L335.86 392.04L335.79 392.03L335.72 392.02L335.65 392.01L335.59 391.99L335.52 391.97L335.45 391.95L335.39 391.93L335.33 391.91L335.26 391.88L335.2 391.85L335.14 391.82L335.08 391.78L335.03 391.75L334.97 391.71L334.92 391.67L334.87 391.62L334.82 391.58L334.77 391.53L334.72 391.48L334.68 391.43L334.64 391.38L334.59 391.33L334.56 391.27L334.52 391.22L334.48 391.16L334.45 391.1L334.42 391.04L334.39 390.98L334.37 390.91L334.35 390.85L334.33 390.78L334.31 390.72L334.29 390.65L334.28 390.58L334.27 390.51L334.26 390.44L334.26 390.37L334.26 390.29L334.26 327.82L334.25 327.44L334.25 327.07L334.23 326.7L334.21 326.34L334.19 325.98L334.15 325.62L334.12 325.27L334.07 324.92L334.03 324.58L333.97 324.24L333.91 323.91L333.85 323.58L333.78 323.26L333.7 322.94L333.62 322.62L333.53 322.31L333.43 322.01L333.33 321.7L333.23 321.41L333.12 321.11L333 320.82L332.88 320.54L332.75 320.26L332.62 319.98L332.48 319.71L332.33 319.44L332.18 319.18L332.02 318.92L331.86 318.66L331.69 318.41L331.52 318.16L331.34 317.92L331.15 317.68L330.96 317.44L330.77 317.21L330.56 316.98L330.35 316.76L330.14 316.54L329.92 316.32L329.7 316.11L329.47 315.9L329.23 315.7L328.99 315.5L328.74 315.31L328.49 315.12L328.23 314.94L327.97 314.76L327.7 314.59L327.43 314.42L327.15 314.26L326.87 314.11L326.58 313.96L326.28 313.81L325.98 313.67L325.68 313.54L325.37 313.41L325.06 313.28L324.74 313.16L324.41 313.05L324.08 312.94L323.75 312.84L323.41 312.74L323.06 312.64L322.72 312.56L322.36 312.47L322 312.4L321.64 312.32L321.27 312.26L320.9 312.2L320.52 312.14L320.13 312.09L319.74 312.04L319.35 312L318.95 311.97L318.55 311.94L318.14 311.92L317.73 311.9L317.32 311.88L316.89 311.88L316.47 311.87L316.03 311.88L315.6 311.88L315.17 311.9L314.74 311.91L314.32 311.94L313.89 311.96L313.47 312L313.06 312.03L312.64 312.08L312.23 312.13L311.83 312.18L311.42 312.24L311.02 312.3L310.62 312.37L310.23 312.44L309.83 312.52L309.44 312.6L309.06 312.69L308.67 312.78L308.29 312.88L307.92 312.98L307.54 313.09L307.17 313.2L306.8 313.32L306.44 313.44L306.08 313.57L305.72 313.7L305.36 313.84L305.01 313.98L304.66 314.12L304.32 314.28L303.98 314.43L303.64 314.6L303.3 314.76L302.97 314.93L302.64 315.11L302.31 315.29L301.99 315.48L301.67 315.67L301.36 315.86L301.24 315.94L301.12 316.02L301 316.09L300.88 316.17L300.77 316.25L300.65 316.33L300.53 316.4L300.42 316.48L300.3 316.56L300.19 316.65L300.07 316.73L299.96 316.81L299.84 316.89L299.73 316.98L299.62 317.06L299.51 317.15L299.4 317.23L299.29 317.32L299.17 317.41L299.06 317.49L298.96 317.58L298.85 317.67L298.74 317.76L298.63 317.85L298.52 317.94L298.42 318.03L298.31 318.12L298.2 318.22L298.1 318.31L297.99 318.4L297.89 318.5L297.79 318.59L297.68 318.69L297.58 318.79L297.48 318.88L297.38 318.98L297.28 319.08L297.18 319.18L297.08 319.28L296.98 319.38L296.61 319.75L296.26 320.14L295.92 320.53L295.58 320.92L295.25 321.33L294.94 321.73L294.63 322.15L294.33 322.57L294.04 323L293.76 323.43L293.49 323.87L293.22 324.32L292.97 324.77L292.73 325.23L292.49 325.69L292.26 326.16L292.05 326.64L291.84 327.12L291.64 327.61L291.45 328.1L291.27 328.61L291.1 329.11L290.94 329.62L290.78 330.14L290.64 330.67L290.51 331.2L290.38 331.73L290.27 332.28L290.16 332.82L290.06 333.38L289.97 333.94L289.89 334.5L289.82 335.07L289.76 335.65L289.71 336.23L289.67 336.82L289.64 337.42L289.61 338.02L289.6 338.62L289.6 339.23L289.6 390.29L289.59 390.36L289.59 390.43L289.58 390.5L289.57 390.57L289.56 390.64L289.55 390.71L289.53 390.77L289.51 390.84L289.49 390.91L289.46 390.97L289.43 391.03L289.4 391.09L289.37 391.15L289.34 391.21L289.3 391.27L289.26 391.32L289.22 391.38L289.18 391.43L289.14 391.48L289.09 391.53L289.04 391.57L288.99 391.62L288.94 391.66L288.89 391.7L288.83 391.74L288.78 391.78L288.72 391.81L288.66 391.84L288.6 391.88L288.54 391.9L288.47 391.93L288.41 391.95L288.34 391.97L288.28 391.99L288.21 392.01L288.14 392.02L288.07 392.03L288 392.04L287.93 392.04L287.85 392.04L270.36 392.04L270.29 392.04L270.22 392.04L270.15 392.03L270.08 392.02L270.01 392.01L269.94 391.99L269.87 391.97L269.81 391.95L269.74 391.93L269.68 391.91L269.62 391.88L269.56 391.85L269.5 391.82L269.44 391.78L269.38 391.74L269.33 391.7L269.27 391.66L269.22 391.62L269.17 391.58L269.12 391.53L269.07 391.48L269.03 391.43L268.99 391.38L268.95 391.32L268.91 391.27L268.87 391.21L268.84 391.15L268.8 391.09L268.77 391.03L268.75 390.97L268.72 390.91L268.7 390.84L268.68 390.78L268.66 390.71L268.64 390.64L268.63 390.57L268.62 390.5L268.61 390.43L268.61 390.36L268.61 390.29L268.61 296.39L268.61 296.32L268.61 296.24L268.62 296.17L268.63 296.1L268.64 296.04L268.66 295.97L268.68 295.9L268.7 295.84L268.72 295.77L268.75 295.71L268.78 295.65L268.81 295.58L268.84 295.52L268.87 295.47L268.91 295.41L268.95 295.36L268.99 295.3L269.03 295.25L269.08 295.2L269.12 295.15L269.17 295.11L269.22 295.06L269.27 295.02L269.33 294.98L269.38 294.94L269.44 294.9L269.5 294.87L269.56 294.83L269.62 294.8L269.68 294.78L269.74 294.75L269.81 294.73L269.88 294.71L269.94 294.69L270.01 294.68L270.08 294.66L270.15 294.65L270.22 294.65L270.29 294.64L270.36 294.64L287.85 294.64L287.92 294.64L287.99 294.65L288.06 294.65L288.13 294.66L288.2 294.68L288.27 294.69L288.33 294.71L288.4 294.73L288.46 294.75L288.53 294.78L288.59 294.81L288.65 294.84L288.71 294.87L288.77 294.9L288.83 294.94L288.88 294.98L288.93 295.02L288.99 295.06L289.04 295.11L289.08 295.15L289.13 295.2L289.18 295.25L289.22 295.3L289.26 295.36L289.3 295.41L289.33 295.47L289.37 295.53L289.4 295.58L289.43 295.65L289.46 295.71L289.48 295.77L289.51 295.84L289.53 295.9L289.55 295.97L289.56 296.04L289.57 296.1L289.58 296.17L289.59 296.24L289.59 296.32L289.6 296.39L289.6 303.12L290.2 302.63L290.81 302.14L291.42 301.67L292.04 301.21L292.67 300.76L293.3 300.32L293.94 299.9L294.59 299.49L295.24 299.09L295.9 298.7L296.56 298.33L297.23 297.97L297.91 297.62L298.59 297.28L299.28 296.96L299.98 296.65L300.68 296.35L301.39 296.07L302.1 295.79L302.83 295.53L303.55 295.29L304.28 295.05L305.02 294.83L305.77 294.62L306.52 294.42L307.27 294.24L308.04 294.07L308.81 293.91L309.58 293.76L310.36 293.63L311.15 293.51L311.94 293.4L312.74 293.3L313.54 293.22L314.35 293.15L315.17 293.09L315.99 293.05L316.81 293.02L317.65 293L318.48 292.99L319.31 293L320.13 293.02ZM316.74 296.53L315.88 296.57L315.03 296.62L314.18 296.69L313.34 296.77L312.5 296.87L311.68 296.98L310.86 297.11L310.05 297.25L309.24 297.41L308.44 297.58L307.65 297.76L306.87 297.96L306.09 298.18L305.32 298.41L304.56 298.66L303.8 298.92L303.06 299.19L302.32 299.48L301.58 299.79L300.86 300.11L300.14 300.44L299.43 300.79L298.72 301.15L298.03 301.53L297.34 301.92L296.65 302.33L295.98 302.75L295.31 303.19L294.66 303.64L294 304.11L293.36 304.59L292.72 305.08L292.1 305.59L291.48 306.12L290.86 306.66L290.26 307.21L289.66 307.78L289.07 308.36L289.02 308.41L288.97 308.46L288.91 308.5L288.86 308.55L288.8 308.59L288.74 308.63L288.68 308.66L288.62 308.69L288.56 308.72L288.5 308.75L288.43 308.78L288.37 308.8L288.3 308.82L288.24 308.83L288.17 308.85L288.11 308.86L288.04 308.87L287.97 308.88L287.91 308.88L287.84 308.88L287.77 308.88L287.71 308.88L287.64 308.87L287.57 308.87L287.51 308.85L287.44 308.84L287.37 308.83L287.31 308.81L287.24 308.79L287.18 308.76L287.12 308.74L287.06 308.71L286.99 308.67L286.93 308.64L286.88 308.6L286.82 308.56L286.76 308.52L286.71 308.48L286.65 308.43L286.6 308.38L286.57 308.36L286.55 308.33L286.53 308.31L286.5 308.28L286.48 308.25L286.46 308.23L286.44 308.2L286.41 308.17L286.39 308.14L286.37 308.11L286.36 308.08L286.34 308.05L286.32 308.02L286.3 307.99L286.28 307.96L286.27 307.93L286.25 307.9L286.24 307.87L286.22 307.84L286.21 307.81L286.2 307.77L286.18 307.74L286.17 307.71L286.16 307.67L286.15 307.64L286.14 307.61L286.13 307.57L286.12 307.54L286.12 307.51L286.11 307.47L286.1 307.44L286.1 307.4L286.09 307.37L286.09 307.33L286.08 307.3L286.08 307.26L286.08 307.23L286.08 307.19L286.08 307.16L286.08 307.12L286.08 298.14L272.06 298.14L272.06 388.54L286.05 388.54L286.05 339.23L286.06 338.55L286.07 337.88L286.1 337.21L286.14 336.54L286.19 335.89L286.24 335.24L286.31 334.59L286.39 333.95L286.48 333.32L286.58 332.69L286.69 332.07L286.81 331.46L286.94 330.85L287.09 330.25L287.24 329.66L287.4 329.07L287.57 328.49L287.76 327.91L287.95 327.34L288.16 326.78L288.37 326.22L288.6 325.67L288.83 325.13L289.08 324.59L289.33 324.06L289.6 323.54L289.88 323.02L290.17 322.51L290.46 322.01L290.77 321.51L291.09 321.02L291.42 320.54L291.76 320.06L292.11 319.59L292.47 319.13L292.83 318.68L293.21 318.23L293.6 317.78L294.01 317.35L294.42 316.92L294.53 316.81L294.64 316.69L294.76 316.58L294.87 316.47L294.99 316.36L295.11 316.24L295.22 316.13L295.34 316.02L295.46 315.92L295.58 315.81L295.7 315.7L295.82 315.59L295.94 315.49L296.06 315.38L296.18 315.28L296.31 315.17L296.43 315.07L296.55 314.97L296.68 314.86L296.8 314.76L296.93 314.66L297.06 314.56L297.18 314.46L297.31 314.36L297.44 314.27L297.57 314.17L297.7 314.07L297.83 313.98L297.96 313.88L298.09 313.79L298.22 313.7L298.35 313.6L298.48 313.51L298.62 313.42L298.75 313.33L298.88 313.24L299.02 313.15L299.15 313.07L299.29 312.98L299.43 312.89L299.78 312.67L300.15 312.45L300.51 312.23L300.88 312.03L301.25 311.82L301.63 311.63L302.01 311.44L302.39 311.25L302.78 311.07L303.17 310.9L303.57 310.73L303.96 310.57L304.36 310.41L304.77 310.26L305.17 310.11L305.58 309.97L306 309.84L306.42 309.71L306.84 309.59L307.26 309.47L307.69 309.36L308.12 309.25L308.55 309.15L308.99 309.06L309.43 308.97L309.87 308.89L310.32 308.81L310.77 308.74L311.22 308.68L311.68 308.62L312.14 308.56L312.6 308.51L313.07 308.47L313.53 308.43L314.01 308.4L314.48 308.38L314.96 308.36L315.44 308.34L315.92 308.33L316.41 308.33L316.89 308.33L317.38 308.34L317.85 308.36L318.33 308.38L318.79 308.41L319.26 308.45L319.72 308.49L320.17 308.54L320.62 308.59L321.06 308.66L321.5 308.72L321.94 308.8L322.37 308.88L322.8 308.97L323.22 309.06L323.63 309.16L324.04 309.27L324.45 309.38L324.85 309.5L325.24 309.62L325.63 309.76L326.02 309.9L326.4 310.04L326.77 310.19L327.14 310.35L327.51 310.51L327.86 310.68L328.22 310.86L328.56 311.04L328.9 311.23L329.24 311.43L329.57 311.63L329.89 311.84L330.21 312.06L330.52 312.28L330.83 312.5L331.13 312.74L331.43 312.98L331.72 313.22L332 313.48L332.28 313.74L332.55 314L332.81 314.27L333.07 314.54L333.32 314.82L333.56 315.11L333.8 315.4L334.03 315.7L334.25 316L334.46 316.3L334.67 316.62L334.88 316.93L335.07 317.25L335.26 317.58L335.44 317.91L335.62 318.25L335.78 318.59L335.95 318.94L336.1 319.29L336.25 319.65L336.39 320.01L336.52 320.38L336.65 320.75L336.76 321.12L336.88 321.51L336.98 321.89L337.08 322.28L337.17 322.68L337.25 323.08L337.33 323.48L337.4 323.89L337.46 324.31L337.51 324.73L337.56 325.15L337.6 325.58L337.63 326.01L337.66 326.45L337.68 326.89L337.69 327.33L337.69 327.78L337.74 388.54L351.73 388.54L351.73 329.18L351.73 328.44L351.71 327.71L351.68 326.98L351.64 326.27L351.59 325.56L351.53 324.85L351.46 324.16L351.37 323.47L351.27 322.79L351.17 322.12L351.05 321.45L350.92 320.79L350.77 320.14L350.62 319.49L350.46 318.86L350.28 318.22L350.1 317.6L349.9 316.99L349.69 316.38L349.47 315.78L349.24 315.19L349 314.6L348.74 314.02L348.48 313.45L348.2 312.89L347.91 312.33L347.62 311.79L347.31 311.25L346.99 310.71L346.65 310.19L346.31 309.67L345.96 309.16L345.59 308.66L345.22 308.17L344.83 307.68L344.43 307.21L344.03 306.74L343.61 306.27L343.18 305.82L342.73 305.37L342.28 304.94L341.82 304.51L341.36 304.1L340.88 303.69L340.4 303.3L339.9 302.92L339.4 302.55L338.89 302.19L338.38 301.84L337.85 301.5L337.32 301.18L336.78 300.86L336.23 300.55L335.67 300.26L335.11 299.98L334.53 299.71L333.95 299.45L333.37 299.2L332.77 298.96L332.17 298.73L331.55 298.51L330.93 298.31L330.31 298.11L329.67 297.93L329.03 297.76L328.38 297.59L327.72 297.44L327.05 297.31L326.38 297.18L325.7 297.06L325.01 296.95L324.32 296.86L323.61 296.78L322.9 296.7L322.18 296.64L321.46 296.59L320.73 296.55L319.99 296.52L319.24 296.51L318.48 296.5L317.61 296.51L316.74 296.53Z" id="bBeXry2"></path><path d="M455.51 374.38C451.97 375.7 448.24 376.43 444.46 376.53C437.89 376.53 435.33 372.57 434.31 372.13C431.93 369.19 430.73 365.05 430.73 359.7L430.73 310.6L466 310.6L466 295.32L430.73 295.32L430.73 271.06L413.25 271.06L413.25 295.34L393.78 295.34L393.78 310.62L413.22 310.62C413.22 339.05 413.22 354.85 413.22 358.01C413.22 374.64 420.31 380.77 421.09 383.29C428.97 391.95 441.77 391.09 444.07 391.95C453.09 391.95 460.4 390.12 466.01 386.44L466.01 369.11C461.5 371.8 458 373.56 455.51 374.38Z" id="b189lfD6D5"></path><path d="M430.85 269.29L430.92 269.3L430.99 269.31L431.06 269.32L431.12 269.34L431.19 269.36L431.26 269.38L431.32 269.4L431.39 269.43L431.45 269.46L431.51 269.49L431.57 269.52L431.63 269.55L431.68 269.59L431.74 269.63L431.79 269.67L431.84 269.71L431.89 269.76L431.94 269.8L431.99 269.85L432.03 269.9L432.08 269.95L432.12 270.01L432.16 270.06L432.19 270.12L432.23 270.18L432.26 270.24L432.29 270.3L432.32 270.36L432.34 270.42L432.37 270.49L432.39 270.56L432.41 270.62L432.42 270.69L432.44 270.76L432.45 270.83L432.45 270.9L432.46 270.97L432.46 271.04L432.46 293.56L466 293.56L466.07 293.56L466.14 293.57L466.21 293.57L466.28 293.58L466.35 293.59L466.42 293.61L466.49 293.63L466.55 293.65L466.62 293.67L466.68 293.69L466.74 293.72L466.8 293.75L466.86 293.78L466.92 293.82L466.98 293.85L467.03 293.89L467.09 293.93L467.14 293.98L467.19 294.02L467.24 294.07L467.28 294.12L467.33 294.17L467.37 294.22L467.41 294.27L467.45 294.33L467.49 294.38L467.52 294.44L467.56 294.5L467.59 294.56L467.61 294.62L467.64 294.68L467.66 294.75L467.68 294.81L467.7 294.88L467.72 294.95L467.73 295.02L467.74 295.09L467.75 295.16L467.75 295.23L467.76 295.31L467.76 310.59L467.75 310.66L467.75 310.73L467.74 310.8L467.73 310.87L467.72 310.94L467.71 311.01L467.69 311.08L467.67 311.14L467.65 311.21L467.62 311.27L467.59 311.33L467.56 311.39L467.53 311.45L467.5 311.51L467.46 311.57L467.42 311.62L467.38 311.68L467.34 311.73L467.29 311.78L467.25 311.83L467.2 311.87L467.15 311.92L467.1 311.96L467.05 312L466.99 312.04L466.93 312.08L466.88 312.11L466.82 312.15L466.76 312.18L466.69 312.2L466.63 312.23L466.57 312.25L466.5 312.27L466.43 312.29L466.37 312.31L466.3 312.32L466.23 312.33L466.16 312.34L466.09 312.34L466 312.34L432.49 312.34L432.49 359.72L432.49 360.09L432.5 360.45L432.51 360.81L432.52 361.16L432.54 361.51L432.56 361.86L432.59 362.2L432.62 362.53L432.65 362.87L432.69 363.19L432.73 363.52L432.78 363.84L432.83 364.16L432.88 364.47L432.94 364.77L433 365.08L433.07 365.38L433.14 365.67L433.21 365.96L433.29 366.25L433.37 366.53L433.46 366.81L433.55 367.08L433.64 367.35L433.74 367.61L433.84 367.87L433.95 368.13L434.05 368.38L434.17 368.62L434.29 368.86L434.41 369.1L434.53 369.34L434.66 369.56L434.79 369.79L434.93 370.01L435.07 370.22L435.22 370.43L435.37 370.64L435.52 370.84L435.67 371.04L435.83 371.23L436 371.42L436.16 371.6L436.33 371.78L436.5 371.95L436.67 372.11L436.85 372.27L437.03 372.43L437.21 372.58L437.4 372.72L437.58 372.86L437.78 373L437.97 373.12L438.17 373.25L438.37 373.37L438.57 373.48L438.78 373.59L438.98 373.69L439.2 373.79L439.41 373.89L439.63 373.98L439.85 374.06L440.08 374.14L440.31 374.22L440.54 374.29L440.78 374.35L441.02 374.41L441.26 374.47L441.51 374.52L441.76 374.57L442.01 374.61L442.27 374.65L442.53 374.68L442.79 374.71L443.06 374.73L443.34 374.75L443.61 374.77L443.89 374.78L444.18 374.79L444.46 374.79L444.73 374.78L445 374.77L445.27 374.75L445.54 374.74L445.81 374.72L446.07 374.7L446.34 374.68L446.61 374.65L446.88 374.63L447.14 374.6L447.41 374.57L447.68 374.53L447.94 374.5L448.21 374.46L448.48 374.42L448.74 374.38L449 374.33L449.27 374.29L449.53 374.24L449.8 374.19L450.06 374.14L450.32 374.08L450.58 374.02L450.85 373.97L451.11 373.9L451.37 373.84L451.63 373.77L451.89 373.71L452.15 373.64L452.41 373.57L452.67 373.49L452.92 373.41L453.18 373.34L453.44 373.26L453.69 373.17L453.95 373.09L454.2 373L454.46 372.91L454.71 372.82L454.96 372.73L455.23 372.64L455.5 372.55L455.76 372.45L456.03 372.36L456.29 372.26L456.56 372.16L456.82 372.06L457.08 371.96L457.34 371.85L457.6 371.74L457.86 371.63L458.12 371.52L458.38 371.41L458.64 371.3L458.89 371.18L459.15 371.06L459.4 370.94L459.66 370.82L459.91 370.7L460.16 370.57L460.42 370.45L460.67 370.32L460.92 370.19L461.16 370.05L461.41 369.92L461.66 369.78L461.9 369.65L462.15 369.51L462.39 369.37L462.63 369.22L462.88 369.08L463.12 368.93L463.36 368.78L463.59 368.63L463.83 368.48L464.07 368.33L464.3 368.17L464.54 368.01L464.77 367.86L465 367.69L465.06 367.65L465.12 367.61L465.18 367.58L465.25 367.55L465.31 367.51L465.37 367.49L465.44 367.46L465.5 367.44L465.57 367.42L465.63 367.4L465.7 367.39L465.77 367.38L465.83 367.37L465.9 367.36L465.97 367.36L466.04 367.36L466.1 367.36L466.17 367.36L466.24 367.37L466.3 367.38L466.37 367.39L466.43 367.4L466.5 367.42L466.56 367.44L466.63 367.46L466.69 367.48L466.75 367.51L466.81 367.54L466.87 367.57L466.93 367.6L466.99 367.64L467.05 367.68L467.1 367.72L467.16 367.76L467.21 367.81L467.26 367.86L467.31 367.91L467.36 367.96L467.4 368.01L467.45 368.07L467.46 368.09L467.48 368.12L467.5 368.14L467.51 368.16L467.53 368.19L467.54 368.21L467.55 368.23L467.57 368.26L467.58 368.28L467.59 368.31L467.61 368.33L467.62 368.36L467.63 368.38L467.64 368.41L467.65 368.43L467.66 368.46L467.67 368.48L467.68 368.51L467.69 368.54L467.7 368.56L467.71 368.59L467.72 368.62L467.72 368.64L467.73 368.67L467.74 368.7L467.74 368.72L467.75 368.75L467.75 368.78L467.76 368.8L467.76 368.83L467.77 368.86L467.77 368.89L467.78 368.91L467.78 368.94L467.78 368.97L467.78 369L467.78 369.02L467.78 369.05L467.79 369.08L467.79 369.11L467.79 386.41L467.79 386.45L467.78 386.5L467.78 386.54L467.78 386.58L467.77 386.63L467.77 386.67L467.76 386.71L467.75 386.76L467.75 386.8L467.74 386.84L467.73 386.88L467.71 386.92L467.7 386.96L467.69 387L467.67 387.04L467.66 387.08L467.64 387.12L467.63 387.16L467.61 387.2L467.59 387.24L467.57 387.28L467.55 387.31L467.53 387.35L467.5 387.39L467.48 387.42L467.45 387.46L467.43 387.49L467.4 387.52L467.38 387.56L467.35 387.59L467.32 387.62L467.29 387.65L467.26 387.68L467.23 387.71L467.2 387.74L467.16 387.77L467.13 387.8L467.1 387.83L467.06 387.85L467.03 387.88L466.58 388.16L466.13 388.44L465.67 388.71L465.2 388.98L464.73 389.23L464.25 389.48L463.76 389.73L463.27 389.96L462.77 390.19L462.26 390.41L461.75 390.63L461.23 390.83L460.7 391.03L460.17 391.22L459.63 391.41L459.08 391.59L458.53 391.76L457.97 391.92L457.41 392.08L456.84 392.23L456.26 392.37L455.67 392.5L455.08 392.63L454.49 392.75L453.88 392.86L453.27 392.97L452.66 393.07L452.03 393.16L451.4 393.24L450.77 393.32L450.13 393.39L449.48 393.45L448.83 393.51L448.17 393.55L447.5 393.59L446.83 393.63L446.15 393.65L445.46 393.67L444.77 393.68L444.08 393.69L443.29 393.68L442.51 393.66L441.75 393.63L440.99 393.59L440.24 393.54L439.5 393.48L438.77 393.4L438.05 393.31L437.33 393.22L436.63 393.11L435.93 392.98L435.25 392.85L434.57 392.71L433.9 392.55L433.25 392.38L432.6 392.2L431.96 392.01L431.32 391.81L430.7 391.59L430.09 391.37L429.49 391.13L428.89 390.88L428.31 390.62L427.73 390.35L427.17 390.07L426.61 389.78L426.06 389.47L425.53 389.15L425 388.82L424.48 388.48L423.97 388.13L423.47 387.77L422.98 387.4L422.5 387.01L422.03 386.61L421.57 386.2L421.11 385.78L420.67 385.35L420.24 384.91L419.82 384.46L419.4 383.99L419 383.52L418.61 383.03L418.23 382.54L417.86 382.03L417.5 381.52L417.15 380.99L416.81 380.45L416.48 379.91L416.16 379.35L415.85 378.79L415.55 378.21L415.27 377.62L414.99 377.03L414.72 376.42L414.47 375.8L414.22 375.18L413.99 374.54L413.76 373.89L413.55 373.24L413.34 372.57L413.15 371.89L412.97 371.2L412.79 370.51L412.63 369.8L412.48 369.08L412.34 368.36L412.21 367.62L412.09 366.87L411.98 366.11L411.88 365.35L411.79 364.57L411.71 363.78L411.64 362.99L411.59 362.18L411.54 361.36L411.5 360.53L411.48 359.7L411.46 358.85L411.46 357.99L411.46 312.38L393.78 312.38L393.71 312.38L393.64 312.38L393.57 312.37L393.5 312.36L393.43 312.35L393.36 312.33L393.29 312.32L393.23 312.3L393.16 312.27L393.1 312.25L393.04 312.22L392.98 312.19L392.92 312.16L392.86 312.12L392.8 312.09L392.75 312.05L392.69 312.01L392.64 311.97L392.59 311.92L392.54 311.88L392.5 311.83L392.45 311.78L392.41 311.73L392.37 311.67L392.33 311.62L392.29 311.56L392.26 311.5L392.22 311.44L392.19 311.38L392.16 311.32L392.14 311.26L392.12 311.19L392.1 311.13L392.08 311.06L392.06 310.99L392.05 310.93L392.04 310.86L392.03 310.79L392.03 310.71L392.02 310.63L392.02 295.35L392.03 295.27L392.03 295.2L392.04 295.13L392.05 295.06L392.06 294.99L392.08 294.93L392.09 294.86L392.11 294.79L392.14 294.73L392.16 294.67L392.19 294.6L392.22 294.54L392.25 294.48L392.29 294.43L392.32 294.37L392.36 294.31L392.4 294.26L392.45 294.21L392.49 294.16L392.54 294.11L392.59 294.06L392.64 294.02L392.69 293.98L392.74 293.94L392.8 293.9L392.85 293.86L392.91 293.83L392.97 293.79L393.03 293.76L393.09 293.74L393.16 293.71L393.22 293.69L393.29 293.67L393.35 293.65L393.42 293.63L393.49 293.62L393.56 293.61L393.63 293.6L393.7 293.6L393.78 293.6L411.46 293.6L411.46 271.04L411.46 271.01L411.46 270.97L411.47 270.94L411.47 270.9L411.47 270.87L411.47 270.84L411.48 270.8L411.48 270.77L411.49 270.73L411.5 270.7L411.5 270.67L411.51 270.63L411.52 270.6L411.53 270.57L411.54 270.53L411.55 270.5L411.56 270.47L411.57 270.44L411.58 270.41L411.59 270.37L411.61 270.34L411.62 270.31L411.64 270.28L411.65 270.25L411.67 270.22L411.68 270.19L411.7 270.16L411.72 270.13L411.74 270.1L411.75 270.07L411.77 270.04L411.79 270.02L411.81 269.99L411.83 269.96L411.86 269.93L411.88 269.91L411.9 269.88L411.92 269.85L411.95 269.83L411.97 269.8L412 269.78L412.02 269.76L412.05 269.73L412.08 269.71L412.1 269.69L412.13 269.67L412.16 269.65L412.18 269.62L412.21 269.61L412.24 269.59L412.27 269.57L412.3 269.55L412.33 269.53L412.36 269.51L412.39 269.5L412.42 269.48L412.45 269.47L412.48 269.45L412.51 269.44L412.55 269.42L412.58 269.41L412.61 269.4L412.64 269.39L412.67 269.38L412.71 269.37L412.74 269.36L412.77 269.35L412.81 269.34L412.84 269.33L412.87 269.32L412.91 269.32L412.94 269.31L412.98 269.31L413.01 269.3L413.04 269.3L413.08 269.29L413.11 269.29L413.15 269.29L413.18 269.29L413.22 269.29L430.7 269.29L430.78 269.29L430.85 269.29ZM414.98 295.33L414.98 295.4L414.98 295.48L414.97 295.55L414.96 295.62L414.95 295.68L414.93 295.75L414.92 295.82L414.9 295.88L414.87 295.95L414.85 296.01L414.82 296.08L414.79 296.14L414.76 296.2L414.72 296.25L414.69 296.31L414.65 296.37L414.61 296.42L414.57 296.47L414.52 296.52L414.48 296.57L414.43 296.62L414.38 296.66L414.33 296.7L414.27 296.75L414.22 296.78L414.16 296.82L414.1 296.86L414.04 296.89L413.98 296.92L413.92 296.95L413.86 296.97L413.79 297L413.73 297.02L413.66 297.04L413.59 297.05L413.53 297.06L413.46 297.07L413.39 297.08L413.31 297.09L413.23 297.09L395.54 297.09L395.54 308.87L413.23 308.87L413.31 308.87L413.38 308.88L413.45 308.88L413.52 308.89L413.59 308.91L413.65 308.92L413.72 308.94L413.79 308.96L413.85 308.98L413.91 309.01L413.98 309.04L414.04 309.07L414.1 309.1L414.16 309.13L414.21 309.17L414.27 309.21L414.32 309.25L414.37 309.29L414.42 309.34L414.47 309.38L414.52 309.43L414.56 309.48L414.6 309.53L414.65 309.59L414.68 309.64L414.72 309.7L414.76 309.76L414.79 309.82L414.82 309.88L414.85 309.94L414.87 310L414.89 310.07L414.91 310.13L414.93 310.2L414.95 310.27L414.96 310.34L414.97 310.41L414.98 310.48L414.98 310.55L414.98 310.62L414.98 358.01L414.99 358.8L415 359.58L415.02 360.35L415.06 361.11L415.1 361.86L415.15 362.6L415.21 363.34L415.28 364.06L415.36 364.77L415.45 365.48L415.55 366.17L415.66 366.86L415.77 367.54L415.9 368.2L416.03 368.86L416.18 369.51L416.33 370.15L416.49 370.77L416.67 371.39L416.85 372L417.04 372.6L417.24 373.19L417.45 373.77L417.67 374.34L417.89 374.9L418.13 375.45L418.38 375.99L418.63 376.52L418.9 377.04L419.17 377.55L419.45 378.05L419.75 378.55L420.05 379.03L420.36 379.5L420.68 379.96L421 380.41L421.34 380.85L421.69 381.28L422.04 381.7L422.41 382.12L422.78 382.52L423.17 382.91L423.56 383.29L423.96 383.66L424.37 384.02L424.78 384.37L425.21 384.71L425.64 385.03L426.09 385.35L426.54 385.66L427 385.96L427.47 386.25L427.94 386.53L428.43 386.79L428.92 387.05L429.43 387.3L429.94 387.54L430.46 387.76L430.99 387.98L431.53 388.19L432.07 388.38L432.63 388.57L433.19 388.74L433.76 388.91L434.34 389.07L434.93 389.21L435.53 389.35L436.14 389.47L436.75 389.59L437.37 389.69L438.01 389.79L438.65 389.88L439.29 389.95L439.95 390.02L440.62 390.07L441.29 390.12L441.98 390.15L442.67 390.18L443.37 390.19L444.08 390.2L444.69 390.19L445.3 390.18L445.9 390.17L446.5 390.15L447.09 390.12L447.68 390.09L448.26 390.05L448.83 390.01L449.4 389.96L449.97 389.9L450.53 389.84L451.08 389.77L451.63 389.69L452.17 389.61L452.71 389.53L453.24 389.44L453.77 389.34L454.29 389.23L454.8 389.12L455.31 389.01L455.81 388.89L456.31 388.76L456.8 388.63L457.29 388.49L457.77 388.34L458.24 388.19L458.71 388.04L459.17 387.87L459.63 387.71L460.08 387.53L460.53 387.35L460.97 387.17L461.4 386.97L461.83 386.78L462.25 386.57L462.67 386.36L463.08 386.15L463.48 385.93L463.88 385.7L464.27 385.47L464.27 372.35L464.08 372.46L463.88 372.57L463.69 372.68L463.49 372.79L463.29 372.89L463.1 373L462.9 373.1L462.7 373.21L462.5 373.31L462.3 373.42L462.1 373.52L461.9 373.62L461.7 373.72L461.5 373.82L461.3 373.91L461.1 374.01L460.89 374.11L460.69 374.2L460.49 374.3L460.28 374.39L460.08 374.48L459.87 374.57L459.67 374.66L459.46 374.75L459.26 374.84L459.05 374.93L458.84 375.01L458.64 375.1L458.43 375.18L458.22 375.26L458.01 375.35L457.8 375.43L457.59 375.51L457.38 375.59L457.17 375.67L456.96 375.74L456.75 375.82L456.54 375.89L456.33 375.97L456.12 376.04L455.33 376.31L454.55 376.56L453.78 376.79L453.03 377.01L452.28 377.21L451.54 377.39L450.81 377.56L450.09 377.71L449.39 377.84L448.69 377.96L448 378.05L447.33 378.14L446.66 378.2L446 378.24L445.36 378.27L444.73 378.29L444.1 378.28L443.49 378.26L442.89 378.22L442.3 378.16L441.72 378.08L441.15 377.99L440.6 377.88L440.05 377.75L439.52 377.6L439 377.44L438.49 377.26L437.99 377.06L437.5 376.84L437.03 376.61L436.57 376.35L436.11 376.08L435.68 375.79L435.25 375.49L434.84 375.16L434.43 374.82L434.05 374.46L433.67 374.08L433.3 373.68L432.95 373.27L432.76 373.02L432.57 372.77L432.38 372.52L432.2 372.26L432.03 371.99L431.85 371.72L431.69 371.45L431.53 371.17L431.37 370.88L431.22 370.59L431.07 370.3L430.93 370L430.79 369.7L430.66 369.39L430.54 369.08L430.41 368.76L430.3 368.44L430.19 368.11L430.08 367.78L429.98 367.44L429.88 367.1L429.79 366.75L429.7 366.4L429.62 366.05L429.54 365.69L429.47 365.32L429.4 364.95L429.34 364.58L429.28 364.2L429.23 363.82L429.18 363.43L429.14 363.04L429.1 362.64L429.07 362.24L429.04 361.83L429.02 361.42L429 361.01L428.99 360.59L428.98 360.16L428.98 359.74L428.98 310.6L428.98 310.53L428.98 310.46L428.99 310.39L429 310.32L429.01 310.25L429.03 310.18L429.05 310.12L429.07 310.05L429.09 309.99L429.12 309.92L429.14 309.86L429.17 309.8L429.21 309.74L429.24 309.68L429.28 309.63L429.31 309.57L429.36 309.52L429.4 309.47L429.44 309.42L429.49 309.37L429.54 309.32L429.59 309.28L429.64 309.23L429.69 309.19L429.75 309.15L429.81 309.12L429.86 309.08L429.92 309.05L429.98 309.02L430.05 308.99L430.11 308.97L430.17 308.94L430.24 308.92L430.31 308.91L430.37 308.89L430.44 308.88L430.51 308.87L430.58 308.86L430.65 308.86L430.73 308.86L464.27 308.86L464.27 297.08L430.73 297.08L430.66 297.08L430.59 297.07L430.52 297.07L430.45 297.06L430.38 297.05L430.31 297.03L430.25 297.01L430.18 296.99L430.12 296.97L430.05 296.95L429.99 296.92L429.93 296.89L429.87 296.86L429.81 296.82L429.75 296.79L429.7 296.75L429.65 296.71L429.59 296.66L429.54 296.62L429.5 296.57L429.45 296.53L429.4 296.48L429.36 296.42L429.32 296.37L429.28 296.32L429.24 296.26L429.21 296.2L429.18 296.14L429.15 296.08L429.12 296.02L429.09 295.96L429.07 295.89L429.05 295.83L429.03 295.76L429.01 295.69L429 295.62L428.99 295.55L428.98 295.48L428.98 295.41L428.98 295.32L428.98 272.81L414.98 272.81L414.98 295.33Z" id="cMA1FhWBc"></path><path d="M455.54 374.35C459.27 373.12 462.81 371.34 466.03 369.08C466.91 368.16 473.92 360.79 474.8 359.87C471.58 362.13 468.05 363.91 464.31 365.14C460.77 366.48 457.02 367.21 453.24 367.32C448.85 367.32 445.47 365.85 443.08 362.92C437.82 368.44 434.9 371.51 434.31 372.13C436.69 375.06 440.07 376.53 444.46 376.53C449.48 375.97 453.17 375.24 455.54 374.35Z" id="a5J8S0E0g4"></path><path d="M475.01 358.24L475.14 358.26L475.26 358.3L475.38 358.35L475.5 358.4L475.61 358.46L475.72 358.53L475.82 358.61L475.92 358.7L476.02 358.8L476.1 358.9L476.18 359.02L476.24 359.11L476.29 359.21L476.33 359.31L476.37 359.41L476.4 359.51L476.42 359.61L476.44 359.72L476.45 359.82L476.46 359.93L476.46 360.04L476.45 360.14L476.44 360.25L476.42 360.35L476.39 360.45L476.36 360.55L476.32 360.65L476.27 360.75L476.22 360.84L476.17 360.94L476.1 361.03L476.03 361.11L467.26 370.32L467.25 370.34L467.24 370.35L467.23 370.36L467.22 370.37L467.21 370.38L467.2 370.39L467.19 370.4L467.18 370.41L467.17 370.42L467.15 370.43L467.14 370.44L467.13 370.45L467.12 370.46L467.11 370.47L467.1 370.48L467.09 370.49L467.07 370.49L467.06 370.5L467.05 370.51L467.04 370.52L467.03 370.53L466.54 370.86L466.06 371.19L465.56 371.51L465.07 371.82L464.57 372.13L464.07 372.43L463.56 372.72L463.05 373L462.53 373.28L462.01 373.55L461.49 373.81L460.96 374.07L460.43 374.32L459.9 374.56L459.36 374.79L458.82 375.02L458.28 375.24L457.74 375.45L457.19 375.66L456.63 375.85L456.08 376.04L455.55 376.24L455.01 376.42L454.47 376.6L453.93 376.77L453.39 376.93L452.84 377.08L452.3 377.22L451.75 377.36L451.19 377.48L450.64 377.6L450.09 377.71L449.53 377.81L448.97 377.9L448.41 377.98L447.85 378.06L447.29 378.12L446.73 378.18L446.16 378.23L445.6 378.26L445.03 378.29L444.46 378.31L443.77 378.3L443.09 378.27L442.42 378.21L441.77 378.13L441.13 378.03L440.51 377.9L439.9 377.75L439.3 377.58L438.72 377.38L438.16 377.16L437.61 376.92L437.08 376.66L436.56 376.37L436.05 376.06L435.56 375.73L435.09 375.38L434.63 375L434.19 374.6L433.76 374.18L433.35 373.73L432.95 373.27L432.88 373.17L432.81 373.07L432.76 372.96L432.71 372.85L432.67 372.74L432.63 372.63L432.6 372.52L432.59 372.4L432.57 372.29L432.57 372.17L432.57 372.05L432.59 371.94L432.61 371.82L432.63 371.71L432.67 371.6L432.71 371.49L432.76 371.38L432.82 371.28L432.88 371.18L432.96 371.08L433.04 370.99L441.81 361.78L441.91 361.68L442.01 361.6L442.12 361.52L442.23 361.45L442.35 361.39L442.47 361.34L442.59 361.3L442.71 361.27L442.84 361.25L442.97 361.24L443.09 361.23L443.22 361.24L443.35 361.25L443.48 361.28L443.6 361.31L443.72 361.35L443.84 361.4L443.96 361.47L444.07 361.54L444.18 361.62L444.28 361.71L444.29 361.72L444.3 361.72L444.31 361.73L444.31 361.74L444.32 361.75L444.33 361.75L444.34 361.76L444.34 361.77L444.35 361.78L444.36 361.79L444.37 361.8L444.39 361.82L444.4 361.83L444.4 361.84L444.41 361.84L444.42 361.85L444.43 361.86L444.43 361.87L444.44 361.88L444.74 362.23L445.05 362.57L445.37 362.88L445.7 363.18L446.05 363.46L446.41 363.73L446.77 363.97L447.15 364.2L447.55 364.42L447.95 364.61L448.37 364.79L448.8 364.95L449.24 365.09L449.69 365.22L450.16 365.33L450.64 365.42L451.13 365.5L451.64 365.56L452.16 365.6L452.69 365.63L453.24 365.63L453.75 365.61L454.26 365.58L454.77 365.55L455.28 365.5L455.79 365.45L456.3 365.38L456.8 365.31L457.31 365.24L457.81 365.15L458.31 365.06L458.81 364.96L459.31 364.85L459.81 364.73L460.31 364.61L460.8 364.48L461.29 364.34L461.78 364.19L462.27 364.03L462.76 363.87L463.24 363.7L463.72 363.52L464.23 363.35L464.73 363.17L465.24 362.98L465.74 362.79L466.23 362.59L466.73 362.38L467.22 362.17L467.71 361.95L468.19 361.72L468.68 361.49L469.16 361.25L469.63 361L470.1 360.75L470.57 360.49L471.04 360.22L471.5 359.95L471.96 359.67L472.41 359.38L472.86 359.09L473.31 358.79L473.75 358.49L473.87 358.42L473.99 358.36L474.12 358.31L474.24 358.27L474.37 358.24L474.5 358.22L474.63 358.21L474.76 358.21L474.89 358.22L475.01 358.24ZM437.64 372.89L438.63 373.5L439.72 373.99L440.89 374.37L442.14 374.63L443.48 374.77L444.89 374.8L446.39 374.72L447.96 374.54L449.6 374.24L451.32 373.84L453.11 373.34L454.97 372.73L455.78 372.45L456.58 372.15L457.37 371.84L458.15 371.51L458.93 371.16L459.7 370.8L460.47 370.41L461.22 370.02L461.96 369.6L462.7 369.17L463.43 368.73L464.14 368.26L464.85 367.79L466.23 366.33L464.86 366.83L462.68 367.53L460.59 368.11L458.57 368.56L456.63 368.87L454.77 369.04L452.99 369.09L451.3 368.99L449.7 368.76L448.18 368.39L446.76 367.88L445.43 367.23L444.19 366.43L443.05 365.5L436.72 372.16L437.64 372.89Z" id="a15nf4mYvb"></path><path d="M191.36 257.27L209.09 257.27L217.86 248.06L191.36 248.06L182.59 257.27L182.59 257.27L191.36 257.27Z" id="a1LsDmjO9j"></path><path d="M218.03 246.32L218.19 246.34L218.35 246.38L218.5 246.43L218.65 246.5L218.79 246.58L218.92 246.67L219.04 246.77L219.15 246.88L219.25 247L219.34 247.13L219.42 247.27L219.49 247.42L219.54 247.57L219.58 247.73L219.6 247.9L219.61 248.07L219.61 248.15L219.6 248.22L219.59 248.3L219.58 248.38L219.56 248.46L219.54 248.53L219.52 248.61L219.5 248.68L219.47 248.75L219.44 248.82L219.4 248.89L219.36 248.96L219.32 249.03L219.28 249.09L219.23 249.15L219.18 249.21L219.13 249.27L210.36 258.48L210.3 258.54L210.24 258.59L210.17 258.65L210.11 258.7L210.04 258.74L209.97 258.79L209.89 258.83L209.82 258.86L209.74 258.9L209.67 258.93L209.59 258.95L209.51 258.97L209.43 258.99L209.34 259.01L209.26 259.02L209.18 259.02L209.09 259.02L182.59 259.02L182.42 259.02L182.26 258.99L182.1 258.95L181.95 258.9L181.8 258.83L181.66 258.76L181.53 258.66L181.41 258.56L181.3 258.45L181.19 258.33L181.1 258.2L181.03 258.06L180.96 257.91L180.91 257.76L180.87 257.6L180.85 257.43L180.84 257.26L180.84 257.19L180.85 257.11L180.86 257.03L180.87 256.95L180.88 256.88L180.9 256.8L180.93 256.73L180.95 256.65L180.98 256.58L181.01 256.51L181.05 256.44L181.09 256.37L181.13 256.31L181.17 256.24L181.22 256.18L181.27 256.12L181.32 256.06L190.09 246.85L190.15 246.79L190.22 246.74L190.28 246.68L190.35 246.63L190.42 246.59L190.49 246.54L190.56 246.5L190.63 246.47L190.71 246.43L190.79 246.4L190.87 246.38L190.95 246.36L191.03 246.34L191.11 246.32L191.2 246.31L191.28 246.31L191.36 246.31L217.86 246.31L218.03 246.32ZM186.68 255.51L208.34 255.51L213.77 249.82L192.12 249.82L186.68 255.51Z" id="ba73lcjD3O"></path><path d="M296.57 287.18L279.07 287.18L270.3 296.39L279.07 296.39L287.81 296.39L287.81 296.39L296.57 287.18Z" id="b2IjXwU27"></path><path d="M296.98 285.47L297.17 285.53L297.35 285.61L297.52 285.7L297.68 285.81L297.82 285.94L297.95 286.09L298.06 286.24L298.16 286.41L298.23 286.59L298.29 286.78L298.32 286.98L298.33 287.19L298.33 287.28L298.32 287.38L298.31 287.47L298.29 287.56L298.27 287.66L298.24 287.75L298.21 287.84L298.17 287.92L298.13 288.01L298.08 288.09L298.03 288.17L297.98 288.25L297.92 288.32L297.85 288.39L289.09 297.6L289.01 297.67L288.94 297.74L288.86 297.8L288.77 297.86L288.69 297.91L288.6 297.96L288.5 298L288.41 298.04L288.31 298.07L288.22 298.1L288.12 298.12L288.01 298.13L287.91 298.14L287.81 298.14L270.33 298.14L270.12 298.13L269.92 298.1L269.73 298.04L269.55 297.96L269.38 297.87L269.23 297.76L269.08 297.63L268.96 297.48L268.84 297.33L268.75 297.16L268.67 296.98L268.62 296.79L268.58 296.59L268.57 296.38L268.58 296.29L268.58 296.19L268.6 296.1L268.62 296.01L268.64 295.91L268.67 295.82L268.7 295.74L268.74 295.65L268.78 295.56L268.83 295.48L268.88 295.4L268.93 295.33L268.99 295.25L269.06 295.18L277.83 285.97L277.9 285.9L277.98 285.83L278.06 285.77L278.14 285.71L278.23 285.66L278.31 285.61L278.41 285.57L278.5 285.53L278.6 285.5L278.69 285.47L278.79 285.45L278.89 285.44L279 285.43L279.1 285.43L296.58 285.43L296.79 285.44L296.98 285.47ZM274.43 294.64L287.09 294.64L292.52 288.94L279.83 288.94L274.43 294.64Z" id="cp3OK16uc"></path><path d="M169.12 296.39L209.09 296.39L217.86 287.18L169.12 287.18L160.35 296.39L160.35 296.39L169.12 296.39Z" id="d17rZNrOV"></path><path d="M218.08 285.44L218.18 285.46L218.29 285.48L218.39 285.51L218.49 285.55L218.59 285.59L218.68 285.63L218.77 285.69L218.86 285.74L218.94 285.81L219.02 285.87L219.1 285.94L219.17 286.02L219.23 286.1L219.3 286.18L219.35 286.27L219.4 286.36L219.45 286.45L219.49 286.55L219.53 286.65L219.56 286.75L219.58 286.86L219.6 286.97L219.61 287.08L219.61 287.19L219.61 287.24L219.6 287.29L219.6 287.34L219.6 287.39L219.59 287.44L219.58 287.49L219.57 287.54L219.56 287.59L219.55 287.64L219.53 287.69L219.52 287.74L219.5 287.79L219.48 287.84L219.46 287.88L219.44 287.93L219.42 287.97L219.4 288.02L219.37 288.06L219.34 288.11L219.32 288.15L219.29 288.19L219.26 288.23L219.23 288.27L219.19 288.31L219.16 288.35L219.13 288.39L210.36 297.6L210.32 297.64L210.28 297.67L210.24 297.71L210.2 297.75L210.16 297.78L210.11 297.81L210.07 297.84L210.02 297.87L209.98 297.9L209.93 297.93L209.88 297.95L209.83 297.98L209.78 298L209.73 298.02L209.68 298.04L209.63 298.06L209.58 298.07L209.53 298.09L209.47 298.1L209.42 298.11L209.37 298.12L209.31 298.13L209.26 298.14L209.2 298.14L209.15 298.14L209.09 298.14L160.35 298.14L160.24 298.14L160.13 298.13L160.02 298.11L159.92 298.09L159.81 298.06L159.71 298.02L159.62 297.98L159.52 297.94L159.43 297.88L159.35 297.83L159.26 297.77L159.18 297.7L159.11 297.63L159.04 297.55L158.97 297.47L158.91 297.39L158.85 297.3L158.8 297.21L158.75 297.12L158.71 297.02L158.68 296.92L158.65 296.82L158.63 296.71L158.61 296.6L158.6 296.5L158.6 296.38L158.6 296.33L158.6 296.28L158.6 296.23L158.61 296.18L158.62 296.13L158.62 296.08L158.63 296.03L158.64 295.98L158.66 295.93L158.67 295.88L158.69 295.83L158.7 295.78L158.72 295.74L158.74 295.69L158.76 295.64L158.78 295.6L158.81 295.55L158.83 295.51L158.86 295.46L158.89 295.42L158.92 295.38L158.95 295.34L158.98 295.3L159.01 295.26L159.04 295.22L159.08 295.18L167.85 285.97L167.89 285.93L167.93 285.9L167.97 285.86L168.01 285.82L168.05 285.79L168.1 285.76L168.14 285.73L168.19 285.7L168.24 285.67L168.28 285.64L168.33 285.61L168.38 285.59L168.43 285.57L168.48 285.55L168.53 285.53L168.58 285.51L168.63 285.5L168.69 285.48L168.74 285.47L168.79 285.46L168.85 285.45L168.9 285.44L168.96 285.43L169.01 285.43L169.07 285.43L169.12 285.43L217.86 285.43L217.97 285.43L218.08 285.44ZM164.45 294.64L208.34 294.64L213.77 288.94L169.87 288.94L164.45 294.64Z" id="bd2S6d23n"></path><path d="M413.23 286.12L402.56 286.12L393.8 295.32L402.56 295.32L413.23 295.32L413.23 295.32L413.23 286.12Z" id="i131uWZp9Q"></path><path d="M413.65 284.43L413.87 284.5L414.07 284.6L414.26 284.73L414.43 284.88L414.57 285.05L414.7 285.23L414.8 285.44L414.87 285.65L414.92 285.88L414.94 286.12L414.94 295.32L414.92 295.56L414.88 295.78L414.81 296L414.71 296.2L414.59 296.38L414.44 296.55L414.28 296.7L414.1 296.83L413.9 296.93L413.69 297.01L413.47 297.06L413.23 297.08L393.78 297.08L393.54 297.06L393.31 297.02L393.1 296.94L392.89 296.84L392.71 296.72L392.54 296.57L392.39 296.4L392.26 296.21L392.16 296.01L392.08 295.79L392.04 295.57L392.02 295.33L392.02 295.22L392.04 295.1L392.05 294.99L392.08 294.89L392.11 294.78L392.15 294.67L392.19 294.57L392.24 294.47L392.3 294.38L392.36 294.29L392.43 294.2L392.5 294.12L401.28 284.91L401.36 284.83L401.45 284.75L401.55 284.68L401.65 284.61L401.75 284.56L401.85 284.51L401.96 284.46L402.08 284.43L402.19 284.4L402.31 284.38L402.43 284.37L402.55 284.36L413.19 284.36L413.43 284.38L413.65 284.43ZM397.89 293.58L411.48 293.58L411.48 287.87L403.31 287.87L397.89 293.58Z" id="adp1w44TW"></path><path d="M439.51 261.85L422 261.84L413.23 271.04L422 271.05L430.73 271.06L430.73 271.06L439.51 261.85Z" id="bqE7rag9J"></path><path d="M439.91 260.14L440.1 260.2L440.28 260.28L440.45 260.37L440.6 260.49L440.75 260.61L440.87 260.76L440.99 260.91L441.08 261.08L441.16 261.26L441.21 261.45L441.25 261.65L441.26 261.86L441.26 261.95L441.25 262.05L441.23 262.14L441.22 262.23L441.19 262.33L441.16 262.42L441.13 262.51L441.09 262.59L441.05 262.68L441.01 262.76L440.96 262.84L440.9 262.92L440.84 262.99L440.78 263.06L432 272.27L431.93 272.34L431.85 272.41L431.77 272.47L431.69 272.53L431.6 272.58L431.52 272.63L431.42 272.67L431.33 272.71L431.24 272.74L431.14 272.77L431.04 272.79L430.94 272.8L430.84 272.81L430.73 272.81L413.25 272.81L413.04 272.8L412.85 272.77L412.66 272.71L412.48 272.63L412.31 272.54L412.15 272.43L412.01 272.3L411.88 272.15L411.77 272L411.67 271.83L411.6 271.65L411.54 271.46L411.51 271.26L411.5 271.05L411.5 270.96L411.51 270.86L411.52 270.77L411.54 270.68L411.56 270.58L411.59 270.49L411.62 270.41L411.66 270.32L411.7 270.23L411.75 270.15L411.8 270.07L411.86 270L411.92 269.92L411.98 269.85L420.75 260.64L420.83 260.57L420.9 260.5L420.98 260.44L421.06 260.38L421.15 260.33L421.24 260.28L421.33 260.24L421.42 260.2L421.52 260.17L421.62 260.14L421.72 260.12L421.82 260.11L421.92 260.1L422.02 260.1L439.51 260.1L439.71 260.11L439.91 260.14ZM417.35 269.3L430.01 269.3L435.45 263.59L422.75 263.59L417.35 269.3Z" id="iUrFRmNNw"></path><path d="M474.8 286.12L439.51 286.12L430.73 295.32L466.03 295.32L466.03 295.32L474.8 286.12Z" id="a178m5xu9t"></path><path d="M475.07 284.38L475.2 284.41L475.33 284.44L475.46 284.49L475.57 284.54L475.69 284.6L475.8 284.67L475.9 284.75L476 284.83L476.09 284.93L476.17 285.02L476.25 285.13L476.32 285.24L476.38 285.35L476.43 285.47L476.47 285.59L476.51 285.72L476.53 285.85L476.55 285.99L476.55 286.12L476.55 286.19L476.55 286.25L476.54 286.31L476.53 286.38L476.52 286.44L476.51 286.5L476.5 286.56L476.48 286.62L476.46 286.68L476.44 286.74L476.42 286.8L476.39 286.86L476.36 286.91L476.33 286.97L476.3 287.02L476.27 287.08L476.23 287.13L476.2 287.18L476.16 287.23L476.11 287.28L476.07 287.33L467.3 296.53L467.25 296.58L467.2 296.63L467.15 296.68L467.09 296.72L467.04 296.76L466.98 296.8L466.92 296.84L466.86 296.87L466.8 296.9L466.74 296.93L466.68 296.96L466.61 296.98L466.55 297L466.48 297.02L466.41 297.04L466.35 297.05L466.28 297.06L466.21 297.07L466.14 297.08L466.07 297.08L466 297.08L430.73 297.08L430.6 297.07L430.46 297.06L430.33 297.03L430.2 297L430.08 296.95L429.96 296.9L429.85 296.84L429.74 296.77L429.64 296.69L429.54 296.61L429.45 296.52L429.37 296.42L429.29 296.32L429.22 296.21L429.16 296.09L429.11 295.97L429.06 295.85L429.03 295.72L429 295.59L428.99 295.46L428.98 295.32L428.98 295.26L428.99 295.19L428.99 295.13L429 295.07L429.01 295L429.02 294.94L429.04 294.88L429.06 294.82L429.08 294.76L429.1 294.7L429.12 294.64L429.15 294.58L429.17 294.53L429.2 294.47L429.23 294.42L429.27 294.36L429.3 294.31L429.34 294.26L429.38 294.21L429.42 294.16L429.46 294.12L438.23 284.91L438.28 284.86L438.33 284.81L438.38 284.77L438.43 284.73L438.49 284.69L438.54 284.65L438.6 284.61L438.66 284.58L438.72 284.55L438.78 284.52L438.84 284.49L438.91 284.47L438.97 284.45L439.03 284.43L439.1 284.41L439.17 284.4L439.23 284.38L439.3 284.37L439.37 284.37L439.44 284.36L439.51 284.36L474.8 284.36L474.94 284.37L475.07 284.38ZM434.83 293.58L465.28 293.58L470.72 287.87L440.26 287.87L434.83 293.58Z" id="gjW13eXzy"></path><path d="M327.25 285.54C314.99 285.54 304.77 289.67 296.59 297.92C291.32 303.44 288.39 306.51 287.8 307.12C300.09 294.75 315.39 295.98 318.46 294.75C334.42 294.75 341.39 303.19 343.94 304.13C350.29 310.38 353.47 318.73 353.49 329.18C358.75 323.65 361.68 320.58 362.26 319.96C362.25 309.53 359.07 301.18 352.73 294.92C337.44 289.29 328.95 286.17 327.25 285.54Z" id="aF0EtKRvH"></path><path d="M328.88 283.81L329.69 283.84L330.49 283.88L331.28 283.94L332.07 284.01L332.85 284.09L333.62 284.18L334.38 284.29L335.14 284.41L335.88 284.54L336.62 284.68L337.35 284.83L338.07 285L338.79 285.18L339.49 285.37L340.19 285.58L340.88 285.79L341.56 286.02L342.24 286.27L342.9 286.52L343.56 286.79L344.21 287.06L344.85 287.35L345.48 287.66L346.1 287.97L346.72 288.3L347.32 288.64L347.92 288.99L348.51 289.36L349.09 289.73L349.67 290.12L350.23 290.52L350.79 290.93L351.33 291.36L351.87 291.8L352.4 292.25L352.92 292.71L353.44 293.18L353.94 293.67L354.43 294.16L354.91 294.67L355.38 295.18L355.84 295.71L356.28 296.24L356.72 296.78L357.14 297.32L357.54 297.88L357.94 298.44L358.32 299.02L358.69 299.6L359.05 300.19L359.39 300.78L359.73 301.39L360.05 302L360.35 302.63L360.65 303.26L360.93 303.9L361.2 304.54L361.46 305.2L361.71 305.86L361.94 306.53L362.16 307.21L362.37 307.9L362.56 308.59L362.74 309.3L362.91 310.01L363.07 310.73L363.22 311.45L363.35 312.19L363.47 312.93L363.58 313.68L363.67 314.44L363.75 315.2L363.82 315.98L363.88 316.76L363.92 317.55L363.96 318.35L363.97 319.15L363.98 319.96L363.98 320L363.98 320.03L363.98 320.06L363.98 320.1L363.97 320.13L363.97 320.16L363.97 320.2L363.96 320.23L363.96 320.26L363.95 320.3L363.95 320.33L363.94 320.36L363.93 320.39L363.92 320.42L363.91 320.46L363.9 320.49L363.89 320.52L363.88 320.55L363.87 320.58L363.86 320.61L363.85 320.64L363.83 320.67L363.82 320.7L363.81 320.73L363.79 320.76L363.78 320.79L363.76 320.82L363.74 320.85L363.73 320.88L363.71 320.91L363.69 320.94L363.67 320.96L363.65 320.99L363.63 321.02L363.61 321.04L363.59 321.07L363.57 321.1L363.55 321.12L363.53 321.15L363.5 321.17L354.74 330.38L354.71 330.41L354.69 330.43L354.66 330.46L354.64 330.48L354.61 330.5L354.58 330.53L354.55 330.55L354.53 330.57L354.5 330.59L354.47 330.61L354.44 330.63L354.41 330.65L354.38 330.66L354.35 330.68L354.32 330.7L354.29 330.72L354.26 330.73L354.23 330.75L354.2 330.76L354.17 330.77L354.13 330.79L354.1 330.8L354.07 330.81L354.04 330.82L354 330.83L353.97 330.84L353.94 330.85L353.9 330.86L353.87 330.87L353.84 330.88L353.8 330.89L353.77 330.89L353.73 330.9L353.7 330.9L353.67 330.91L353.63 330.91L353.6 330.91L353.56 330.91L353.53 330.92L353.49 330.92L353.47 330.92L353.46 330.92L353.44 330.92L353.42 330.92L353.41 330.91L353.39 330.91L353.37 330.91L353.36 330.91L353.34 330.91L353.32 330.91L353.31 330.91L353.29 330.91L353.27 330.9L353.26 330.9L353.24 330.9L353.22 330.9L353.21 330.89L353.19 330.89L353.17 330.89L353.16 330.89L353.14 330.88L353.12 330.88L353.11 330.88L353.09 330.87L353.08 330.87L353.06 330.87L353.04 330.86L353.03 330.86L353.01 330.85L353 330.85L352.98 330.84L352.96 330.84L352.95 330.83L352.93 330.83L352.92 330.82L352.9 330.82L352.88 330.81L352.87 330.81L352.85 330.8L352.84 330.79L352.79 330.77L352.74 330.75L352.69 330.73L352.64 330.7L352.6 330.68L352.55 330.65L352.51 330.62L352.47 330.59L352.43 330.56L352.38 330.53L352.35 330.49L352.31 330.46L352.27 330.42L352.23 330.39L352.2 330.35L352.16 330.31L352.13 330.27L352.1 330.23L352.07 330.19L352.04 330.15L352.01 330.11L351.98 330.06L351.96 330.02L351.93 329.97L351.91 329.93L351.89 329.88L351.87 329.83L351.85 329.78L351.83 329.74L351.81 329.69L351.8 329.64L351.79 329.59L351.77 329.54L351.76 329.48L351.76 329.43L351.75 329.38L351.74 329.33L351.74 329.27L351.74 329.22L351.73 329.17L351.73 328.43L351.71 327.7L351.68 326.98L351.64 326.26L351.59 325.55L351.53 324.85L351.46 324.15L351.37 323.46L351.27 322.78L351.17 322.11L351.05 321.44L350.92 320.78L350.77 320.13L350.62 319.49L350.46 318.85L350.28 318.22L350.1 317.59L349.9 316.98L349.69 316.37L349.47 315.77L349.24 315.18L349 314.59L348.74 314.01L348.48 313.44L348.2 312.88L347.91 312.33L347.62 311.78L347.31 311.24L346.99 310.71L346.65 310.18L346.31 309.66L345.96 309.16L345.59 308.65L345.22 308.16L344.83 307.68L344.43 307.2L344.03 306.73L343.61 306.27L343.18 305.81L342.73 305.37L342.28 304.93L341.82 304.5L341.36 304.09L340.88 303.69L340.4 303.29L339.9 302.91L339.4 302.54L338.89 302.18L338.38 301.83L337.85 301.49L337.32 301.17L336.78 300.85L336.23 300.55L335.67 300.25L335.11 299.97L334.53 299.7L333.95 299.44L333.37 299.19L332.77 298.95L332.17 298.72L331.55 298.5L330.93 298.3L330.31 298.1L329.67 297.92L329.03 297.75L328.38 297.59L327.72 297.44L327.05 297.3L326.38 297.17L325.7 297.05L325.01 296.95L324.32 296.85L323.61 296.77L322.9 296.7L322.18 296.63L321.46 296.58L320.73 296.55L319.99 296.52L319.24 296.5L318.48 296.49L317.61 296.5L316.74 296.52L315.88 296.56L315.03 296.61L314.18 296.68L313.34 296.76L312.5 296.86L311.68 296.97L310.86 297.1L310.05 297.24L309.24 297.4L308.44 297.57L307.65 297.76L306.87 297.96L306.09 298.17L305.32 298.4L304.56 298.65L303.8 298.91L303.06 299.18L302.32 299.47L301.58 299.78L300.86 300.1L300.14 300.43L299.43 300.78L298.72 301.14L298.03 301.52L297.34 301.91L296.65 302.32L295.98 302.74L295.31 303.18L294.66 303.63L294 304.1L293.36 304.58L292.72 305.08L292.1 305.59L291.48 306.11L290.86 306.65L290.26 307.2L289.66 307.77L289.07 308.35L289.02 308.4L288.96 308.45L288.91 308.49L288.85 308.54L288.79 308.57L288.73 308.61L288.67 308.64L288.61 308.68L288.55 308.7L288.48 308.73L288.42 308.75L288.36 308.77L288.29 308.79L288.22 308.81L288.16 308.82L288.09 308.83L288.02 308.84L287.96 308.84L287.89 308.85L287.82 308.85L287.75 308.84L287.69 308.84L287.62 308.83L287.55 308.82L287.49 308.81L287.42 308.79L287.36 308.78L287.29 308.76L287.23 308.73L287.16 308.71L287.1 308.68L287.04 308.65L286.98 308.62L286.92 308.58L286.86 308.54L286.8 308.5L286.75 308.46L286.69 308.41L286.64 308.36L286.59 308.31L286.54 308.26L286.5 308.21L286.45 308.16L286.41 308.1L286.38 308.05L286.34 307.99L286.31 307.93L286.28 307.87L286.25 307.81L286.22 307.75L286.2 307.69L286.18 307.63L286.16 307.56L286.14 307.5L286.13 307.44L286.12 307.37L286.11 307.31L286.1 307.25L286.1 307.18L286.09 307.12L286.1 307.05L286.1 306.99L286.1 306.92L286.11 306.86L286.12 306.79L286.13 306.73L286.15 306.66L286.16 306.6L286.18 306.54L286.21 306.48L286.23 306.42L286.26 306.36L286.29 306.3L286.32 306.24L286.35 306.18L286.39 306.12L286.43 306.07L286.47 306.01L286.51 305.96L286.56 305.91L295.31 296.71L295.95 296.07L296.6 295.45L297.26 294.85L297.93 294.26L298.6 293.69L299.29 293.13L299.98 292.59L300.68 292.07L301.39 291.56L302.1 291.07L302.83 290.59L303.56 290.13L304.3 289.69L305.05 289.26L305.81 288.85L306.57 288.45L307.34 288.07L308.12 287.71L308.91 287.36L309.71 287.03L310.51 286.71L311.32 286.41L312.14 286.13L312.97 285.86L313.8 285.61L314.65 285.38L315.5 285.16L316.35 284.95L317.22 284.77L318.09 284.6L318.97 284.44L319.86 284.3L320.76 284.18L321.66 284.08L322.57 283.99L323.49 283.91L324.41 283.86L325.35 283.82L326.29 283.79L327.23 283.78L328.06 283.79L328.88 283.81ZM325.32 287.31L324.37 287.36L323.42 287.42L322.48 287.51L321.54 287.61L320.62 287.73L319.71 287.87L318.8 288.03L317.9 288.2L317.01 288.4L316.14 288.61L315.26 288.84L314.4 289.09L313.55 289.36L312.7 289.65L311.87 289.95L311.04 290.28L310.23 290.62L309.42 290.98L308.62 291.36L307.83 291.76L307.05 292.17L306.28 292.6L305.52 293.05L304.76 293.52L304.02 294.01L303.29 294.52L302.56 295.04L301.85 295.58L301.14 296.15L301.68 295.94L302.22 295.74L302.76 295.55L303.3 295.37L303.84 295.19L304.39 295.02L304.93 294.86L305.48 294.7L306.03 294.55L306.59 294.41L307.14 294.27L307.7 294.14L308.25 294.02L308.81 293.9L309.37 293.79L309.93 293.69L310.49 293.59L311.06 293.51L311.62 293.43L312.19 293.35L312.75 293.28L313.32 293.22L313.89 293.17L314.46 293.12L315.03 293.08L315.6 293.05L316.17 293.02L316.74 293L317.32 292.99L317.89 292.99L318.46 292.99L319.53 293L320.58 293.03L321.62 293.08L322.65 293.15L323.66 293.25L324.66 293.36L325.65 293.49L326.62 293.65L327.58 293.82L328.53 294.02L329.46 294.24L330.38 294.48L331.28 294.73L332.18 295.01L333.05 295.31L333.92 295.63L334.77 295.97L335.61 296.33L336.43 296.71L337.24 297.11L338.03 297.53L338.81 297.98L339.58 298.44L340.33 298.92L341.07 299.42L341.79 299.95L342.5 300.49L343.2 301.05L343.88 301.64L344.54 302.24L345.2 302.87L345.75 303.42L346.29 303.99L346.81 304.57L347.31 305.16L347.8 305.76L348.28 306.37L348.74 306.99L349.18 307.62L349.61 308.26L350.03 308.91L350.42 309.58L350.81 310.25L351.17 310.93L351.52 311.63L351.86 312.33L352.18 313.04L352.48 313.77L352.77 314.5L353.05 315.25L353.3 316L353.54 316.77L353.77 317.54L353.98 318.32L354.17 319.12L354.35 319.92L354.51 320.74L354.66 321.56L354.79 322.4L354.9 323.24L355 324.09L355.08 324.96L360.51 319.26L360.48 318.33L360.44 317.42L360.39 316.52L360.31 315.64L360.22 314.76L360.1 313.89L359.97 313.04L359.83 312.2L359.66 311.37L359.48 310.55L359.27 309.75L359.05 308.95L358.82 308.17L358.56 307.4L358.29 306.64L358 305.89L357.69 305.16L357.36 304.43L357.02 303.72L356.66 303.03L356.28 302.34L355.88 301.66L355.47 301L355.03 300.35L354.58 299.72L354.12 299.09L353.63 298.48L353.13 297.88L352.61 297.29L352.07 296.72L351.51 296.15L350.93 295.59L350.33 295.05L349.72 294.52L349.09 294.02L348.45 293.53L347.8 293.06L347.13 292.61L346.45 292.17L345.76 291.76L345.05 291.36L344.33 290.98L343.6 290.62L342.86 290.28L342.1 289.96L341.33 289.65L340.54 289.36L339.75 289.09L338.94 288.84L338.11 288.61L337.28 288.4L336.43 288.2L335.57 288.03L334.7 287.87L333.81 287.73L332.91 287.61L332 287.51L331.08 287.42L330.14 287.36L329.2 287.31L328.24 287.28L327.26 287.27L326.29 287.28L325.32 287.31Z" id="a3PnJVdPTJ"></path><path d="M209.09 276.95L217.86 267.74L217.86 248.06L209.09 257.27L209.09 267.74L209.09 267.74L209.09 276.95Z" id="bFJMFCTbX"></path><path d="M218.26 246.34L218.43 246.39L218.6 246.45L218.77 246.54L218.92 246.64L219.07 246.77L219.14 246.84L219.2 246.91L219.27 246.98L219.32 247.06L219.37 247.14L219.42 247.23L219.46 247.31L219.5 247.4L219.54 247.49L219.56 247.58L219.59 247.68L219.61 247.77L219.62 247.87L219.63 247.96L219.63 248.06L219.63 267.74L219.63 267.83L219.62 267.92L219.61 268.01L219.59 268.1L219.57 268.19L219.55 268.27L219.52 268.35L219.48 268.44L219.45 268.52L219.41 268.59L219.36 268.67L219.31 268.75L219.26 268.82L219.2 268.89L219.14 268.95L210.36 278.16L210.29 278.23L210.22 278.29L210.15 278.35L210.07 278.4L209.99 278.45L209.91 278.5L209.83 278.54L209.74 278.58L209.65 278.61L209.56 278.64L209.47 278.66L209.38 278.68L209.28 278.7L209.19 278.7L209.09 278.71L209.05 278.71L209 278.7L208.96 278.7L208.91 278.7L208.87 278.69L208.82 278.69L208.78 278.68L208.74 278.67L208.69 278.66L208.65 278.65L208.61 278.64L208.56 278.63L208.52 278.61L208.48 278.6L208.44 278.58L208.31 278.53L208.18 278.46L208.07 278.38L207.96 278.3L207.85 278.2L207.76 278.1L207.67 277.99L207.6 277.88L207.53 277.76L207.47 277.63L207.42 277.5L207.38 277.37L207.36 277.23L207.34 277.09L207.34 276.95L207.34 257.27L207.34 257.18L207.34 257.09L207.36 257L207.37 256.91L207.39 256.83L207.42 256.74L207.44 256.66L207.48 256.58L207.51 256.5L207.55 256.42L207.6 256.34L207.65 256.27L207.7 256.2L207.75 256.13L207.81 256.06L216.59 246.85L216.72 246.72L216.87 246.61L217.03 246.51L217.2 246.43L217.37 246.37L217.54 246.33L217.72 246.3L217.9 246.3L218.08 246.31L218.26 246.34ZM210.84 272.57L216.1 267.04L216.1 252.45L210.84 257.97L210.84 272.57Z" id="e2gukozxC"></path><path d="M287.8 390.29L296.57 381.09C296.57 350.45 296.57 333.42 296.57 330.02C296.44 324.56 297.76 319.17 300.38 314.38C298.66 315.46 297.09 316.73 295.68 318.18C290.43 323.51 287.81 330.53 287.8 339.23L287.8 390.29Z" id="dRZ3coTu0"></path><path d="M300.52 312.63L300.6 312.64L300.67 312.66L300.75 312.67L300.83 312.69L300.9 312.72L300.98 312.74L301.05 312.77L301.12 312.81L301.2 312.84L301.27 312.88L301.33 312.93L301.4 312.97L301.46 313.02L301.52 313.07L301.58 313.13L301.64 313.19L301.7 313.25L301.75 313.32L301.8 313.38L301.84 313.46L301.87 313.5L301.9 313.55L301.93 313.6L301.95 313.65L301.97 313.71L301.99 313.76L302.01 313.81L302.03 313.86L302.05 313.91L302.06 313.97L302.07 314.02L302.08 314.07L302.09 314.13L302.1 314.18L302.1 314.24L302.11 314.29L302.11 314.35L302.11 314.4L302.11 314.46L302.1 314.51L302.1 314.57L302.09 314.62L302.08 314.67L302.07 314.73L302.06 314.78L302.05 314.84L302.03 314.89L302.02 314.94L302 314.99L301.98 315.05L301.96 315.1L301.93 315.15L301.91 315.2L301.88 315.25L301.67 315.65L301.46 316.05L301.26 316.46L301.06 316.87L300.87 317.28L300.69 317.7L300.52 318.11L300.35 318.53L300.19 318.95L300.03 319.38L299.88 319.8L299.74 320.23L299.6 320.66L299.47 321.09L299.35 321.53L299.23 321.96L299.13 322.4L299.02 322.84L298.93 323.28L298.84 323.72L298.76 324.16L298.68 324.61L298.61 325.06L298.55 325.5L298.49 325.95L298.45 326.4L298.4 326.85L298.37 327.3L298.34 327.75L298.32 328.2L298.31 328.66L298.3 329.11L298.3 329.56L298.31 330.02L298.31 381.09L298.31 381.13L298.31 381.17L298.3 381.21L298.3 381.25L298.3 381.29L298.29 381.33L298.29 381.36L298.28 381.4L298.27 381.44L298.26 381.48L298.25 381.52L298.24 381.56L298.23 381.59L298.22 381.63L298.21 381.67L298.2 381.7L298.18 381.74L298.17 381.78L298.15 381.81L298.13 381.85L298.12 381.88L298.1 381.92L298.08 381.95L298.06 381.99L298.04 382.02L298.02 382.05L298 382.08L297.97 382.12L297.95 382.15L297.93 382.18L297.9 382.21L297.87 382.24L297.85 382.27L297.82 382.3L289.06 391.5L289.03 391.53L289 391.56L288.97 391.59L288.94 391.62L288.9 391.64L288.87 391.67L288.84 391.69L288.81 391.72L288.77 391.74L288.74 391.76L288.7 391.79L288.67 391.81L288.63 391.83L288.6 391.85L288.56 391.86L288.52 391.88L288.49 391.9L288.45 391.91L288.41 391.93L288.37 391.94L288.33 391.96L288.3 391.97L288.26 391.98L288.22 391.99L288.18 392L288.14 392.01L288.1 392.02L288.06 392.02L288.02 392.03L287.97 392.03L287.93 392.04L287.89 392.04L287.85 392.04L287.81 392.04L287.79 392.04L287.77 392.04L287.75 392.04L287.73 392.04L287.71 392.04L287.69 392.04L287.67 392.04L287.65 392.04L287.63 392.04L287.61 392.03L287.59 392.03L287.57 392.03L287.55 392.03L287.54 392.02L287.52 392.02L287.5 392.02L287.48 392.01L287.46 392.01L287.44 392.01L287.42 392L287.4 392L287.38 391.99L287.36 391.99L287.34 391.98L287.32 391.98L287.3 391.97L287.29 391.97L287.27 391.96L287.25 391.96L287.23 391.95L287.21 391.94L287.19 391.94L287.17 391.93L287.16 391.92L287.1 391.9L287.04 391.87L286.98 391.84L286.93 391.81L286.88 391.78L286.83 391.75L286.77 391.71L286.73 391.67L286.68 391.64L286.63 391.6L286.59 391.55L286.54 391.51L286.5 391.47L286.46 391.42L286.43 391.37L286.39 391.32L286.35 391.27L286.32 391.22L286.29 391.17L286.26 391.12L286.23 391.06L286.21 391.01L286.18 390.95L286.16 390.9L286.14 390.84L286.12 390.78L286.11 390.72L286.09 390.66L286.08 390.6L286.07 390.54L286.06 390.48L286.06 390.41L286.05 390.35L286.05 390.29L286.05 339.23L286.06 338.43L286.08 337.64L286.12 336.86L286.17 336.08L286.24 335.31L286.32 334.55L286.41 333.8L286.52 333.06L286.64 332.33L286.78 331.6L286.94 330.89L287.1 330.18L287.28 329.48L287.48 328.79L287.69 328.11L287.92 327.44L288.16 326.78L288.41 326.13L288.68 325.48L288.96 324.85L289.26 324.22L289.57 323.6L289.89 322.99L290.23 322.39L290.59 321.81L290.96 321.22L291.34 320.65L291.74 320.09L292.15 319.54L292.57 319L293.01 318.46L293.47 317.94L293.93 317.43L294.42 316.92L294.55 316.79L294.68 316.65L294.82 316.52L294.96 316.39L295.09 316.26L295.23 316.13L295.37 316L295.51 315.87L295.65 315.74L295.79 315.62L295.93 315.49L296.08 315.37L296.22 315.25L296.37 315.12L296.51 315L296.66 314.88L296.8 314.76L296.95 314.64L297.1 314.53L297.25 314.41L297.4 314.3L297.55 314.18L297.7 314.07L297.86 313.96L298.01 313.85L298.16 313.73L298.32 313.63L298.48 313.52L298.63 313.41L298.79 313.31L298.95 313.2L299.11 313.1L299.27 312.99L299.43 312.89L299.5 312.85L299.57 312.81L299.65 312.77L299.73 312.74L299.8 312.72L299.88 312.69L299.96 312.67L300.04 312.66L300.12 312.64L300.2 312.63L300.28 312.63L300.36 312.63L300.44 312.63L300.52 312.63ZM295.1 321.47L294.65 322.07L294.22 322.68L293.81 323.3L293.41 323.93L293.04 324.58L292.68 325.24L292.35 325.91L292.03 326.59L291.73 327.29L291.45 328L291.19 328.72L290.95 329.46L290.73 330.21L290.53 330.97L290.34 331.74L290.18 332.52L290.03 333.32L289.91 334.13L289.8 334.95L289.71 335.78L289.65 336.63L289.6 337.48L289.57 338.35L289.56 339.23L289.56 385.91L294.82 380.38L294.82 330.02L294.82 329.64L294.82 329.26L294.83 328.89L294.84 328.51L294.85 328.13L294.87 327.76L294.9 327.38L294.92 327L294.95 326.63L294.99 326.25L295.03 325.88L295.07 325.5L295.11 325.13L295.16 324.75L295.22 324.38L295.27 324.01L295.34 323.64L295.4 323.27L295.47 322.89L295.54 322.52L295.62 322.15L295.7 321.79L295.78 321.42L295.87 321.05L295.96 320.68L296.06 320.32L295.57 320.89L295.1 321.47Z" id="f5IhWY1DH"></path><path d="M296.57 297.92L296.57 287.18L287.81 296.39L287.81 307.12L287.81 307.12L296.57 297.92Z" id="c3mqoWIdkr"></path><path d="M297.13 285.5L297.37 285.59L297.58 285.72L297.79 285.89L297.88 285.98L297.97 286.08L298.05 286.19L298.11 286.3L298.18 286.42L298.23 286.54L298.27 286.66L298.3 286.79L298.33 286.92L298.34 287.05L298.35 287.18L298.35 297.92L298.34 298.04L298.33 298.16L298.31 298.28L298.28 298.4L298.24 298.51L298.2 298.62L298.14 298.73L298.08 298.84L298.02 298.94L297.94 299.03L297.86 299.13L289.09 308.33L289 308.42L288.9 308.51L288.79 308.58L288.68 308.65L288.57 308.71L288.45 308.76L288.32 308.8L288.2 308.83L288.07 308.85L287.94 308.87L287.81 308.87L287.75 308.87L287.69 308.87L287.63 308.86L287.57 308.86L287.51 308.85L287.45 308.83L287.39 308.82L287.33 308.81L287.27 308.79L287.21 308.77L287.16 308.75L286.98 308.67L286.82 308.57L286.66 308.45L286.53 308.32L286.41 308.18L286.3 308.02L286.21 307.86L286.14 307.68L286.09 307.5L286.06 307.31L286.05 307.11L286.05 296.39L286.06 296.27L286.07 296.15L286.09 296.03L286.12 295.91L286.16 295.79L286.2 295.68L286.25 295.57L286.31 295.47L286.38 295.37L286.45 295.27L286.53 295.18L295.31 285.97L295.5 285.8L295.71 285.65L295.93 285.54L296.16 285.47L296.41 285.42L296.65 285.42L296.89 285.44L297.13 285.5ZM289.56 302.74L294.82 297.21L294.82 291.56L289.56 297.09L289.56 302.74Z" id="bkWHw9xbN"></path><path d="M209.09 390.29L217.86 381.08L217.86 287.18L209.09 296.39L209.09 381.08L209.09 381.08L209.09 390.29Z" id="c20aIUgmqF"></path><path d="M218.01 285.42L218.08 285.43L218.15 285.44L218.21 285.45L218.28 285.46L218.34 285.48L218.41 285.5L218.47 285.52L218.54 285.55L218.6 285.57L218.66 285.6L218.73 285.64L218.79 285.67L218.84 285.71L218.9 285.75L218.96 285.79L219.01 285.84L219.07 285.89L219.1 285.91L219.12 285.94L219.15 285.96L219.17 285.99L219.2 286.02L219.22 286.05L219.24 286.07L219.27 286.1L219.29 286.13L219.31 286.16L219.33 286.19L219.35 286.22L219.37 286.25L219.39 286.28L219.4 286.31L219.42 286.35L219.44 286.38L219.45 286.41L219.47 286.44L219.48 286.48L219.5 286.51L219.51 286.54L219.52 286.58L219.54 286.61L219.55 286.64L219.56 286.68L219.57 286.71L219.58 286.75L219.58 286.78L219.59 286.82L219.6 286.86L219.61 286.89L219.61 286.93L219.62 286.96L219.62 287L219.62 287.04L219.63 287.07L219.63 287.11L219.63 287.15L219.63 287.18L219.63 381.09L219.63 381.12L219.63 381.16L219.62 381.19L219.62 381.22L219.62 381.26L219.62 381.29L219.61 381.32L219.61 381.36L219.6 381.39L219.59 381.42L219.59 381.45L219.58 381.49L219.57 381.52L219.56 381.55L219.56 381.58L219.55 381.62L219.54 381.65L219.52 381.68L219.51 381.71L219.5 381.74L219.49 381.77L219.47 381.8L219.46 381.83L219.45 381.86L219.43 381.89L219.42 381.92L219.4 381.95L219.38 381.98L219.37 382.01L219.35 382.04L219.33 382.06L219.31 382.09L219.29 382.12L219.27 382.14L219.25 382.17L219.23 382.2L219.21 382.22L219.19 382.25L219.16 382.27L219.14 382.3L210.38 391.5L210.35 391.53L210.32 391.56L210.3 391.58L210.27 391.6L210.24 391.63L210.22 391.65L210.19 391.67L210.16 391.69L210.13 391.72L210.1 391.74L210.07 391.76L210.04 391.77L210.01 391.79L209.98 391.81L209.95 391.83L209.92 391.85L209.89 391.86L209.85 391.88L209.82 391.89L209.79 391.91L209.76 391.92L209.72 391.93L209.69 391.94L209.66 391.96L209.62 391.97L209.59 391.98L209.55 391.99L209.52 391.99L209.48 392L209.45 392.01L209.41 392.02L209.38 392.02L209.34 392.03L209.31 392.03L209.27 392.04L209.24 392.04L209.2 392.04L209.16 392.04L209.13 392.04L209.09 392.04L209.07 392.04L209.06 392.04L209.04 392.04L209.02 392.04L209.01 392.04L208.99 392.04L208.97 392.04L208.96 392.04L208.94 392.04L208.92 392.04L208.91 392.03L208.89 392.03L208.87 392.03L208.86 392.03L208.84 392.03L208.82 392.02L208.81 392.02L208.79 392.02L208.78 392.02L208.76 392.01L208.74 392.01L208.73 392.01L208.71 392L208.69 392L208.68 392L208.66 391.99L208.64 391.99L208.63 391.98L208.61 391.98L208.6 391.98L208.58 391.97L208.56 391.97L208.55 391.96L208.53 391.96L208.52 391.95L208.5 391.95L208.48 391.94L208.47 391.93L208.45 391.93L208.44 391.92L208.39 391.9L208.34 391.88L208.29 391.86L208.24 391.83L208.2 391.8L208.15 391.78L208.11 391.75L208.07 391.72L208.02 391.69L207.98 391.65L207.94 391.62L207.9 391.59L207.87 391.55L207.83 391.51L207.8 391.48L207.76 391.44L207.73 391.4L207.7 391.36L207.67 391.32L207.64 391.27L207.61 391.23L207.58 391.19L207.55 391.14L207.53 391.1L207.51 391.05L207.49 391L207.47 390.96L207.45 390.91L207.43 390.86L207.41 390.81L207.4 390.76L207.39 390.71L207.37 390.66L207.36 390.61L207.35 390.55L207.35 390.5L207.34 390.45L207.34 390.39L207.34 390.34L207.34 390.29L207.34 296.39L207.34 296.35L207.34 296.32L207.34 296.29L207.34 296.25L207.34 296.22L207.35 296.19L207.35 296.15L207.36 296.12L207.36 296.09L207.37 296.06L207.37 296.02L207.38 295.99L207.39 295.96L207.4 295.93L207.41 295.9L207.42 295.86L207.43 295.83L207.44 295.8L207.45 295.77L207.46 295.74L207.47 295.71L207.49 295.68L207.5 295.65L207.51 295.62L207.53 295.59L207.54 295.56L207.56 295.53L207.58 295.5L207.59 295.47L207.61 295.44L207.63 295.42L207.65 295.39L207.67 295.36L207.69 295.33L207.71 295.31L207.73 295.28L207.75 295.26L207.77 295.23L207.79 295.2L207.81 295.18L216.59 285.97L216.64 285.92L216.69 285.87L216.74 285.83L216.8 285.78L216.85 285.74L216.91 285.7L216.97 285.66L217.03 285.63L217.09 285.6L217.15 285.57L217.22 285.54L217.28 285.52L217.34 285.5L217.41 285.48L217.48 285.46L217.54 285.45L217.61 285.43L217.68 285.43L217.74 285.42L217.81 285.42L217.88 285.41L217.94 285.42L218.01 285.42ZM210.84 385.91L216.1 380.38L216.1 291.57L210.84 297.1L210.84 385.91Z" id="a6PqUkFya7"></path><path d="M466.03 386.42L474.8 377.21L474.8 359.9L466.03 369.12L466.03 381.08L466.03 381.08L466.03 386.42Z" id="bhM2VLXuM"></path><path d="M475.11 358.16L475.3 358.21L475.48 358.28L475.66 358.37L475.83 358.48L475.98 358.61L476.06 358.68L476.13 358.76L476.19 358.84L476.25 358.92L476.31 359.01L476.36 359.1L476.4 359.2L476.44 359.29L476.47 359.39L476.5 359.49L476.52 359.59L476.53 359.69L476.54 359.8L476.54 359.9L476.54 377.21L476.54 377.31L476.53 377.4L476.52 377.5L476.5 377.59L476.48 377.68L476.45 377.78L476.42 377.86L476.38 377.95L476.34 378.04L476.29 378.12L476.24 378.2L476.18 378.28L476.12 378.35L476.06 378.42L467.28 387.63L467.21 387.71L467.13 387.77L467.05 387.84L466.97 387.89L466.88 387.95L466.79 387.99L466.7 388.04L466.6 388.07L466.51 388.1L466.41 388.13L466.31 388.15L466.21 388.16L466.1 388.17L466 388.17L465.95 388.17L465.9 388.17L465.86 388.17L465.81 388.17L465.76 388.16L465.72 388.15L465.67 388.14L465.62 388.14L465.58 388.12L465.53 388.11L465.49 388.1L465.44 388.09L465.4 388.07L465.35 388.05L465.21 387.99L465.08 387.92L464.96 387.83L464.84 387.74L464.73 387.64L464.64 387.53L464.55 387.41L464.47 387.28L464.4 387.15L464.35 387.02L464.3 386.87L464.27 386.73L464.25 386.58L464.24 386.43L464.24 369.11L464.25 369.01L464.25 368.92L464.27 368.82L464.29 368.73L464.31 368.64L464.34 368.55L464.37 368.46L464.41 368.37L464.45 368.29L464.5 368.2L464.55 368.12L464.6 368.05L464.67 367.97L464.73 367.9L473.5 358.69L473.65 358.55L473.81 358.43L473.98 358.33L474.16 358.25L474.34 358.19L474.53 358.15L474.73 358.14L474.92 358.14L475.11 358.16ZM467.76 382.04L473.02 376.51L473.02 364.29L467.76 369.82L467.76 382.04Z" id="a2UXyQa0WE"></path><path d="M430.73 310.6C430.73 340.08 430.73 356.46 430.73 359.74C430.73 365.09 431.93 369.23 434.31 372.16C439.57 366.63 442.49 363.56 443.08 362.95C440.69 360.02 439.5 355.87 439.51 350.52L439.51 310.6L430.73 310.6Z" id="akCQ0hUH9"></path><path d="M439.7 308.87L439.8 308.88L439.89 308.9L439.99 308.92L440.08 308.95L440.17 308.98L440.25 309.02L440.33 309.06L440.42 309.11L440.49 309.16L440.57 309.22L440.64 309.27L440.71 309.34L440.77 309.4L440.84 309.47L440.9 309.54L440.95 309.62L441 309.69L441.05 309.78L441.09 309.86L441.13 309.95L441.16 310.03L441.19 310.12L441.21 310.22L441.23 310.31L441.24 310.41L441.25 310.5L441.25 310.6L441.25 350.52L441.26 351.03L441.27 351.52L441.29 352.01L441.32 352.49L441.35 352.96L441.39 353.43L441.44 353.88L441.5 354.33L441.56 354.77L441.64 355.2L441.72 355.63L441.8 356.04L441.9 356.45L442 356.85L442.11 357.24L442.23 357.63L442.35 358L442.49 358.37L442.63 358.72L442.77 359.07L442.93 359.42L443.09 359.75L443.26 360.07L443.44 360.39L443.63 360.7L443.82 361L444.02 361.29L444.23 361.57L444.44 361.84L444.5 361.91L444.55 361.99L444.59 362.06L444.64 362.14L444.68 362.22L444.71 362.3L444.74 362.38L444.77 362.46L444.79 362.55L444.81 362.63L444.82 362.72L444.83 362.8L444.83 362.89L444.84 362.97L444.83 363.06L444.82 363.15L444.81 363.23L444.8 363.32L444.78 363.4L444.75 363.48L444.72 363.56L444.69 363.64L444.66 363.72L444.61 363.8L444.57 363.88L444.52 363.95L444.47 364.02L444.41 364.09L444.35 364.16L435.59 373.37L435.56 373.4L435.52 373.44L435.48 373.47L435.45 373.5L435.41 373.53L435.37 373.56L435.33 373.59L435.29 373.62L435.25 373.65L435.21 373.67L435.16 373.7L435.12 373.72L435.08 373.74L435.03 373.76L434.99 373.78L434.94 373.8L434.9 373.82L434.85 373.83L434.8 373.84L434.75 373.86L434.71 373.87L434.66 373.88L434.61 373.89L434.56 373.9L434.51 373.9L434.46 373.91L434.41 373.91L434.36 373.91L434.31 373.91L434.25 373.91L434.19 373.91L434.14 373.91L434.09 373.9L434.04 373.89L433.99 373.88L433.94 373.87L433.89 373.86L433.84 373.85L433.79 373.83L433.74 373.82L433.69 373.8L433.65 373.78L433.6 373.76L433.55 373.74L433.51 373.72L433.46 373.69L433.42 373.67L433.37 373.64L433.33 373.61L433.29 373.58L433.25 373.55L433.21 373.52L433.17 373.49L433.13 373.45L433.09 373.42L433.06 373.38L433.02 373.35L432.99 373.31L432.95 373.27L432.69 372.93L432.43 372.58L432.18 372.22L431.94 371.85L431.71 371.48L431.48 371.09L431.27 370.69L431.07 370.29L430.87 369.88L430.69 369.45L430.51 369.02L430.35 368.58L430.19 368.13L430.05 367.67L429.91 367.2L429.78 366.73L429.66 366.24L429.55 365.75L429.45 365.24L429.36 364.73L429.28 364.21L429.21 363.68L429.15 363.14L429.1 362.6L429.05 362.04L429.02 361.48L429 360.91L428.98 360.32L428.98 359.74L428.98 310.6L428.98 310.5L428.99 310.41L429 310.31L429.02 310.22L429.04 310.12L429.07 310.03L429.11 309.95L429.14 309.86L429.19 309.78L429.23 309.69L429.28 309.62L429.34 309.54L429.4 309.47L429.46 309.4L429.52 309.34L429.59 309.27L429.66 309.22L429.74 309.16L429.82 309.11L429.9 309.06L429.98 309.02L430.07 308.98L430.16 308.95L430.25 308.92L430.34 308.9L430.43 308.88L430.53 308.87L430.63 308.86L430.73 308.86L439.51 308.86L439.61 308.86L439.7 308.87ZM432.49 359.71L432.49 360.2L432.5 360.68L432.52 361.16L432.55 361.62L432.58 362.08L432.62 362.53L432.66 362.98L432.72 363.41L432.78 363.84L432.85 364.26L432.92 364.68L433 365.08L433.09 365.48L433.19 365.87L433.29 366.25L433.4 366.63L433.52 367L433.64 367.36L433.78 367.71L433.92 368.05L434.06 368.39L434.21 368.72L434.37 369.04L434.54 369.35L440.81 362.78L440.56 362.38L440.32 361.97L440.09 361.56L439.88 361.13L439.67 360.69L439.47 360.25L439.29 359.79L439.12 359.32L438.95 358.85L438.8 358.36L438.66 357.86L438.52 357.35L438.4 356.84L438.29 356.31L438.19 355.77L438.1 355.22L438.02 354.67L437.96 354.1L437.9 353.52L437.85 352.94L437.81 352.34L437.79 351.74L437.77 351.12L437.77 350.5L437.77 312.34L432.49 312.34L432.49 359.71Z" id="btOqctKen"></path><path d="M466.03 310.6L474.8 301.4L474.8 286.12L466.03 295.32L466.03 301.4L466.03 301.4L466.03 310.6Z" id="fEO2SjukW"></path><path d="M475.24 284.41L475.44 284.48L475.63 284.57L475.81 284.68L475.98 284.82L476.06 284.9L476.14 284.99L476.21 285.07L476.27 285.17L476.33 285.26L476.38 285.36L476.42 285.46L476.46 285.57L476.49 285.67L476.51 285.78L476.53 285.89L476.54 286.01L476.54 286.12L476.54 301.4L476.54 301.5L476.53 301.6L476.52 301.71L476.49 301.81L476.47 301.9L476.43 302L476.4 302.1L476.35 302.19L476.3 302.28L476.25 302.37L476.19 302.45L476.13 302.53L476.06 302.61L467.28 311.81L467.2 311.89L467.12 311.96L467.03 312.03L466.94 312.09L466.85 312.15L466.75 312.2L466.65 312.24L466.54 312.28L466.44 312.31L466.33 312.33L466.22 312.35L466.11 312.36L466 312.36L465.95 312.36L465.9 312.36L465.85 312.35L465.8 312.35L465.75 312.34L465.7 312.34L465.65 312.33L465.6 312.31L465.55 312.3L465.5 312.29L465.45 312.27L465.4 312.26L465.35 312.24L465.2 312.17L465.06 312.09L464.93 312L464.81 311.89L464.69 311.78L464.59 311.66L464.5 311.52L464.43 311.39L464.36 311.24L464.31 311.09L464.27 310.93L464.25 310.77L464.24 310.6L464.24 295.32L464.25 295.22L464.26 295.12L464.27 295.02L464.29 294.92L464.32 294.82L464.35 294.72L464.39 294.63L464.43 294.53L464.48 294.44L464.54 294.36L464.6 294.27L464.66 294.19L464.73 294.12L473.5 284.91L473.66 284.76L473.84 284.63L474.02 284.53L474.22 284.45L474.42 284.39L474.62 284.36L474.83 284.35L475.04 284.37L475.24 284.41ZM467.76 306.23L473.02 300.7L473.02 290.5L467.76 296.03L467.76 306.23Z" id="b22HgWIX09"></path><path d="M439.51 286.12L439.51 261.85L430.73 271.06L430.73 295.32L430.73 295.32L439.51 286.12Z" id="a7ixzy6c1J"></path><path d="M439.83 260.1L439.99 260.14L440.14 260.19L440.29 260.25L440.43 260.33L440.57 260.42L440.7 260.53L440.76 260.59L440.82 260.65L440.88 260.72L440.93 260.79L440.98 260.86L441.03 260.94L441.07 261.01L441.11 261.09L441.14 261.17L441.17 261.25L441.2 261.33L441.22 261.42L441.24 261.5L441.25 261.59L441.26 261.68L441.27 261.76L441.27 261.85L441.27 286.12L441.27 286.2L441.26 286.28L441.25 286.35L441.24 286.43L441.23 286.51L441.21 286.58L441.19 286.66L441.16 286.73L441.13 286.8L441.1 286.88L441.07 286.95L441.03 287.01L440.99 287.08L440.94 287.14L440.89 287.21L440.84 287.27L440.79 287.33L432.02 296.53L431.96 296.59L431.9 296.65L431.83 296.71L431.76 296.76L431.69 296.8L431.62 296.85L431.55 296.89L431.47 296.92L431.39 296.96L431.32 296.99L431.24 297.01L431.15 297.03L431.07 297.05L430.99 297.06L430.9 297.07L430.82 297.08L430.73 297.08L430.57 297.07L430.4 297.05L430.24 297.01L430.09 296.96L429.95 296.9L429.81 296.82L429.68 296.73L429.56 296.63L429.44 296.52L429.34 296.4L429.25 296.28L429.17 296.14L429.1 295.99L429.05 295.84L429.01 295.69L428.99 295.52L428.98 295.35L428.98 271.06L428.98 270.98L428.99 270.9L428.99 270.82L429.01 270.74L429.02 270.67L429.04 270.59L429.06 270.52L429.09 270.44L429.12 270.37L429.15 270.3L429.19 270.23L429.23 270.16L429.27 270.1L429.31 270.03L429.36 269.97L429.41 269.91L429.46 269.85L438.23 260.64L438.35 260.52L438.48 260.42L438.61 260.33L438.75 260.25L438.9 260.19L439.05 260.14L439.21 260.1L439.36 260.08L439.52 260.07L439.68 260.08L439.83 260.1ZM432.49 290.95L437.75 285.42L437.75 266.23L432.49 271.76L432.49 290.95Z" id="a2WHq7lFaP"></path><path d="M353.47 381.08L353.47 390.29L362.24 381.08L362.24 319.96L353.47 329.18L353.47 329.18L353.47 381.08Z" id="b129IRQMlY"></path><path d="M362.4 318.19L362.48 318.2L362.57 318.21L362.66 318.23L362.74 318.25L362.82 318.27L362.91 318.3L362.99 318.34L363.07 318.38L363.15 318.42L363.22 318.47L363.3 318.52L363.37 318.58L363.44 318.64L363.48 318.67L363.51 318.71L363.54 318.74L363.58 318.78L363.61 318.81L363.64 318.85L363.67 318.89L363.69 318.93L363.72 318.97L363.75 319.01L363.77 319.05L363.8 319.09L363.82 319.13L363.84 319.17L363.86 319.22L363.88 319.26L363.9 319.3L363.91 319.35L363.93 319.39L363.94 319.44L363.95 319.49L363.97 319.53L363.98 319.58L363.98 319.63L363.99 319.67L364 319.72L364 319.77L364.01 319.82L364.01 319.86L364.01 319.91L364.01 319.96L364.01 381.09L364.01 381.13L364.01 381.18L364.01 381.22L364 381.26L364 381.31L363.99 381.35L363.99 381.39L363.98 381.43L363.97 381.47L363.96 381.52L363.95 381.56L363.94 381.6L363.92 381.64L363.91 381.68L363.9 381.72L363.88 381.76L363.86 381.8L363.85 381.84L363.83 381.88L363.81 381.91L363.79 381.95L363.77 381.99L363.74 382.03L363.72 382.06L363.7 382.1L363.67 382.13L363.65 382.17L363.62 382.2L363.59 382.23L363.56 382.27L363.53 382.3L354.76 391.5L354.73 391.54L354.69 391.57L354.66 391.6L354.63 391.63L354.59 391.66L354.55 391.69L354.52 391.72L354.48 391.74L354.44 391.77L354.4 391.79L354.36 391.81L354.32 391.84L354.28 391.86L354.24 391.88L354.2 391.9L354.16 391.91L354.12 391.93L354.07 391.95L354.03 391.96L353.99 391.97L353.94 391.99L353.9 392L353.86 392.01L353.81 392.02L353.77 392.02L353.72 392.03L353.67 392.03L353.63 392.04L353.58 392.04L353.54 392.04L353.49 392.04L353.4 392.04L353.31 392.04L353.22 392.02L353.13 392.01L353.04 391.99L352.96 391.97L352.87 391.94L352.79 391.9L352.71 391.87L352.63 391.83L352.56 391.78L352.49 391.74L352.42 391.69L352.35 391.63L352.29 391.57L352.22 391.51L352.17 391.45L352.11 391.38L352.06 391.32L352.01 391.24L351.97 391.17L351.92 391.09L351.89 391.01L351.85 390.93L351.82 390.85L351.8 390.77L351.78 390.68L351.76 390.59L351.75 390.5L351.74 390.41L351.73 390.32L351.73 329.18L351.73 329.13L351.74 329.09L351.74 329.05L351.74 329L351.75 328.96L351.75 328.92L351.76 328.87L351.77 328.83L351.78 328.79L351.79 328.75L351.8 328.71L351.81 328.66L351.82 328.62L351.84 328.58L351.85 328.54L351.87 328.5L351.88 328.46L351.9 328.43L351.92 328.39L351.94 328.35L351.96 328.31L351.98 328.27L352.01 328.24L352.03 328.2L352.05 328.17L352.08 328.13L352.11 328.1L352.13 328.06L352.16 328.03L352.19 328L352.22 327.97L360.97 318.75L361.03 318.69L361.1 318.62L361.17 318.56L361.24 318.51L361.32 318.46L361.39 318.41L361.47 318.37L361.55 318.33L361.63 318.3L361.71 318.27L361.8 318.25L361.88 318.22L361.97 318.21L362.05 318.19L362.14 318.19L362.23 318.18L362.31 318.18L362.4 318.19ZM355.25 385.91L360.51 380.38L360.51 324.35L355.25 329.87L355.25 385.91Z" id="brZuL39P9"></path></defs><g><g><use xlink:href="#miDZg0aEa" opacity="1" fill="#fff100" fill-opacity="1"></use><g><use xlink:href="#miDZg0aEa" opacity="1" fill-opacity="0" stroke="#000000" stroke-width="1" stroke-opacity="0"></use></g></g><g><use xlink:href="#bBKvZki6A" opacity="1" fill="#231815" fill-opacity="1"></use><g><use xlink:href="#bBKvZki6A" opacity="1" fill-opacity="0" stroke="#000000" stroke-width="1" stroke-opacity="0"></use></g></g><g><use xlink:href="#b1iHZnvpJ" opacity="1" fill="#fff100" fill-opacity="1"></use><g><use xlink:href="#b1iHZnvpJ" opacity="1" fill-opacity="0" stroke="#000000" stroke-width="1" stroke-opacity="0"></use></g></g><g><use xlink:href="#cR8BTpOIR" opacity="1" fill="#231815" fill-opacity="1"></use><g><use xlink:href="#cR8BTpOIR" opacity="1" fill-opacity="0" stroke="#000000" stroke-width="1" stroke-opacity="0"></use></g></g><g><use xlink:href="#bazYxbCXW" opacity="1" fill="#fff100" fill-opacity="1"></use><g><use xlink:href="#bazYxbCXW" opacity="1" fill-opacity="0" stroke="#000000" stroke-width="1" stroke-opacity="0"></use></g></g><g><use xlink:href="#bBeXry2" opacity="1" fill="#231815" fill-opacity="1"></use><g><use xlink:href="#bBeXry2" opacity="1" fill-opacity="0" stroke="#000000" stroke-width="1" stroke-opacity="0"></use></g></g><g><use xlink:href="#b189lfD6D5" opacity="1" fill="#fff100" fill-opacity="1"></use><g><use xlink:href="#b189lfD6D5" opacity="1" fill-opacity="0" stroke="#000000" stroke-width="1" stroke-opacity="0"></use></g></g><g><use xlink:href="#cMA1FhWBc" opacity="1" fill="#231815" fill-opacity="1"></use><g><use xlink:href="#cMA1FhWBc" opacity="1" fill-opacity="0" stroke="#000000" stroke-width="1" stroke-opacity="0"></use></g></g><g><use xlink:href="#a5J8S0E0g4" opacity="1" fill="#00a0e9" fill-opacity="1"></use><g><use xlink:href="#a5J8S0E0g4" opacity="1" fill-opacity="0" stroke="#000000" stroke-width="1" stroke-opacity="0"></use></g></g><g><use xlink:href="#a15nf4mYvb" opacity="1" fill="#231815" fill-opacity="1"></use><g><use xlink:href="#a15nf4mYvb" opacity="1" fill-opacity="0" stroke="#000000" stroke-width="1" stroke-opacity="0"></use></g></g><g><use xlink:href="#a1LsDmjO9j" opacity="1" fill="#00a0e9" fill-opacity="1"></use><g><use xlink:href="#a1LsDmjO9j" opacity="1" fill-opacity="0" stroke="#000000" stroke-width="1" stroke-opacity="0"></use></g></g><g><use xlink:href="#ba73lcjD3O" opacity="1" fill="#231815" fill-opacity="1"></use><g><use xlink:href="#ba73lcjD3O" opacity="1" fill-opacity="0" stroke="#000000" stroke-width="1" stroke-opacity="0"></use></g></g><g><use xlink:href="#b2IjXwU27" opacity="1" fill="#00a0e9" fill-opacity="1"></use><g><use xlink:href="#b2IjXwU27" opacity="1" fill-opacity="0" stroke="#000000" stroke-width="1" stroke-opacity="0"></use></g></g><g><use xlink:href="#cp3OK16uc" opacity="1" fill="#231815" fill-opacity="1"></use><g><use xlink:href="#cp3OK16uc" opacity="1" fill-opacity="0" stroke="#000000" stroke-width="1" stroke-opacity="0"></use></g></g><g><use xlink:href="#d17rZNrOV" opacity="1" fill="#00a0e9" fill-opacity="1"></use><g><use xlink:href="#d17rZNrOV" opacity="1" fill-opacity="0" stroke="#000000" stroke-width="1" stroke-opacity="0"></use></g></g><g><use xlink:href="#bd2S6d23n" opacity="1" fill="#231815" fill-opacity="1"></use><g><use xlink:href="#bd2S6d23n" opacity="1" fill-opacity="0" stroke="#000000" stroke-width="1" stroke-opacity="0"></use></g></g><g><use xlink:href="#i131uWZp9Q" opacity="1" fill="#00a0e9" fill-opacity="1"></use><g><use xlink:href="#i131uWZp9Q" opacity="1" fill-opacity="0" stroke="#000000" stroke-width="1" stroke-opacity="0"></use></g></g><g><use xlink:href="#adp1w44TW" opacity="1" fill="#231815" fill-opacity="1"></use><g><use xlink:href="#adp1w44TW" opacity="1" fill-opacity="0" stroke="#000000" stroke-width="1" stroke-opacity="0"></use></g></g><g><use xlink:href="#bqE7rag9J" opacity="1" fill="#00a0e9" fill-opacity="1"></use><g><use xlink:href="#bqE7rag9J" opacity="1" fill-opacity="0" stroke="#000000" stroke-width="1" stroke-opacity="0"></use></g></g><g><use xlink:href="#iUrFRmNNw" opacity="1" fill="#231815" fill-opacity="1"></use><g><use xlink:href="#iUrFRmNNw" opacity="1" fill-opacity="0" stroke="#000000" stroke-width="1" stroke-opacity="0"></use></g></g><g><use xlink:href="#a178m5xu9t" opacity="1" fill="#00a0e9" fill-opacity="1"></use><g><use xlink:href="#a178m5xu9t" opacity="1" fill-opacity="0" stroke="#000000" stroke-width="1" stroke-opacity="0"></use></g></g><g><use xlink:href="#gjW13eXzy" opacity="1" fill="#231815" fill-opacity="1"></use><g><use xlink:href="#gjW13eXzy" opacity="1" fill-opacity="0" stroke="#000000" stroke-width="1" stroke-opacity="0"></use></g></g><g><use xlink:href="#aF0EtKRvH" opacity="1" fill="#00a0e9" fill-opacity="1"></use><g><use xlink:href="#aF0EtKRvH" opacity="1" fill-opacity="0" stroke="#000000" stroke-width="1" stroke-opacity="0"></use></g></g><g><use xlink:href="#a3PnJVdPTJ" opacity="1" fill="#231815" fill-opacity="1"></use><g><use xlink:href="#a3PnJVdPTJ" opacity="1" fill-opacity="0" stroke="#000000" stroke-width="1" stroke-opacity="0"></use></g></g><g><use xlink:href="#bFJMFCTbX" opacity="1" fill="#e4007f" fill-opacity="1"></use><g><use xlink:href="#bFJMFCTbX" opacity="1" fill-opacity="0" stroke="#000000" stroke-width="1" stroke-opacity="0"></use></g></g><g><use xlink:href="#e2gukozxC" opacity="1" fill="#231815" fill-opacity="1"></use><g><use xlink:href="#e2gukozxC" opacity="1" fill-opacity="0" stroke="#000000" stroke-width="1" stroke-opacity="0"></use></g></g><g><use xlink:href="#dRZ3coTu0" opacity="1" fill="#e4007f" fill-opacity="1"></use><g><use xlink:href="#dRZ3coTu0" opacity="1" fill-opacity="0" stroke="#000000" stroke-width="1" stroke-opacity="0"></use></g></g><g><use xlink:href="#f5IhWY1DH" opacity="1" fill="#231815" fill-opacity="1"></use><g><use xlink:href="#f5IhWY1DH" opacity="1" fill-opacity="0" stroke="#000000" stroke-width="1" stroke-opacity="0"></use></g></g><g><use xlink:href="#c3mqoWIdkr" opacity="1" fill="#e4007f" fill-opacity="1"></use><g><use xlink:href="#c3mqoWIdkr" opacity="1" fill-opacity="0" stroke="#000000" stroke-width="1" stroke-opacity="0"></use></g></g><g><use xlink:href="#bkWHw9xbN" opacity="1" fill="#231815" fill-opacity="1"></use><g><use xlink:href="#bkWHw9xbN" opacity="1" fill-opacity="0" stroke="#000000" stroke-width="1" stroke-opacity="0"></use></g></g><g><use xlink:href="#c20aIUgmqF" opacity="1" fill="#e4007f" fill-opacity="1"></use><g><use xlink:href="#c20aIUgmqF" opacity="1" fill-opacity="0" stroke="#000000" stroke-width="1" stroke-opacity="0"></use></g></g><g><use xlink:href="#a6PqUkFya7" opacity="1" fill="#231815" fill-opacity="1"></use><g><use xlink:href="#a6PqUkFya7" opacity="1" fill-opacity="0" stroke="#000000" stroke-width="1" stroke-opacity="0"></use></g></g><g><use xlink:href="#bhM2VLXuM" opacity="1" fill="#e4007f" fill-opacity="1"></use><g><use xlink:href="#bhM2VLXuM" opacity="1" fill-opacity="0" stroke="#000000" stroke-width="1" stroke-opacity="0"></use></g></g><g><use xlink:href="#a2UXyQa0WE" opacity="1" fill="#231815" fill-opacity="1"></use><g><use xlink:href="#a2UXyQa0WE" opacity="1" fill-opacity="0" stroke="#000000" stroke-width="1" stroke-opacity="0"></use></g></g><g><use xlink:href="#akCQ0hUH9" opacity="1" fill="#e4007f" fill-opacity="1"></use><g><use xlink:href="#akCQ0hUH9" opacity="1" fill-opacity="0" stroke="#000000" stroke-width="1" stroke-opacity="0"></use></g></g><g><use xlink:href="#btOqctKen" opacity="1" fill="#231815" fill-opacity="1"></use><g><use xlink:href="#btOqctKen" opacity="1" fill-opacity="0" stroke="#000000" stroke-width="1" stroke-opacity="0"></use></g></g><g><use xlink:href="#fEO2SjukW" opacity="1" fill="#e4007f" fill-opacity="1"></use><g><use xlink:href="#fEO2SjukW" opacity="1" fill-opacity="0" stroke="#000000" stroke-width="1" stroke-opacity="0"></use></g></g><g><use xlink:href="#b22HgWIX09" opacity="1" fill="#231815" fill-opacity="1"></use><g><use xlink:href="#b22HgWIX09" opacity="1" fill-opacity="0" stroke="#000000" stroke-width="1" stroke-opacity="0"></use></g></g><g><use xlink:href="#a7ixzy6c1J" opacity="1" fill="#e4007f" fill-opacity="1"></use><g><use xlink:href="#a7ixzy6c1J" opacity="1" fill-opacity="0" stroke="#000000" stroke-width="1" stroke-opacity="0"></use></g></g><g><use xlink:href="#a2WHq7lFaP" opacity="1" fill="#231815" fill-opacity="1"></use><g><use xlink:href="#a2WHq7lFaP" opacity="1" fill-opacity="0" stroke="#000000" stroke-width="1" stroke-opacity="0"></use></g></g><g><use xlink:href="#b129IRQMlY" opacity="1" fill="#e4007f" fill-opacity="1"></use><g><use xlink:href="#b129IRQMlY" opacity="1" fill-opacity="0" stroke="#000000" stroke-width="1" stroke-opacity="0"></use></g></g><g><use xlink:href="#brZuL39P9" opacity="1" fill="#231815" fill-opacity="1"></use><g><use xlink:href="#brZuL39P9" opacity="1" fill-opacity="0" stroke="#000000" stroke-width="1" stroke-opacity="0"></use></g></g></g></svg>