<svg id="レイヤー_1" data-name="レイヤー 1" xmlns="http://www.w3.org/2000/svg"  viewBox="0 0 841.89 595.28"><defs><style>.cls-1{fill:#fff100;}.cls-2{fill:#231815;}.cls-3{fill:#00a0e9;}.cls-4{fill:#e4007f;}</style></defs><title>アートボード 1</title><polygon class="cls-1" points="275.05 215.12 251.73 215.12 240.19 215.12 240.19 241.01 275.05 241.01 275.05 228.9 275.05 215.12"/><path class="cls-2" d="M275.05,243.32H240.19a2.31,2.31,0,0,1-2.31-2.31V215.12a2.32,2.32,0,0,1,2.31-2.31h34.86a2.31,2.31,0,0,1,2.3,2.31V241A2.3,2.3,0,0,1,275.05,243.32Zm-32.55-4.61h30.24V217.43H242.5Z"/><polygon class="cls-1" points="275.05 266.58 222.47 266.58 210.93 266.58 210.93 289.86 250.62 289.86 250.62 390.1 275.05 390.1 275.05 377.99 275.05 266.58"/><path class="cls-2" d="M275.05,392.41H250.62a2.31,2.31,0,0,1-2.31-2.31V292.17H210.93a2.3,2.3,0,0,1-2.3-2.31V266.58a2.3,2.3,0,0,1,2.3-2.3h64.12a2.3,2.3,0,0,1,2.3,2.3V390.1A2.3,2.3,0,0,1,275.05,392.41Zm-22.12-4.61h19.81V268.89h-59.5v18.66h37.38a2.31,2.31,0,0,1,2.31,2.31Z"/><path class="cls-1" d="M465,309.71q0-20.61-12.53-32.95t-33.52-12.34q-24.17,0-40.33,16.28V266.58h-23V390.1h23V322.94q0-17.18,10.37-27.73a33.46,33.46,0,0,1,6.18-5c5.89-3.72,12.91-5.6,21.11-5.6s14.46,2.05,18.95,6.17,6.75,9.81,6.75,17.11V390.1h23V309.71Z"/><path class="cls-2" d="M465,392.41h-23a2.3,2.3,0,0,1-2.3-2.31V307.93c0-6.68-2-11.72-6-15.41s-9.89-5.57-17.4-5.57c-7.68,0-14.37,1.77-19.88,5.25a31.89,31.89,0,0,0-5.76,4.62c-6.44,6.56-9.71,15.35-9.71,26.12V390.1a2.3,2.3,0,0,1-2.3,2.31h-23a2.31,2.31,0,0,1-2.31-2.31V266.58a2.31,2.31,0,0,1,2.31-2.3h23a2.3,2.3,0,0,1,2.3,2.3v8.86c10.49-8.85,23.25-13.33,38-13.33,14.55,0,26.38,4.38,35.14,13s13.22,20.28,13.22,34.59V390.1A2.3,2.3,0,0,1,465,392.41Zm-20.72-4.61h18.41V309.71c0-13-4-23.56-11.84-31.31s-18.6-11.67-31.9-11.67c-15.4,0-28.42,5.25-38.69,15.6a2.3,2.3,0,0,1-3.94-1.63V268.89H357.88V387.8h18.41V322.94c0-12,3.71-21.9,11-29.35a36.8,36.8,0,0,1,6.59-5.3c6.26-4,13.78-6,22.34-6s15.6,2.28,20.51,6.77,7.49,10.88,7.49,18.82Z"/><path class="cls-1" d="M613,362.24a52.94,52.94,0,0,1-13.8,6.94A44.91,44.91,0,0,1,584.67,372q-8.64,0-13.35-5.79t-4.71-16.34V285.28H613v-20.1H566.61V233.26h-23v31.94H518v20.1h25.57v62.34q0,21.87,10.36,33.26t30.22,11.39q17.8,0,28.87-7.25V362.24Z"/><path class="cls-2" d="M584.16,394.57c-13.84,0-24.58-4.08-31.91-12.14s-11-19.7-11-34.81v-60H518a2.3,2.3,0,0,1-2.31-2.31v-20.1a2.3,2.3,0,0,1,2.31-2.3h23.26V233.24a2.31,2.31,0,0,1,.67-1.63,2.36,2.36,0,0,1,1.64-.68h0l23,0a2.32,2.32,0,0,1,2.31,2.31v29.62H613a2.3,2.3,0,0,1,2.31,2.3v20.1a2.3,2.3,0,0,1-2.31,2.31H568.92v62.32c0,6.46,1.41,11.47,4.19,14.89s6.48,4.93,11.56,4.93A43,43,0,0,0,598.48,367a51.38,51.38,0,0,0,13.21-6.62,2.3,2.3,0,0,1,3.66,1.86V385a2.32,2.32,0,0,1-1,1.93C606.58,392,596.44,394.57,584.16,394.57ZM520.32,283h23.27a2.3,2.3,0,0,1,2.3,2.3v62.34c0,13.92,3.29,24.59,9.77,31.71s16,10.63,28.5,10.63c10.81,0,19.74-2.09,26.57-6.22V366.5A62,62,0,0,1,600,371.36c-13.89,4.84-24.42,3.8-30.47-3.65-3.47-4.26-5.23-10.25-5.23-17.8V285.28a2.3,2.3,0,0,1,2.31-2.3h44.12V267.49H566.61a2.3,2.3,0,0,1-2.31-2.31V235.56H545.89v29.63a2.3,2.3,0,0,1-2.3,2.31H520.32Z"/><path class="cls-3" d="M584.67,372a44.91,44.91,0,0,0,14.57-2.86,52.94,52.94,0,0,0,13.8-6.94l11.54-12.11a52.63,52.63,0,0,1-13.8,6.93,45,45,0,0,1-14.57,2.87q-8.65,0-13.36-5.79l-11.53,12.11Q576,372,584.67,372Z"/><path class="cls-2" d="M584.67,374.35c-6.47,0-11.56-2.24-15.14-6.64a2.3,2.3,0,0,1,.11-3l11.54-12.11a2.3,2.3,0,0,1,3.46.13c2.7,3.32,6.49,4.94,11.57,4.94A43,43,0,0,0,610,354.89a51.46,51.46,0,0,0,13.2-6.62,2.31,2.31,0,0,1,3,3.45l-11.54,12.12a2,2,0,0,1-.31.27,56,56,0,0,1-14.4,7.25A47.51,47.51,0,0,1,584.67,374.35Zm-10.18-8.09c4.94,4.5,13.2,4.5,24,.74a51.51,51.51,0,0,0,13-6.5l1.82-1.91-1.81.65c-12.61,4.4-22.46,4-28.69-1.75Z"/><polygon class="cls-3" points="240.19 215.12 251.73 215.12 275.05 215.12 286.58 203.01 251.73 203.01 240.19 215.12"/><path class="cls-2" d="M275.05,217.43H240.19a2.31,2.31,0,0,1-1.67-3.9l11.54-12.11a2.29,2.29,0,0,1,1.67-.72h34.85a2.31,2.31,0,0,1,1.67,3.9l-11.53,12.11A2.31,2.31,0,0,1,275.05,217.43Zm-29.48-4.62h28.49l7.14-7.49H252.72Z"/><polygon class="cls-3" points="378.6 266.58 390.13 254.47 367.11 254.47 355.57 266.58 367.11 266.58 378.6 266.58"/><path class="cls-2" d="M378.6,268.89h-23a2.31,2.31,0,0,1-1.67-3.9l11.54-12.11a2.29,2.29,0,0,1,1.67-.72h23a2.31,2.31,0,0,1,1.67,3.9l-11.53,12.11A2.31,2.31,0,0,1,378.6,268.89ZM361,264.28h16.66l7.14-7.5H368.1Z"/><polygon class="cls-3" points="210.93 266.58 222.47 266.58 275.05 266.58 286.58 254.47 222.47 254.47 210.93 266.58"/><path class="cls-2" d="M275.05,268.89H210.93a2.31,2.31,0,0,1-1.67-3.9l11.54-12.11a2.29,2.29,0,0,1,1.67-.72h64.11a2.31,2.31,0,0,1,1.67,3.9l-11.53,12.11A2.31,2.31,0,0,1,275.05,268.89Zm-58.73-4.61h57.74l7.14-7.5H223.46Z"/><polygon class="cls-3" points="543.59 265.18 543.59 253.07 529.55 253.07 518.02 265.18 529.55 265.18 543.59 265.18"/><path class="cls-2" d="M543.59,267.49H518a2.31,2.31,0,0,1-1.68-3.9l11.54-12.11a2.31,2.31,0,0,1,1.67-.72h14a2.31,2.31,0,0,1,2.3,2.31v12.11A2.3,2.3,0,0,1,543.59,267.49Zm-20.19-4.61h17.88v-7.5H530.54Z"/><polygon class="cls-3" points="566.61 233.26 578.15 221.15 555.12 221.13 543.59 233.24 555.12 233.25 566.61 233.26"/><path class="cls-2" d="M566.61,235.57h0l-23,0a2.31,2.31,0,0,1-1.67-3.9l11.54-12.11a2.31,2.31,0,0,1,1.67-.72h0l23,0a2.31,2.31,0,0,1,1.67,3.9l-11.54,12.11A2.31,2.31,0,0,1,566.61,235.57ZM549,230.94h16.66l7.15-7.5H556.11Z"/><polygon class="cls-3" points="613.04 265.18 624.58 253.07 578.15 253.07 566.61 265.18 613.04 265.18"/><path class="cls-2" d="M613,267.49H566.61a2.31,2.31,0,0,1-1.67-3.9l11.53-12.11a2.33,2.33,0,0,1,1.68-.72h46.43a2.31,2.31,0,0,1,1.67,3.9l-11.54,12.11A2.29,2.29,0,0,1,613,267.49Zm-41-4.61h40.06l7.15-7.5H579.14Z"/><path class="cls-3" d="M464,264.65q-12.54-12.34-33.52-12.34-24.18,0-40.33,16.28L378.59,280.7q16.16-16.27,40.33-16.28,21,0,33.52,12.34T465,309.71l11.54-12.12Q476.51,277,464,264.65Z"/><path class="cls-2" d="M465,312a2.34,2.34,0,0,1-.86-.16,2.32,2.32,0,0,1-1.45-2.14c0-13-4-23.56-11.84-31.31s-18.6-11.67-31.9-11.67c-15.4,0-28.42,5.25-38.69,15.6a2.31,2.31,0,0,1-3.31-3.22L388.46,267c11.2-11.29,25.32-17,42-17,14.55,0,26.37,4.37,35.13,13h0c8.77,8.64,13.21,20.28,13.21,34.59a2.26,2.26,0,0,1-.63,1.59L466.64,311.3A2.32,2.32,0,0,1,465,312Zm-46.05-49.9c14.55,0,26.38,4.38,35.14,13,7.61,7.5,12,17.26,13,29.06l7.14-7.5c-.18-12.61-4.16-22.83-11.83-30.39h0c-7.87-7.75-18.6-11.68-31.9-11.68s-24.84,3.93-34.36,11.67A61.15,61.15,0,0,1,418.92,262.11Z"/><polygon class="cls-4" points="275.05 228.9 275.05 241.01 286.58 228.9 286.58 203.01 275.05 215.12 275.05 228.9"/><path class="cls-2" d="M275.05,243.32a2.34,2.34,0,0,1-.86-.16,2.3,2.3,0,0,1-1.45-2.15V215.12a2.34,2.34,0,0,1,.63-1.59l11.54-12.11a2.31,2.31,0,0,1,4,1.59V228.9a2.31,2.31,0,0,1-.64,1.59L276.72,242.6A2.32,2.32,0,0,1,275.05,243.32Zm2.3-27.28v19.21l6.92-7.27v-19.2Z"/><path class="cls-4" d="M378.59,322.94V390.1L390.13,378V310.82a40.83,40.83,0,0,1,5-20.57,33.46,33.46,0,0,0-6.18,5Q378.6,305.77,378.59,322.94Z"/><path class="cls-2" d="M378.6,392.41a2.34,2.34,0,0,1-.86-.16,2.31,2.31,0,0,1-1.45-2.15V322.94c0-12,3.71-21.9,11-29.35a36.8,36.8,0,0,1,6.59-5.3,2.31,2.31,0,0,1,3.23,3.1,38.74,38.74,0,0,0-4.7,19.43V378a2.31,2.31,0,0,1-.64,1.59l-11.53,12.11A2.32,2.32,0,0,1,378.6,392.41Zm10.85-94.35c-5.67,6.42-8.55,14.77-8.55,24.88v61.4l6.92-7.27V310.82A48.31,48.31,0,0,1,389.45,298.06Z"/><polygon class="cls-4" points="378.6 280.7 390.13 268.59 390.13 254.47 378.6 266.58 378.6 280.7"/><path class="cls-2" d="M378.6,283a2.34,2.34,0,0,1-.86-.16,2.3,2.3,0,0,1-1.45-2.15V266.58a2.34,2.34,0,0,1,.63-1.59l11.54-12.11a2.31,2.31,0,0,1,4,1.59v14.12a2.31,2.31,0,0,1-.64,1.59l-11.53,12.11A2.32,2.32,0,0,1,378.6,283Zm2.3-15.5v7.43l6.92-7.27v-7.43Z"/><polygon class="cls-4" points="275.05 377.99 275.05 390.1 286.58 377.99 286.58 254.47 275.05 266.58 275.05 377.99"/><path class="cls-2" d="M275.05,392.41a2.34,2.34,0,0,1-.86-.16,2.31,2.31,0,0,1-1.45-2.15V266.58a2.34,2.34,0,0,1,.63-1.59l11.54-12.11a2.31,2.31,0,0,1,4,1.59V378a2.31,2.31,0,0,1-.64,1.59l-11.53,12.11A2.32,2.32,0,0,1,275.05,392.41Zm2.3-124.9V384.34l6.92-7.27V260.24Z"/><polygon class="cls-4" points="613.04 377.99 613.04 385.01 624.58 372.9 624.58 350.13 613.04 362.25 613.04 377.99"/><path class="cls-2" d="M613,387.32a2.25,2.25,0,0,1-.85-.16,2.31,2.31,0,0,1-1.46-2.14V362.24a2.31,2.31,0,0,1,.64-1.59l11.54-12.11a2.31,2.31,0,0,1,4,1.59V372.9a2.27,2.27,0,0,1-.64,1.59l-11.54,12.12A2.32,2.32,0,0,1,613,387.32Zm2.31-24.15v16.08l6.92-7.27V355.9Z"/><path class="cls-4" d="M566.61,285.28v64.63q0,10.56,4.71,16.34l11.53-12.11q-4.71-5.79-4.7-16.35V285.28Z"/><path class="cls-2" d="M571.32,368.56h-.09a2.31,2.31,0,0,1-1.7-.85c-3.47-4.26-5.23-10.25-5.23-17.8V285.28a2.3,2.3,0,0,1,2.31-2.3h11.54a2.3,2.3,0,0,1,2.3,2.3v52.51c0,6.46,1.41,11.47,4.19,14.89a2.3,2.3,0,0,1-.12,3.05L573,367.84A2.31,2.31,0,0,1,571.32,368.56Zm-2.4-81v62.32c0,5.18.9,9.43,2.7,12.68l8.24-8.65c-2.67-4.11-4-9.53-4-16.15v-50.2Z"/><polygon class="cls-4" points="613.04 273.17 613.04 285.28 624.58 273.17 624.58 253.07 613.04 265.18 613.04 273.17"/><path class="cls-2" d="M613,287.59a2.25,2.25,0,0,1-.85-.16,2.32,2.32,0,0,1-1.46-2.15v-20.1a2.31,2.31,0,0,1,.64-1.59l11.54-12.11a2.31,2.31,0,0,1,4,1.59v20.1a2.31,2.31,0,0,1-.64,1.59l-11.54,12.11A2.29,2.29,0,0,1,613,287.59Zm2.31-21.48v13.41l6.92-7.27V258.84Z"/><polygon class="cls-4" points="566.61 265.18 578.15 253.07 578.15 221.15 566.61 233.26 566.61 265.18"/><path class="cls-2" d="M566.61,267.49a2.29,2.29,0,0,1-2.31-2.31V233.26a2.31,2.31,0,0,1,.64-1.59l11.53-12.11a2.3,2.3,0,0,1,4,1.59v31.92a2.3,2.3,0,0,1-.63,1.59l-11.54,12.11A2.29,2.29,0,0,1,566.61,267.49Zm2.31-33.31v25.24l6.92-7.27V226.91Z"/><polygon class="cls-4" points="464.97 309.71 464.97 377.99 464.97 390.1 476.51 377.99 476.51 297.59 464.97 309.71"/><path class="cls-2" d="M465,392.41a2.29,2.29,0,0,1-2.31-2.31V309.71a2.27,2.27,0,0,1,.64-1.59L474.84,296a2.3,2.3,0,0,1,4,1.59V378a2.3,2.3,0,0,1-.63,1.59l-11.54,12.11A2.29,2.29,0,0,1,465,392.41Zm2.31-81.78v73.71l6.92-7.27V303.36Z"/></svg>
