<svg xmlns="http://www.w3.org/2000/svg" viewBox="0 0 287 291"><defs><style>.cls-1{fill:#fff100;}.cls-2,.cls-3{fill:#fff;stroke:#231815;stroke-linejoin:round;stroke-width:12px;}.cls-3{stroke-linecap:round;}</style></defs><title>アートボード 38</title><g id="レイヤー_1" data-name="レイヤー 1"><circle class="cls-1" cx="143.5" cy="145.5" r="118"/><path class="cls-2" d="M129.09,156.32,82.31,109.54a20.29,20.29,0,0,0-5,13.33v45.26A20.43,20.43,0,0,0,97.66,188.5h91.68a20.43,20.43,0,0,0,20.37-20.37V122.87a20.29,20.29,0,0,0-5-13.33l-46.78,46.78A20.45,20.45,0,0,1,129.09,156.32Z"/><path class="cls-3" d="M189.34,102.5H97.66a20.34,20.34,0,0,0-15.35,7l46.78,46.78a20.45,20.45,0,0,0,28.82,0l46.78-46.78A20.34,20.34,0,0,0,189.34,102.5Z"/></g></svg>