<svg xmlns="http://www.w3.org/2000/svg" viewBox="0 0 294.78 273.24"><defs><style>.cls-1{fill:#fff100;}.cls-2,.cls-7{fill:#fff;}.cls-3{fill:#231815;}.cls-4,.cls-5,.cls-6{fill:none;}.cls-4,.cls-5,.cls-6,.cls-7{stroke:#231815;stroke-width:5px;}.cls-4,.cls-5,.cls-7{stroke-linejoin:round;}.cls-5{stroke-linecap:round;}.cls-6{stroke-miterlimit:10;}</style></defs><title>プランナー</title><g id="レイヤー_1" data-name="レイヤー 1"><polygon class="cls-1" points="195.79 93.72 214.12 174.64 196.88 202.49 183.24 113.99 195.79 93.72"/><polygon class="cls-1" points="183.24 113.99 196.88 202.49 86.16 202.87 97.79 113.97 183.24 113.99"/><path class="cls-1" d="M195.79,93.72,183.24,114l-85.45,0L110.33,93.7h1.46V96c0,5.66,15.44,10.25,34.5,10.25s34.5-4.59,34.5-10.25V93.72Z"/><path class="cls-2" d="M180.79,93.72V96c0,5.66-15.45,10.25-34.5,10.25s-34.5-4.59-34.5-10.25V93.7Z"/><path class="cls-2" d="M180.79,43.24V93.72l-69,0V43.24c0,5.66,15.44,10.25,34.5,10.25S180.79,48.9,180.79,43.24ZM154.16,76.43a4.07,4.07,0,1,0-4.06,4.06A4.06,4.06,0,0,0,154.16,76.43Zm-22.37-.38a4.07,4.07,0,1,0-4.07,4.07A4.07,4.07,0,0,0,131.79,76.05Z"/><ellipse class="cls-3" cx="146.29" cy="43.24" rx="34.5" ry="10.25"/><path class="cls-3" d="M150.1,72.37A4.06,4.06,0,1,1,146,76.43,4.06,4.06,0,0,1,150.1,72.37Z"/><path class="cls-3" d="M127.72,72a4.07,4.07,0,1,1-4.06,4.06A4.07,4.07,0,0,1,127.72,72Z"/><line class="cls-4" x1="180.79" y1="93.72" x2="195.79" y2="93.72"/><polyline class="cls-4" points="97.79 113.97 110.33 93.7 111.79 93.7"/><polyline class="cls-4" points="183.24 113.99 97.79 113.97 86.16 202.87 196.88 202.49"/><polygon class="cls-4" points="195.79 93.72 183.24 113.99 196.88 202.49 214.12 174.64 195.79 93.72"/><path class="cls-5" d="M180.79,43.24c0-5.66-15.45-10.25-34.5-10.25s-34.5,4.59-34.5,10.25"/><path class="cls-6" d="M180.79,43.24c0,5.66-15.45,10.25-34.5,10.25s-34.5-4.59-34.5-10.25V96c0,5.66,15.44,10.25,34.5,10.25s34.5-4.59,34.5-10.25V43.24Z"/><path class="cls-7" d="M142.41,40.43c0-14.12-20.37-25.56-45.5-25.56s-45.5,11.44-45.5,25.56c0,11,12.28,20.31,29.54,23.94C84.33,70.53,91.09,77,104.41,75a29,29,0,0,1-8.92-9l1.42,0C122,66,142.41,54.55,142.41,40.43Z"/><path class="cls-2" d="M139.37,148.11h-5.6v8.54a4,4,0,0,1-.86,2.77,3,3,0,0,1-4.4,0,3.93,3.93,0,0,1-.85-2.74V133.44a3.8,3.8,0,0,1,.93-2.88,4.25,4.25,0,0,1,2.94-.86h7.84a20.94,20.94,0,0,1,5.35.53,8.06,8.06,0,0,1,3.19,1.71,7.78,7.78,0,0,1,2.05,2.92,10.21,10.21,0,0,1,.7,3.89q0,4.6-2.84,7T139.37,148.11Zm-1.48-13.82h-4.12v9.21h4.12a12.37,12.37,0,0,0,3.61-.45,4.26,4.26,0,0,0,2.21-1.48,4.5,4.5,0,0,0,.76-2.7,4.58,4.58,0,0,0-1.17-3.25Q142,134.28,137.89,134.29Z"/><path class="cls-3" d="M61.23,262.16a2.8,2.8,0,0,1-2.12-1L57,258.81a2.83,2.83,0,0,1,.44-4.16c9.5-7,13.32-10.8,14.28-17h-17a2.84,2.84,0,0,1-2.83-2.84v-3.12a2.83,2.83,0,0,1,2.83-2.83H74.62c0-.21,0-.43,0-.65a7.06,7.06,0,1,1,14.11,0,7,7,0,0,1-7,7c-.27,0-.53,0-.78,0-.35,12.58-7.08,18.46-18,26.52A2.87,2.87,0,0,1,61.23,262.16Z"/><path class="cls-1" d="M78.07,234.05c0,11.8-5.64,17-16.84,25.28l-2.12-2.4c11.12-8.2,15.44-12.76,15.68-22.16h-20v-3.12H78.07Zm3.6-1.76a4.19,4.19,0,0,1-4.24-4.12,4.22,4.22,0,1,1,8.44,0A4.18,4.18,0,0,1,81.67,232.29Zm0-6.6a2.48,2.48,0,0,0-2.44,2.48,2.45,2.45,0,0,0,2.44,2.44,2.51,2.51,0,0,0,2.48-2.44A2.6,2.6,0,0,0,81.67,225.69Z"/><path class="cls-3" d="M105.19,263a2.83,2.83,0,0,1-2.24-1.1L101,259.38a2.82,2.82,0,0,1-.57-2.12,2.87,2.87,0,0,1,1.12-1.89c8.2-6.07,10.46-8.39,11.07-11.72H96a2.84,2.84,0,0,1-2.83-2.84V238A2.83,2.83,0,0,1,96,235.14h22.84A2.83,2.83,0,0,1,121.7,238v2.8c0,10.19-4.81,14.21-14.82,21.64A2.87,2.87,0,0,1,105.19,263Zm-6.56-28.11A2.84,2.84,0,0,1,95.8,232v-3a2.83,2.83,0,0,1,2.83-2.83H116a2.83,2.83,0,0,1,2.83,2.83v3a2.84,2.84,0,0,1-2.83,2.84Z"/><path class="cls-1" d="M105.19,260.13l-1.92-2.48c10.16-7.52,12.36-10,12.44-16.84H96V238h22.84v2.8C118.87,249.25,115.55,252.45,105.19,260.13ZM116,229v3H98.63v-3Z"/><path class="cls-3" d="M136.83,261.2a2.83,2.83,0,0,1-2.83-2.83v-3a2.83,2.83,0,0,1,2.83-2.83c10.68,0,12.33-3,19.26-15.79l0-.09a2.88,2.88,0,0,1,1.69-1.37,3.09,3.09,0,0,1,.8-.11,2.84,2.84,0,0,1,1.36.35l2.84,1.56A2.83,2.83,0,0,1,164,241l-.21.39C156.85,254.15,153.05,261.2,136.83,261.2Zm-1.08-23.79a2.84,2.84,0,0,1-2.83-2.84v-3a2.83,2.83,0,0,1,2.83-2.83h11.12a2.83,2.83,0,0,1,2.83,2.83v3a2.84,2.84,0,0,1-2.83,2.84Z"/><path class="cls-1" d="M146.87,231.53v3H135.75v-3Zm-10,26.84v-3c12.4,0,14.76-4.4,21.8-17.36l2.84,1.56C154.59,252.37,151.51,258.37,136.83,258.37Z"/><path class="cls-3" d="M181.55,262.92a2.83,2.83,0,0,1-1.76-.61l-2.48-2a2.8,2.8,0,0,1-1.06-1.92,2.87,2.87,0,0,1,.63-2.11c5.62-6.79,6.9-9.28,7.17-13.91H173a2.84,2.84,0,0,1-2.83-2.84v-3a2.83,2.83,0,0,1,2.83-2.83h11.16v-6.89a2.84,2.84,0,0,1,2.84-2.83h3.24a2.83,2.83,0,0,1,2.83,2.83v6.89h8.85a2.83,2.83,0,0,1,2.83,2.83v3a2.84,2.84,0,0,1-2.83,2.84H193c-.4,7.72-2.67,11.57-9.23,19.49A2.84,2.84,0,0,1,181.55,262.92Z"/><path class="cls-1" d="M181.55,260.09l-2.48-2c6.84-8.28,7.88-10.88,7.88-18.56H173v-3h14v-9.72h3.24v9.72h11.68v3H190.19C190.19,248.49,188.51,251.69,181.55,260.09Z"/><rect class="cls-3" x="209.8" y="238.9" width="35.18" height="8.71" rx="2.83" ry="2.83"/><path class="cls-1" d="M212.63,241.73h29.52v3H212.63Z"/></g></svg>