<?xml version="1.0" encoding="UTF-8" standalone="no"?>
<!DOCTYPE svg PUBLIC "-//W3C//DTD SVG 1.1//EN" "http://www.w3.org/Graphics/SVG/1.1/DTD/svg11.dtd">
<svg version="1.1" xmlns="http://www.w3.org/2000/svg" xmlns:xlink="http://www.w3.org/1999/xlink" preserveAspectRatio="xMidYMid meet" viewBox="-10.113924050632917 240.02278481012655 662.227848101266 161.97468354430384" width="658.23" height="157.97"><defs><path d="M570.13 245.07C611.51 245.07 645.06 278.62 645.06 320.01C645.06 320.01 645.06 320.01 645.06 320.01C645.06 361.4 611.51 394.95 570.13 394.95C570.13 394.95 570.13 394.95 570.13 394.95C520.1 394.95 119.9 394.95 69.87 394.95C28.49 394.95 -5.06 361.4 -5.06 320.01C-5.06 320.01 -5.06 320.01 -5.06 320.01C-5.06 278.62 28.49 245.07 69.87 245.07C169.92 245.07 520.1 245.07 570.13 245.07Z" id="e6b1S5NK6f"></path><path d="M576.6 241.28L579.79 241.61L582.94 242.06L586.05 242.63L589.11 243.32L592.12 244.13L595.09 245.05L598.01 246.08L600.87 247.23L603.68 248.48L606.43 249.84L609.11 251.3L611.73 252.86L614.29 254.51L616.78 256.26L619.19 258.1L621.53 260.04L623.79 262.05L625.98 264.16L628.08 266.34L630.1 268.61L632.03 270.95L633.87 273.36L635.62 275.85L637.28 278.4L638.84 281.02L640.3 283.71L641.65 286.46L642.91 289.26L644.05 292.13L645.09 295.04L646.01 298.01L646.82 301.03L647.51 304.09L648.08 307.2L648.53 310.35L648.85 313.53L649.05 316.75L649.11 320.01L649.05 323.27L648.85 326.49L648.53 329.67L648.08 332.82L647.51 335.93L646.82 338.99L646.01 342.01L645.09 344.98L644.05 347.89L642.91 350.76L641.65 353.56L640.3 356.31L638.84 359L637.28 361.62L635.62 364.17L633.87 366.66L632.03 369.07L630.1 371.41L628.08 373.68L625.98 375.86L623.79 377.97L621.53 379.98L619.19 381.92L616.78 383.76L614.29 385.51L611.73 387.16L609.11 388.72L606.43 390.18L603.68 391.54L600.87 392.79L598.01 393.94L595.09 394.97L592.12 395.89L589.11 396.7L586.05 397.39L582.94 397.96L579.79 398.41L576.6 398.74L573.38 398.93L570.13 399L69.87 399L66.62 398.93L63.4 398.74L60.21 398.41L57.06 397.96L53.95 397.39L50.89 396.7L47.88 395.89L44.91 394.97L41.99 393.94L39.13 392.79L36.32 391.54L33.57 390.18L30.89 388.72L28.27 387.16L25.71 385.51L23.22 383.76L20.81 381.92L18.47 379.98L16.21 377.97L14.02 375.86L11.92 373.68L9.9 371.41L7.97 369.07L6.13 366.66L4.38 364.17L2.72 361.62L1.16 359L-0.3 356.31L-1.65 353.56L-2.91 350.76L-4.05 347.89L-5.09 344.98L-6.01 342.01L-6.82 338.99L-7.51 335.93L-8.08 332.82L-8.53 329.67L-8.85 326.49L-9.05 323.27L-9.11 320.01L-9.05 316.75L-8.85 313.53L-8.53 310.35L-8.08 307.2L-7.51 304.09L-6.82 301.03L-6.01 298.01L-5.09 295.04L-4.05 292.13L-2.91 289.26L-1.65 286.46L-0.3 283.71L1.16 281.02L2.72 278.4L4.38 275.85L6.13 273.36L7.97 270.95L9.9 268.61L11.92 266.34L14.02 264.16L16.21 262.05L18.47 260.04L20.81 258.1L23.22 256.26L25.71 254.51L28.27 252.86L30.89 251.3L33.57 249.84L36.32 248.48L39.13 247.23L41.99 246.08L44.91 245.05L47.88 244.13L50.89 243.32L53.95 242.63L57.06 242.06L60.21 241.61L63.4 241.28L66.62 241.09L69.87 241.02L570.13 241.02L573.38 241.09L576.6 241.28ZM66.95 249.18L64.06 249.36L61.2 249.65L58.38 250.05L55.59 250.56L52.84 251.18L50.13 251.91L47.47 252.74L44.85 253.67L42.28 254.69L39.76 255.82L37.3 257.04L34.89 258.35L32.53 259.74L30.24 261.23L28.01 262.8L25.84 264.45L23.74 266.19L21.71 268L19.75 269.89L17.86 271.85L16.05 273.88L14.32 275.98L12.66 278.15L11.09 280.38L9.61 282.67L8.21 285.02L6.9 287.43L5.68 289.9L4.56 292.42L3.53 294.99L2.6 297.6L1.77 300.27L1.05 302.98L0.43 305.72L-0.08 308.51L-0.49 311.34L-0.78 314.2L-0.95 317.09L-1.01 320.01L-0.95 322.93L-0.78 325.82L-0.49 328.68L-0.08 331.51L0.43 334.3L1.05 337.04L1.77 339.75L2.6 342.42L3.53 345.03L4.56 347.6L5.68 350.12L6.9 352.59L8.21 355L9.61 357.35L11.09 359.64L12.66 361.87L14.32 364.04L16.05 366.14L17.86 368.17L19.75 370.13L21.71 372.02L23.74 373.83L25.84 375.57L28.01 377.22L30.24 378.79L32.53 380.28L34.89 381.67L37.3 382.98L39.76 384.2L42.28 385.33L44.85 386.35L47.47 387.28L50.13 388.11L52.84 388.84L55.59 389.46L58.38 389.97L61.2 390.37L64.06 390.66L66.95 390.84L69.87 390.9L570.13 390.9L573.05 390.84L575.94 390.66L578.8 390.37L581.62 389.97L584.41 389.46L587.16 388.84L589.87 388.11L592.53 387.28L595.15 386.35L597.72 385.33L600.24 384.2L602.7 382.98L605.11 381.67L607.47 380.28L609.76 378.79L611.99 377.22L614.16 375.57L616.26 373.83L618.29 372.02L620.25 370.13L622.14 368.17L623.95 366.14L625.68 364.04L627.34 361.87L628.91 359.64L630.39 357.35L631.79 355L633.1 352.59L634.32 350.12L635.44 347.6L636.47 345.03L637.4 342.42L638.23 339.75L638.95 337.04L639.57 334.3L640.08 331.51L640.49 328.68L640.78 325.82L640.95 322.93L641.01 320.01L640.95 317.09L640.78 314.2L640.49 311.34L640.08 308.51L639.57 305.72L638.95 302.98L638.23 300.27L637.4 297.6L636.47 294.99L635.44 292.42L634.32 289.9L633.1 287.43L631.79 285.02L630.39 282.67L628.91 280.38L627.34 278.15L625.68 275.98L623.95 273.88L622.14 271.85L620.25 269.89L618.29 268L616.26 266.19L614.16 264.45L611.99 262.8L609.76 261.23L607.47 259.74L605.11 258.35L602.7 257.04L600.24 255.82L597.72 254.69L595.15 253.67L592.53 252.74L589.87 251.91L587.16 251.18L584.41 250.56L581.62 250.05L578.8 249.65L575.94 249.36L573.05 249.18L570.13 249.12L69.87 249.12L66.95 249.18Z" id="b2ILIi4io9"></path><path d="M162.44 274.14L163 274.15L163.56 274.17L164.12 274.2L164.68 274.23L165.24 274.26L165.8 274.3L166.36 274.34L166.91 274.38L167.47 274.43L168.03 274.48L168.59 274.54L169.14 274.6L169.7 274.67L170.26 274.74L170.81 274.81L171.36 274.89L171.92 274.97L172.47 275.05L173.02 275.14L173.58 275.24L174.13 275.33L174.68 275.44L175.23 275.54L175.78 275.65L176.32 275.76L176.87 275.88L177.42 276L177.96 276.13L178.51 276.26L179.05 276.39L179.6 276.53L180.14 276.67L180.68 276.81L181.22 276.96L181.76 277.12L182.3 277.27L182.84 277.43L183.37 277.6L183.48 277.63L183.59 277.67L183.7 277.7L183.81 277.74L183.92 277.78L184.03 277.82L184.13 277.87L184.24 277.91L184.34 277.96L184.45 278L184.55 278.05L184.66 278.1L184.76 278.15L184.86 278.21L184.96 278.26L185.06 278.32L185.16 278.37L185.26 278.43L185.35 278.49L185.45 278.55L185.54 278.62L185.64 278.68L185.73 278.75L185.82 278.82L185.92 278.88L186.01 278.95L186.1 279.03L186.18 279.1L186.27 279.17L186.36 279.25L186.44 279.32L186.53 279.4L186.61 279.48L186.69 279.56L186.77 279.64L186.85 279.73L186.93 279.81L187.01 279.9L187.08 279.98L187.16 280.07L187.27 279.88L187.38 279.69L187.5 279.5L187.62 279.31L187.75 279.14L187.88 278.96L188.01 278.79L188.15 278.62L188.3 278.46L188.44 278.3L188.6 278.14L188.75 277.99L188.91 277.85L189.08 277.71L189.24 277.57L189.41 277.44L189.59 277.31L189.76 277.19L189.94 277.07L190.13 276.96L190.31 276.85L190.5 276.74L190.69 276.65L190.89 276.55L191.08 276.46L191.28 276.38L191.48 276.3L191.69 276.23L191.89 276.16L192.1 276.1L192.31 276.05L192.52 275.99L192.74 275.95L192.95 275.91L193.17 275.88L193.38 275.85L193.6 275.83L193.82 275.81L194.05 275.8L194.27 275.8L204.94 275.8L205.28 275.8L205.61 275.82L205.93 275.86L206.26 275.9L206.57 275.96L206.89 276.03L207.2 276.12L207.5 276.21L207.8 276.32L208.1 276.43L208.38 276.56L208.66 276.7L208.94 276.85L209.21 277.01L209.47 277.18L209.73 277.36L209.97 277.55L210.21 277.75L210.45 277.95L210.67 278.17L210.89 278.39L211.09 278.63L211.29 278.87L211.48 279.11L211.66 279.37L211.83 279.63L211.99 279.9L212.14 280.18L212.28 280.46L212.41 280.75L212.52 281.04L212.63 281.34L212.72 281.64L212.81 281.95L212.88 282.27L212.94 282.58L212.98 282.91L213.02 283.23L213.04 283.56L213.04 283.9L213.04 306.18L226.27 306.18L226.27 283.9L226.28 283.56L226.3 283.23L226.33 282.91L226.37 282.58L226.43 282.27L226.5 281.95L226.59 281.64L226.68 281.34L226.79 281.04L226.9 280.75L227.03 280.46L227.17 280.18L227.32 279.9L227.48 279.63L227.65 279.37L227.83 279.11L228.02 278.87L228.22 278.63L228.43 278.39L228.64 278.17L228.87 277.95L229.1 277.75L229.34 277.55L229.59 277.36L229.84 277.18L230.1 277.01L230.37 276.85L230.65 276.7L230.93 276.56L231.22 276.43L231.51 276.32L231.81 276.21L232.11 276.12L232.42 276.03L232.74 275.96L233.06 275.9L233.38 275.86L233.71 275.82L234.04 275.8L234.37 275.8L245.06 275.8L245.4 275.8L245.73 275.82L246.05 275.86L246.38 275.9L246.7 275.96L247.01 276.03L247.32 276.12L247.62 276.21L247.92 276.32L248.22 276.43L248.5 276.56L248.79 276.7L249.06 276.85L249.33 277.01L249.59 277.18L249.85 277.36L250.1 277.55L250.34 277.75L250.57 277.95L250.79 278.17L251.01 278.39L251.21 278.63L251.41 278.87L251.6 279.11L251.78 279.37L251.95 279.63L252.11 279.9L252.26 280.18L252.4 280.46L252.53 280.75L252.65 281.04L252.75 281.34L252.85 281.64L252.93 281.95L253 282.27L253.06 282.58L253.1 282.91L253.14 283.23L253.16 283.56L253.16 283.9L253.16 353.43L253.16 353.76L253.14 354.09L253.1 354.42L253.06 354.74L253 355.06L252.93 355.37L252.85 355.68L252.75 355.99L252.65 356.29L252.53 356.58L252.4 356.87L252.26 357.15L252.11 357.43L251.95 357.7L251.78 357.96L251.6 358.21L251.41 358.46L251.21 358.7L251.01 358.93L250.79 359.16L250.57 359.37L250.34 359.58L250.1 359.78L249.85 359.97L249.59 360.15L249.33 360.32L249.06 360.48L248.79 360.62L248.5 360.76L248.22 360.89L247.92 361.01L247.62 361.12L247.32 361.21L247.01 361.29L246.7 361.36L246.38 361.42L246.05 361.47L245.73 361.5L245.4 361.52L245.06 361.53L234.47 361.53L234.14 361.52L233.81 361.5L233.48 361.47L233.16 361.42L232.84 361.36L232.52 361.29L232.21 361.21L231.91 361.12L231.61 361.01L231.32 360.89L231.03 360.76L230.75 360.62L230.47 360.48L230.2 360.32L229.94 360.15L229.69 359.97L229.44 359.78L229.2 359.58L228.97 359.37L228.74 359.16L228.53 358.93L228.32 358.7L228.12 358.46L227.93 358.21L227.75 357.96L227.58 357.7L227.42 357.43L227.27 357.15L227.13 356.87L227.01 356.58L226.89 356.29L226.78 355.99L226.69 355.68L226.61 355.37L226.53 355.06L226.48 354.74L226.43 354.42L226.4 354.09L226.38 353.76L226.37 353.43L226.37 330.42L213.14 330.42L213.14 353.43L213.14 353.76L213.12 354.09L213.08 354.42L213.04 354.74L212.98 355.06L212.91 355.37L212.83 355.68L212.73 355.99L212.63 356.29L212.51 356.58L212.38 356.87L212.24 357.15L212.09 357.43L211.93 357.7L211.76 357.96L211.58 358.21L211.39 358.46L211.19 358.7L210.99 358.93L210.77 359.16L210.55 359.37L210.32 359.58L210.08 359.78L209.83 359.97L209.57 360.15L209.31 360.32L209.04 360.48L208.77 360.62L208.48 360.76L208.2 360.89L207.9 361.01L207.6 361.12L207.3 361.21L206.99 361.29L206.68 361.36L206.36 361.42L206.03 361.47L205.71 361.5L205.38 361.52L205.04 361.53L194.37 361.53L194.15 361.53L193.94 361.52L193.72 361.5L193.51 361.48L193.29 361.46L193.08 361.43L192.87 361.39L192.66 361.35L192.46 361.3L192.25 361.25L192.05 361.19L191.85 361.13L191.65 361.06L191.45 360.99L191.25 360.91L191.06 360.83L190.87 360.74L190.68 360.65L190.5 360.55L190.31 360.45L190.13 360.34L189.95 360.23L189.78 360.11L189.61 359.99L189.44 359.86L189.27 359.73L189.11 359.6L188.95 359.46L188.8 359.32L188.64 359.17L188.5 359.02L188.35 358.86L188.21 358.7L188.07 358.54L187.94 358.37L187.81 358.2L187.69 358.03L187.57 357.85L187.45 357.66L187.34 357.48L187.29 357.52L187.23 357.56L187.18 357.6L187.13 357.64L187.07 357.69L187.02 357.73L186.96 357.76L186.9 357.8L186.85 357.84L186.79 357.88L186.74 357.92L186.68 357.96L186.62 357.99L186.56 358.03L186.51 358.06L186.45 358.1L186.39 358.13L186.33 358.17L186.27 358.2L186.21 358.23L186.15 358.27L186.09 358.3L186.03 358.33L185.97 358.36L185.91 358.39L185.85 358.42L185.79 358.45L185.73 358.48L185.67 358.51L185.6 358.54L185.54 358.57L185.48 358.6L185.42 358.62L185.35 358.65L185.29 358.67L185.23 358.7L185.16 358.72L185.1 358.75L185.04 358.77L184.97 358.79L184.42 359L183.87 359.2L183.31 359.39L182.76 359.58L182.2 359.77L181.64 359.95L181.08 360.12L180.52 360.29L179.96 360.46L179.39 360.62L178.83 360.77L178.26 360.92L177.69 361.07L177.12 361.21L176.55 361.34L175.98 361.47L175.41 361.6L174.83 361.72L174.26 361.84L173.69 361.95L173.11 362.05L172.53 362.16L171.95 362.25L171.37 362.34L170.8 362.43L170.21 362.51L169.63 362.59L169.05 362.66L168.47 362.73L167.89 362.79L167.3 362.85L166.72 362.9L166.13 362.94L165.55 362.99L164.96 363.02L164.37 363.05L163.79 363.08L163.2 363.1L162.61 363.12L162.03 363.13L161.04 363.12L160.06 363.1L159.09 363.06L158.13 363L157.18 362.93L156.24 362.85L155.31 362.75L154.38 362.63L153.47 362.5L152.56 362.35L151.66 362.19L150.77 362.01L149.89 361.82L149.02 361.61L148.16 361.38L147.31 361.14L146.46 360.89L145.63 360.62L144.8 360.33L143.98 360.03L143.18 359.71L142.38 359.38L141.59 359.04L140.81 358.68L140.04 358.3L139.28 357.91L138.53 357.5L137.79 357.08L137.05 356.64L136.33 356.19L135.62 355.72L134.91 355.24L134.22 354.75L133.53 354.24L132.86 353.71L132.19 353.17L131.53 352.61L130.89 352.04L130.25 351.46L129.62 350.86L129.35 350.59L129.07 350.32L128.8 350.04L128.54 349.77L128.27 349.49L128.01 349.21L127.75 348.93L127.49 348.64L127.24 348.36L126.99 348.07L126.74 347.78L126.5 347.48L126.25 347.19L126.02 346.89L125.78 346.59L125.54 346.29L125.31 345.98L125.09 345.67L124.86 345.36L124.64 345.05L124.42 344.74L124.2 344.42L123.99 344.11L123.78 343.79L123.57 343.47L123.37 343.14L123.17 342.82L122.97 342.49L122.77 342.16L122.58 341.83L122.39 341.5L122.21 341.16L122.02 340.83L121.84 340.49L121.67 340.15L121.49 339.81L121.32 339.46L121.16 339.12L120.99 338.77L120.83 338.42L120.75 338.94L120.65 339.46L120.54 339.97L120.43 340.48L120.3 340.99L120.17 341.5L120.02 342L119.87 342.49L119.7 342.99L119.53 343.48L119.34 343.96L119.15 344.45L118.95 344.92L118.74 345.4L118.52 345.87L118.29 346.33L118.05 346.79L117.8 347.24L117.54 347.69L117.28 348.14L117.01 348.58L116.72 349.01L116.43 349.44L116.13 349.86L115.82 350.28L115.51 350.69L115.18 351.09L114.85 351.49L114.51 351.88L114.16 352.27L113.81 352.65L113.44 353.02L113.07 353.38L112.69 353.74L112.3 354.09L111.91 354.44L111.51 354.77L111.1 355.1L110.68 355.42L110.26 355.74L109.76 356.1L109.26 356.45L108.75 356.8L108.23 357.13L107.71 357.46L107.18 357.78L106.64 358.09L106.09 358.39L105.53 358.68L104.97 358.96L104.4 359.23L103.82 359.49L103.24 359.75L102.64 359.99L102.04 360.23L101.44 360.46L100.82 360.67L100.2 360.88L99.57 361.08L98.93 361.27L98.29 361.45L97.64 361.62L96.98 361.79L96.32 361.94L95.65 362.08L94.97 362.22L94.28 362.34L93.59 362.46L92.89 362.57L92.18 362.66L91.47 362.75L90.75 362.83L90.02 362.9L89.29 362.96L88.54 363.01L87.8 363.05L87.04 363.09L86.28 363.11L85.51 363.12L84.74 363.13L84.1 363.11L83.45 363.08L82.81 363.05L82.16 363.02L81.52 362.98L80.88 362.94L80.24 362.89L79.59 362.84L78.95 362.79L78.31 362.73L77.67 362.66L77.03 362.6L76.39 362.53L75.75 362.45L75.11 362.37L74.48 362.29L73.84 362.2L73.2 362.11L72.57 362.02L71.93 361.92L71.3 361.81L70.66 361.71L70.03 361.59L69.4 361.48L68.76 361.36L68.13 361.23L67.5 361.11L66.87 360.97L66.24 360.84L65.61 360.7L64.99 360.56L64.36 360.41L63.74 360.26L63.11 360.1L62.49 359.94L61.86 359.77L61.24 359.61L60.62 359.43L60 359.26L59.38 359.08L59.12 359.01L58.86 358.92L58.6 358.83L58.35 358.74L58.1 358.63L57.85 358.52L57.62 358.39L57.38 358.27L57.15 358.13L56.93 357.99L56.71 357.84L56.5 357.68L56.29 357.52L56.09 357.35L55.9 357.17L55.71 356.99L55.52 356.8L55.35 356.61L55.18 356.41L55.01 356.21L54.85 356L54.7 355.78L54.56 355.56L54.42 355.34L54.29 355.11L54.17 354.88L54.06 354.64L53.95 354.4L53.85 354.16L53.76 353.91L53.68 353.66L53.6 353.4L53.53 353.14L53.47 352.88L53.42 352.62L53.38 352.35L53.35 352.08L53.33 351.81L53.31 351.54L53.31 351.26L53.31 340.67L53.31 340.33L53.33 340L53.37 339.68L53.41 339.35L53.47 339.04L53.54 338.72L53.62 338.41L53.72 338.11L53.83 337.81L53.94 337.51L54.07 337.23L54.21 336.95L54.36 336.67L54.52 336.4L54.69 336.14L54.87 335.88L55.06 335.64L55.26 335.4L55.46 335.16L55.68 334.94L55.9 334.72L56.14 334.52L56.38 334.32L56.62 334.13L56.88 333.95L57.14 333.78L57.41 333.62L57.68 333.47L57.97 333.33L58.25 333.2L58.55 333.09L58.85 332.98L59.15 332.89L59.46 332.8L59.77 332.73L60.09 332.67L60.42 332.63L60.74 332.59L61.07 332.57L61.41 332.57L61.49 332.57L61.58 332.57L61.67 332.58L61.75 332.58L61.84 332.59L61.92 332.59L62.01 332.6L62.09 332.61L62.18 332.62L62.26 332.63L62.35 332.64L62.43 332.66L62.52 332.67L62.6 332.68L62.69 332.7L62.77 332.72L62.85 332.73L62.94 332.75L63.02 332.77L63.1 332.79L63.19 332.81L63.27 332.83L63.35 332.85L63.43 332.88L63.52 332.9L63.6 332.93L63.68 332.95L63.76 332.98L63.84 333.01L63.92 333.04L64 333.07L64.08 333.1L64.16 333.13L64.24 333.16L64.32 333.2L64.4 333.23L64.48 333.27L64.55 333.3L64.63 333.34L64.71 333.38L65.33 333.65L65.95 333.91L66.56 334.17L67.17 334.43L67.77 334.67L68.37 334.91L68.96 335.15L69.54 335.38L70.12 335.6L70.69 335.81L71.26 336.02L71.82 336.22L72.37 336.42L72.92 336.61L73.46 336.79L73.99 336.96L74.52 337.13L75.05 337.29L75.56 337.45L76.07 337.6L76.58 337.74L77.08 337.87L77.57 338L78.05 338.12L78.53 338.23L79.01 338.34L79.47 338.44L79.94 338.53L80.39 338.62L80.84 338.69L81.28 338.77L81.71 338.83L82.14 338.88L82.57 338.93L82.98 338.97L83.39 339.01L83.79 339.03L84.19 339.05L84.58 339.06L84.96 339.07L85.17 339.08L85.38 339.08L85.59 339.09L85.8 339.09L86.02 339.09L86.23 339.08L86.44 339.08L86.65 339.07L86.85 339.05L87.06 339.04L87.27 339.02L87.48 339L87.69 338.97L87.9 338.94L88.1 338.91L88.31 338.88L88.52 338.85L88.72 338.81L88.93 338.77L89.13 338.72L89.34 338.68L89.54 338.63L89.74 338.58L89.95 338.52L90.15 338.47L90.35 338.41L90.55 338.34L90.75 338.28L90.94 338.21L91.14 338.14L91.34 338.07L91.53 337.99L91.73 337.91L91.92 337.83L92.12 337.75L92.31 337.66L92.5 337.57L92.69 337.48L92.88 337.38L93.06 337.29L93.14 337.23L93.22 337.18L93.29 337.13L93.35 337.08L93.42 337.04L93.48 336.99L93.53 336.94L93.59 336.9L93.64 336.85L93.68 336.81L93.73 336.77L93.77 336.73L93.81 336.69L93.84 336.65L93.87 336.61L93.9 336.57L93.93 336.53L93.96 336.49L93.98 336.45L94 336.42L94.02 336.38L94.04 336.34L94.05 336.3L94.07 336.27L94.08 336.23L94.09 336.2L94.1 336.16L94.11 336.12L94.11 336.09L94.12 336.05L94.12 336.01L94.13 335.98L94.13 335.94L94.13 335.9L94.13 335.86L94.14 335.82L94.14 335.79L94.14 335.75L94.14 335.71L94.14 335.67L94.14 335.48L93.92 335.36L93.71 335.23L93.5 335.11L93.28 334.98L93.07 334.86L92.85 334.74L92.63 334.62L92.42 334.51L92.2 334.39L91.98 334.27L91.76 334.16L91.54 334.05L91.32 333.94L91.1 333.83L90.88 333.72L90.66 333.61L90.43 333.5L90.21 333.4L89.98 333.3L89.76 333.19L89.53 333.09L89.31 332.99L89.08 332.9L88.85 332.8L88.63 332.7L88.4 332.61L88.17 332.52L87.94 332.43L87.71 332.34L87.48 332.25L87.25 332.16L87.02 332.07L86.78 331.99L86.55 331.9L86.32 331.82L86.08 331.74L85.85 331.66L85.62 331.58L85.38 331.51L85.14 331.43L78.02 328.84L77.39 328.6L76.78 328.36L76.18 328.12L75.58 327.88L75 327.64L74.42 327.39L73.86 327.15L73.3 326.91L72.75 326.66L72.22 326.42L71.69 326.18L71.17 325.93L70.66 325.69L70.16 325.44L69.67 325.19L69.19 324.94L68.71 324.69L68.25 324.45L67.79 324.2L67.34 323.94L66.91 323.69L66.48 323.44L66.06 323.19L65.65 322.93L65.24 322.68L64.85 322.42L64.46 322.16L64.08 321.9L63.72 321.64L63.36 321.38L63 321.12L62.66 320.86L62.33 320.6L62 320.33L61.68 320.06L61.37 319.8L61.07 319.53L60.78 319.26L60.49 318.99L60.21 318.71L59.89 318.37L59.58 318.03L59.27 317.67L58.97 317.31L58.68 316.95L58.4 316.58L58.12 316.21L57.86 315.83L57.6 315.45L57.34 315.06L57.1 314.67L56.86 314.27L56.64 313.87L56.42 313.46L56.2 313.05L56 312.64L55.81 312.22L55.62 311.8L55.44 311.38L55.27 310.95L55.11 310.52L54.96 310.09L54.81 309.65L54.68 309.21L54.55 308.77L54.43 308.32L54.32 307.87L54.22 307.42L54.13 306.97L54.04 306.52L53.97 306.06L53.9 305.6L53.85 305.14L53.8 304.68L53.76 304.22L53.73 303.75L53.71 303.29L53.7 302.82L53.7 302.35L53.71 301.88L53.7 301.28L53.7 300.68L53.71 300.08L53.74 299.49L53.78 298.89L53.83 298.3L53.9 297.71L53.98 297.13L54.07 296.54L54.18 295.96L54.3 295.39L54.44 294.81L54.58 294.24L54.74 293.68L54.92 293.11L55.1 292.56L55.3 292L55.51 291.46L55.73 290.91L55.97 290.38L56.21 289.84L56.47 289.32L56.74 288.8L57.02 288.28L57.32 287.78L57.63 287.27L57.94 286.78L58.27 286.29L58.61 285.81L58.97 285.34L59.33 284.87L59.7 284.42L60.09 283.97L60.49 283.53L60.89 283.09L61.31 282.67L61.74 282.25L62.18 281.85L62.63 281.45L63.09 281.06L63.52 280.72L63.96 280.39L64.4 280.06L64.86 279.75L65.32 279.44L65.79 279.14L66.26 278.85L66.75 278.57L67.24 278.29L67.74 278.03L68.24 277.77L68.76 277.53L69.28 277.29L69.81 277.06L70.34 276.84L70.89 276.62L71.44 276.42L72 276.22L72.56 276.04L73.13 275.86L73.71 275.69L74.3 275.53L74.9 275.38L75.5 275.23L76.11 275.1L76.72 274.97L77.35 274.85L77.98 274.74L78.62 274.64L79.26 274.55L79.91 274.47L80.57 274.4L81.24 274.33L81.91 274.27L82.59 274.23L83.28 274.19L83.97 274.16L84.67 274.13L85.38 274.12L86.1 274.12L86.69 274.13L87.28 274.14L87.87 274.16L88.46 274.19L89.05 274.21L89.64 274.25L90.23 274.28L90.82 274.32L91.41 274.36L92 274.41L92.59 274.46L93.17 274.52L93.76 274.58L94.35 274.64L94.93 274.71L95.52 274.79L96.1 274.86L96.69 274.94L97.27 275.03L97.86 275.11L98.44 275.21L99.02 275.3L99.6 275.4L100.18 275.51L100.76 275.62L101.34 275.73L101.92 275.85L102.5 275.97L103.08 276.09L103.65 276.22L104.23 276.35L104.8 276.49L105.38 276.63L105.95 276.77L106.52 276.92L107.09 277.07L107.66 277.23L108.23 277.39L108.8 277.55L109.37 277.72L109.63 277.8L109.89 277.88L110.14 277.97L110.39 278.07L110.63 278.18L110.87 278.3L111.11 278.42L111.34 278.55L111.56 278.69L111.78 278.83L112 278.98L112.21 279.14L112.41 279.3L112.61 279.47L112.8 279.65L112.99 279.83L113.17 280.02L113.34 280.21L113.51 280.41L113.67 280.61L113.83 280.82L113.97 281.03L114.11 281.25L114.25 281.47L114.38 281.7L114.5 281.93L114.61 282.17L114.71 282.41L114.81 282.65L114.9 282.9L114.98 283.15L115.05 283.4L115.12 283.66L115.18 283.91L115.23 284.18L115.27 284.44L115.3 284.71L115.32 284.98L115.34 285.25L115.34 285.52L115.34 294.69L115.34 295.03L115.31 295.36L115.28 295.68L115.24 296.01L115.18 296.33L115.11 296.64L115.02 296.95L114.93 297.25L114.82 297.55L114.71 297.85L114.58 298.13L114.44 298.42L114.29 298.69L114.13 298.96L113.96 299.22L113.78 299.48L113.59 299.73L113.39 299.97L113.18 300.2L112.97 300.42L112.74 300.64L112.51 300.84L112.27 301.04L112.03 301.23L111.77 301.41L111.51 301.58L111.24 301.74L110.96 301.89L110.68 302.03L110.39 302.16L110.1 302.28L109.8 302.38L109.5 302.48L109.19 302.56L108.87 302.63L108.55 302.69L108.23 302.73L107.9 302.77L107.57 302.79L107.24 302.79L107.17 302.8L107.09 302.8L107.02 302.8L106.94 302.8L106.87 302.8L106.8 302.8L106.72 302.8L106.65 302.8L106.57 302.79L106.5 302.79L106.43 302.79L106.35 302.78L106.28 302.78L106.2 302.77L106.13 302.76L106.06 302.76L105.98 302.75L105.91 302.74L105.84 302.73L105.76 302.72L105.69 302.71L105.62 302.7L105.55 302.69L105.47 302.68L105.4 302.66L105.33 302.65L105.25 302.64L105.18 302.62L105.11 302.6L105.04 302.59L104.97 302.57L104.89 302.55L104.82 302.54L104.75 302.52L104.68 302.5L104.61 302.48L104.54 302.46L104.47 302.43L104.39 302.41L104.32 302.39L103.9 302.21L103.47 302.03L103.04 301.86L102.6 301.69L102.17 301.53L101.73 301.37L101.3 301.21L100.86 301.06L100.42 300.91L99.98 300.77L99.54 300.63L99.1 300.49L98.65 300.36L98.21 300.23L97.76 300.1L97.31 299.98L96.87 299.87L96.42 299.76L95.97 299.65L95.52 299.54L95.06 299.45L94.61 299.35L94.16 299.26L93.7 299.17L93.25 299.09L92.79 299.01L92.33 298.93L91.88 298.86L91.42 298.8L90.96 298.73L90.5 298.68L90.04 298.62L89.58 298.57L89.12 298.53L88.66 298.48L88.19 298.45L87.73 298.41L87.27 298.38L86.8 298.36L86.34 298.34L86 298.34L85.68 298.35L85.37 298.35L85.07 298.36L84.78 298.38L84.5 298.39L84.23 298.41L83.96 298.43L83.71 298.45L83.47 298.48L83.24 298.5L83.02 298.53L82.81 298.56L82.61 298.59L82.41 298.63L82.23 298.66L82.05 298.69L81.88 298.73L81.72 298.76L81.57 298.8L81.43 298.84L81.29 298.87L81.16 298.91L81.04 298.95L80.93 298.98L80.82 299.02L80.72 299.06L80.63 299.09L80.54 299.13L80.46 299.16L80.39 299.19L80.32 299.22L80.26 299.25L80.2 299.28L80.15 299.31L80.11 299.33L80.07 299.36L80.03 299.38L80 299.4L79.98 299.41L79.98 299.98L79.98 299.99L79.98 300.01L79.97 300.02L79.97 300.03L79.97 300.04L79.97 300.06L79.97 300.08L79.97 300.09L79.97 300.1L79.97 300.12L79.97 300.13L79.97 300.14L79.97 300.15L79.96 300.17L79.96 300.18L79.96 300.2L79.96 300.21L79.97 300.24L79.97 300.25L79.97 300.26L79.97 300.27L79.97 300.29L79.97 300.3L79.97 300.31L79.97 300.32L79.97 300.34L79.97 300.35L79.97 300.36L79.98 300.37L79.98 300.39L79.98 300.41L80.15 300.51L80.32 300.61L80.49 300.71L80.67 300.82L80.84 300.91L81.01 301.01L81.19 301.11L81.36 301.21L81.54 301.3L81.72 301.4L81.89 301.49L82.07 301.58L82.25 301.67L82.43 301.76L82.61 301.85L82.79 301.94L82.97 302.02L83.15 302.11L83.33 302.19L83.51 302.27L83.69 302.35L83.87 302.43L84.06 302.51L84.24 302.59L84.43 302.66L84.61 302.74L84.8 302.81L84.98 302.89L85.17 302.96L85.36 303.03L85.54 303.1L85.73 303.17L85.92 303.23L86.11 303.3L86.3 303.36L86.49 303.43L86.68 303.49L86.87 303.55L87.06 303.61L87.25 303.67L94.08 306.06L100.5 308.32L100.99 308.48L101.47 308.64L101.95 308.81L102.43 308.98L102.91 309.16L103.38 309.36L103.85 309.55L104.31 309.76L104.78 309.97L105.23 310.19L105.69 310.42L106.14 310.65L106.58 310.89L107.02 311.14L107.46 311.4L107.89 311.66L108.32 311.93L108.75 312.2L109.17 312.49L109.58 312.78L109.99 313.07L110.4 313.37L110.8 313.68L111.2 314L111.59 314.32L111.97 314.65L112.35 314.98L112.73 315.32L113.1 315.67L113.47 316.02L113.82 316.38L114.18 316.74L114.53 317.11L114.87 317.49L115.21 317.87L115.54 318.26L115.86 318.65L116.18 319.05L116.49 319.46L116.8 319.87L116.8 319.1L116.81 318.11L116.83 317.14L116.87 316.17L116.92 315.21L116.99 314.26L117.08 313.32L117.18 312.39L117.3 311.47L117.43 310.55L117.57 309.65L117.74 308.75L117.92 307.86L118.11 306.98L118.32 306.11L118.54 305.25L118.78 304.4L119.04 303.56L119.31 302.72L119.6 301.9L119.9 301.08L120.22 300.27L120.55 299.48L120.9 298.69L121.27 297.91L121.65 297.14L122.04 296.38L122.45 295.62L122.88 294.88L123.32 294.15L123.78 293.42L124.25 292.71L124.74 292L125.25 291.31L125.77 290.62L126.3 289.94L126.85 289.27L127.42 288.61L128 287.96L128.6 287.32L129.22 286.69L129.84 286.08L130.48 285.47L131.12 284.89L131.78 284.31L132.44 283.76L133.11 283.22L133.79 282.69L134.48 282.18L135.18 281.69L135.89 281.21L136.61 280.74L137.34 280.3L138.08 279.86L138.82 279.45L139.58 279.05L140.34 278.66L141.12 278.29L141.9 277.94L142.69 277.6L143.49 277.28L144.3 276.97L145.11 276.68L145.94 276.4L146.78 276.14L147.62 275.9L148.47 275.67L149.33 275.45L150.21 275.26L151.08 275.07L151.97 274.91L152.87 274.76L153.77 274.62L154.69 274.5L155.61 274.4L156.54 274.31L157.48 274.24L158.42 274.19L159.38 274.15L160.34 274.12L161.32 274.12L161.88 274.12L162.44 274.14ZM159.56 298.35L159.09 298.39L158.62 298.44L158.15 298.5L157.68 298.59L157.22 298.68L156.77 298.79L156.32 298.92L155.87 299.06L155.43 299.21L154.99 299.38L154.56 299.56L154.13 299.76L153.72 299.97L153.3 300.19L152.9 300.43L152.5 300.68L152.11 300.94L151.73 301.22L151.36 301.51L151 301.81L150.64 302.13L150.3 302.45L149.96 302.79L149.64 303.14L149.33 303.5L148.96 303.95L148.61 304.41L148.28 304.87L147.95 305.34L147.64 305.82L147.34 306.31L147.06 306.81L146.79 307.31L146.53 307.81L146.29 308.33L146.06 308.85L145.84 309.37L145.64 309.9L145.46 310.44L145.28 310.98L145.13 311.52L144.98 312.07L144.85 312.63L144.74 313.18L144.64 313.74L144.55 314.31L144.48 314.87L144.43 315.44L144.39 316.01L144.37 316.58L144.36 317.16L144.36 317.73L144.38 318.31L144.38 318.39L144.38 318.47L144.37 318.55L144.37 318.64L144.37 318.72L144.36 318.8L144.36 318.88L144.36 318.96L144.36 319.04L144.36 319.13L144.36 319.21L144.36 319.29L144.35 319.37L144.35 319.45L144.35 319.53L144.36 319.62L144.36 319.7L144.36 319.78L144.36 319.86L144.36 319.94L144.36 320.03L144.36 320.11L144.37 320.19L144.37 320.27L144.37 320.35L144.38 320.43L144.38 320.52L144.38 320.6L144.48 321.7L144.65 322.78L144.87 323.85L145.15 324.88L145.48 325.89L145.87 326.88L146.31 327.83L146.81 328.76L147.35 329.65L147.93 330.51L148.57 331.33L149.24 332.12L149.96 332.86L150.71 333.57L151.5 334.23L152.33 334.85L153.19 335.43L154.09 335.96L155.01 336.44L155.96 336.86L156.94 337.24L157.94 337.56L158.96 337.83L160.01 338.04L161.07 338.19L162.15 338.28L163.25 338.31L164.35 338.28L164.9 338.25L165.44 338.21L165.98 338.17L166.52 338.12L167.06 338.06L167.59 338L168.13 337.93L168.67 337.85L169.2 337.77L169.74 337.68L170.27 337.58L170.8 337.48L171.33 337.37L171.86 337.25L172.38 337.13L172.91 337L173.43 336.86L173.95 336.72L174.47 336.57L174.99 336.41L175.51 336.24L176.02 336.07L176.53 335.9L177.04 335.71L177.55 335.52L178.05 335.33L178.56 335.13L179.06 334.92L179.16 334.88L179.26 334.84L179.36 334.81L179.46 334.77L179.56 334.74L179.66 334.71L179.77 334.68L179.87 334.65L179.97 334.62L180.07 334.6L180.18 334.57L180.28 334.55L180.39 334.53L180.49 334.51L180.6 334.49L180.7 334.47L180.81 334.46L180.91 334.44L181.02 334.43L181.12 334.42L181.23 334.4L181.34 334.4L181.44 334.39L181.55 334.38L181.65 334.38L181.76 334.37L181.87 334.37L181.97 334.37L182.13 334.37L182.29 334.38L182.45 334.39L182.61 334.41L182.77 334.42L182.93 334.44L183.08 334.47L183.24 334.49L183.4 334.52L183.55 334.56L183.71 334.59L183.86 334.63L184.01 334.67L184.16 334.72L184.31 334.77L184.46 334.82L184.61 334.87L184.76 334.93L184.91 334.99L185.05 335.05L185.2 335.12L185.34 335.19L185.48 335.26L185.62 335.34L185.76 335.41L185.9 335.5L186.03 335.58L186.17 335.67L186.17 301.44L185.42 301.98L185.28 302.07L185.13 302.16L184.99 302.24L184.85 302.32L184.7 302.39L184.55 302.47L184.4 302.54L184.25 302.6L184.1 302.67L183.95 302.73L183.79 302.78L183.64 302.84L183.48 302.89L183.32 302.94L183.16 302.98L183 303.02L182.84 303.06L182.68 303.1L182.52 303.13L182.36 303.15L182.2 303.18L182.03 303.2L181.87 303.22L181.7 303.23L181.54 303.25L181.37 303.25L181.21 303.26L181.04 303.26L180.92 303.26L180.79 303.26L180.67 303.25L180.54 303.24L180.42 303.23L180.3 303.22L180.17 303.21L180.05 303.2L179.93 303.18L179.8 303.16L179.68 303.14L179.56 303.12L179.44 303.1L179.31 303.07L179.19 303.05L179.07 303.02L178.95 302.99L178.83 302.95L178.71 302.92L178.59 302.88L178.47 302.85L178.36 302.81L178.24 302.76L178.12 302.72L178.01 302.68L177.89 302.63L177.78 302.58L177.66 302.53L177.1 302.26L176.54 302L175.98 301.74L175.41 301.49L174.84 301.26L174.26 301.03L173.68 300.81L173.1 300.6L172.52 300.4L171.93 300.21L171.34 300.02L170.75 299.85L170.15 299.69L169.55 299.53L168.95 299.39L168.35 299.25L167.75 299.12L167.14 299L166.53 298.89L165.92 298.79L165.31 298.7L164.7 298.62L164.08 298.55L163.47 298.49L162.85 298.44L162.23 298.4L161.61 298.36L160.99 298.34L160.51 298.33L160.04 298.33L159.56 298.35Z" id="e1PPnoQl0v"></path><path d="M312.15 275.81L312.41 275.82L312.66 275.84L312.91 275.87L313.15 275.91L313.4 275.96L313.64 276.01L313.88 276.07L314.12 276.14L314.35 276.21L314.59 276.3L314.81 276.38L315.04 276.48L315.26 276.58L315.48 276.69L315.7 276.8L315.91 276.92L316.12 277.05L316.32 277.19L316.52 277.32L316.72 277.47L316.91 277.62L317.09 277.78L317.28 277.94L317.45 278.11L317.62 278.28L317.79 278.46L317.95 278.65L318.11 278.83L318.26 279.03L318.41 279.23L318.54 279.43L318.68 279.64L318.81 279.85L318.93 280.07L319.04 280.29L319.15 280.52L319.25 280.75L319.35 280.99L319.43 281.23L319.52 280.98L319.62 280.75L319.72 280.51L319.83 280.29L319.94 280.06L320.07 279.84L320.2 279.63L320.33 279.42L320.47 279.21L320.62 279.01L320.77 278.82L320.93 278.63L321.09 278.44L321.26 278.26L321.44 278.09L321.61 277.92L321.8 277.76L321.99 277.6L322.18 277.45L322.38 277.3L322.58 277.16L322.79 277.03L323 276.9L323.21 276.78L323.43 276.67L323.65 276.56L323.88 276.46L324.1 276.36L324.34 276.28L324.57 276.2L324.81 276.12L325.05 276.06L325.29 276L325.53 275.95L325.78 275.9L326.03 275.87L326.28 275.84L326.54 275.82L326.79 275.8L327.05 275.8L348.17 275.8L349.64 275.81L351.07 275.85L352.49 275.92L353.88 276.02L355.25 276.15L356.59 276.3L357.91 276.48L359.2 276.69L360.47 276.93L361.72 277.19L362.94 277.48L364.13 277.8L365.3 278.14L366.45 278.51L367.57 278.91L368.66 279.34L369.73 279.79L370.78 280.27L371.8 280.77L372.79 281.3L373.76 281.86L374.7 282.44L375.62 283.05L376.51 283.69L377.38 284.35L378.22 285.03L379.03 285.74L379.82 286.48L380.59 287.24L381.32 288.03L382.03 288.85L382.71 289.68L383.37 290.55L384 291.44L384.6 292.35L385.18 293.29L385.73 294.25L386.25 295.24L386.75 296.25L387.22 297.29L387.22 283.9L387.23 283.56L387.25 283.23L387.28 282.91L387.33 282.58L387.38 282.27L387.46 281.95L387.54 281.64L387.63 281.34L387.74 281.04L387.86 280.75L387.99 280.46L388.12 280.18L388.27 279.9L388.43 279.63L388.6 279.37L388.78 279.11L388.97 278.87L389.17 278.63L389.38 278.39L389.59 278.17L389.82 277.95L390.05 277.75L390.29 277.55L390.54 277.36L390.79 277.18L391.05 277.01L391.32 276.85L391.6 276.7L391.88 276.56L392.17 276.43L392.46 276.32L392.76 276.21L393.07 276.12L393.37 276.03L393.69 275.96L394.01 275.9L394.33 275.86L394.66 275.82L394.99 275.8L395.32 275.8L405.99 275.8L406.33 275.8L406.66 275.82L406.99 275.86L407.31 275.9L407.63 275.96L407.94 276.03L408.25 276.12L408.56 276.21L408.85 276.32L409.15 276.43L409.44 276.56L409.72 276.7L409.99 276.85L410.26 277.01L410.52 277.18L410.78 277.36L411.03 277.55L411.27 277.75L411.5 277.95L411.72 278.17L411.94 278.39L412.15 278.63L412.34 278.87L412.53 279.11L412.71 279.37L412.88 279.63L413.04 279.9L413.19 280.18L413.33 280.46L413.46 280.75L413.58 281.04L413.68 281.34L413.78 281.64L413.86 281.95L413.93 282.27L413.99 282.58L414.04 282.91L414.07 283.23L414.09 283.56L414.1 283.9L414.1 326.11L414.1 326.67L414.11 327.22L414.12 327.75L414.14 328.26L414.16 328.76L414.18 329.24L414.21 329.7L414.25 330.14L414.29 330.57L414.33 330.99L414.37 331.39L414.42 331.77L414.47 332.14L414.52 332.49L414.58 332.83L414.63 333.16L414.69 333.47L414.75 333.77L414.82 334.06L414.88 334.33L414.95 334.59L415.01 334.84L415.08 335.07L415.15 335.29L415.21 335.5L415.28 335.7L415.35 335.89L415.42 336.07L415.48 336.24L415.55 336.39L415.61 336.54L415.68 336.68L415.74 336.8L415.8 336.92L415.86 337.03L415.92 337.13L415.97 337.22L416.02 337.31L416.07 337.38L416.12 337.45L416.14 337.48L416.17 337.52L416.19 337.55L416.22 337.59L416.26 337.64L416.29 337.68L416.33 337.72L416.37 337.77L416.42 337.82L416.47 337.87L416.52 337.92L416.58 337.97L416.64 338.02L416.7 338.07L416.78 338.12L416.85 338.17L416.93 338.23L417.02 338.28L417.12 338.33L417.22 338.38L417.32 338.43L417.43 338.47L417.55 338.52L417.68 338.57L417.81 338.61L417.95 338.66L418.1 338.7L418.25 338.74L418.42 338.77L418.59 338.81L418.77 338.84L418.96 338.87L419.15 338.89L419.36 338.92L419.58 338.94L419.8 338.96L420.04 338.97L420.28 338.98L420.53 338.99L420.8 338.99L420.94 339L421.09 339.01L421.23 339.02L421.38 339.03L421.52 339.03L421.67 339.03L421.81 339.03L421.95 339.02L422.1 339.01L422.24 339L422.38 338.98L422.52 338.97L422.66 338.94L422.8 338.92L422.94 338.89L423.08 338.86L423.22 338.83L423.36 338.8L423.5 338.76L423.63 338.72L423.77 338.68L423.9 338.63L424.04 338.58L424.17 338.53L424.3 338.48L424.43 338.42L424.56 338.36L424.69 338.3L424.82 338.23L424.94 338.16L425.07 338.09L425.19 338.02L425.31 337.95L425.43 337.87L425.55 337.79L425.67 337.7L425.79 337.62L425.9 337.53L426.02 337.44L426.13 337.35L426.17 337.28L426.22 337.2L426.27 337.12L426.32 337.03L426.38 336.93L426.43 336.82L426.49 336.7L426.55 336.57L426.62 336.44L426.68 336.29L426.75 336.13L426.81 335.96L426.88 335.79L426.95 335.6L427.02 335.39L427.08 335.18L427.15 334.96L427.22 334.72L427.29 334.47L427.35 334.21L427.42 333.93L427.48 333.64L427.54 333.34L427.6 333.02L427.66 332.69L427.72 332.35L427.77 331.99L427.82 331.61L427.87 331.22L427.92 330.82L427.96 330.4L428 329.96L428.03 329.51L428.06 329.03L428.09 328.55L428.11 328.04L428.13 327.52L428.14 326.98L428.15 326.42L428.15 325.84L428.15 283.9L428.16 283.56L428.18 283.23L428.21 282.91L428.26 282.58L428.32 282.27L428.39 281.95L428.47 281.64L428.56 281.34L428.67 281.04L428.79 280.75L428.92 280.46L429.06 280.18L429.21 279.9L429.37 279.63L429.54 279.37L429.71 279.11L429.9 278.87L430.1 278.63L430.31 278.39L430.52 278.17L430.75 277.95L430.98 277.75L431.22 277.55L431.47 277.36L431.72 277.18L431.99 277.01L432.25 276.85L432.53 276.7L432.81 276.56L433.1 276.43L433.39 276.32L433.69 276.21L434 276.12L434.31 276.03L434.62 275.96L434.94 275.9L435.26 275.86L435.59 275.82L435.92 275.8L436.25 275.8L445.57 275.8L445.9 275.81L446.22 275.83L446.55 275.87L446.86 275.92L447.18 275.98L447.49 276.05L447.79 276.14L448.09 276.23L448.39 276.34L448.68 276.46L448.96 276.59L449.24 276.72L449.51 276.87L449.77 277.03L450.03 277.2L450.28 277.38L450.53 277.57L450.76 277.77L450.99 277.97L451.21 278.18L451.42 278.41L451.63 278.64L451.82 278.87L452.01 279.12L452.19 279.37L452.35 279.63L452.51 279.89L452.66 280.17L452.8 280.44L452.93 280.73L453.04 281.02L453.15 281.31L453.24 281.61L453.33 281.92L453.4 282.23L453.46 282.54L453.5 282.86L453.54 283.18L453.56 283.51L453.57 283.84L453.57 324.34L453.57 325.1L453.56 325.85L453.55 326.59L453.53 327.31L453.51 328.03L453.48 328.73L453.45 329.43L453.41 330.12L453.37 330.79L453.32 331.46L453.27 332.12L453.21 332.76L453.15 333.4L453.08 334.02L453.01 334.64L452.93 335.25L452.85 335.84L452.76 336.43L452.67 337.01L452.57 337.58L452.47 338.14L452.36 338.68L452.24 339.22L452.13 339.75L452 340.27L451.87 340.78L451.74 341.29L451.6 341.78L451.46 342.26L451.31 342.73L451.15 343.2L450.99 343.65L450.82 344.1L450.65 344.54L450.48 344.96L450.3 345.38L450.11 345.79L449.92 346.19L449.72 346.58L449.52 346.97L449.08 347.76L448.62 348.53L448.15 349.28L447.66 350.02L447.15 350.73L446.64 351.43L446.1 352.11L445.55 352.76L444.99 353.4L444.41 354.02L443.82 354.62L443.21 355.2L442.59 355.76L441.96 356.3L441.31 356.82L440.65 357.32L439.97 357.81L439.28 358.27L438.57 358.71L437.85 359.13L437.12 359.53L436.38 359.92L435.62 360.28L434.84 360.62L434.06 360.94L433.26 361.24L432.45 361.52L431.63 361.78L430.79 362.02L429.94 362.24L429.08 362.44L428.21 362.62L427.32 362.78L426.42 362.91L425.51 363.03L424.59 363.12L423.65 363.2L422.71 363.25L421.75 363.28L420.78 363.29L419.95 363.28L419.13 363.27L418.32 363.23L417.52 363.19L416.73 363.13L415.95 363.07L415.18 362.98L414.42 362.89L413.67 362.78L412.93 362.67L412.19 362.54L411.47 362.39L410.76 362.24L410.06 362.07L409.37 361.89L408.69 361.69L408.01 361.49L407.35 361.27L406.7 361.04L406.06 360.8L405.43 360.54L404.8 360.28L404.19 360L403.59 359.7L403 359.4L402.42 359.08L401.85 358.75L401.29 358.41L400.74 358.06L400.2 357.69L399.67 357.32L399.15 356.93L398.64 356.52L398.14 356.11L397.65 355.68L397.17 355.24L396.7 354.79L396.25 354.33L395.8 353.85L395.36 353.37L395.06 352.99L394.76 352.61L394.46 352.22L394.17 351.83L393.89 351.43L393.61 351.04L393.34 350.63L393.08 350.23L392.82 349.82L392.57 349.41L392.32 348.99L392.08 348.58L391.84 348.15L391.61 347.73L391.39 347.3L391.17 346.87L390.96 346.44L390.75 346L390.56 345.56L390.36 345.12L390.18 344.67L390 344.23L389.82 343.78L389.65 343.32L389.49 342.87L389.34 342.41L389.19 341.95L389.05 341.49L388.91 341.03L388.78 340.56L388.66 340.1L388.54 339.63L388.43 339.15L388.33 338.68L388.23 338.21L388.14 337.73L388.06 337.25L387.98 336.77L387.91 336.29L387.85 335.81L387.74 336.12L387.62 336.43L387.51 336.74L387.39 337.05L387.27 337.36L387.15 337.66L387.02 337.97L386.89 338.27L386.76 338.58L386.63 338.88L386.49 339.18L386.36 339.48L386.22 339.78L386.07 340.08L385.93 340.37L385.78 340.67L385.63 340.96L385.48 341.25L385.32 341.55L385.17 341.84L385.01 342.12L384.85 342.41L384.68 342.7L384.52 342.98L384.35 343.27L384.18 343.55L384 343.83L383.83 344.11L383.65 344.39L383.47 344.66L383.29 344.94L383.1 345.21L382.92 345.49L382.73 345.76L382.54 346.03L382.34 346.29L382.15 346.56L381.95 346.83L381.75 347.09L381.55 347.35L381.25 347.73L380.95 348.1L380.65 348.46L380.34 348.83L380.03 349.18L379.71 349.53L379.38 349.88L379.06 350.23L378.72 350.56L378.39 350.9L378.04 351.22L377.7 351.55L377.35 351.87L376.99 352.18L376.63 352.49L376.27 352.79L375.9 353.09L375.53 353.38L375.16 353.67L374.78 353.95L374.4 354.23L374.01 354.5L373.62 354.77L373.23 355.03L372.83 355.29L372.43 355.54L372.02 355.78L371.61 356.02L371.2 356.26L370.79 356.49L370.37 356.71L369.95 356.93L369.52 357.14L369.09 357.34L368.66 357.54L368.23 357.74L367.79 357.92L367.35 358.11L366.91 358.28L366.46 358.45L365.95 358.62L365.43 358.78L364.92 358.94L364.4 359.09L363.88 359.24L363.36 359.38L362.84 359.52L362.32 359.66L361.79 359.79L361.27 359.91L360.75 360.03L360.22 360.15L359.69 360.26L359.17 360.37L358.64 360.47L358.11 360.57L357.58 360.66L357.05 360.75L356.51 360.84L355.98 360.92L355.45 360.99L354.92 361.06L354.38 361.13L353.85 361.19L353.31 361.25L352.78 361.3L352.24 361.34L351.7 361.39L351.17 361.42L350.63 361.46L350.09 361.49L349.55 361.51L349.01 361.53L348.47 361.54L347.93 361.55L347.39 361.56L346.86 361.56L346.32 361.55L345.78 361.54L345.24 361.53L327.13 361.53L326.94 361.53L326.76 361.52L326.57 361.5L326.39 361.49L326.21 361.47L326.02 361.44L325.84 361.41L325.66 361.38L325.48 361.34L325.3 361.3L325.13 361.26L324.95 361.21L324.78 361.16L324.6 361.1L324.43 361.04L324.26 360.97L324.09 360.91L323.92 360.83L323.76 360.76L323.6 360.68L323.43 360.6L323.27 360.51L323.12 360.42L322.96 360.33L322.81 360.23L322.65 360.13L322.51 360.02L322.36 359.92L322.21 359.81L322.07 359.69L321.93 359.57L321.79 359.45L321.66 359.33L321.53 359.2L321.4 359.07L321.27 358.94L321.14 358.8L321.02 358.66L320.91 358.52L320.79 358.37L320.67 358.52L320.55 358.66L320.43 358.8L320.31 358.94L320.18 359.08L320.05 359.21L319.91 359.34L319.78 359.46L319.64 359.58L319.5 359.7L319.35 359.82L319.21 359.93L319.06 360.04L318.91 360.14L318.75 360.24L318.6 360.34L318.44 360.43L318.28 360.52L318.12 360.61L317.96 360.69L317.79 360.77L317.62 360.85L317.46 360.92L317.29 360.99L317.11 361.05L316.94 361.11L316.77 361.17L316.59 361.22L316.41 361.27L316.23 361.31L316.05 361.35L315.87 361.39L315.69 361.42L315.51 361.45L315.32 361.47L315.14 361.49L314.95 361.51L314.76 361.52L314.58 361.53L314.39 361.53L264.91 361.53L264.58 361.52L264.25 361.5L263.92 361.47L263.6 361.42L263.28 361.36L262.96 361.29L262.66 361.21L262.35 361.12L262.05 361.01L261.76 360.89L261.47 360.76L261.19 360.62L260.91 360.48L260.64 360.32L260.38 360.15L260.13 359.97L259.88 359.78L259.64 359.58L259.41 359.37L259.18 359.16L258.97 358.93L258.76 358.7L258.56 358.46L258.37 358.21L258.19 357.96L258.02 357.7L257.86 357.43L257.71 357.15L257.58 356.87L257.45 356.58L257.33 356.29L257.22 355.99L257.13 355.68L257.05 355.37L256.97 355.06L256.92 354.74L256.87 354.42L256.84 354.09L256.82 353.76L256.81 353.43L256.81 283.9L256.82 283.56L256.84 283.23L256.87 282.91L256.92 282.58L256.97 282.27L257.05 281.95L257.13 281.64L257.22 281.34L257.33 281.04L257.45 280.75L257.58 280.46L257.71 280.18L257.86 279.9L258.02 279.63L258.19 279.37L258.37 279.11L258.56 278.87L258.76 278.63L258.97 278.39L259.18 278.17L259.41 277.95L259.64 277.75L259.88 277.55L260.13 277.36L260.38 277.18L260.64 277.01L260.91 276.85L261.19 276.7L261.47 276.56L261.76 276.43L262.05 276.32L262.35 276.21L262.66 276.12L262.96 276.03L263.28 275.96L263.6 275.9L263.92 275.86L264.25 275.82L264.58 275.8L264.91 275.8L311.9 275.8L312.15 275.81ZM318.81 296.08L318.69 296.27L318.57 296.45L318.44 296.63L318.31 296.81L318.18 296.98L318.04 297.15L317.9 297.32L317.75 297.48L317.6 297.64L317.44 297.79L317.28 297.94L317.12 298.08L316.95 298.22L316.78 298.35L316.61 298.48L316.43 298.61L316.25 298.73L316.06 298.84L315.88 298.95L315.69 299.06L315.5 299.16L315.3 299.25L315.1 299.34L314.9 299.43L314.7 299.5L314.5 299.58L314.29 299.65L314.08 299.71L313.87 299.77L313.66 299.82L313.44 299.86L313.23 299.9L313.01 299.94L312.79 299.97L312.57 299.99L312.35 300.01L312.12 300.02L311.9 300.02L283.54 300.02L283.54 304.82L306.23 304.82L306.56 304.83L306.89 304.85L307.22 304.88L307.54 304.93L307.86 304.98L308.17 305.06L308.48 305.14L308.79 305.23L309.09 305.34L309.38 305.46L309.67 305.59L309.95 305.72L310.23 305.87L310.5 306.03L310.76 306.2L311.01 306.38L311.26 306.57L311.5 306.77L311.73 306.98L311.96 307.19L312.17 307.42L312.38 307.65L312.58 307.89L312.77 308.14L312.95 308.39L313.12 308.65L313.28 308.92L313.42 309.2L313.56 309.48L313.69 309.77L313.81 310.06L313.92 310.36L314.01 310.67L314.09 310.97L314.16 311.29L314.22 311.61L314.27 311.93L314.3 312.26L314.32 312.59L314.33 312.92L314.33 321.02L314.32 321.36L314.3 321.69L314.27 322.01L314.22 322.34L314.16 322.66L314.09 322.97L314.01 323.28L313.92 323.58L313.81 323.88L313.69 324.18L313.56 324.46L313.42 324.75L313.28 325.02L313.12 325.29L312.95 325.55L312.77 325.81L312.58 326.05L312.38 326.3L312.17 326.53L311.96 326.75L311.73 326.97L311.5 327.17L311.26 327.37L311.01 327.56L310.76 327.74L310.5 327.91L310.23 328.07L309.95 328.22L309.67 328.36L309.38 328.49L309.09 328.6L308.79 328.71L308.48 328.81L308.17 328.89L307.86 328.96L307.54 329.02L307.22 329.06L306.89 329.1L306.56 329.12L306.23 329.12L283.54 329.12L283.54 337.23L314.39 337.31L314.51 337.31L314.64 337.31L314.76 337.31L314.89 337.32L315.01 337.33L315.13 337.34L315.26 337.35L315.38 337.37L315.5 337.38L315.62 337.4L315.74 337.42L315.87 337.44L315.99 337.47L316.11 337.49L316.23 337.52L316.35 337.55L316.47 337.58L316.59 337.61L316.7 337.64L316.82 337.68L316.94 337.72L317.05 337.76L317.17 337.8L317.29 337.84L317.4 337.89L317.51 337.93L317.63 337.98L317.74 338.03L317.85 338.08L317.96 338.14L318.07 338.19L318.18 338.25L318.29 338.31L318.4 338.37L318.51 338.43L318.61 338.49L318.72 338.56L318.82 338.63L318.93 338.69L319.03 338.76L319.03 295.69L318.92 295.88L318.81 296.08ZM345.76 337.16L346.76 337.11L347.73 337.04L348.67 336.95L349.58 336.84L350.46 336.72L351.31 336.58L352.12 336.43L352.91 336.26L353.66 336.07L354.38 335.87L355.07 335.66L355.72 335.43L356.33 335.18L356.91 334.92L357.46 334.65L357.96 334.36L358.43 334.06L358.86 333.75L359.25 333.42L359.65 333.02L360.02 332.59L360.38 332.11L360.71 331.6L361.03 331.05L361.32 330.46L361.59 329.83L361.84 329.15L362.07 328.44L362.28 327.69L362.47 326.89L362.63 326.05L362.78 325.17L362.9 324.25L363 323.29L363.08 322.28L363.13 321.23L363.17 320.14L363.18 319L363.17 317.85L363.13 316.74L363.07 315.66L362.99 314.61L362.89 313.6L362.77 312.62L362.63 311.68L362.46 310.78L362.28 309.91L362.08 309.09L361.86 308.31L361.62 307.58L361.36 306.88L361.09 306.23L360.8 305.63L360.5 305.08L360.18 304.57L359.84 304.11L359.49 303.71L359.12 303.34L358.7 302.98L358.25 302.65L357.75 302.34L357.22 302.04L356.65 301.77L356.04 301.51L355.39 301.28L354.7 301.06L353.98 300.86L353.22 300.69L352.43 300.53L351.6 300.4L350.74 300.28L349.84 300.19L348.9 300.12L347.94 300.06L346.94 300.03L345.9 300.02L345.76 300.02L345.76 337.16Z" id="b9gYRXbgi"></path><path d="M484.58 337.23C484.58 305.23 484.58 287.45 484.58 283.9C484.58 279.42 480.95 275.8 476.48 275.8C475.41 275.8 466.89 275.8 465.82 275.8C461.35 275.8 457.72 279.42 457.72 283.9C457.72 290.85 457.72 346.47 457.72 353.43C457.72 357.9 461.35 361.53 465.82 361.53C470.63 361.53 509.13 361.53 513.94 361.53C518.42 361.53 522.05 357.9 522.05 353.43C522.05 352.62 522.05 346.14 522.05 345.33C522.05 340.85 518.42 337.23 513.94 337.23C513.94 337.23 513.93 337.23 513.92 337.23C513.92 337.23 504.14 337.23 484.58 337.23Z" id="b6LWbHHhsE"></path><path d="M551.13 337.23L551.13 329.12C564.78 329.12 572.36 329.12 573.87 329.12C578.35 329.12 581.97 325.5 581.97 321.02C581.97 320.21 581.97 313.73 581.97 312.92C581.97 308.45 578.35 304.82 573.87 304.82C572.36 304.82 564.8 304.82 551.19 304.82L551.19 300.02C568.08 300.02 577.46 300.02 579.34 300.02C583.82 300.02 587.44 296.39 587.44 291.92C587.44 291.11 587.44 284.63 587.44 283.82C587.44 279.34 583.82 275.72 579.34 275.72C574.64 275.72 537.05 275.72 532.35 275.72C527.88 275.72 524.25 279.34 524.25 283.82C524.25 290.78 524.25 346.47 524.25 353.43C524.25 357.9 527.88 361.53 532.35 361.53C537.3 361.53 576.89 361.53 581.83 361.53C586.31 361.53 589.93 357.9 589.93 353.43C589.93 352.62 589.93 346.14 589.93 345.33C589.93 340.85 586.31 337.23 581.83 337.23C581.83 337.23 581.83 337.23 581.83 337.23C577.74 337.23 567.5 337.23 551.13 337.23Z" id="aIxupj1CG"></path><path d="M107.34 294.69C100.7 291.94 93.61 290.43 86.42 290.24C76.76 290.24 71.92 293.48 71.94 299.98C71.84 302.41 72.84 304.75 74.65 306.36C77.64 308.59 81 310.29 84.58 311.36C85.03 311.52 87.31 312.31 91.4 313.73C95.32 315.07 97.49 315.81 97.92 315.96C113.05 321.29 111.54 332.15 113.05 333.94C113.23 340.06 110.32 345.86 105.32 349.38C97.58 355.15 86.71 354.57 84.64 355.15C76.78 354.82 69 353.51 61.47 351.26C61.47 350.2 61.47 341.75 61.47 340.69C75.65 347.07 82.69 346.45 85.04 347.09C89.46 347.3 93.85 346.21 97.66 343.97C100.59 342.23 102.38 339.07 102.38 335.67C102.49 333.23 101.45 330.89 99.58 329.33C96.04 326.94 92.16 325.08 88.08 323.8C87.37 323.53 81.72 321.39 81.01 321.12C70.34 317.07 67.69 313.83 66.21 313.02C63.4 310.02 61.94 306.01 62.16 301.9C61.85 296.33 64.21 290.94 68.52 287.38C72.77 283.94 78.64 282.24 86.44 282.24C93.52 282.37 100.56 283.48 107.34 285.52C107.34 287.35 107.34 293.78 107.34 294.69Z" id="c1IO9dtyMj"></path><path d="M181.97 351.26C175.49 353.69 168.64 354.99 161.72 355.11C145.13 355.11 137.66 346.16 134.99 345.16C124.84 335.22 125.87 321.61 124.86 319C124.86 302.53 133.97 295.05 134.99 292.38C145.11 282.24 158.68 283.27 161.32 282.26C167.97 282.33 174.57 283.37 180.92 285.36C180.92 286.34 180.92 294.18 180.92 295.16C174.68 292.08 167.83 290.4 160.87 290.24C154.07 290.05 147.54 292.96 143.13 298.14C138.35 303.77 135.86 311 136.16 318.39C135.56 333.24 147.11 345.77 161.96 346.38C161.98 346.38 162 346.38 162.03 346.38C162.26 346.38 164.16 346.38 164.39 346.38C170.45 346.14 176.42 344.82 182.02 342.47C182.01 344.23 181.98 349.5 181.97 351.26Z" id="c22D7WMINX"></path><path d="M194.27 353.43L194.27 283.9L204.94 283.9L204.94 314.28L234.37 314.28L234.37 283.9L245.06 283.9L245.06 353.43L234.37 353.43L234.37 322.32L204.94 322.32L204.94 353.43L194.27 353.43Z" id="c58wDH3tTq"></path><path d="M264.83 353.43L264.83 283.9L311.9 283.9L311.9 292L275.44 292L275.44 312.92L306.23 312.92L306.23 321.02L275.44 321.02L275.44 345.33L314.25 345.33L314.25 353.43L264.83 353.43Z" id="b2t42SrDOH"></path><path d="M352.96 284.12L355.22 284.38L357.35 284.74L359.36 285.2L361.24 285.73L363.01 286.35L364.66 287.05L366.2 287.81L367.63 288.64L368.97 289.53L370.21 290.48L371.35 291.47L372.41 292.51L373.38 293.58L374.28 294.69L375.09 295.82L375.84 296.98L376.52 298.15L377.14 299.34L377.7 300.53L378.2 301.72L378.65 302.91L379.06 304.09L379.42 305.25L379.75 306.39L380.05 307.51L380.31 308.59L380.55 309.64L380.78 310.65L380.98 311.61L381.17 312.52L381.36 313.37L381.54 314.16L381.72 314.88L381.91 315.53L382.1 316.1L382.31 316.58L382.54 316.98L382.78 317.28L382.78 318.04L382.77 318.8L382.74 319.56L382.71 320.3L382.67 321.04L382.62 321.77L382.55 322.5L382.48 323.22L382.4 323.92L382.31 324.63L382.22 325.32L382.11 326.01L381.99 326.69L381.86 327.36L381.73 328.03L381.58 328.69L381.42 329.34L381.26 329.98L381.08 330.61L380.9 331.24L380.71 331.86L380.51 332.48L380.29 333.08L380.07 333.68L379.84 334.27L379.6 334.86L379.35 335.43L379.09 336L378.82 336.56L378.55 337.12L378.26 337.67L377.96 338.2L377.66 338.74L377.34 339.26L377.02 339.78L376.68 340.29L376.34 340.79L375.99 341.28L375.62 341.77L375.25 342.25L375.02 342.54L374.8 342.83L374.56 343.11L374.32 343.39L374.08 343.67L373.84 343.94L373.59 344.21L373.34 344.48L373.08 344.74L372.82 345L372.56 345.26L372.3 345.51L372.03 345.76L371.75 346L371.48 346.24L371.2 346.47L370.91 346.71L370.63 346.93L370.34 347.16L370.05 347.38L369.75 347.59L369.45 347.8L369.15 348.01L368.85 348.21L368.54 348.41L368.23 348.6L367.92 348.79L367.61 348.98L367.29 349.16L366.97 349.34L366.64 349.51L366.32 349.68L365.99 349.84L365.66 350L365.33 350.15L364.99 350.3L364.65 350.45L364.31 350.59L363.97 350.72L363.63 350.86L363.18 351L362.73 351.13L362.28 351.27L361.84 351.4L361.39 351.52L360.94 351.64L360.48 351.76L360.03 351.87L359.58 351.98L359.12 352.09L358.67 352.19L358.21 352.29L357.76 352.38L357.3 352.47L356.84 352.56L356.38 352.64L355.92 352.72L355.46 352.8L355 352.87L354.54 352.93L354.08 352.99L353.62 353.05L353.15 353.11L352.69 353.16L352.23 353.21L351.76 353.25L351.3 353.29L350.83 353.32L350.37 353.35L349.9 353.38L349.44 353.4L348.97 353.42L348.5 353.44L348.04 353.45L347.57 353.45L347.1 353.46L346.64 353.46L346.17 353.45L345.7 353.44L345.24 353.43L327.05 353.43L327.05 283.9L348.03 283.9L350.57 283.95L352.96 284.12ZM337.72 345.33L343.09 345.33L344.58 345.31L346 345.26L347.35 345.17L348.63 345.06L349.85 344.92L351.01 344.75L352.1 344.56L353.14 344.36L354.11 344.13L355.04 343.89L355.91 343.63L356.72 343.36L357.49 343.09L358.21 342.8L358.88 342.52L359.52 342.23L360.1 341.94L360.65 341.65L361.17 341.37L361.64 341.1L362.08 340.83L362.49 340.58L362.87 340.34L363.23 340.12L363.55 339.91L363.85 339.73L364.13 339.57L364.39 339.43L364.64 339.33L364.86 339.25L365.49 338.62L366.07 337.96L366.6 337.26L367.1 336.53L367.55 335.78L367.97 335.01L368.35 334.21L368.69 333.4L369.01 332.58L369.29 331.75L369.54 330.92L369.76 330.08L369.96 329.25L370.14 328.42L370.3 327.61L370.43 326.8L370.55 326.02L370.65 325.25L370.74 324.51L370.82 323.8L370.88 323.12L370.94 322.47L371 321.86L371.04 321.3L371.09 320.78L371.13 320.31L371.18 319.89L371.23 319.53L371.28 319.23L371.34 319L371.32 317.58L371.27 316.23L371.19 314.94L371.08 313.72L370.95 312.56L370.79 311.46L370.61 310.42L370.41 309.43L370.19 308.5L369.95 307.62L369.71 306.79L369.45 306.01L369.18 305.27L368.91 304.59L368.63 303.94L368.36 303.34L368.08 302.77L367.8 302.25L367.53 301.76L367.27 301.3L367.01 300.88L366.77 300.48L366.54 300.12L366.32 299.78L366.13 299.47L365.95 299.18L365.79 298.91L365.67 298.66L365.56 298.43L365.49 298.22L365.09 297.81L364.67 297.41L364.24 297.03L363.79 296.66L363.32 296.31L362.84 295.96L362.33 295.64L361.81 295.33L361.27 295.03L360.72 294.74L360.15 294.47L359.56 294.21L358.95 293.97L358.33 293.74L357.69 293.52L357.03 293.32L356.35 293.13L355.66 292.96L354.95 292.8L354.22 292.65L353.47 292.52L352.71 292.4L351.93 292.3L351.13 292.21L350.32 292.13L349.49 292.07L348.64 292.02L347.77 291.99L346.89 291.97L345.98 291.96L337.72 291.96L337.72 345.33Z" id="bdsFd7cIo"></path><path d="M395.18 283.9L405.77 283.9C405.77 309.22 405.77 323.29 405.77 326.11C405.77 333.48 406.95 338.81 409.28 342.13C411.61 345.45 415.35 347.09 420.58 347.09C425.8 347.09 430.04 345.43 432.45 342.13C434.86 338.83 436.07 333.42 436.07 325.92C436.07 323.12 436.07 309.11 436.07 283.9L445.39 283.9C445.39 308.12 445.39 321.57 445.39 324.26C445.39 332.97 444.35 339.21 442.31 343.02C435.75 355.17 422.84 353.95 420.68 355.17C407.62 355.17 403.29 348.72 401.36 348C397.18 343.22 395.1 335.89 395.1 326.01L395.18 283.9Z" id="j1sd7eRCM"></path><path d="M465.82 353.43L465.82 283.9L476.5 283.9L476.5 345.33L513.94 345.33L513.94 353.43L465.82 353.43Z" id="aQBlXTr5A"></path><path d="M532.35 353.43L532.35 283.9L579.34 283.9L579.34 292L543.03 292L543.03 312.92L573.87 312.92L573.87 321.02L543.09 321.02L543.09 345.33L581.89 345.33L581.89 353.43L532.35 353.43Z" id="c2XAheFdJJ"></path></defs><g><g><use xlink:href="#e6b1S5NK6f" opacity="1" fill="#f5e929" fill-opacity="1"></use><g><use xlink:href="#e6b1S5NK6f" opacity="1" fill-opacity="0" stroke="#000000" stroke-width="1" stroke-opacity="0"></use></g></g><g><use xlink:href="#b2ILIi4io9" opacity="1" fill="#231815" fill-opacity="1"></use><g><use xlink:href="#b2ILIi4io9" opacity="1" fill-opacity="0" stroke="#000000" stroke-width="1" stroke-opacity="0"></use></g></g><g><use xlink:href="#e1PPnoQl0v" opacity="1" fill="#231815" fill-opacity="1"></use><g><use xlink:href="#e1PPnoQl0v" opacity="1" fill-opacity="0" stroke="#000000" stroke-width="1" stroke-opacity="0"></use></g></g><g><use xlink:href="#b9gYRXbgi" opacity="1" fill="#231815" fill-opacity="1"></use><g><use xlink:href="#b9gYRXbgi" opacity="1" fill-opacity="0" stroke="#000000" stroke-width="1" stroke-opacity="0"></use></g></g><g><use xlink:href="#b6LWbHHhsE" opacity="1" fill="#231815" fill-opacity="1"></use><g><use xlink:href="#b6LWbHHhsE" opacity="1" fill-opacity="0" stroke="#000000" stroke-width="1" stroke-opacity="0"></use></g></g><g><use xlink:href="#aIxupj1CG" opacity="1" fill="#231815" fill-opacity="1"></use><g><use xlink:href="#aIxupj1CG" opacity="1" fill-opacity="0" stroke="#000000" stroke-width="1" stroke-opacity="0"></use></g></g><g><use xlink:href="#c1IO9dtyMj" opacity="1" fill="#2096d5" fill-opacity="1"></use><g><use xlink:href="#c1IO9dtyMj" opacity="1" fill-opacity="0" stroke="#000000" stroke-width="1" stroke-opacity="0"></use></g></g><g><use xlink:href="#c22D7WMINX" opacity="1" fill="#2096d5" fill-opacity="1"></use><g><use xlink:href="#c22D7WMINX" opacity="1" fill-opacity="0" stroke="#000000" stroke-width="1" stroke-opacity="0"></use></g></g><g><use xlink:href="#c58wDH3tTq" opacity="1" fill="#2096d5" fill-opacity="1"></use><g><use xlink:href="#c58wDH3tTq" opacity="1" fill-opacity="0" stroke="#000000" stroke-width="1" stroke-opacity="0"></use></g></g><g><use xlink:href="#b2t42SrDOH" opacity="1" fill="#2096d5" fill-opacity="1"></use><g><use xlink:href="#b2t42SrDOH" opacity="1" fill-opacity="0" stroke="#000000" stroke-width="1" stroke-opacity="0"></use></g></g><g><use xlink:href="#bdsFd7cIo" opacity="1" fill="#2096d5" fill-opacity="1"></use><g><use xlink:href="#bdsFd7cIo" opacity="1" fill-opacity="0" stroke="#000000" stroke-width="1" stroke-opacity="0"></use></g></g><g><use xlink:href="#j1sd7eRCM" opacity="1" fill="#2096d5" fill-opacity="1"></use><g><use xlink:href="#j1sd7eRCM" opacity="1" fill-opacity="0" stroke="#000000" stroke-width="1" stroke-opacity="0"></use></g></g><g><use xlink:href="#aQBlXTr5A" opacity="1" fill="#2096d5" fill-opacity="1"></use><g><use xlink:href="#aQBlXTr5A" opacity="1" fill-opacity="0" stroke="#000000" stroke-width="1" stroke-opacity="0"></use></g></g><g><use xlink:href="#c2XAheFdJJ" opacity="1" fill="#2096d5" fill-opacity="1"></use><g><use xlink:href="#c2XAheFdJJ" opacity="1" fill-opacity="0" stroke="#000000" stroke-width="1" stroke-opacity="0"></use></g></g></g></svg>