<svg id="レイヤー_1" data-name="レイヤー 1" xmlns="http://www.w3.org/2000/svg" viewBox="0 0 936.88 305"><defs><style>.cls-1{fill:#f5e929;}.cls-2{fill:#231815;}.cls-3{fill:#2096d5;}.cls-4{fill:#fff100;}</style></defs><title>schedule_c</title><rect class="cls-1" x="4.38" y="4.78" width="316" height="72"/><path class="cls-2" d="M322.38,78.78H2.38v-76h320Zm-316-4h312v-68H6.38Z"/><path class="cls-2" d="M127.5,17.58h-5.28a4,4,0,0,0-4,4v11h-6.53v-11a4,4,0,0,0-4-4h-5.27a4,4,0,0,0-3.51,2.11A4,4,0,0,0,97,18.47a38,38,0,0,0-10.89-1.72c-6.43,0-11.76,2.09-15.85,6.21s-6.13,9.49-6.13,16v.38a15.62,15.62,0,0,0-8.05-5.7L53,32.52l-3.37-1.18A14.46,14.46,0,0,1,46,29.73a.74.74,0,0,1,0-.21v-.28c.15-.1.9-.53,3.14-.53a25.62,25.62,0,0,1,8.88,2,3.7,3.7,0,0,0,1.44.2,4,4,0,0,0,4-4V22.38a4,4,0,0,0-2.92-3.85A43,43,0,0,0,49,16.75c-4.73,0-8.55,1.15-11.36,3.43a12.73,12.73,0,0,0-4.63,10.28,11.5,11.5,0,0,0,3.21,8.31c1.8,1.8,4.66,3.42,8.79,5l3.52,1.28a21.87,21.87,0,0,1,4.44,2v.1c0,.27,0,.45-.53.8a7.53,7.53,0,0,1-4,.88c-2.5,0-5.87-1-10-2.81a4.16,4.16,0,0,0-1.63-.4,4,4,0,0,0-4,4v5.22a4,4,0,0,0,3,3.86,48.78,48.78,0,0,0,12.52,2c5.12,0,9.37-1.23,12.6-3.65a12.9,12.9,0,0,0,5.22-8.55,20,20,0,0,0,4.26,6.14c4.1,4,9.48,6.06,16,6.06a33.53,33.53,0,0,0,11.33-2.14A3.65,3.65,0,0,0,99,57.91a4,4,0,0,0,3.47,2h5.27a4,4,0,0,0,4-4V44.55h6.53V55.91a4,4,0,0,0,4,4h5.28a4,4,0,0,0,4-4V21.58A4,4,0,0,0,127.5,17.58ZM96.35,46.5a4.43,4.43,0,0,0-1.44.27,20.88,20.88,0,0,1-7.26,1.66,9.3,9.3,0,0,1-9.86-8.72,10.84,10.84,0,0,1,0-1.14,10.59,10.59,0,0,1,2.44-7.31A7.19,7.19,0,0,1,86,28.71a20,20,0,0,1,8.23,2.07,4,4,0,0,0,3.83-.27l.37-.27V47.09A4.07,4.07,0,0,0,96.35,46.5Z"/><path class="cls-2" d="M226.45,17.58h-4.6a4,4,0,0,0-4,4V42.29c0,3.86-.72,5.26-1,5.68a3.46,3.46,0,0,1-2.63.81c-1.78,0-2.17-.55-2.31-.76-.3-.42-1-1.82-1-5.6V21.58a4,4,0,0,0-4-4h-5.27a4,4,0,0,0-4,4v6.61c-3-6.9-9.57-10.61-19.28-10.61H168a4,4,0,0,0-3.76,2.68,4,4,0,0,0-3.76-2.68h-23.2a4,4,0,0,0-4,4V55.91a4,4,0,0,0,4,4h24.43a4,4,0,0,0,3.16-1.56A4,4,0,0,0,168,59.91h8.94a30.07,30.07,0,0,0,10.48-1.52,16.73,16.73,0,0,0,7.45-5.48,19.88,19.88,0,0,0,3.11-5.7,16.92,16.92,0,0,0,3.71,8.67c2.84,3.25,7.06,4.9,12.55,4.9,6.42,0,11.33-2.79,14.19-8.06,1.35-2.49,2-6.15,2-11.17v-20A4,4,0,0,0,226.45,17.58ZM146.53,47.91v-4h11.2a4,4,0,0,0,4-4v-4a4,4,0,0,0-4-4h-11.2V29.54h13.93A4,4,0,0,0,164,27.4V48.67a4.06,4.06,0,0,0-2.29-.72ZM183.91,46c-1.16,1.09-3.5,1.74-6.66,1.89V29.54h.07c3.28,0,5.6.63,6.71,1.82s1.82,3.92,1.82,7.55-.67,5.94-1.94,7.12Z"/><path class="cls-2" d="M260.25,47.91H245.76V21.58a4,4,0,0,0-4-4h-5.27a4,4,0,0,0-4,4V55.91a4,4,0,0,0,4,4h23.76a4,4,0,0,0,4-4v-4A4,4,0,0,0,260.25,47.91Z"/><path class="cls-2" d="M293.78,47.91H278.62v-4h11.23a4,4,0,0,0,4-4v-4a4,4,0,0,0-4-4h-11.2V29.54h13.9a4,4,0,0,0,4-4v-4a4,4,0,0,0-4-4h-23.2a4,4,0,0,0-4,4V55.91a4,4,0,0,0,4,4h24.43a4,4,0,0,0,4-4v-4A4,4,0,0,0,293.78,47.91Z"/><path class="cls-3" d="M59.45,22.38v4.53a29.54,29.54,0,0,0-10.33-2.2c-4.77,0-7.16,1.61-7.15,4.81a4,4,0,0,0,1.34,3.15,15.38,15.38,0,0,0,4.95,2.45l3.37,1.17,3.22,1.1q7.47,2.64,7.47,8.88a9,9,0,0,1-3.82,7.64q-3.82,2.85-10.21,2.85a45.81,45.81,0,0,1-11.44-1.92V49.62q7,3.15,11.64,3.16a11.16,11.16,0,0,0,6.23-1.54,4.74,4.74,0,0,0,2.33-4.14A3.89,3.89,0,0,0,55.67,44,22.54,22.54,0,0,0,50,41.24L46.45,40q-5.27-2-7.31-4a7.42,7.42,0,0,1-2-5.49,8.71,8.71,0,0,1,3.14-7.17c2.1-1.7,5-2.54,8.85-2.54A39.2,39.2,0,0,1,59.45,22.38Z"/><path class="cls-3" d="M96.35,54.84a29.47,29.47,0,0,1-10,1.9q-8.19,0-13.2-4.91t-5-12.92q0-8.11,5-13.14t13-5a34.22,34.22,0,0,1,9.68,1.53v4.84A24,24,0,0,0,86,24.71a11.17,11.17,0,0,0-8.76,3.9,14.56,14.56,0,0,0-3.44,10A13.29,13.29,0,0,0,86.48,52.44c.39,0,.78,0,1.17,0a24.61,24.61,0,0,0,8.7-1.93Z"/><path class="cls-3" d="M102.42,55.91V21.58h5.27v15h14.53v-15h5.28V55.91h-5.28V40.55H107.69V55.91Z"/><path class="cls-3" d="M137.26,55.91V21.58h23.2v4H142.53V35.91h15.2v4h-15.2v12h19.16v4Z"/><path class="cls-3" d="M168,55.91V21.58h10.36q17.11,0,17.12,16.48c0,5.08-1.24,9.2-3.72,12.33A12.7,12.7,0,0,1,186,54.64a26.37,26.37,0,0,1-9.08,1.27Zm5.27-4h2.65q7.54,0,10.75-3t3.2-10q0-7.17-2.89-10.26t-9.63-3.09h-4.08Z"/><path class="cls-3" d="M201.62,21.58h5.23V42.42q0,5.46,1.73,7.91c1.15,1.64,3,2.45,5.58,2.45s4.67-.81,5.86-2.45,1.79-4.3,1.79-8V21.58h4.6V41.51q0,6.45-1.52,9.26-3.24,6-10.68,6-6.45,0-9.54-3.54t-3.09-10.86Z"/><path class="cls-3" d="M236.49,55.91V21.58h5.27V51.91h18.49v4Z"/><path class="cls-3" d="M269.35,55.91V21.58h23.2v4H274.62V35.91h15.23v4h-15.2v12h19.16v4Z"/><path class="cls-2" d="M144,235.83a403.23,403.23,0,0,0-33.45-36.57c13.22-15.76,18.67-29.79,18.67-47.6v-11.4A4.25,4.25,0,0,0,125,136H53.45a4.25,4.25,0,0,0-4.25,4.25v10.8a4.25,4.25,0,0,0,4.25,4.25h55.2c-1,19.71-10.2,34.45-68.4,78a4.27,4.27,0,0,0-1.66,2.84,4.2,4.2,0,0,0,.85,3.17l7.2,9.3a4.24,4.24,0,0,0,5.89.81c19-14.09,32.66-25.27,43.79-35.75a382.26,382.26,0,0,1,32.14,35.13l.88,1.09a4.26,4.26,0,0,0,5.91.68l9.3-7.2a4.23,4.23,0,0,0,1.62-2.88,4.3,4.3,0,0,0-.93-3.18Z"/><path class="cls-2" d="M298.24,150.11h-63c2.29-7.1,3.23-14.18,3.23-23.5a4.25,4.25,0,0,0-4.25-4.25h-12a4.25,4.25,0,0,0-4.25,4.25c0,18.44-1.65,26.39-34.08,57.22a4.26,4.26,0,0,0,0,6.2l8.4,7.8a4.26,4.26,0,0,0,5.84-.06c15.42-14.85,21.24-21.05,26.42-28.36h24.26c-.42,35.53-8.32,43.43-35,70.14a4.26,4.26,0,0,0,.08,6.09l8.55,8.1a4.25,4.25,0,0,0,6-.1c30-30.44,40.16-42.75,40.79-84.23h29.07a4.25,4.25,0,0,0,4.26-4.25v-10.8A4.25,4.25,0,0,0,298.24,150.11Z"/><path class="cls-2" d="M446.44,132.41h-8.55a4.25,4.25,0,0,0-4.25,4.25v23.1a4.1,4.1,0,0,0,.26,1.45,4.08,4.08,0,0,0-1.42.28,4.22,4.22,0,0,0-2.39,2.3c0,.07-3.14,7.29-7.25,15.22l-1.21,2.42c-14.66,29.37-24.34,48.78-55.88,48.78H354.8a4.25,4.25,0,0,0-4.25,4.25v10.95a4.25,4.25,0,0,0,4.25,4.25h10.95c45.14,0,59.75-29.65,75.22-61l.46-.94c1.65-3.45,6.87-15,7.09-15.53a4.24,4.24,0,0,0-2.08-5.6L441,164h5.47a4.25,4.25,0,0,0,4.26-4.25v-23.1A4.25,4.25,0,0,0,446.44,132.41Z"/><rect class="cls-2" x="414.89" y="132.26" width="17.05" height="31.6" rx="4.25" ry="4.25"/><rect class="cls-2" x="347.1" y="164.21" width="47.05" height="19.75" rx="4.25" ry="4.25"/><rect class="cls-2" x="347.1" y="135.56" width="47.05" height="20.2" rx="4.25" ry="4.25"/><path class="cls-2" d="M493.1,220.76a4.25,4.25,0,0,0-4.25,4.25v10.65a4.25,4.25,0,0,0,4.25,4.25h94a4.25,4.25,0,0,0,4.25-4.25V225a4.25,4.25,0,0,0-4.25-4.25H568.9v-51.1a4.25,4.25,0,0,0-4.25-4.25H510.2a4.25,4.25,0,0,0-4.25,4.25v10.5a4.25,4.25,0,0,0,4.25,4.25H549v36.35Z"/><rect class="cls-2" x="630.9" y="178.31" width="119.2" height="19.9" rx="4.25" ry="4.25"/><path class="cls-2" d="M902.25,203.37l-9.9-6a4.32,4.32,0,0,0-3.34-.46,4.23,4.23,0,0,0-2.62,2.11c-12.53,23.69-19.12,29.32-31.59,30.38V135.91a4.25,4.25,0,0,0-4.25-4.25h-11.7a4.25,4.25,0,0,0-4.26,4.25v108.9a4.25,4.25,0,0,0,4.26,4.25h10.8c28,0,38.86-11.8,54.13-40A4.25,4.25,0,0,0,902.25,203.37Z"/><path class="cls-2" d="M818.6,146.06H806.75a4.25,4.25,0,0,0-4.25,4.25v17.4c0,29.31-2.29,39.84-23.32,68.27a4.25,4.25,0,0,0,.94,6l9.6,6.9a4.25,4.25,0,0,0,5.88-.9c23.86-31.81,27.25-45.72,27.25-80.4V150.31A4.25,4.25,0,0,0,818.6,146.06Z"/><path class="cls-4" d="M113,151.06H53.45v-10.8H125v11.4c0,18-5.85,31.65-20.25,47.85C127,221,137.9,235.06,141.94,240l-9.29,7.2c-3.9-4.8-14.7-18.6-36.3-39.45C85.85,218,72.2,229.51,50,246l-7.2-9.3C103.55,191.26,113,176.11,113,151.06Z"/><path class="cls-4" d="M225.35,250.66l-8.55-8.1c28.65-28.65,36.45-37.35,36.3-77.4H222.35c-5.4,8-10.8,13.8-27.15,29.55l-8.4-7.8c33.45-31.8,35.4-40.95,35.4-60.3h12c0,11.55-1.5,19.2-5.1,27.75h69.14v10.8H265C265,208.36,256.4,219.16,225.35,250.66Z"/><path class="cls-4" d="M389.9,139.81v11.7H351.35v-11.7Zm-38.55,39.9V168.46H389.9v11.25Zm86.24,6.15c-15.74,31.95-28.94,59.55-71.84,59.55H354.8V234.46h10.95c35.1,0,45.6-23,60.9-53.55,4.2-8.1,7.35-15.45,7.35-15.45l10.64,4.95S439.25,182.41,437.59,185.86Zm-9.89-26.25h-8.55v-23.1h8.55Zm18.74.15h-8.55v-23.1h8.55Z"/><path class="cls-4" d="M510.2,180.16v-10.5h54.45V225h22.5v10.65h-94V225h60.15V180.16Z"/><path class="cls-4" d="M635.15,182.56H745.84V194H635.15Z"/><path class="cls-4" d="M792.2,245.41l-9.6-6.9c21.3-28.8,24.15-40,24.15-70.8v-17.4H818.6v17.25C818.6,201.61,815.15,214.81,792.2,245.41ZM890.14,201l9.9,6c-15.75,29.1-26.09,37.8-50.39,37.8h-10.8V135.91h11.7v98C868.7,233.56,876.35,227.11,890.14,201Z"/></svg>