<?xml version="1.0" encoding="UTF-8" standalone="no"?>
<!DOCTYPE svg PUBLIC "-//W3C//DTD SVG 1.1//EN" "http://www.w3.org/Graphics/SVG/1.1/DTD/svg11.dtd">
<svg version="1.1" xmlns="http://www.w3.org/2000/svg" xmlns:xlink="http://www.w3.org/1999/xlink" preserveAspectRatio="xMidYMid meet" viewBox="-7.063291139240507 243.07341772151898 655.1265822784811 154.87341772151905" width="650.13" height="149.87"><defs><path d="M570.13 245.07C611.51 245.07 645.06 278.62 645.06 320.01C645.06 320.01 645.06 320.01 645.06 320.01C645.06 361.4 611.51 394.95 570.13 394.95C570.13 394.95 570.13 394.95 570.13 394.95C520.1 394.95 119.9 394.95 69.87 394.95C28.49 394.95 -5.06 361.4 -5.06 320.01C-5.06 320.01 -5.06 320.01 -5.06 320.01C-5.06 278.62 28.49 245.07 69.87 245.07C169.92 245.07 520.1 245.07 570.13 245.07Z" id="a6Fivyog9N"></path><path d="M120.78 274.14L121.37 274.16L121.96 274.19L122.55 274.22L123.14 274.25L123.73 274.28L124.32 274.32L124.91 274.37L125.5 274.42L126.09 274.47L126.68 274.53L127.26 274.59L127.85 274.65L128.44 274.72L129.02 274.79L129.61 274.87L130.2 274.95L130.78 275.03L131.36 275.12L131.95 275.21L132.53 275.31L133.11 275.41L133.69 275.51L134.27 275.62L134.85 275.73L135.43 275.85L136.01 275.97L136.59 276.1L137.17 276.22L137.74 276.36L138.32 276.49L138.89 276.63L139.47 276.78L140.04 276.92L140.61 277.07L141.18 277.23L141.75 277.39L142.32 277.55L142.89 277.72L143.15 277.8L143.4 277.89L143.65 277.98L143.9 278.08L144.14 278.19L144.38 278.31L144.61 278.43L144.84 278.56L145.06 278.7L145.28 278.85L145.49 279L145.7 279.16L145.9 279.32L146.09 279.49L146.28 279.67L146.47 279.85L146.65 280.04L146.82 280.23L146.98 280.43L147.14 280.63L147.29 280.84L147.44 281.05L147.58 281.27L147.71 281.49L147.84 281.72L147.95 281.95L148.06 282.18L148.17 282.42L148.26 282.66L148.35 282.91L148.43 283.16L148.5 283.41L148.57 283.67L148.62 283.92L148.67 284.18L148.71 284.45L148.74 284.71L148.76 284.98L148.78 285.25L148.78 285.52L148.78 294.86L148.78 294.93L148.78 295.01L148.78 295.08L148.77 295.16L148.77 295.23L148.77 295.31L148.76 295.38L148.76 295.46L148.75 295.53L148.75 295.61L148.74 295.68L148.73 295.76L148.72 295.83L148.71 295.91L148.7 295.98L148.69 296.06L148.68 296.13L148.67 296.2L148.65 296.28L148.64 296.35L148.63 296.43L148.61 296.5L148.6 296.57L148.58 296.65L148.56 296.72L148.55 296.79L148.53 296.87L148.51 296.94L148.49 297.01L148.47 297.08L148.45 297.16L148.43 297.23L148.4 297.3L148.38 297.37L148.36 297.44L148.33 297.51L148.31 297.58L148.28 297.66L148.26 297.73L148.23 297.8L148.1 298.11L147.96 298.41L147.81 298.7L147.65 298.98L147.48 299.26L147.3 299.53L147.11 299.78L146.92 300.03L146.71 300.27L146.49 300.5L146.27 300.73L146.04 300.94L145.8 301.14L145.55 301.33L145.3 301.52L145.04 301.69L144.77 301.85L144.5 302L144.22 302.14L143.94 302.28L143.65 302.4L143.36 302.5L143.07 302.6L142.77 302.69L142.46 302.76L142.16 302.83L141.85 302.88L141.54 302.92L141.23 302.94L140.91 302.96L140.6 302.96L140.28 302.95L139.96 302.93L139.64 302.9L139.32 302.85L139 302.79L138.69 302.71L138.37 302.63L138.06 302.52L137.74 302.41L137.31 302.23L136.88 302.05L136.45 301.88L136.02 301.71L135.59 301.55L135.15 301.39L134.72 301.23L134.28 301.08L133.84 300.93L133.4 300.79L132.96 300.65L132.51 300.51L132.07 300.38L131.63 300.25L131.18 300.12L130.73 300L130.28 299.89L129.84 299.78L129.39 299.67L128.93 299.57L128.48 299.47L128.03 299.37L127.58 299.28L127.12 299.19L126.67 299.11L126.21 299.03L125.75 298.95L125.29 298.88L124.84 298.82L124.38 298.75L123.92 298.7L123.46 298.64L123 298.59L122.54 298.55L122.07 298.5L121.61 298.47L121.15 298.43L120.68 298.4L120.22 298.38L119.76 298.36L119.42 298.36L119.1 298.37L118.79 298.37L118.49 298.38L118.2 298.4L117.92 298.41L117.65 298.43L117.39 298.45L117.14 298.47L116.9 298.5L116.67 298.53L116.45 298.55L116.24 298.58L116.04 298.61L115.84 298.65L115.66 298.68L115.48 298.71L115.31 298.75L115.15 298.78L115 298.82L114.86 298.86L114.72 298.89L114.59 298.93L114.47 298.97L114.36 299L114.25 299.04L114.15 299.08L114.06 299.11L113.97 299.15L113.89 299.18L113.82 299.21L113.75 299.24L113.69 299.27L113.64 299.3L113.59 299.33L113.54 299.35L113.5 299.38L113.47 299.4L113.44 299.42L113.42 299.43L113.42 299.45L113.41 299.46L113.41 299.48L113.41 299.49L113.41 299.5L113.41 299.52L113.41 299.53L113.41 299.55L113.41 299.56L113.41 299.57L113.41 299.59L113.4 299.6L113.4 299.62L113.4 299.63L113.4 299.65L113.4 299.66L113.4 299.67L113.4 299.69L113.4 299.7L113.4 299.73L113.4 299.74L113.4 299.76L113.4 299.77L113.4 299.79L113.4 299.8L113.4 299.82L113.4 299.83L113.41 299.84L113.41 299.86L113.41 299.87L113.41 299.89L113.41 299.9L113.41 299.92L113.41 299.93L113.41 299.94L113.41 299.96L113.41 299.97L113.42 299.99L113.42 300L113.42 300.01L113.41 300.03L113.41 300.04L113.41 300.05L113.41 300.06L113.41 300.08L113.41 300.1L113.41 300.11L113.41 300.12L113.4 300.14L113.4 300.15L113.4 300.16L113.4 300.17L113.4 300.19L113.4 300.2L113.4 300.22L113.4 300.23L113.4 300.26L113.4 300.27L113.4 300.28L113.4 300.29L113.41 300.31L113.41 300.32L113.41 300.33L113.41 300.34L113.41 300.36L113.41 300.37L113.41 300.38L113.41 300.39L113.42 300.41L113.42 300.43L113.59 300.53L113.76 300.63L113.94 300.74L114.11 300.84L114.29 300.94L114.46 301.04L114.64 301.13L114.82 301.23L114.99 301.33L115.17 301.42L115.35 301.51L115.53 301.6L115.71 301.7L115.89 301.78L116.07 301.87L116.25 301.96L116.44 302.05L116.62 302.13L116.8 302.21L116.99 302.3L117.17 302.38L117.36 302.46L117.54 302.54L117.73 302.61L117.91 302.69L118.1 302.76L118.29 302.84L118.48 302.91L118.67 302.98L118.85 303.05L119.04 303.12L119.23 303.19L119.42 303.26L119.62 303.32L119.81 303.38L120 303.45L120.19 303.51L120.38 303.57L120.58 303.63L120.77 303.69L127.59 306.08L133.97 308.26L134.83 308.57L135.67 308.9L136.48 309.23L137.27 309.56L138.03 309.91L138.78 310.27L139.5 310.63L140.2 311L140.87 311.38L141.53 311.76L142.16 312.15L142.78 312.55L143.37 312.95L143.95 313.36L144.51 313.78L145.04 314.2L145.56 314.62L146.06 315.05L146.54 315.49L147 315.92L147.45 316.37L147.88 316.81L148.29 317.26L148.68 317.71L149.06 318.16L149.42 318.62L149.77 319.08L150.1 319.54L150.42 320L150.72 320.46L151.01 320.92L151.28 321.38L151.54 321.85L151.79 322.31L152.03 322.77L152.25 323.24L152.46 323.7L152.65 324.16L152.84 324.62L153.01 325.07L153.01 283.9L153.02 283.56L153.04 283.23L153.07 282.91L153.12 282.58L153.18 282.27L153.25 281.95L153.33 281.64L153.43 281.34L153.53 281.04L153.65 280.75L153.78 280.46L153.92 280.18L154.07 279.9L154.23 279.63L154.4 279.37L154.58 279.11L154.76 278.87L154.96 278.63L155.17 278.39L155.39 278.17L155.61 277.95L155.84 277.75L156.08 277.55L156.33 277.36L156.58 277.18L156.85 277.01L157.12 276.85L157.39 276.7L157.67 276.56L157.96 276.43L158.25 276.32L158.55 276.21L158.86 276.12L159.17 276.03L159.48 275.96L159.8 275.9L160.12 275.86L160.45 275.82L160.78 275.8L161.11 275.8L171.85 275.8L172.18 275.8L172.51 275.82L172.84 275.86L173.16 275.9L173.48 275.96L173.79 276.03L174.1 276.12L174.41 276.21L174.71 276.32L175 276.43L175.29 276.56L175.57 276.7L175.85 276.85L176.12 277.01L176.38 277.18L176.63 277.36L176.88 277.55L177.12 277.75L177.35 277.95L177.58 278.17L177.79 278.39L178 278.63L178.2 278.87L178.39 279.11L178.57 279.37L178.74 279.63L178.9 279.9L179.05 280.18L179.18 280.46L179.31 280.75L179.43 281.04L179.54 281.34L179.63 281.64L179.71 281.95L179.78 282.27L179.84 282.58L179.89 282.91L179.92 283.23L179.94 283.56L179.95 283.9L179.95 326.11L179.95 326.67L179.96 327.22L179.97 327.75L179.99 328.26L180.01 328.76L180.04 329.24L180.07 329.7L180.1 330.14L180.14 330.57L180.18 330.99L180.22 331.39L180.27 331.77L180.32 332.14L180.37 332.49L180.43 332.83L180.49 333.16L180.55 333.47L180.61 333.77L180.67 334.06L180.73 334.33L180.8 334.59L180.87 334.84L180.93 335.07L181 335.29L181.07 335.5L181.13 335.7L181.2 335.89L181.27 336.07L181.34 336.24L181.4 336.39L181.47 336.54L181.53 336.68L181.59 336.8L181.65 336.92L181.71 337.03L181.77 337.13L181.83 337.22L181.88 337.31L181.93 337.38L181.97 337.45L182 337.48L182.02 337.52L182.05 337.55L182.08 337.59L182.12 337.64L182.15 337.68L182.19 337.72L182.23 337.77L182.28 337.82L182.33 337.87L182.38 337.92L182.44 337.97L182.5 338.02L182.57 338.07L182.64 338.12L182.71 338.17L182.8 338.23L182.88 338.28L182.98 338.33L183.08 338.38L183.18 338.43L183.29 338.47L183.41 338.52L183.54 338.57L183.67 338.61L183.81 338.66L183.96 338.7L184.11 338.74L184.27 338.77L184.44 338.81L184.62 338.84L184.81 338.87L185.01 338.89L185.21 338.92L185.43 338.94L185.65 338.96L185.89 338.97L186.13 338.98L186.39 338.99L186.65 338.99L186.8 339L186.94 339.01L187.09 339.02L187.23 339.03L187.38 339.03L187.52 339.03L187.67 339.03L187.81 339.02L187.95 339.01L188.1 339L188.24 338.98L188.38 338.97L188.52 338.95L188.66 338.92L188.8 338.9L188.94 338.87L189.08 338.84L189.22 338.8L189.36 338.76L189.5 338.72L189.63 338.68L189.77 338.63L189.9 338.58L190.04 338.53L190.17 338.48L190.3 338.42L190.43 338.36L190.56 338.3L190.69 338.23L190.81 338.17L190.94 338.1L191.06 338.02L191.18 337.95L191.31 337.87L191.43 337.79L191.54 337.71L191.66 337.62L191.77 337.53L191.89 337.44L192 337.35L192.04 337.28L192.09 337.2L192.14 337.12L192.19 337.03L192.25 336.93L192.31 336.82L192.37 336.7L192.43 336.57L192.49 336.44L192.56 336.29L192.62 336.13L192.69 335.96L192.75 335.79L192.82 335.6L192.89 335.39L192.96 335.18L193.03 334.96L193.09 334.72L193.16 334.47L193.23 334.21L193.29 333.93L193.35 333.64L193.42 333.34L193.48 333.02L193.53 332.69L193.59 332.35L193.64 331.99L193.7 331.61L193.74 331.22L193.79 330.82L193.83 330.4L193.87 329.96L193.9 329.51L193.93 329.03L193.96 328.55L193.98 328.04L194 327.52L194.01 326.98L194.02 326.42L194.03 325.84L194.03 283.9L194.03 283.56L194.05 283.23L194.09 282.91L194.13 282.58L194.19 282.27L194.26 281.95L194.34 281.64L194.44 281.34L194.54 281.04L194.66 280.75L194.79 280.46L194.93 280.18L195.08 279.9L195.24 279.63L195.41 279.37L195.59 279.11L195.78 278.87L195.98 278.63L196.18 278.39L196.4 278.17L196.62 277.95L196.85 277.75L197.09 277.55L197.34 277.36L197.6 277.18L197.86 277.01L198.13 276.85L198.4 276.7L198.69 276.56L198.97 276.43L199.27 276.32L199.57 276.21L199.87 276.12L200.18 276.03L200.49 275.96L200.81 275.9L201.14 275.86L201.46 275.82L201.79 275.8L202.13 275.8L211.42 275.8L211.62 275.8L211.82 275.81L212.02 275.82L212.22 275.84L212.42 275.86L212.61 275.89L212.81 275.92L213 275.95L213.19 275.99L213.38 276.04L213.57 276.09L213.76 276.14L213.95 276.2L214.13 276.26L214.31 276.33L214.5 276.4L214.67 276.48L214.85 276.56L215.03 276.64L215.2 276.73L215.37 276.83L215.54 276.92L215.71 277.02L215.87 277.13L216.03 277.24L216.19 277.35L216.35 277.47L216.5 277.59L216.65 277.71L216.8 277.84L216.95 277.97L217.09 278.11L217.23 278.25L217.36 278.39L217.5 278.54L217.62 278.69L217.75 278.84L217.87 279L217.99 279.16L218.11 279.32L218.22 279.16L218.34 279L218.46 278.84L218.59 278.69L218.72 278.53L218.85 278.39L218.99 278.24L219.13 278.11L219.27 277.97L219.42 277.84L219.56 277.71L219.72 277.58L219.87 277.46L220.03 277.35L220.19 277.23L220.35 277.12L220.51 277.02L220.68 276.92L220.85 276.82L221.02 276.73L221.19 276.64L221.37 276.55L221.55 276.47L221.73 276.4L221.91 276.33L222.09 276.26L222.28 276.2L222.47 276.14L222.65 276.08L222.84 276.03L223.04 275.99L223.23 275.95L223.42 275.91L223.62 275.88L223.81 275.86L224.01 275.83L224.21 275.82L224.41 275.81L224.61 275.8L224.81 275.8L237.65 275.8L237.91 275.8L238.16 275.81L238.41 275.83L238.66 275.86L238.91 275.9L239.16 275.94L239.4 275.99L239.64 276.05L239.88 276.11L240.12 276.19L240.35 276.26L240.58 276.35L240.81 276.44L241.04 276.54L241.26 276.65L241.47 276.76L241.69 276.88L241.9 277.01L242.1 277.14L242.31 277.28L242.5 277.42L242.7 277.57L242.89 277.73L243.07 277.89L243.25 278.05L243.42 278.23L243.59 278.4L243.76 278.59L243.92 278.78L244.07 278.97L244.22 279.17L244.36 279.37L244.49 279.58L244.62 279.79L244.75 280.01L244.86 280.23L244.98 280.46L245.08 280.69L245.18 280.93L245.27 281.16L252.9 302.57L260.39 281.21L260.48 280.96L260.58 280.73L260.68 280.49L260.79 280.27L260.91 280.04L261.03 279.82L261.16 279.61L261.3 279.4L261.44 279.19L261.59 278.99L261.74 278.8L261.9 278.61L262.06 278.42L262.23 278.25L262.41 278.07L262.59 277.9L262.77 277.74L262.96 277.58L263.15 277.43L263.35 277.29L263.56 277.15L263.76 277.02L263.97 276.89L264.19 276.77L264.41 276.66L264.63 276.55L264.85 276.45L265.08 276.35L265.31 276.27L265.55 276.19L265.79 276.12L266.03 276.05L266.27 275.99L266.52 275.94L266.76 275.9L267.01 275.86L267.26 275.83L267.52 275.81L267.77 275.8L268.03 275.8L281.4 275.8L281.54 275.8L281.68 275.8L281.82 275.81L281.96 275.82L282.1 275.83L282.24 275.84L282.37 275.85L282.51 275.87L282.65 275.89L282.79 275.92L282.92 275.94L283.06 275.97L283.2 276L283.33 276.03L283.46 276.07L283.6 276.1L283.73 276.14L283.86 276.18L283.99 276.23L284.13 276.27L284.26 276.32L284.38 276.37L284.51 276.43L284.64 276.48L284.77 276.54L284.89 276.6L285.01 276.66L285.14 276.72L285.26 276.79L285.38 276.86L285.5 276.93L285.62 277L285.74 277.08L285.85 277.15L285.97 277.23L286.08 277.31L286.19 277.4L286.3 277.48L286.41 277.57L286.52 277.66L286.63 277.57L286.74 277.48L286.85 277.4L286.96 277.31L287.08 277.23L287.19 277.15L287.31 277.08L287.42 277L287.54 276.93L287.66 276.86L287.78 276.79L287.91 276.72L288.03 276.66L288.15 276.6L288.28 276.54L288.4 276.48L288.53 276.43L288.66 276.37L288.79 276.32L288.92 276.27L289.05 276.23L289.18 276.18L289.31 276.14L289.44 276.1L289.58 276.07L289.71 276.03L289.85 276L289.98 275.97L290.12 275.94L290.26 275.92L290.39 275.89L290.53 275.87L290.67 275.85L290.81 275.84L290.95 275.83L291.09 275.82L291.22 275.81L291.36 275.8L291.51 275.8L291.65 275.8L304.51 275.8L304.76 275.8L305.02 275.81L305.27 275.83L305.52 275.86L305.77 275.9L306.01 275.94L306.26 275.99L306.5 276.05L306.74 276.11L306.98 276.19L307.21 276.26L307.44 276.35L307.67 276.44L307.89 276.54L308.11 276.65L308.33 276.76L308.54 276.88L308.75 277.01L308.96 277.14L309.16 277.28L309.36 277.42L309.55 277.57L309.74 277.73L309.93 277.89L310.11 278.05L310.28 278.23L310.45 278.4L310.61 278.59L310.77 278.78L310.93 278.97L311.07 279.17L311.21 279.37L311.35 279.58L311.48 279.79L311.6 280.01L311.72 280.23L311.83 280.46L311.93 280.69L312.03 280.93L312.12 281.16L319.76 302.57L327.25 281.21L327.34 280.96L327.44 280.73L327.54 280.49L327.65 280.27L327.77 280.04L327.89 279.82L328.02 279.61L328.15 279.4L328.3 279.19L328.44 278.99L328.6 278.8L328.75 278.61L328.92 278.42L329.09 278.25L329.26 278.07L329.44 277.9L329.63 277.74L329.82 277.58L330.01 277.43L330.21 277.29L330.41 277.15L330.62 277.02L330.83 276.89L331.04 276.77L331.26 276.66L331.48 276.55L331.71 276.45L331.94 276.35L332.17 276.27L332.4 276.19L332.64 276.12L332.88 276.05L333.13 275.99L333.37 275.94L333.62 275.9L333.87 275.86L334.12 275.83L334.37 275.81L334.63 275.8L334.89 275.8L348.23 275.8L348.57 275.8L348.9 275.82L349.22 275.86L349.55 275.9L349.87 275.96L350.18 276.03L350.49 276.12L350.79 276.21L351.09 276.32L351.39 276.43L351.67 276.56L351.96 276.7L352.23 276.85L352.5 277.01L352.76 277.18L353.02 277.36L353.27 277.55L353.51 277.75L353.74 277.95L353.96 278.17L354.18 278.39L354.38 278.63L354.58 278.87L354.77 279.11L354.95 279.37L355.12 279.63L355.28 279.9L355.43 280.18L355.57 280.46L355.7 280.75L355.81 281.04L355.92 281.34L356.02 281.64L356.1 281.95L356.17 282.27L356.23 282.58L356.27 282.91L356.31 283.23L356.33 283.56L356.33 283.9L356.33 325.54L373.93 280.98L374.03 280.75L374.13 280.53L374.24 280.3L374.35 280.09L374.47 279.87L374.6 279.67L374.73 279.46L374.87 279.26L375.01 279.07L375.16 278.88L375.31 278.69L375.47 278.51L375.64 278.34L375.8 278.17L375.98 278L376.16 277.84L376.34 277.69L376.53 277.54L376.72 277.4L376.91 277.26L377.11 277.13L377.31 277L377.52 276.88L377.73 276.77L377.95 276.66L378.16 276.56L378.38 276.47L378.61 276.38L378.83 276.3L379.06 276.22L379.29 276.16L379.53 276.09L379.76 276.04L380 275.99L380.24 275.95L380.48 275.92L380.73 275.89L380.97 275.87L381.22 275.86L381.47 275.86L392.16 275.86L392.41 275.86L392.66 275.87L392.9 275.89L393.15 275.92L393.39 275.95L393.63 275.99L393.87 276.04L394.11 276.09L394.34 276.16L394.57 276.22L394.8 276.3L395.02 276.38L395.25 276.47L395.47 276.56L395.68 276.66L395.9 276.77L396.11 276.88L396.32 277L396.52 277.13L396.72 277.26L396.91 277.4L397.1 277.54L397.29 277.69L397.47 277.84L397.65 278L397.83 278.17L397.99 278.34L398.16 278.51L398.32 278.69L398.47 278.88L398.62 279.07L398.76 279.26L398.9 279.46L399.03 279.67L399.16 279.87L399.28 280.09L399.39 280.3L399.5 280.53L399.6 280.75L399.7 280.98L422.18 337.81L422.18 283.74L422.18 283.4L422.2 283.07L422.24 282.75L422.28 282.42L422.34 282.1L422.41 281.79L422.5 281.48L422.59 281.18L422.7 280.88L422.81 280.58L422.94 280.3L423.08 280.01L423.23 279.74L423.39 279.47L423.56 279.21L423.74 278.95L423.93 278.7L424.13 278.46L424.33 278.23L424.55 278.01L424.77 277.79L425.01 277.59L425.25 277.39L425.49 277.2L425.75 277.02L426.01 276.85L426.28 276.69L426.56 276.54L426.84 276.4L427.13 276.27L427.42 276.15L427.72 276.05L428.02 275.95L428.33 275.87L428.65 275.8L428.96 275.74L429.29 275.7L429.61 275.66L429.94 275.64L430.28 275.64L449.74 275.64L450.44 275.64L451.13 275.64L451.81 275.65L452.47 275.66L453.13 275.67L453.77 275.69L454.4 275.71L455.02 275.74L455.63 275.76L456.23 275.79L456.82 275.83L457.4 275.86L457.97 275.9L458.53 275.95L459.08 275.99L459.62 276.04L460.15 276.1L460.67 276.15L461.18 276.21L461.68 276.28L462.17 276.35L462.65 276.42L463.12 276.49L463.58 276.57L464.03 276.65L464.47 276.73L464.91 276.82L465.33 276.91L465.75 277.01L466.15 277.11L466.55 277.21L466.94 277.31L467.32 277.42L467.69 277.53L468.06 277.65L468.41 277.77L468.76 277.9L469.1 278.02L469.43 278.15L469.75 278.29L470.44 278.55L471.12 278.84L471.79 279.14L472.44 279.47L473.08 279.81L473.71 280.18L474.32 280.56L474.92 280.96L475.5 281.37L476.07 281.81L476.62 282.26L477.16 282.73L477.68 283.21L478.19 283.71L478.68 284.22L479.15 284.75L479.61 285.29L480.05 285.84L480.47 286.41L480.88 286.99L481.26 287.58L481.63 288.19L481.98 288.8L482.31 289.43L482.62 290.06L482.91 290.71L483.18 291.37L483.43 292.03L483.66 292.71L483.87 293.39L484.06 294.08L484.23 294.78L484.37 295.48L484.5 296.19L484.6 296.91L484.68 297.63L484.73 298.36L484.76 299.09L484.77 299.83L484.76 300.57L484.77 301.02L484.77 301.47L484.77 301.92L484.76 302.37L484.74 302.81L484.71 303.26L484.68 303.71L484.64 304.15L484.59 304.6L484.54 305.04L484.48 305.48L484.41 305.92L484.33 306.36L484.25 306.8L484.16 307.24L484.07 307.67L483.97 308.11L483.86 308.54L483.74 308.97L483.62 309.4L483.49 309.82L483.35 310.25L483.21 310.67L483.06 311.09L482.91 311.51L482.75 311.92L482.58 312.33L482.4 312.74L482.22 313.15L482.03 313.56L481.84 313.96L481.64 314.36L481.43 314.75L481.21 315.15L480.99 315.54L480.77 315.92L480.53 316.31L480.29 316.69L480.05 317.06L479.8 317.44L479.66 317.62L479.52 317.81L479.38 317.99L479.24 318.17L479.1 318.35L478.96 318.53L478.81 318.71L478.67 318.89L478.52 319.07L478.37 319.24L478.22 319.42L478.07 319.59L477.92 319.76L477.76 319.93L477.61 320.1L477.45 320.27L477.3 320.44L477.14 320.61L476.98 320.77L476.82 320.93L476.65 321.1L476.49 321.26L476.33 321.42L476.16 321.58L475.99 321.74L475.83 321.89L475.66 322.05L475.49 322.2L475.32 322.36L475.14 322.51L474.97 322.66L474.79 322.81L474.62 322.96L474.44 323.1L474.26 323.25L474.08 323.39L473.9 323.54L473.72 323.68L473.54 323.82L473.36 323.96L491.99 348.53L492.07 348.63L492.15 348.74L492.22 348.85L492.3 348.96L492.37 349.07L492.44 349.18L492.51 349.3L492.57 349.41L492.64 349.52L492.7 349.64L492.76 349.76L492.82 349.88L492.88 349.99L492.93 350.11L492.98 350.23L493.04 350.35L493.08 350.48L493.13 350.6L493.18 350.72L493.22 350.85L493.26 350.97L493.3 351.1L493.33 351.22L493.37 351.35L493.4 351.48L493.43 351.6L493.46 351.73L493.49 351.86L493.51 351.99L493.53 352.12L493.55 352.25L493.57 352.38L493.59 352.51L493.6 352.64L493.61 352.78L493.62 352.91L493.63 353.04L493.64 353.17L493.64 353.31L493.64 353.44L493.63 353.77L493.61 354.1L493.58 354.43L493.53 354.75L493.47 355.07L493.4 355.38L493.32 355.69L493.22 356L493.12 356.3L493 356.59L492.87 356.88L492.73 357.16L492.58 357.44L492.42 357.7L492.25 357.97L492.07 358.22L491.88 358.47L491.68 358.71L491.48 358.94L491.26 359.16L491.04 359.38L490.8 359.59L490.56 359.78L490.32 359.97L490.06 360.15L489.8 360.32L489.53 360.48L489.25 360.63L488.97 360.77L488.68 360.9L488.39 361.01L488.09 361.12L487.79 361.21L487.48 361.3L487.16 361.37L486.84 361.42L486.52 361.47L486.19 361.5L485.86 361.52L485.53 361.53L472.61 361.53L472.42 361.53L472.23 361.52L472.04 361.51L471.85 361.5L471.66 361.48L471.47 361.45L471.28 361.43L471.1 361.39L470.91 361.36L470.73 361.32L470.55 361.27L470.37 361.22L470.19 361.17L470.01 361.11L469.83 361.05L469.66 360.99L469.49 360.92L469.31 360.85L469.14 360.77L468.98 360.69L468.81 360.6L468.65 360.51L468.48 360.42L468.32 360.33L468.17 360.23L468.01 360.12L467.86 360.02L467.71 359.91L467.56 359.79L467.41 359.67L467.27 359.55L467.13 359.43L466.99 359.3L466.85 359.17L466.72 359.03L466.59 358.89L466.47 358.75L466.34 358.61L466.22 358.46L466.11 358.31L449.07 335.85L449.07 353.43L449.07 353.76L449.05 354.09L449.01 354.42L448.97 354.74L448.91 355.06L448.84 355.37L448.76 355.68L448.66 355.99L448.55 356.29L448.44 356.58L448.31 356.87L448.17 357.15L448.02 357.43L447.86 357.7L447.69 357.96L447.51 358.21L447.32 358.46L447.12 358.7L446.92 358.93L446.7 359.16L446.48 359.37L446.24 359.58L446 359.78L445.76 359.97L445.5 360.15L445.24 360.32L444.97 360.48L444.7 360.62L444.41 360.76L444.13 360.89L443.83 361.01L443.53 361.12L443.23 361.21L442.92 361.29L442.6 361.36L442.29 361.42L441.96 361.47L441.64 361.5L441.31 361.52L440.97 361.53L430.3 361.53L430.15 361.53L430 361.52L429.86 361.52L429.71 361.51L429.57 361.49L429.42 361.48L429.28 361.46L429.13 361.44L428.99 361.42L428.85 361.39L428.7 361.36L428.56 361.33L428.42 361.3L428.28 361.27L428.14 361.23L428 361.19L427.86 361.14L427.72 361.1L427.59 361.05L427.45 361L427.32 360.95L427.18 360.89L427.05 360.84L426.92 360.78L426.79 360.71L426.66 360.65L426.53 360.58L426.4 360.51L426.27 360.44L426.15 360.37L426.03 360.29L425.9 360.21L425.78 360.13L425.66 360.05L425.54 359.96L425.43 359.88L425.31 359.79L425.2 359.69L425.08 359.6L424.97 359.5L424.86 359.6L424.75 359.69L424.63 359.78L424.52 359.87L424.4 359.96L424.28 360.05L424.16 360.13L424.04 360.21L423.91 360.29L423.79 360.36L423.66 360.44L423.53 360.51L423.41 360.58L423.28 360.64L423.15 360.71L423.02 360.77L422.88 360.83L422.75 360.89L422.62 360.94L422.48 360.99L422.34 361.05L422.21 361.09L422.07 361.14L421.93 361.18L421.79 361.22L421.65 361.26L421.51 361.3L421.37 361.33L421.22 361.36L421.08 361.39L420.94 361.41L420.79 361.44L420.65 361.46L420.5 361.48L420.36 361.49L420.21 361.5L420.07 361.51L419.92 361.52L419.77 361.53L419.63 361.53L408.32 361.53L408.07 361.53L407.82 361.51L407.57 361.5L407.33 361.47L407.08 361.44L406.84 361.39L406.6 361.35L406.36 361.29L406.13 361.23L405.89 361.16L405.66 361.08L405.43 361L405.21 360.91L404.99 360.81L404.77 360.71L404.55 360.6L404.34 360.49L404.13 360.37L403.93 360.24L403.73 360.1L403.53 359.97L403.34 359.82L403.15 359.67L402.97 359.51L402.79 359.35L402.61 359.18L402.44 359.01L402.28 358.83L402.12 358.65L401.97 358.46L401.82 358.27L401.68 358.07L401.54 357.87L401.41 357.66L401.28 357.45L401.16 357.23L401.05 357.01L400.94 356.79L400.84 356.56L400.75 356.32L396.15 344.17L375.55 344.17L370.88 356.32L370.78 356.56L370.68 356.79L370.57 357.02L370.46 357.24L370.34 357.46L370.21 357.68L370.07 357.89L369.94 358.09L369.79 358.29L369.64 358.49L369.48 358.68L369.32 358.86L369.15 359.04L368.98 359.21L368.8 359.38L368.62 359.55L368.43 359.7L368.24 359.85L368.05 360L367.85 360.14L367.64 360.27L367.44 360.4L367.22 360.52L367.01 360.64L366.79 360.74L366.57 360.85L366.34 360.94L366.11 361.03L365.88 361.11L365.65 361.19L365.41 361.25L365.17 361.31L364.93 361.37L364.68 361.41L364.44 361.45L364.19 361.48L363.94 361.51L363.69 361.52L363.43 361.53L363.18 361.53L354.17 361.53L354.09 361.53L354.02 361.53L353.94 361.52L353.87 361.52L353.79 361.51L353.72 361.51L353.64 361.5L353.57 361.5L353.49 361.49L353.42 361.48L353.34 361.48L353.27 361.47L353.19 361.46L353.12 361.45L353.05 361.44L352.97 361.43L352.9 361.42L352.82 361.4L352.75 361.39L352.68 361.38L352.6 361.36L352.53 361.35L352.46 361.33L352.38 361.32L352.31 361.3L352.24 361.29L352.16 361.27L352.09 361.25L352.02 361.23L351.95 361.21L351.87 361.19L351.8 361.17L351.73 361.15L351.66 361.13L351.59 361.1L351.51 361.08L351.44 361.06L351.37 361.03L351.3 361.01L351.23 360.98L351.16 361.01L351.09 361.03L351.02 361.06L350.95 361.08L350.88 361.1L350.81 361.13L350.74 361.15L350.67 361.17L350.6 361.19L350.53 361.21L350.46 361.23L350.39 361.25L350.32 361.27L350.25 361.29L350.18 361.3L350.1 361.32L350.03 361.33L349.96 361.35L349.89 361.36L349.82 361.38L349.74 361.39L349.67 361.4L349.6 361.42L349.53 361.43L349.45 361.44L349.38 361.45L349.31 361.46L349.24 361.47L349.16 361.48L349.09 361.48L349.02 361.49L348.94 361.5L348.87 361.5L348.8 361.51L348.72 361.51L348.65 361.52L348.58 361.52L348.5 361.53L348.43 361.53L348.35 361.53L339.67 361.53L339.33 361.52L339 361.5L338.67 361.47L338.35 361.42L338.03 361.36L337.72 361.29L337.41 361.21L337.11 361.12L336.81 361.01L336.51 360.89L336.22 360.76L335.94 360.62L335.67 360.48L335.4 360.32L335.14 360.15L334.88 359.97L334.63 359.78L334.39 359.58L334.16 359.37L333.94 359.16L333.72 358.93L333.51 358.7L333.32 358.46L333.13 358.21L332.95 357.96L332.78 357.7L332.62 357.43L332.47 357.15L332.33 356.87L332.2 356.58L332.08 356.29L331.98 355.99L331.88 355.68L331.8 355.37L331.73 355.06L331.67 354.74L331.62 354.42L331.59 354.09L331.57 353.76L331.56 353.43L331.56 341.4L331.48 341.64L331.38 341.88L331.28 342.11L331.17 342.34L331.05 342.57L330.93 342.79L330.8 343.01L330.67 343.22L330.52 343.42L330.38 343.62L330.22 343.82L330.06 344.01L329.9 344.2L329.73 344.38L329.56 344.55L329.38 344.72L329.19 344.89L329 345.05L328.81 345.2L328.61 345.34L328.4 345.48L328.2 345.62L327.98 345.75L327.77 345.87L327.55 345.98L327.33 346.09L327.1 346.19L326.87 346.29L326.64 346.37L326.4 346.45L326.16 346.53L325.92 346.59L325.68 346.65L325.43 346.7L325.18 346.75L324.93 346.78L324.68 346.81L324.42 346.83L324.17 346.84L323.91 346.85L314.92 346.85L314.66 346.84L314.41 346.83L314.16 346.81L313.91 346.78L313.66 346.75L313.41 346.7L313.17 346.65L312.93 346.6L312.69 346.53L312.45 346.46L312.22 346.38L311.99 346.3L311.76 346.2L311.53 346.1L311.31 346L311.1 345.89L310.88 345.77L310.67 345.64L310.47 345.51L310.26 345.37L310.07 345.23L309.87 345.08L309.68 344.93L309.5 344.77L309.32 344.6L309.15 344.43L308.98 344.25L308.81 344.07L308.65 343.88L308.5 343.69L308.35 343.49L308.21 343.29L308.08 343.08L307.95 342.87L307.82 342.65L307.7 342.43L307.59 342.2L307.49 341.97L307.39 341.74L307.3 341.5L307.3 353.43L307.29 353.76L307.27 354.09L307.24 354.42L307.2 354.74L307.14 355.06L307.07 355.37L306.98 355.68L306.89 355.99L306.78 356.29L306.66 356.58L306.54 356.87L306.4 357.15L306.25 357.43L306.09 357.7L305.92 357.96L305.74 358.21L305.55 358.46L305.35 358.7L305.14 358.93L304.93 359.16L304.7 359.37L304.47 359.58L304.23 359.78L303.98 359.97L303.73 360.15L303.47 360.32L303.2 360.48L302.92 360.62L302.64 360.76L302.35 360.89L302.06 361.01L301.76 361.12L301.46 361.21L301.15 361.29L300.83 361.36L300.51 361.42L300.19 361.47L299.86 361.5L299.53 361.52L299.2 361.53L291.77 361.53L291.63 361.53L291.49 361.52L291.35 361.51L291.21 361.5L291.07 361.49L290.93 361.48L290.79 361.46L290.65 361.44L290.51 361.42L290.38 361.4L290.24 361.37L290.11 361.34L289.97 361.31L289.84 361.28L289.7 361.24L289.57 361.21L289.44 361.17L289.3 361.12L289.17 361.08L289.04 361.03L288.91 360.98L288.78 360.93L288.66 360.88L288.53 360.82L288.4 360.77L288.28 360.71L288.15 360.64L288.03 360.58L287.91 360.51L287.79 360.44L287.67 360.37L287.55 360.3L287.43 360.23L287.31 360.15L287.2 360.07L287.09 359.99L286.97 359.91L286.86 359.82L286.75 359.73L286.64 359.65L286.53 359.73L286.42 359.82L286.31 359.91L286.2 359.99L286.09 360.07L285.97 360.15L285.86 360.23L285.74 360.3L285.62 360.37L285.5 360.44L285.38 360.51L285.26 360.58L285.13 360.64L285.01 360.71L284.88 360.77L284.76 360.82L284.63 360.88L284.5 360.93L284.37 360.98L284.24 361.03L284.11 361.08L283.98 361.12L283.85 361.17L283.72 361.21L283.58 361.24L283.45 361.28L283.32 361.31L283.18 361.34L283.04 361.37L282.91 361.4L282.77 361.42L282.63 361.44L282.5 361.46L282.36 361.48L282.22 361.49L282.08 361.5L281.94 361.51L281.8 361.52L281.66 361.53L281.52 361.53L272.81 361.53L272.48 361.52L272.15 361.5L271.82 361.47L271.5 361.42L271.18 361.36L270.86 361.29L270.55 361.21L270.25 361.12L269.95 361.01L269.66 360.89L269.37 360.76L269.09 360.62L268.81 360.48L268.54 360.32L268.28 360.15L268.03 359.97L267.78 359.78L267.54 359.58L267.31 359.37L267.08 359.16L266.87 358.93L266.66 358.7L266.46 358.46L266.27 358.21L266.09 357.96L265.92 357.7L265.76 357.43L265.61 357.15L265.47 356.87L265.35 356.58L265.23 356.29L265.12 355.99L265.03 355.68L264.94 355.37L264.87 355.06L264.81 354.74L264.77 354.42L264.74 354.09L264.72 353.76L264.71 353.43L264.71 341.4L264.62 341.64L264.53 341.88L264.42 342.11L264.31 342.34L264.2 342.57L264.08 342.79L263.95 343L263.81 343.21L263.67 343.42L263.52 343.62L263.37 343.82L263.21 344.01L263.05 344.19L262.88 344.37L262.71 344.55L262.53 344.72L262.34 344.88L262.15 345.04L261.96 345.19L261.76 345.34L261.56 345.48L261.35 345.61L261.14 345.74L260.92 345.86L260.71 345.98L260.48 346.08L260.26 346.19L260.03 346.28L259.8 346.37L259.56 346.45L259.32 346.52L259.08 346.59L258.84 346.65L258.59 346.7L258.34 346.74L258.09 346.78L257.84 346.81L257.59 346.83L257.33 346.84L257.07 346.85L248.06 346.85L247.81 346.84L247.55 346.83L247.3 346.81L247.05 346.78L246.8 346.74L246.56 346.7L246.32 346.65L246.08 346.59L245.84 346.53L245.6 346.46L245.37 346.38L245.14 346.29L244.91 346.2L244.69 346.1L244.47 345.99L244.25 345.88L244.04 345.76L243.83 345.64L243.62 345.51L243.42 345.37L243.22 345.23L243.03 345.08L242.84 344.92L242.66 344.76L242.48 344.59L242.31 344.42L242.14 344.25L241.97 344.06L241.82 343.88L241.66 343.68L241.51 343.49L241.37 343.28L241.24 343.08L241.11 342.86L240.98 342.65L240.87 342.43L240.76 342.2L240.65 341.97L240.56 341.74L240.47 341.5L240.47 353.41L240.46 353.74L240.44 354.07L240.41 354.4L240.36 354.72L240.3 355.04L240.23 355.35L240.15 355.66L240.05 355.97L239.95 356.27L239.83 356.56L239.7 356.85L239.56 357.13L239.41 357.41L239.25 357.67L239.08 357.94L238.9 358.19L238.71 358.44L238.52 358.68L238.31 358.91L238.09 359.14L237.87 359.35L237.64 359.56L237.4 359.76L237.15 359.95L236.89 360.13L236.63 360.3L236.36 360.45L236.09 360.6L235.81 360.74L235.52 360.87L235.22 360.99L234.93 361.1L234.62 361.19L234.31 361.27L234 361.34L233.68 361.4L233.36 361.45L233.03 361.48L232.7 361.5L232.36 361.51L224.93 361.51L224.6 361.5L224.27 361.48L223.94 361.45L223.62 361.4L223.3 361.34L222.98 361.27L222.68 361.19L222.37 361.1L222.07 360.99L221.78 360.87L221.49 360.74L221.21 360.6L220.93 360.45L220.66 360.3L220.4 360.13L220.15 359.95L219.9 359.76L219.66 359.56L219.43 359.35L219.2 359.14L218.99 358.91L218.78 358.68L218.58 358.44L218.39 358.19L218.21 357.94L218.04 357.67L217.88 357.41L217.73 357.13L217.6 356.85L217.47 356.56L217.35 356.27L217.24 355.97L217.15 355.66L217.07 355.35L216.99 355.04L216.94 354.72L216.89 354.4L216.86 354.07L216.84 353.74L216.83 353.41L216.83 344.09L216.8 344.16L216.78 344.23L216.75 344.31L216.72 344.38L216.69 344.45L216.66 344.52L216.64 344.59L216.61 344.66L216.58 344.73L216.55 344.8L216.52 344.88L216.49 344.95L216.46 345.02L216.43 345.09L216.4 345.16L216.37 345.23L216.34 345.3L216.31 345.37L216.28 345.44L216.25 345.51L216.21 345.58L216.18 345.65L216.15 345.72L216.12 345.79L216.09 345.86L216.05 345.93L216.02 346L215.99 346.06L215.95 346.13L215.92 346.2L215.89 346.27L215.85 346.34L215.82 346.41L215.79 346.48L215.75 346.55L215.72 346.61L215.68 346.68L215.65 346.75L215.61 346.82L215.57 346.89L215.13 347.68L214.67 348.45L214.2 349.2L213.71 349.94L213.21 350.65L212.69 351.35L212.16 352.02L211.61 352.68L211.05 353.32L210.47 353.94L209.88 354.54L209.27 355.12L208.65 355.68L208.01 356.22L207.36 356.74L206.7 357.24L206.02 357.72L205.33 358.19L204.63 358.63L203.91 359.05L203.18 359.45L202.43 359.83L201.67 360.2L200.9 360.54L200.12 360.86L199.32 361.16L198.51 361.44L197.68 361.7L196.85 361.94L196 362.16L195.14 362.36L194.26 362.54L193.37 362.69L192.48 362.83L191.57 362.95L190.64 363.04L189.71 363.12L188.76 363.17L187.8 363.2L186.84 363.21L186.01 363.2L185.19 363.19L184.38 363.15L183.58 363.11L182.79 363.05L182.01 362.98L181.24 362.9L180.47 362.81L179.72 362.7L178.98 362.59L178.25 362.45L177.53 362.31L176.82 362.15L176.12 361.99L175.42 361.81L174.74 361.61L174.07 361.41L173.41 361.19L172.76 360.96L172.11 360.72L171.48 360.46L170.86 360.19L170.25 359.91L169.65 359.62L169.06 359.32L168.47 359L167.9 358.67L167.34 358.33L166.79 357.98L166.25 357.61L165.72 357.24L165.2 356.85L164.69 356.44L164.19 356.03L163.71 355.6L163.23 355.16L162.76 354.71L162.3 354.25L161.85 353.77L161.42 353.29L161.15 352.96L160.89 352.63L160.63 352.3L160.37 351.97L160.12 351.63L159.88 351.29L159.64 350.95L159.4 350.61L159.17 350.26L158.94 349.91L158.72 349.55L158.5 349.2L158.29 348.84L158.08 348.48L157.87 348.11L157.67 347.75L157.48 347.38L157.29 347.01L157.1 346.63L156.92 346.26L156.75 345.88L156.58 345.5L156.41 345.11L156.25 344.73L156.09 344.34L155.94 343.95L155.79 343.56L155.65 343.17L155.52 342.77L155.38 342.38L155.26 341.98L155.14 341.58L155.02 341.18L154.91 340.77L154.8 340.37L154.7 339.96L154.61 339.55L154.52 339.14L154.43 338.73L154.35 338.32L154.27 338.85L154.18 339.37L154.07 339.89L153.96 340.41L153.84 340.92L153.71 341.43L153.56 341.94L153.41 342.44L153.25 342.94L153.07 343.44L152.89 343.93L152.7 344.42L152.5 344.9L152.29 345.38L152.07 345.85L151.84 346.32L151.6 346.79L151.35 347.25L151.09 347.7L150.83 348.15L150.55 348.59L150.27 349.03L149.97 349.46L149.67 349.89L149.36 350.31L149.04 350.73L148.72 351.14L148.38 351.54L148.04 351.93L147.69 352.32L147.33 352.7L146.96 353.08L146.58 353.45L146.2 353.81L145.81 354.16L145.41 354.51L145 354.85L144.59 355.18L144.17 355.5L143.74 355.82L143.24 356.18L142.74 356.53L142.23 356.88L141.71 357.22L141.19 357.54L140.66 357.86L140.12 358.17L139.57 358.47L139.01 358.76L138.45 359.04L137.88 359.31L137.3 359.58L136.72 359.83L136.13 360.07L135.53 360.31L134.92 360.54L134.31 360.75L133.68 360.96L133.06 361.16L132.42 361.35L131.78 361.53L131.13 361.7L130.47 361.87L129.8 362.02L129.13 362.16L128.45 362.3L127.77 362.42L127.08 362.54L126.38 362.65L125.67 362.74L124.95 362.83L124.23 362.91L123.51 362.98L122.77 363.04L122.03 363.09L121.28 363.14L120.52 363.17L119.76 363.19L118.99 363.21L118.22 363.21L117.57 363.19L116.93 363.16L116.29 363.13L115.64 363.1L115 363.06L114.36 363.02L113.72 362.97L113.07 362.92L112.43 362.87L111.79 362.81L111.15 362.75L110.51 362.68L109.87 362.61L109.23 362.53L108.59 362.45L107.96 362.37L107.32 362.28L106.68 362.19L106.04 362.1L105.41 362L104.77 361.89L104.14 361.79L103.51 361.67L102.87 361.56L102.24 361.44L101.61 361.32L100.98 361.19L100.35 361.06L99.72 360.92L99.09 360.78L98.47 360.64L97.84 360.49L97.21 360.34L96.59 360.18L95.97 360.02L95.34 359.86L94.72 359.69L94.1 359.52L93.48 359.34L92.86 359.16L92.6 359.09L92.33 359L92.08 358.91L91.82 358.82L91.58 358.71L91.33 358.6L91.09 358.48L90.86 358.35L90.63 358.21L90.41 358.07L90.19 357.92L89.98 357.76L89.77 357.6L89.57 357.43L89.37 357.25L89.18 357.07L89 356.88L88.82 356.69L88.65 356.49L88.49 356.29L88.33 356.08L88.18 355.86L88.04 355.64L87.9 355.42L87.77 355.19L87.65 354.96L87.54 354.72L87.43 354.48L87.33 354.24L87.24 353.99L87.15 353.74L87.08 353.48L87.01 353.22L86.95 352.96L86.9 352.7L86.86 352.43L86.83 352.16L86.81 351.89L86.79 351.62L86.78 351.34L86.78 340.77L86.79 340.68L86.79 340.6L86.79 340.51L86.79 340.43L86.8 340.34L86.8 340.25L86.81 340.17L86.81 340.08L86.82 340L86.83 339.91L86.84 339.83L86.85 339.74L86.86 339.66L86.87 339.57L86.89 339.49L86.9 339.41L86.91 339.32L86.93 339.24L86.95 339.15L86.96 339.07L86.98 338.99L87 338.9L87.02 338.82L87.04 338.74L87.07 338.65L87.09 338.57L87.11 338.49L87.14 338.41L87.16 338.33L87.19 338.24L87.21 338.16L87.24 338.08L87.27 338L87.3 337.92L87.33 337.84L87.36 337.76L87.4 337.68L87.43 337.6L87.46 337.52L87.5 337.44L87.64 337.14L87.79 336.85L87.96 336.57L88.13 336.29L88.32 336.02L88.51 335.77L88.71 335.52L88.92 335.28L89.14 335.05L89.37 334.83L89.61 334.62L89.85 334.42L90.1 334.23L90.35 334.05L90.62 333.88L90.88 333.72L91.16 333.57L91.44 333.44L91.72 333.31L92.01 333.19L92.3 333.09L92.6 332.99L92.9 332.91L93.2 332.84L93.51 332.78L93.82 332.73L94.13 332.7L94.44 332.68L94.76 332.66L95.07 332.66L95.39 332.68L95.7 332.7L96.02 332.74L96.34 332.79L96.65 332.86L96.97 332.94L97.28 333.03L97.59 333.13L97.9 333.25L98.21 333.38L98.83 333.65L99.45 333.91L100.06 334.17L100.67 334.43L101.27 334.67L101.87 334.91L102.46 335.15L103.04 335.38L103.62 335.6L104.19 335.81L104.75 336.02L105.31 336.22L105.87 336.42L106.42 336.61L106.96 336.79L107.49 336.96L108.02 337.13L108.54 337.29L109.06 337.45L109.57 337.6L110.08 337.74L110.58 337.87L111.07 338L111.55 338.12L112.03 338.23L112.51 338.34L112.97 338.44L113.43 338.53L113.89 338.62L114.34 338.69L114.78 338.77L115.21 338.83L115.64 338.88L116.06 338.93L116.48 338.97L116.89 339.01L117.29 339.03L117.69 339.05L118.08 339.06L118.46 339.07L118.67 339.08L118.88 339.08L119.09 339.09L119.3 339.09L119.51 339.09L119.72 339.08L119.93 339.08L120.14 339.07L120.35 339.05L120.56 339.04L120.77 339.02L120.98 339L121.19 338.97L121.4 338.94L121.6 338.91L121.81 338.88L122.02 338.85L122.22 338.81L122.43 338.77L122.63 338.72L122.84 338.68L123.04 338.63L123.24 338.58L123.44 338.52L123.65 338.47L123.85 338.41L124.05 338.34L124.25 338.28L124.44 338.21L124.64 338.14L124.84 338.07L125.03 337.99L125.23 337.91L125.42 337.83L125.61 337.75L125.81 337.66L126 337.57L126.19 337.48L126.37 337.38L126.56 337.29L126.64 337.23L126.72 337.18L126.79 337.13L126.85 337.08L126.92 337.04L126.98 336.99L127.03 336.94L127.09 336.9L127.14 336.85L127.18 336.81L127.23 336.77L127.27 336.73L127.31 336.69L127.34 336.65L127.37 336.61L127.4 336.57L127.43 336.53L127.46 336.49L127.48 336.45L127.5 336.42L127.52 336.38L127.54 336.34L127.55 336.3L127.57 336.27L127.58 336.23L127.59 336.2L127.6 336.16L127.61 336.12L127.61 336.09L127.62 336.05L127.62 336.01L127.63 335.98L127.63 335.94L127.63 335.9L127.63 335.86L127.63 335.82L127.63 335.79L127.64 335.75L127.64 335.71L127.64 335.67L127.64 335.48L127.42 335.36L127.21 335.23L127 335.1L126.78 334.98L126.57 334.86L126.35 334.73L126.14 334.61L125.92 334.49L125.7 334.38L125.49 334.26L125.27 334.15L125.05 334.03L124.83 333.92L124.61 333.81L124.38 333.7L124.16 333.59L123.94 333.49L123.72 333.38L123.49 333.28L123.27 333.18L123.04 333.08L122.81 332.98L122.59 332.88L122.36 332.78L122.13 332.69L121.9 332.59L121.67 332.5L121.44 332.41L121.21 332.32L120.98 332.23L120.75 332.15L120.52 332.06L120.29 331.98L120.05 331.9L119.82 331.81L119.59 331.74L119.35 331.66L119.12 331.58L118.88 331.51L118.64 331.43L111.51 328.84L110.89 328.6L110.28 328.36L109.68 328.12L109.09 327.88L108.5 327.64L107.93 327.39L107.36 327.15L106.81 326.91L106.26 326.66L105.72 326.42L105.2 326.18L104.68 325.93L104.17 325.69L103.67 325.44L103.18 325.19L102.69 324.94L102.22 324.69L101.75 324.45L101.3 324.2L100.85 323.94L100.41 323.69L99.98 323.44L99.56 323.19L99.15 322.93L98.75 322.68L98.35 322.42L97.97 322.16L97.59 321.9L97.22 321.64L96.86 321.38L96.51 321.12L96.16 320.86L95.83 320.6L95.5 320.33L95.18 320.06L94.87 319.8L94.57 319.53L94.27 319.26L93.99 318.99L93.71 318.71L93.39 318.37L93.08 318.03L92.77 317.67L92.47 317.31L92.18 316.95L91.9 316.58L91.62 316.21L91.35 315.83L91.09 315.45L90.84 315.06L90.6 314.67L90.36 314.27L90.13 313.87L89.91 313.46L89.7 313.05L89.5 312.64L89.3 312.22L89.12 311.8L88.94 311.38L88.77 310.95L88.61 310.52L88.46 310.09L88.31 309.65L88.17 309.21L88.05 308.77L87.93 308.32L87.82 307.87L87.72 307.42L87.63 306.97L87.54 306.52L87.47 306.06L87.4 305.6L87.35 305.14L87.3 304.68L87.26 304.22L87.23 303.75L87.21 303.29L87.2 302.82L87.2 302.35L87.21 301.88L87.2 301.28L87.19 300.68L87.21 300.08L87.23 299.49L87.27 298.89L87.33 298.3L87.4 297.71L87.48 297.13L87.57 296.54L87.68 295.96L87.8 295.39L87.93 294.81L88.08 294.24L88.24 293.68L88.41 293.11L88.6 292.56L88.8 292L89.01 291.46L89.23 290.91L89.46 290.38L89.71 289.84L89.97 289.32L90.24 288.8L90.52 288.28L90.82 287.78L91.12 287.27L91.44 286.78L91.77 286.29L92.11 285.81L92.46 285.34L92.83 284.87L93.2 284.42L93.59 283.97L93.98 283.53L94.39 283.09L94.81 282.67L95.24 282.25L95.68 281.85L96.13 281.45L96.59 281.06L97.02 280.72L97.46 280.39L97.91 280.06L98.36 279.75L98.82 279.44L99.29 279.14L99.77 278.85L100.26 278.57L100.75 278.29L101.25 278.03L101.75 277.77L102.27 277.53L102.79 277.29L103.32 277.06L103.86 276.84L104.4 276.62L104.95 276.42L105.51 276.22L106.08 276.04L106.65 275.86L107.23 275.69L107.82 275.53L108.41 275.38L109.01 275.23L109.62 275.1L110.24 274.97L110.86 274.85L111.49 274.74L112.13 274.64L112.77 274.55L113.42 274.47L114.08 274.4L114.74 274.33L115.42 274.27L116.1 274.23L116.78 274.19L117.47 274.16L118.17 274.13L118.88 274.12L119.59 274.12L120.19 274.13L120.78 274.14ZM385.84 317.44L384.91 319.87L386.77 319.87L385.84 317.44ZM449.17 308.22L450.52 308.1L451.83 307.83L453.1 307.42L454.33 306.88L455.49 306.2L456.17 305.62L456.7 304.92L457.07 304.13L457.27 303.28L457.3 302.39L457.3 302.11L457.29 301.83L457.27 301.55L457.23 301.27L457.17 300.99L455.58 300.59L453.97 300.3L452.35 300.1L450.71 300.01L449.07 300.02L449.17 308.22Z" id="c2oHTH1oC"></path><path d="M482.13 288.27C483.8 290.88 492.16 303.9 507.22 327.34C507.22 342.99 507.22 351.69 507.22 353.43C507.22 357.9 510.85 361.53 515.32 361.53C516.39 361.53 524.93 361.53 525.99 361.53C530.47 361.53 534.1 357.9 534.1 353.43C534.1 351.7 534.1 343.03 534.1 327.44C549.89 304.03 558.67 291.02 560.43 288.42C562.93 284.71 561.95 279.67 558.24 277.17C558.23 277.16 558.22 277.16 558.22 277.15C556.86 276.25 555.25 275.78 553.62 275.8C552.61 275.8 544.51 275.8 543.49 275.8C540.83 275.8 538.34 277.11 536.83 279.3C535.82 280.76 530.78 288.07 521.7 301.24C513.5 288.23 508.94 281.01 508.03 279.56C506.54 277.22 503.96 275.8 501.18 275.8C499.95 275.8 490.1 275.8 488.87 275.8C485.93 275.82 483.23 277.43 481.82 280.01C480.4 282.61 480.52 285.78 482.13 288.27Z" id="dioxbzZNh"></path><path d="M140.68 294.69C134.03 291.94 126.94 290.43 119.76 290.24C110.12 290.24 105.28 293.48 105.28 299.98C105.19 302.42 106.21 304.76 108.05 306.36C111.11 308.59 114.54 310.27 118.18 311.32C118.63 311.48 120.91 312.27 125 313.69C128.92 315.03 131.09 315.77 131.52 315.92C146.53 321.25 145.03 332.11 146.53 333.9C146.71 340.04 143.79 345.86 138.75 349.38C131.04 355.09 120.23 354.54 118.18 355.11C110.3 354.8 102.49 353.51 94.93 351.26C94.93 350.2 94.93 341.75 94.93 340.69C109.1 347.07 116.14 346.45 118.5 347.09C122.93 347.29 127.31 346.2 131.14 343.97C134.06 342.23 135.85 339.07 135.84 335.67C135.94 333.23 134.91 330.89 133.04 329.33C129.5 326.9 125.61 325.01 121.52 323.72C120.8 323.46 115.08 321.38 114.37 321.12C103.68 317.07 101.03 313.83 99.54 313.02C96.74 310.02 95.27 306.01 95.49 301.9C95.19 296.33 97.55 290.94 101.85 287.38C106.11 283.94 112.08 282.24 119.78 282.24C126.86 282.37 133.89 283.48 140.68 285.52C140.68 287.35 140.68 293.78 140.68 294.69Z" id="j2YHzVtERp"></path><path d="M161.11 283.9L171.79 283.9C171.79 309.22 171.79 323.29 171.79 326.11C171.79 333.48 172.94 338.81 175.27 342.13C177.6 345.45 181.35 347.09 186.57 347.09C191.8 347.09 196.03 345.43 198.44 342.13C200.85 338.83 202.07 333.42 202.09 325.92C202.09 323.12 202.09 309.11 202.09 283.9L211.34 283.9C211.34 308.12 211.34 321.57 211.34 324.26C211.34 332.97 210.31 339.21 208.24 343.02C201.72 355.17 188.79 353.95 186.63 355.17C173.57 355.17 169.24 348.72 167.31 348C163.14 343.22 161.07 335.87 161.11 325.94L161.11 283.9Z" id="ck65O1r0X"></path><path d="M224.81 353.43L224.81 283.9L237.69 283.9L252.98 326.71L252.98 326.71L267.97 283.9L281.52 283.9L281.52 353.43L272.79 353.43L272.79 293.76L272.79 293.76L257.13 338.74L248.12 338.74L232.53 295L232.53 295L232.53 353.43L224.81 353.43Z" id="e4dVvE0DK3"></path><path d="M291.65 353.43L291.65 283.9L304.49 283.9L319.78 326.71L319.78 326.71L334.87 283.9L348.35 283.9L348.35 353.43L339.63 353.43L339.63 293.76L339.52 293.76L323.87 338.74L314.88 338.74L299.26 295L299.26 295L299.26 353.43L291.65 353.43Z" id="a1ONIuFfrB"></path><path d="M408.32 353.43L401.72 336.03L369.98 336.03L363.24 353.43L354.11 353.43L381.47 283.9L392.14 283.9L419.63 353.43L408.32 353.43ZM398.56 328.01L385.8 294.69L373.16 328.01L398.56 328.01Z" id="e3xfqgSPps"></path><path d="M451.52 283.91L452.35 283.93L453.14 283.95L453.91 283.98L454.64 284.01L455.34 284.05L456.02 284.09L456.67 284.14L457.28 284.19L457.88 284.24L458.44 284.3L458.98 284.36L459.5 284.42L459.99 284.49L460.46 284.55L460.9 284.62L461.33 284.69L461.73 284.76L462.11 284.84L462.48 284.91L462.82 284.98L463.14 285.05L463.45 285.12L463.74 285.19L464.02 285.26L464.28 285.33L464.53 285.4L464.76 285.46L464.98 285.52L465.18 285.58L465.38 285.64L465.56 285.69L465.74 285.74L465.9 285.78L466.06 285.82L466.21 285.85L466.35 285.88L466.48 285.91L466.61 285.92L467.08 286.09L467.54 286.27L467.99 286.46L468.43 286.66L468.87 286.88L469.29 287.12L469.71 287.36L470.11 287.62L470.51 287.89L470.89 288.17L471.27 288.47L471.63 288.77L471.99 289.09L472.33 289.42L472.66 289.75L472.98 290.1L473.29 290.46L473.59 290.83L473.87 291.2L474.15 291.59L474.41 291.98L474.66 292.38L474.89 292.79L475.12 293.21L475.33 293.63L475.52 294.06L475.7 294.5L475.87 294.94L476.03 295.39L476.17 295.85L476.29 296.31L476.41 296.77L476.5 297.25L476.58 297.72L476.65 298.2L476.7 298.68L476.73 299.17L476.75 299.66L476.75 300.15L476.74 300.65L476.75 300.97L476.75 301.3L476.75 301.62L476.75 301.94L476.74 302.26L476.72 302.59L476.7 302.91L476.67 303.23L476.64 303.55L476.61 303.87L476.56 304.18L476.52 304.5L476.47 304.82L476.41 305.13L476.35 305.45L476.28 305.76L476.21 306.07L476.14 306.38L476.06 306.69L475.97 307L475.88 307.31L475.78 307.62L475.68 307.92L475.58 308.22L475.47 308.52L475.35 308.82L475.23 309.12L475.11 309.41L474.98 309.71L474.85 310L474.71 310.29L474.57 310.58L474.42 310.86L474.27 311.15L474.11 311.43L473.95 311.71L473.78 311.98L473.61 312.26L473.44 312.53L473.26 312.8L473.02 313.09L472.78 313.38L472.53 313.66L472.29 313.94L472.04 314.22L471.78 314.49L471.53 314.76L471.27 315.03L471 315.3L470.74 315.56L470.47 315.82L470.2 316.07L469.92 316.32L469.65 316.57L469.37 316.82L469.09 317.06L468.8 317.3L468.51 317.54L468.22 317.77L467.93 318L467.63 318.22L467.33 318.45L467.03 318.66L466.73 318.88L466.42 319.09L466.11 319.3L465.8 319.5L465.49 319.71L465.17 319.9L464.86 320.1L464.53 320.29L464.21 320.47L463.89 320.66L463.56 320.84L463.23 321.01L462.9 321.18L462.56 321.35L462.23 321.52L461.89 321.68L461.55 321.83L485.49 353.43L472.61 353.43L450.61 324.49L440.97 324.49L440.97 353.43L430.3 353.43L430.3 283.9L449.76 283.9L450.66 283.9L451.52 283.91ZM440.97 316.47L446.6 316.47L447.46 316.49L448.31 316.49L449.16 316.45L450.01 316.38L450.85 316.28L451.69 316.14L452.52 315.98L453.34 315.78L454.15 315.55L454.96 315.3L455.75 315.01L456.54 314.69L457.31 314.34L458.07 313.97L458.82 313.56L459.56 313.12L460.27 312.66L460.84 312.22L461.37 311.76L461.88 311.27L462.35 310.75L462.79 310.21L463.2 309.65L463.57 309.07L463.91 308.46L464.22 307.84L464.48 307.2L464.72 306.54L464.91 305.88L465.07 305.2L465.19 304.51L465.26 303.81L465.3 303.1L465.3 302.39L465.28 301.69L465.24 301.02L465.18 300.37L465.09 299.75L464.97 299.16L464.83 298.6L464.66 298.06L464.46 297.55L464.24 297.07L463.99 296.61L463.71 296.18L463.41 295.77L463.08 295.4L462.73 295.05L462.35 294.72L461.94 294.42L461.51 294.15L461.04 293.89L460.53 293.66L459.97 293.43L459.37 293.22L458.72 293.03L458.03 292.85L457.3 292.69L456.52 292.55L455.7 292.41L454.83 292.3L453.92 292.2L452.97 292.11L451.97 292.04L450.93 291.99L449.84 291.95L448.71 291.93L447.53 291.92L440.97 291.92L440.97 316.47Z" id="arPMOACcx"></path><path d="M515.32 353.43L515.32 325.07L488.99 284L501.31 284L521.56 316.08L543.49 283.9L553.62 283.9L525.99 325.07L525.99 353.43L515.32 353.43Z" id="m2iMdMD97J"></path></defs><g><g><use xlink:href="#a6Fivyog9N" opacity="1" fill="#f5e929" fill-opacity="1"></use><g><use xlink:href="#a6Fivyog9N" opacity="1" fill-opacity="0" stroke="#231815" stroke-width="4" stroke-opacity="1"></use></g></g><g><use xlink:href="#c2oHTH1oC" opacity="1" fill="#231815" fill-opacity="1"></use><g><use xlink:href="#c2oHTH1oC" opacity="1" fill-opacity="0" stroke="#000000" stroke-width="1" stroke-opacity="0"></use></g></g><g><use xlink:href="#dioxbzZNh" opacity="1" fill="#231815" fill-opacity="1"></use><g><use xlink:href="#dioxbzZNh" opacity="1" fill-opacity="0" stroke="#000000" stroke-width="1" stroke-opacity="0"></use></g></g><g><use xlink:href="#j2YHzVtERp" opacity="1" fill="#2096d5" fill-opacity="1"></use><g><use xlink:href="#j2YHzVtERp" opacity="1" fill-opacity="0" stroke="#000000" stroke-width="1" stroke-opacity="0"></use></g></g><g><use xlink:href="#ck65O1r0X" opacity="1" fill="#2096d5" fill-opacity="1"></use><g><use xlink:href="#ck65O1r0X" opacity="1" fill-opacity="0" stroke="#000000" stroke-width="1" stroke-opacity="0"></use></g></g><g><use xlink:href="#e4dVvE0DK3" opacity="1" fill="#2096d5" fill-opacity="1"></use><g><use xlink:href="#e4dVvE0DK3" opacity="1" fill-opacity="0" stroke="#000000" stroke-width="1" stroke-opacity="0"></use></g></g><g><use xlink:href="#a1ONIuFfrB" opacity="1" fill="#2096d5" fill-opacity="1"></use><g><use xlink:href="#a1ONIuFfrB" opacity="1" fill-opacity="0" stroke="#000000" stroke-width="1" stroke-opacity="0"></use></g></g><g><use xlink:href="#e3xfqgSPps" opacity="1" fill="#2096d5" fill-opacity="1"></use><g><use xlink:href="#e3xfqgSPps" opacity="1" fill-opacity="0" stroke="#000000" stroke-width="1" stroke-opacity="0"></use></g></g><g><use xlink:href="#arPMOACcx" opacity="1" fill="#2096d5" fill-opacity="1"></use><g><use xlink:href="#arPMOACcx" opacity="1" fill-opacity="0" stroke="#000000" stroke-width="1" stroke-opacity="0"></use></g></g><g><use xlink:href="#m2iMdMD97J" opacity="1" fill="#2096d5" fill-opacity="1"></use><g><use xlink:href="#m2iMdMD97J" opacity="1" fill-opacity="0" stroke="#000000" stroke-width="1" stroke-opacity="0"></use></g></g></g></svg>