<svg id="レイヤー_1" data-name="レイヤー 1" xmlns="http://www.w3.org/2000/svg" viewBox="0 0 936.88 305"><defs><style>.cls-1{fill:#f5e929;}.cls-2{fill:#231815;}.cls-3{fill:#2096d5;}.cls-4{fill:#fff100;}</style></defs><title>summary_c</title><rect class="cls-1" x="5.13" y="5.17" width="316" height="72"/><path class="cls-2" d="M323.13,79.17H3.13v-76h320Zm-316-4h312v-68H7.13Z"/><path class="cls-2" d="M189.37,58.27l2.31-6h10.17l2.27,6a4,4,0,0,0,3.74,2.57h5.58a4,4,0,0,0,2.64-1,4,4,0,0,0,2.63,1H224a4,4,0,0,0,4-4V48.16l8.41,11.09a4,4,0,0,0,3.21,1.59H246a4,4,0,0,0,3.19-6.42L240,42.29a14.8,14.8,0,0,0,3.18-3.19,13.81,13.81,0,0,0,2.45-8.33,11.3,11.3,0,0,0-7.41-11c-2.1-.9-5.24-1.31-9.88-1.31H218.7a4,4,0,0,0-4,4v26.7L203.6,21a4,4,0,0,0-3.72-2.53H194.6A4,4,0,0,0,190.88,21l-8.69,22V22.51a4,4,0,0,0-4-4H171.6a4,4,0,0,0-3.77,2.67l-3.7,10.55-3.77-10.57a4,4,0,0,0-3.76-2.65h-6.34a4,4,0,0,0-2.53.92,4,4,0,0,0-2.53-.92h-6.6a4,4,0,0,0-3.77,2.67l-3.7,10.55-3.77-10.57a4,4,0,0,0-3.76-2.65h-6.34A4,4,0,0,0,114,20.25a4,4,0,0,0-3.3-1.74h-4.6a4,4,0,0,0-4,4V43.22c0,3.86-.72,5.26-1,5.68a3.47,3.47,0,0,1-2.64.81c-1.78,0-2.16-.55-2.31-.76-.3-.42-1-1.82-1-5.6V22.51a4,4,0,0,0-4-4H85.8a4,4,0,0,0-4,4V42.84c-1.11-3-3.67-6.28-9.4-8.3l-3.19-1.08-3.37-1.18a14.84,14.84,0,0,1-3.59-1.61.74.74,0,0,1,0-.21v-.28c.14-.1.9-.53,3.13-.53a25.34,25.34,0,0,1,8.88,2,4,4,0,0,0,1.45.27,4,4,0,0,0,4-4V23.31a4,4,0,0,0-2.91-3.85,43,43,0,0,0-11.5-1.78c-4.72,0-8.54,1.15-11.36,3.43a12.73,12.73,0,0,0-4.63,10.28,11.52,11.52,0,0,0,3.21,8.31c1.8,1.8,4.67,3.42,8.79,5L64.83,46a20.4,20.4,0,0,1,4.44,2v.1c0,.27,0,.45-.53.8a7.51,7.51,0,0,1-4,.88c-2.5,0-5.87-1-10-2.81A4,4,0,0,0,49.1,50.6v5.22a4,4,0,0,0,3,3.86,49.66,49.66,0,0,0,12.52,2c5.13,0,9.37-1.23,12.6-3.65a12.91,12.91,0,0,0,5.24-8.64A16.32,16.32,0,0,0,86,56.78C88.79,60,93,61.68,98.5,61.68c6.42,0,11.33-2.79,14.19-8.06a10.6,10.6,0,0,0,.62-1.38v4.6a4,4,0,0,0,4,4H121a4,4,0,0,0,4-4V51a4,4,0,0,0,3.75,2.64h4.45A4,4,0,0,0,137,50.9v5.94a4,4,0,0,0,4,4h4.31a4,4,0,0,0,2.53-.93,4,4,0,0,0,2.53.93H154a4,4,0,0,0,4-4V51a4,4,0,0,0,3.76,2.64h4.44A4,4,0,0,0,170,50.9v5.94a4,4,0,0,0,4,4h4.31a4.26,4.26,0,0,0,1.42-.27,4,4,0,0,0,1.45.27h4.45A4,4,0,0,0,189.37,58.27ZM228,30.47a12.87,12.87,0,0,1,4,.48,2.69,2.69,0,0,1,.06.69,2,2,0,0,1-.89,1.88,6,6,0,0,1-3.12,1Zm-31.22,8.62.46,1.2h-.92Z"/><path class="cls-2" d="M244.15,20.59a4,4,0,0,0,.15,4.08L256.69,44V56.84a4,4,0,0,0,4,4H266a4,4,0,0,0,4-4V44l13-19.27a4,4,0,0,0-3.36-6.23h-5a4,4,0,0,0-3.29,1.73l-7.47,10.84-6.75-10.71a4,4,0,0,0-3.38-1.86h-6.08A4,4,0,0,0,244.15,20.59Z"/><path class="cls-3" d="M75.71,23.31v4.53a29.32,29.32,0,0,0-10.33-2.2c-4.76,0-7.15,1.6-7.15,4.81A4,4,0,0,0,59.6,33.6a15.63,15.63,0,0,0,5,2.45L68,37.22l3.22,1.1q7.41,2.63,7.41,8.88a9,9,0,0,1-3.84,7.64q-3.81,2.83-10.16,2.83a46.63,46.63,0,0,1-11.48-1.9V50.55q7,3.15,11.64,3.16A11.26,11.26,0,0,0,71,52.17,4.74,4.74,0,0,0,73.32,48a3.82,3.82,0,0,0-1.38-3.13,21.72,21.72,0,0,0-5.68-2.73l-3.53-1.28c-3.52-1.33-6-2.67-7.32-4a7.5,7.5,0,0,1-2-5.49,8.74,8.74,0,0,1,3.14-7.17c2.1-1.7,5.05-2.54,8.85-2.54A38.66,38.66,0,0,1,75.71,23.31Z"/><path class="cls-3" d="M85.8,22.51h5.27V43.35c0,3.64.58,6.28,1.72,7.91s3,2.45,5.58,2.45,4.68-.82,5.86-2.45,1.79-4.3,1.8-8V22.51h4.57V42.44q0,6.45-1.53,9.26-3.22,6-10.67,6-6.45,0-9.54-3.54T85.8,43.27Z"/><path class="cls-3" d="M117.24,56.84V22.51h6.36l7.55,21.14h0l7.4-21.14h6.61V56.84H140.9V27.38h0l-7.73,22.21h-4.45L121,28h0V56.84Z"/><path class="cls-3" d="M150.26,56.84V22.51h6.34l7.55,21.14h0l7.45-21.14h6.61V56.84H173.9V27.38h-.05l-7.73,22.21h-4.44L154,28h0V56.84Z"/><path class="cls-3" d="M181.09,56.84,194.6,22.51h5.27l13.57,34.33h-5.58l-3.26-8.59H188.93l-3.33,8.59Zm9.41-12.55H203l-6.3-16.45Z"/><path class="cls-3" d="M218.71,56.84V22.51h9.61q6,0,8.32,1a7.3,7.3,0,0,1,5,7.27,9.93,9.93,0,0,1-1.72,6,15.8,15.8,0,0,1-5.78,4.46L246,56.84H239.6L228.74,42.55H224V56.84ZM224,38.59h2.78a10.93,10.93,0,0,0,6.75-1.88A6,6,0,0,0,236,31.64c0-2-.62-3.34-1.87-4.07s-3.55-1.1-6.9-1.1H224Z"/><path class="cls-3" d="M260.69,56.84v-14l-13-20.28h6.08l10,15.84L274.6,22.51h5L266,42.84v14Z"/><path class="cls-2" d="M35.77,201.81a4.23,4.23,0,0,0,.6,3.21l6.3,9.6a4.27,4.27,0,0,0,2.7,1.83,4.19,4.19,0,0,0,.86.09,4.26,4.26,0,0,0,2.34-.71l7.75-5.12c12.24-8.09,21.84-14.43,30.05-20.17v61.64a4.26,4.26,0,0,0,4.26,4.26h11.7a4.26,4.26,0,0,0,4.25-4.26V175.26c19.78-15.11,27.9-28.17,27.9-44.72a4.25,4.25,0,0,0-4.26-4.25H118.67a4.25,4.25,0,0,0-4.25,4.25c0,19.05-21.88,33.16-65.48,61.26l-11.32,7.32A4.22,4.22,0,0,0,35.77,201.81Z"/><path class="cls-2" d="M228.7,146.5a4.24,4.24,0,0,0-2.92-1.16h-.37a4.29,4.29,0,0,0-3,1.7l-42.3,57a4.26,4.26,0,0,0,.93,6l9.75,7.05a4.23,4.23,0,0,0,2.49.81,4,4,0,0,0,.69-.06,4.28,4.28,0,0,0,2.78-1.74l30.85-43.6,61.53,61a4.26,4.26,0,0,0,3,1.24h.08a4.3,4.3,0,0,0,3-1.35l9-9.6a4.24,4.24,0,0,0-.18-6Z"/><rect class="cls-2" x="256.02" y="137.99" width="17.35" height="31.75" rx="4.25" ry="4.25"/><rect class="cls-2" x="274.62" y="138.14" width="17.35" height="31.75" rx="4.25" ry="4.25"/><path class="cls-2" d="M447.92,177.55a4.25,4.25,0,0,0-1.7-5.74L435.57,166a4.23,4.23,0,0,0-2.05-.53,4,4,0,0,0-1.19.18,4.19,4.19,0,0,0-2.54,2l-.19.35c-26.09,48-34,62.52-77.82,62.52a4.25,4.25,0,0,0-4.25,4.25v11.1a4.25,4.25,0,0,0,4.25,4.26c57,0,69.82-23.76,95.34-71.1Z"/><rect class="cls-2" x="343.48" y="140.99" width="50.2" height="19.9" rx="4.25" ry="4.25"/><path class="cls-2" d="M528.63,123.59H517.08a4.25,4.25,0,0,0-4.25,4.25V250.53a4.25,4.25,0,0,0,4.25,4.25h11.55a4.25,4.25,0,0,0,4.25-4.25v-60c13.75,7.63,27.18,15.36,42.74,26.68a4.2,4.2,0,0,0,2.5.82,3.71,3.71,0,0,0,.74-.07,4.29,4.29,0,0,0,2.79-1.8l6.6-9.75a4.27,4.27,0,0,0,.64-3.22,4.23,4.23,0,0,0-1.84-2.72,486.9,486.9,0,0,0-54.17-31.21V127.84A4.25,4.25,0,0,0,528.63,123.59Z"/><path class="cls-2" d="M755,174.13H742c1-10.13,1.63-21,1.87-30.94h6.77a4.25,4.25,0,0,0,4.26-4.25v-9.15a4.25,4.25,0,0,0-4.26-4.25H706.38a4.26,4.26,0,0,0-3.75-2.25H670.08a4.25,4.25,0,0,0-4.25,4.25v20h-7.1v-26a4.25,4.25,0,0,0-4.25-4.25h-9.3a4.25,4.25,0,0,0-4.25,4.25v26.05H627a4.25,4.25,0,0,0-4.25,4.25v9.6a4.25,4.25,0,0,0,4.25,4.25h11.58c-4.49,18.19-10.67,34.19-18.41,47.62a4.27,4.27,0,0,0-.16,4l5.25,10.95a4.25,4.25,0,0,0,3.7,2.41h.14a4.27,4.27,0,0,0,3.7-2.16,155.68,155.68,0,0,0,8.1-16.64v44.54a4.25,4.25,0,0,0,4.25,4.26h9.3a4.25,4.25,0,0,0,4.25-4.26v-13.7l2.76,5.43a4.21,4.21,0,0,0,2.55,2.14,4.39,4.39,0,0,0,1.24.19,4.26,4.26,0,0,0,2.08-.55,299.29,299.29,0,0,0,29.83-19.12l.56,1.47a4.21,4.21,0,0,0,.6,1.08,108.75,108.75,0,0,1-15,13.18,4.26,4.26,0,0,0-.77,6.15l6.6,8a4.25,4.25,0,0,0,5.89.64,123.4,123.4,0,0,0,29.13-31.68v15.87c0,13.56,9.57,13.56,16.55,13.56,2.48,0,10,0,14.17-6.22,3.38-5,3.89-18.48,3.89-26.09a4.26,4.26,0,0,0-2.62-3.92l-9-3.75a4.25,4.25,0,0,0-1.64-.33,4.29,4.29,0,0,0-3.69,2.15V197.44a4.25,4.25,0,0,0-3.09-4.09l.38-1.56H755a4.26,4.26,0,0,0,4.26-4.25v-9.15A4.26,4.26,0,0,0,755,174.13Zm-89.14,55c-.66.31-1.33.6-2,.91-1,.42-2,.85-3,1.35l-2.09,1V202.57q1.18,2,2.35,4.23a4.25,4.25,0,0,0,3.75,2.24h0a4.13,4.13,0,0,0,1-.12Zm0-46.14c-2.45-2.86-4.86-5.57-7.1-8.07v-9.27h7.1Zm17.35-42.24h6.49v11h-6.49Zm0,28.2h6.49v11.89h-6.49Zm0,50.5v-21.1h5.07l-1.59.94a4.23,4.23,0,0,0-2,2.62,4.28,4.28,0,0,0,.49,3.24c1.79,2.95,3.59,6.19,5.36,9.67C688.08,216.47,685.61,218,683.18,219.49Zm23.7-76.3H708v30.94h-1.09Zm4,73.58A174.62,174.62,0,0,0,701,198.39h1.59a4.26,4.26,0,0,0,4.25-4.25v-2.35h14.29A92,92,0,0,1,710.91,216.77ZM725,166.06V143.19h1.42C726.19,150.28,725.72,157.93,725,166.06Z"/><path class="cls-2" d="M902.12,197.08H840.6q1.15-2.33,2.27-4.83a4.4,4.4,0,0,0,.36-1.81h49.44a4.26,4.26,0,0,0,4.26-4.25V151.54a4.25,4.25,0,0,0-4.26-4.25H865.28v-4.55h34.89a4.25,4.25,0,0,0,4.26-4.25v-9.3a4.25,4.25,0,0,0-4.26-4.25H782.28a4.25,4.25,0,0,0-4.25,4.25v9.3a4.25,4.25,0,0,0,4.25,4.25h34.3v4.55h-27a4.25,4.25,0,0,0-4.25,4.25v34.65a4.25,4.25,0,0,0,4.25,4.25H822.5c-1.06,2.19-2.18,4.46-3.32,6.64h-38.7a4.25,4.25,0,0,0-4.25,4.26v9.29a4.25,4.25,0,0,0,4.25,4.26h27.66c-2.56,3.64-5.13,7.1-7.59,10.2a4.26,4.26,0,0,0,2.14,6.73l14,4.06c2.64.74,5.32,1.5,8,2.28-11.36,3.15-24.92,5.07-40.47,5.73a4.25,4.25,0,0,0-3.58,6.23l5.4,10.2a4.25,4.25,0,0,0,3.76,2.26h.3c14.54-1,41.37-4.45,60.66-15.91,13.82,4.78,26.79,10.09,37.74,14.69a4.12,4.12,0,0,0,1.64.34,4.27,4.27,0,0,0,3.16-1.4l8.55-9.45a4.28,4.28,0,0,0-1.77-6.88c-11.06-3.89-22.45-7.9-33.86-11.61a82.08,82.08,0,0,0,9.55-17.46h26.37a4.26,4.26,0,0,0,4.26-4.26v-9.29A4.26,4.26,0,0,0,902.12,197.08Zm-85.54-23.55h-12.2v-9.34h12.2Zm48.7-9.34h12.94v9.34H865.28Zm-30.6-21.45H847v4.55H834.68Zm0,21.45H847v9.34H834.68Zm12.15,62.31-1-.3-1.38-.42a4.14,4.14,0,0,0-1-.19L826.65,221c1.32-1.91,2.72-4,4.07-6.15H855A62.54,62.54,0,0,1,846.83,226.5Z"/><path class="cls-4" d="M102.33,173.14v79H90.63V182.29c-11.1,8.1-24.45,16.8-44.4,30l-6.3-9.59c52.35-33.9,78.74-49.05,78.74-72.15h11.55C130.22,146.14,122.27,158.29,102.33,173.14Z"/><path class="cls-4" d="M193.23,213.63l-9.75-7,42.3-57,75.29,71.24-9,9.6L227,165.94Zm75.89-48.14h-8.85V142.24h8.85Zm18.6.15h-8.85V142.39h8.85Z"/><path class="cls-4" d="M389.43,145.24v11.4h-41.7v-11.4ZM351.78,245.88v-11.1c46.5,0,55.35-16.5,81.74-65.09l10.65,5.85C418.38,223.38,406.83,245.88,351.78,245.88Z"/><path class="cls-4" d="M584.72,204l-6.6,9.75c-18.15-13.19-33.44-21.59-49.49-30.44v67.19H517.08V127.84h11.55v44.1A481.45,481.45,0,0,1,584.72,204Z"/><path class="cls-4" d="M629.13,226.38l-5.25-10.95c9.6-16.64,15.9-35.24,20.1-54H627v-9.6h18.15v-30.3h9.3v30.3h12.3v9.6h-12.3v15.15c5.4,6,10.65,12,15.6,18.3l-5.25,9.89a130.73,130.73,0,0,0-10.35-16.49v68.09h-9.3v-70C641.28,200.14,636.33,213.63,629.13,226.38Zm108.14-48H755v9.15h-19.2l-2.4,9.9h4.2v43.94c0,2.25,1,3.3,3,3.3,2.25,0,3-1.35,3.6-3.45.9-3.75,1.35-14.25,1.35-18.3l9,3.75c0,4.8-.3,19.5-3.15,23.7-2.4,3.6-6.6,4.35-10.65,4.35-8,0-12.3-.3-12.3-9.3v-33.6c-7.35,18.45-20.25,33.75-36,46l-6.6-7.95c21.15-15.45,35.55-36.3,40.64-62.39H702.63v6.6h-23.7V227c5.85-3.45,11.55-6.9,17.1-10.65-2.25-4.64-4.65-9.14-7.2-13.34l7.35-4.35a172,172,0,0,1,13.35,25.49l-7.8,6.6L699.18,224a293.2,293.2,0,0,1-33.9,22.2l-4.95-9.75,2.4-1.2c2.4-1.2,5.1-2.1,7.5-3.6h-.15V127.54h32.55v50.85h9.59V138.94h-6.3v-9.15h44.7v9.15h-11C739.52,151.39,738.62,165.94,737.27,178.39Zm-43.34-41.85h-15V156h15Zm0,28.2h-15v20.4h15Zm36.89-25.8H720.77v39.45h7.35C729.47,165.49,730.52,151.84,730.82,138.94Z"/><path class="cls-4" d="M858.92,234.48c13.35,4.2,26.55,8.85,39.75,13.5l-8.55,9.45c-13.2-5.55-26.24-10.8-39.89-15.45-16.5,10.5-41.25,15-60.45,16.35l-5.4-10.2c17.7-.75,37.65-3.3,54-10.2-6.75-2.25-13.65-4.2-20.55-6.15l-14-4.05c4-5.1,8.25-10.95,12.3-17.1h-35.7v-9.29h41.25c2.55-4.65,4.95-9.75,7.2-14.55L839,190.54c-1.65,3.75-3.45,7.2-5.4,10.8h68.54v9.29H872.88C869.57,219.18,865.22,227.73,858.92,234.48Zm-76.64-96v-9.3H900.17v9.3H861v13h31.64v34.65h-103V151.54h31.2v-13Zm17.85,21.45v17.85h20.7V159.94Zm61.65,50.69H828.33c-2.4,4.05-5.1,8-7.8,11.7h.15l-.9,1.2h-.15l26,7.05,1,.3,1.5.45A66.28,66.28,0,0,0,861.78,210.63Zm-10.5-59.09v-13H830.43v13Zm0,26.25V159.94H830.43v17.85Zm-8.1,52c.9.3,2,.6,3,.9l-.6-.15Zm39.29-52V159.94H861v17.85Z"/></svg>