<svg id="レイヤー_1" data-name="レイヤー 1" xmlns="http://www.w3.org/2000/svg" viewBox="0 0 936.88 305"><defs><style>.cls-1{fill:#f5e929;}.cls-2{fill:#231815;}.cls-3{fill:#2096d5;}.cls-4{fill:#fff100;}</style></defs><title>thema_c</title><rect class="cls-1" x="5.18" y="6.24" width="316" height="72"/><path class="cls-2" d="M323.18,80.24H3.18v-76h320Zm-316-4h312v-68H7.18Z"/><path class="cls-2" d="M83.42,31.74h9.23V58.11a4,4,0,0,0,4,4h5.27a4,4,0,0,0,4-4V31.74h9.22a4.5,4.5,0,0,0,.63-.07V58.11a4,4,0,0,0,4,4H125a4,4,0,0,0,4-4V46.75h6.53V58.11a4,4,0,0,0,4,4h5.28a4,4,0,0,0,4-4V23.78a4,4,0,0,0-4-4h-5.28a4,4,0,0,0-4,4v11H129v-11a4,4,0,0,0-4-4h-5.27a4,4,0,0,0-2.31.74,4,4,0,0,0-2.32-.74H83.42a4,4,0,0,0-4,4v4A4,4,0,0,0,83.42,31.74Z"/><path class="cls-2" d="M208,62.11h4.31a4,4,0,0,0,4-4V23.78a4,4,0,0,0-4-4h-6.64a4,4,0,0,0-3.77,2.67L198.18,33l-3.77-10.57a4,4,0,0,0-3.76-2.65h-6.34A4,4,0,0,0,181,21.49a4,4,0,0,0-3.28-1.71h-23.2a4,4,0,0,0-4,4V58.11a4,4,0,0,0,4,4H179a4,4,0,0,0,2.67-1,4,4,0,0,0,2.66,1H188a4,4,0,0,0,4-4V52.22a4,4,0,0,0,3.76,2.64h4.44A4,4,0,0,0,204,52.17v5.94a4,4,0,0,0,4,4Zm-44.14-12v-4H175a4,4,0,0,0,4-4v-4a4,4,0,0,0-4-4h-11.2V31.74h13.93a4,4,0,0,0,2.56-1v19.6A3.73,3.73,0,0,0,179,50.1Z"/><path class="cls-2" d="M243.82,31.74a4,4,0,0,0,4-4v-4a4,4,0,0,0-4-4H220.65a4,4,0,0,0-4,4V58.11a4,4,0,0,0,4,4h24.4a4,4,0,0,0,4-4v-4a4,4,0,0,0-4-4H229.89v-4h11.2a4,4,0,0,0,4-4v-4a4,4,0,0,0-4-4h-11.2V31.74Z"/><path class="cls-3" d="M96.65,58.11V27.74H83.42v-4H115.1v4H101.88V58.11Z"/><path class="cls-3" d="M119.73,58.11V23.78H125v15h14.53v-15h5.28V58.11h-5.28V42.75H125V58.11Z"/><path class="cls-3" d="M154.57,58.11V23.78h23.2v4H159.84V38.11H175v4h-15.2v12H179v4Z"/><path class="cls-3" d="M184.33,58.11V23.78h6.32l7.55,21.14h.05l7.4-21.14h6.61V58.11H208V28.65h0l-7.73,22.21h-4.44L188,29.26H188V58.11Z"/><path class="cls-3" d="M220.65,58.11V23.78h23.21v4h-18V38.11h15.2v4h-15.2v12h19.16v4Z"/><path class="cls-2" d="M159.1,171c-25.33-12.51-44.68-29.44-57.5-50.31a4.27,4.27,0,0,0-3.63-2H85.38a4.25,4.25,0,0,0-3.75,2.24C69.08,144.31,50.35,162.54,26,175.09a4.26,4.26,0,0,0-1.47,6.31l6.75,9.14a4.25,4.25,0,0,0,5.46,1.21,183.94,183.94,0,0,0,23-14.81v.13a4.25,4.25,0,0,0,4.26,4.25H123a4.25,4.25,0,0,0,4.26-4.25v-2a188.73,188.73,0,0,0,21,13.12,4.14,4.14,0,0,0,2,.51,4.23,4.23,0,0,0,3.45-1.77l6.9-9.6A4.23,4.23,0,0,0,159.1,171Zm-84-7.94a137,137,0,0,0,17.22-22.21,153.14,153.14,0,0,0,20.14,22.21Z"/><path class="cls-2" d="M84.3,245a4.26,4.26,0,0,0,.33,6.54l9.45,7a4.27,4.27,0,0,0,2.54.84,4.23,4.23,0,0,0,2.94-1.18c15.91-15.21,30-33.83,43.21-56.91a4.26,4.26,0,0,0-.51-4.92l-6.59-7.5a4.25,4.25,0,0,0-3.2-1.44H47a4.25,4.25,0,0,0-4.26,4.25v9.75A4.25,4.25,0,0,0,47,205.77h70A193.9,193.9,0,0,1,84.3,245Z"/><path class="cls-2" d="M271.67,154.07H213a4.25,4.25,0,0,0-4.26,4.25v57.9a4.25,4.25,0,0,0,4.26,4.25h58.64a4.25,4.25,0,0,0,4.26-4.25v-57.9A4.25,4.25,0,0,0,271.67,154.07Zm-14.75,48.6H227.78v-30.8h29.14Z"/><path class="cls-2" d="M186.48,258.72h11a4.25,4.25,0,0,0,4.25-4.25v-4H283v4a4.25,4.25,0,0,0,4.25,4.25h11a4.25,4.25,0,0,0,4.25-4.25V129.22a4.25,4.25,0,0,0-4.25-4.25H186.48a4.25,4.25,0,0,0-4.25,4.25V254.47A4.25,4.25,0,0,0,186.48,258.72Zm15.2-115.5H283v89H201.68Z"/><path class="cls-2" d="M360.66,239.72c9.19,0,17.63-5.12,23.73-14.36,7.9-11.63,12.1-25.71,15.15-37.92a177.81,177.81,0,0,0,5.12-33.66,35.36,35.36,0,0,1,22.13,15.38c6.88,10.79,7.46,23.64,1.55,35.31C421.07,219.51,410,226.34,390,228a4.25,4.25,0,0,0-3.89,4.41l.45,10.95a4.24,4.24,0,0,0,4.24,4.08h.17c25.94-1,44.63-12.49,55.56-34.19,8.71-17.91,7.66-38.3-2.82-54.58-10-15.39-27.8-24.58-47.51-24.58-29.52,0-62,21.71-64.09,61.92-.39,7.33,0,25.6,11.84,36.94a24.51,24.51,0,0,0,16.73,6.74Zm-2.94-20.42c-5.66-5.43-6.07-17.8-5.75-22.21,1.21-23.57,16.78-38,32.41-42.66a190.88,190.88,0,0,1-4.19,28.09C378,191.66,374.26,205,367.68,215c-2.17,3.44-5,5.66-7.15,5.66A4,4,0,0,1,357.72,219.3Z"/><rect class="cls-2" x="500.97" y="129.62" width="81.4" height="19.75" rx="4.25" ry="4.25"/><path class="cls-2" d="M489.18,182.82h46.07c-.46,21.48-3,31.63-25.37,56.18a4.28,4.28,0,0,0-1.1,3.11,4.2,4.2,0,0,0,1.44,2.95l8.55,7.5a4.25,4.25,0,0,0,5.93-.31c26.41-28.56,30.18-42.64,30.76-69.43h38.86a4.25,4.25,0,0,0,4.25-4.25V167.32a4.25,4.25,0,0,0-4.25-4.25H489.18a4.25,4.25,0,0,0-4.26,4.25v11.25A4.25,4.25,0,0,0,489.18,182.82Z"/><rect class="cls-2" x="632.83" y="177.17" width="119.2" height="19.9" rx="4.25" ry="4.25"/><path class="cls-2" d="M788.88,163.17h85.21c-1.87,15.43-14.92,24.13-35.57,37.15l-13.2-13.07-.22-.2-7.5-6.45a4.25,4.25,0,0,0-5.57,0l-8.25,7.2a4.24,4.24,0,0,0-.07,6.34c7.69,7,25.71,23.5,51.38,53.47a4.25,4.25,0,0,0,5.95.51l8.69-7.2a4.2,4.2,0,0,0,1.53-2.92,4.24,4.24,0,0,0-1-3.14C862,225.42,857,219.77,853,215.23c-.07-.07-.13-.15-.19-.22,26.44-17.12,42.33-30.41,42.33-57.14v-9.3a4.25,4.25,0,0,0-4.26-4.25h-102a4.25,4.25,0,0,0-4.25,4.25v10.35A4.25,4.25,0,0,0,788.88,163.17Z"/><path class="cls-4" d="M63.93,168.07a173.34,173.34,0,0,1-29.25,20l-6.75-9.15c24.75-12.75,44.25-31.35,57.45-55.95H98c14.1,23,35.25,40.05,59.25,51.9l-6.9,9.6C126.92,171.82,106.67,154.87,92,133a130.49,130.49,0,0,1-27.29,34.35H123v9.75H63.93Zm32.69,87.15-9.45-7.05a200.4,200.4,0,0,0,37.35-46.65H47v-9.75h85.49l6.6,7.5C127.52,219.52,113.87,238.72,96.62,255.22Z"/><path class="cls-4" d="M197.43,246.22v8.25h-11V129.22H298.22V254.47h-11v-8.25Zm0-107.25v97.5h89.84V139Zm74.24,19.35v57.9H213v-57.9Zm-48.14,9.3v39.3h37.64v-39.3Z"/><path class="cls-4" d="M432.17,206.32a39.07,39.07,0,0,0-1.8-39.45c-6.45-10.2-17.1-16.5-29.7-18.15a180.9,180.9,0,0,1-5.25,37.65c-2.54,10.2-6.59,24.9-14.54,36.6-9.9,15-24.9,15.45-34.05,6.9-9.9-9.45-10.95-25.2-10.5-33.6,1.95-37.8,32.7-57.9,59.84-57.9,18.45,0,34.65,8.4,43.95,22.65,9.75,15.15,10.65,33.75,2.55,50.4-10.5,20.85-28.5,30.9-51.9,31.8l-.44-10.95C409.82,230.62,423.47,224.32,432.17,206.32ZM389,149c-17.84,2.85-39.74,18.45-41.24,47.85-.3,4-.3,18.45,7,25.5,5.4,5.25,12.15,1.8,16.5-5.1,6.6-10.05,10.5-23.25,13.05-33.75A197.75,197.75,0,0,0,389,149Z"/><path class="cls-4" d="M521.58,249.37l-8.55-7.5c24.74-27.15,26.24-38.25,26.55-63.3h-50.4V167.32H594.32v11.25H551.27C551,205.87,549.17,219.52,521.58,249.37ZM505.23,145.12V133.87h72.89v11.25Z"/><path class="cls-4" d="M637.08,181.42H747.77v11.4H637.08Z"/><path class="cls-4" d="M846.32,214.12c4.5,5.1,9.9,11.1,20.7,23.55l-8.7,7.2c-25-29.25-43-45.9-51.74-53.85l8.25-7.2,7.5,6.45,15.59,15.45c24.3-15.3,40.8-25.5,40.65-46.8H788.88V148.57h102v9.3C890.87,184,874.52,196.12,846.32,214.12Z"/></svg>