<?xml version="1.0" encoding="UTF-8" standalone="no"?>
<!DOCTYPE svg PUBLIC "-//W3C//DTD SVG 1.1//EN" "http://www.w3.org/Graphics/SVG/1.1/DTD/svg11.dtd">
<svg version="1.1" xmlns="http://www.w3.org/2000/svg" xmlns:xlink="http://www.w3.org/1999/xlink" preserveAspectRatio="xMidYMid meet" viewBox="-7.063291139240507 244.5518987341772 655.1265822784811 154.87341772151905" width="650.13" height="149.87"><defs><path d="M570.13 246.55C611.51 246.55 645.06 280.1 645.06 321.49C645.06 321.49 645.06 321.49 645.06 321.49C645.06 362.88 611.51 396.43 570.13 396.43C520.1 396.43 119.9 396.43 69.87 396.43C28.49 396.43 -5.06 362.88 -5.06 321.49C-5.06 321.49 -5.06 321.49 -5.06 321.49C-5.06 280.1 28.49 246.55 69.87 246.55C169.92 246.55 520.1 246.55 570.13 246.55Z" id="b1vKEi7euB"></path><path d="M172.86 301.5C172.86 333.54 172.86 351.35 172.86 354.91C172.86 359.38 176.49 363.01 180.96 363.01C182.03 363.01 190.57 363.01 191.64 363.01C196.11 363.01 199.74 359.38 199.74 354.91C199.74 351.35 199.74 333.54 199.74 301.5C210.94 301.5 217.17 301.5 218.41 301.5C218.84 301.48 219.26 301.43 219.69 301.36C219.69 306.71 219.69 349.55 219.69 354.91C219.69 359.38 223.31 363.01 227.79 363.01C228.85 363.01 237.39 363.01 238.46 363.01C242.93 363.01 246.56 359.38 246.56 354.91C246.56 353.37 246.56 345.7 246.56 331.9L259.79 331.9C259.79 345.7 259.79 353.37 259.79 354.91C259.79 359.38 263.41 363.01 267.89 363.01C268.96 363.01 277.51 363.01 278.58 363.01C283.06 363.01 286.68 359.38 286.68 354.91C286.68 347.95 286.68 292.33 286.68 285.38C286.68 280.9 283.06 277.28 278.58 277.28C277.51 277.28 268.96 277.28 267.89 277.28C263.41 277.28 259.79 280.9 259.79 285.38C259.79 286.86 259.79 294.29 259.79 307.66L246.56 307.66C246.56 294.29 246.56 286.86 246.56 285.38C246.56 280.9 242.93 277.28 238.46 277.28C237.39 277.28 228.85 277.28 227.79 277.28C226.11 277.28 224.48 277.8 223.11 278.77C221.74 277.8 220.09 277.28 218.41 277.28C211.99 277.28 160.59 277.28 154.17 277.28C149.69 277.28 146.07 280.9 146.07 285.38C146.07 286.19 146.07 292.67 146.07 293.48C146.11 297.92 149.72 301.5 154.17 301.5C156.66 301.5 162.89 301.5 172.86 301.5Z" id="ewAGneU2C"></path><path d="M345.59 277.29L345.79 277.3L345.98 277.31L346.18 277.34L346.37 277.36L346.57 277.39L346.76 277.43L346.95 277.47L347.14 277.51L347.32 277.56L347.51 277.61L347.7 277.67L347.88 277.73L348.06 277.8L348.24 277.87L348.42 277.94L348.59 278.02L348.77 278.11L348.94 278.19L349.11 278.28L349.28 278.38L349.44 278.48L349.61 278.58L349.77 278.69L349.93 278.8L350.08 278.92L350.24 279.03L350.39 279.16L350.53 279.28L350.68 279.41L350.82 279.55L350.96 279.68L351.09 279.82L351.23 279.97L351.36 280.11L351.48 280.27L351.6 280.42L351.72 280.58L351.84 280.74L351.95 280.58L352.07 280.42L352.19 280.27L352.32 280.11L352.45 279.97L352.58 279.82L352.72 279.68L352.86 279.55L353 279.41L353.14 279.28L353.29 279.16L353.44 279.03L353.59 278.92L353.75 278.8L353.91 278.69L354.07 278.58L354.23 278.48L354.4 278.38L354.57 278.28L354.74 278.19L354.91 278.11L355.08 278.02L355.26 277.94L355.44 277.87L355.62 277.8L355.8 277.73L355.98 277.67L356.17 277.61L356.35 277.56L356.54 277.51L356.73 277.47L356.92 277.43L357.11 277.39L357.3 277.36L357.5 277.34L357.69 277.31L357.89 277.3L358.09 277.29L358.28 277.28L358.48 277.28L371.36 277.28L371.62 277.28L371.87 277.29L372.12 277.31L372.37 277.34L372.62 277.38L372.87 277.42L373.11 277.47L373.36 277.53L373.59 277.59L373.83 277.66L374.06 277.74L374.3 277.83L374.52 277.92L374.75 278.02L374.97 278.13L375.19 278.24L375.4 278.36L375.61 278.49L375.82 278.62L376.02 278.76L376.22 278.9L376.41 279.05L376.6 279.2L376.78 279.37L376.96 279.53L377.14 279.71L377.31 279.88L377.47 280.07L377.63 280.25L377.78 280.45L377.93 280.65L378.07 280.85L378.21 281.06L378.34 281.27L378.46 281.49L378.58 281.71L378.69 281.94L378.79 282.17L378.89 282.4L378.98 282.64L386.61 304.05L394.11 282.68L394.2 282.44L394.29 282.21L394.39 281.97L394.5 281.75L394.62 281.52L394.74 281.3L394.87 281.09L395.01 280.88L395.15 280.67L395.3 280.47L395.45 280.28L395.61 280.09L395.77 279.9L395.94 279.72L396.12 279.55L396.3 279.38L396.48 279.22L396.67 279.06L396.87 278.91L397.06 278.77L397.27 278.63L397.47 278.49L397.68 278.37L397.9 278.25L398.12 278.13L398.34 278.03L398.57 277.93L398.79 277.83L399.03 277.75L399.26 277.67L399.5 277.59L399.74 277.53L399.98 277.47L400.23 277.42L400.47 277.38L400.72 277.34L400.98 277.31L401.23 277.29L401.48 277.28L401.74 277.28L415.19 277.28L415.52 277.28L415.85 277.3L416.18 277.34L416.5 277.38L416.82 277.44L417.14 277.51L417.45 277.59L417.75 277.69L418.05 277.8L418.34 277.91L418.63 278.04L418.91 278.18L419.19 278.33L419.46 278.49L419.72 278.66L419.97 278.84L420.22 279.03L420.46 279.23L420.69 279.43L420.92 279.65L421.13 279.87L421.34 280.1L421.54 280.35L421.73 280.59L421.91 280.85L422.08 281.11L422.24 281.38L422.39 281.65L422.53 281.94L422.65 282.22L422.77 282.52L422.88 282.82L422.97 283.12L423.06 283.43L423.13 283.74L423.19 284.06L423.23 284.39L423.26 284.71L423.28 285.04L423.29 285.38L423.29 354.91L423.28 355.24L423.26 355.57L423.23 355.9L423.19 356.22L423.13 356.54L423.06 356.85L422.97 357.16L422.88 357.47L422.77 357.77L422.65 358.06L422.53 358.35L422.39 358.63L422.24 358.9L422.08 359.17L421.91 359.44L421.73 359.69L421.54 359.94L421.34 360.18L421.13 360.41L420.92 360.63L420.69 360.85L420.46 361.06L420.22 361.26L419.97 361.44L419.72 361.62L419.46 361.79L419.19 361.95L418.91 362.1L418.63 362.24L418.34 362.37L418.05 362.49L417.75 362.59L417.45 362.69L417.14 362.77L416.82 362.84L416.5 362.9L416.18 362.95L415.85 362.98L415.52 363L415.19 363.01L406.38 363.01L406.05 363L405.72 362.98L405.39 362.95L405.07 362.9L404.75 362.84L404.43 362.77L404.12 362.69L403.82 362.59L403.52 362.49L403.23 362.37L402.94 362.24L402.66 362.1L402.38 361.95L402.11 361.79L401.85 361.62L401.6 361.44L401.35 361.26L401.11 361.06L400.88 360.85L400.65 360.63L400.44 360.41L400.23 360.18L400.03 359.94L399.84 359.69L399.66 359.44L399.49 359.17L399.33 358.9L399.18 358.63L399.04 358.35L398.92 358.06L398.8 357.77L398.69 357.47L398.6 357.16L398.51 356.85L398.44 356.54L398.38 356.22L398.34 355.9L398.31 355.57L398.29 355.24L398.28 354.91L398.28 342.88L398.19 343.12L398.09 343.36L397.99 343.59L397.88 343.82L397.77 344.05L397.64 344.27L397.51 344.48L397.38 344.7L397.24 344.9L397.09 345.1L396.94 345.3L396.78 345.49L396.61 345.68L396.44 345.86L396.27 346.03L396.09 346.2L395.9 346.37L395.71 346.52L395.52 346.68L395.32 346.82L395.12 346.96L394.91 347.1L394.7 347.22L394.48 347.35L394.26 347.46L394.04 347.57L393.81 347.67L393.59 347.76L393.35 347.85L393.12 347.93L392.88 348L392.64 348.07L392.39 348.13L392.15 348.18L391.9 348.22L391.65 348.26L391.39 348.29L391.14 348.31L390.88 348.32L390.62 348.32L381.63 348.32L381.38 348.32L381.12 348.31L380.87 348.29L380.62 348.26L380.37 348.23L380.13 348.18L379.88 348.13L379.64 348.08L379.4 348.01L379.16 347.94L378.93 347.86L378.7 347.77L378.47 347.68L378.25 347.58L378.03 347.48L377.81 347.37L377.6 347.25L377.39 347.12L377.18 346.99L376.98 346.85L376.78 346.71L376.59 346.56L376.4 346.41L376.21 346.24L376.03 346.08L375.86 345.91L375.69 345.73L375.53 345.55L375.37 345.36L375.21 345.17L375.07 344.97L374.93 344.76L374.79 344.56L374.66 344.34L374.54 344.13L374.42 343.91L374.31 343.68L374.2 343.45L374.11 343.22L374.02 342.98L374.02 354.91L374.01 355.24L373.99 355.57L373.96 355.9L373.91 356.22L373.85 356.54L373.78 356.85L373.7 357.16L373.6 357.47L373.5 357.77L373.38 358.06L373.25 358.35L373.11 358.63L372.96 358.9L372.8 359.17L372.63 359.44L372.45 359.69L372.26 359.94L372.07 360.18L371.86 360.41L371.64 360.63L371.42 360.85L371.19 361.06L370.95 361.26L370.7 361.44L370.44 361.62L370.18 361.79L369.91 361.95L369.64 362.1L369.36 362.24L369.07 362.37L368.77 362.49L368.47 362.59L368.17 362.69L367.86 362.77L367.55 362.84L367.23 362.9L366.91 362.95L366.58 362.98L366.25 363L365.91 363.01L358.48 363.01L358.33 363.01L358.18 363L358.04 363L357.89 362.99L357.74 362.98L357.59 362.96L357.45 362.95L357.3 362.93L357.16 362.9L357.01 362.88L356.87 362.85L356.72 362.82L356.58 362.79L356.44 362.75L356.3 362.72L356.16 362.68L356.02 362.63L355.88 362.59L355.74 362.54L355.6 362.49L355.46 362.44L355.33 362.38L355.19 362.32L355.06 362.26L354.93 362.2L354.8 362.14L354.67 362.07L354.54 362L354.41 361.93L354.28 361.85L354.16 361.78L354.03 361.7L353.91 361.62L353.79 361.53L353.67 361.45L353.55 361.36L353.44 361.27L353.32 361.17L353.21 361.08L353.09 360.98L352.98 361.08L352.87 361.18L352.75 361.27L352.63 361.36L352.51 361.45L352.39 361.53L352.27 361.62L352.15 361.7L352.02 361.78L351.9 361.86L351.77 361.93L351.64 362L351.51 362.07L351.38 362.14L351.25 362.2L351.12 362.27L350.98 362.33L350.85 362.39L350.71 362.44L350.58 362.49L350.44 362.54L350.3 362.59L350.16 362.64L350.02 362.68L349.88 362.72L349.74 362.76L349.59 362.79L349.45 362.82L349.31 362.85L349.16 362.88L349.02 362.91L348.87 362.93L348.72 362.95L348.58 362.96L348.43 362.98L348.28 362.99L348.13 363L347.98 363L347.84 363.01L347.69 363.01L298.21 363.01L297.87 363L297.54 362.98L297.22 362.95L296.89 362.9L296.57 362.84L296.26 362.77L295.95 362.69L295.65 362.59L295.35 362.49L295.05 362.37L294.77 362.24L294.48 362.1L294.21 361.95L293.94 361.79L293.68 361.62L293.42 361.44L293.18 361.26L292.94 361.06L292.7 360.85L292.48 360.63L292.26 360.41L292.06 360.18L291.86 359.94L291.67 359.69L291.49 359.44L291.32 359.17L291.16 358.9L291.01 358.63L290.87 358.35L290.74 358.06L290.63 357.77L290.52 357.47L290.42 357.16L290.34 356.85L290.27 356.54L290.21 356.22L290.17 355.9L290.13 355.57L290.11 355.24L290.11 354.91L290.11 285.38L290.11 285.04L290.13 284.71L290.17 284.39L290.21 284.06L290.27 283.74L290.34 283.43L290.42 283.12L290.52 282.82L290.63 282.52L290.74 282.22L290.87 281.94L291.01 281.65L291.16 281.38L291.32 281.11L291.49 280.85L291.67 280.59L291.86 280.35L292.06 280.1L292.26 279.87L292.48 279.65L292.7 279.43L292.94 279.23L293.18 279.03L293.42 278.84L293.68 278.66L293.94 278.49L294.21 278.33L294.48 278.18L294.77 278.04L295.05 277.91L295.35 277.8L295.65 277.69L295.95 277.59L296.26 277.51L296.57 277.44L296.89 277.38L297.22 277.34L297.54 277.3L297.87 277.28L298.21 277.28L345.19 277.28L345.39 277.28L345.59 277.29ZM350.22 299.66L350.1 299.76L349.99 299.85L349.87 299.93L349.75 300.02L349.63 300.1L349.51 300.18L349.39 300.26L349.26 300.34L349.14 300.41L349.01 300.48L348.88 300.55L348.75 300.62L348.63 300.68L348.49 300.75L348.36 300.81L348.23 300.86L348.09 300.92L347.96 300.97L347.82 301.02L347.69 301.07L347.55 301.12L347.41 301.16L347.27 301.2L347.13 301.24L346.99 301.27L346.85 301.31L346.71 301.34L346.56 301.36L346.42 301.39L346.28 301.41L346.13 301.43L345.99 301.45L345.84 301.46L345.7 301.48L345.55 301.49L345.4 301.49L345.26 301.5L317.04 301.5L317.04 306.3L339.73 306.3L340.07 306.31L340.41 306.33L340.74 306.36L341.07 306.41L341.4 306.47L341.72 306.55L342.04 306.63L342.35 306.73L342.65 306.84L342.95 306.97L343.25 307.1L343.54 307.25L343.82 307.4L344.09 307.57L344.36 307.75L344.61 307.94L344.86 308.14L345.11 308.34L345.34 308.56L345.57 308.79L345.78 309.02L345.99 309.26L346.19 309.51L346.38 309.77L346.55 310.04L346.72 310.31L346.88 310.59L347.02 310.88L347.16 311.17L347.28 311.47L347.39 311.78L347.49 312.09L347.58 312.41L347.65 312.73L347.72 313.05L347.76 313.38L347.8 313.72L347.82 314.06L347.83 314.4L347.83 322.5L347.82 322.84L347.8 323.18L347.76 323.52L347.72 323.85L347.65 324.17L347.58 324.5L347.49 324.81L347.39 325.12L347.28 325.43L347.16 325.73L347.02 326.02L346.88 326.31L346.72 326.59L346.55 326.86L346.38 327.13L346.19 327.39L345.99 327.64L345.78 327.88L345.57 328.12L345.34 328.34L345.11 328.56L344.86 328.77L344.61 328.96L344.36 329.15L344.09 329.33L343.82 329.5L343.54 329.65L343.25 329.8L342.95 329.93L342.65 330.06L342.35 330.17L342.04 330.27L341.72 330.36L341.4 330.43L341.07 330.49L340.74 330.54L340.41 330.57L340.07 330.6L339.73 330.6L317.04 330.6L317.04 338.7L347.75 338.68L347.82 338.68L347.89 338.68L347.96 338.69L348.03 338.69L348.1 338.69L348.17 338.7L348.24 338.7L348.31 338.7L348.38 338.71L348.45 338.72L348.52 338.72L348.59 338.73L348.66 338.74L348.73 338.75L348.8 338.76L348.87 338.77L348.94 338.78L349.01 338.79L349.08 338.8L349.15 338.81L349.22 338.83L349.29 338.84L349.36 338.85L349.43 338.87L349.49 338.88L349.56 338.9L349.63 338.92L349.7 338.94L349.77 338.95L349.84 338.97L349.9 338.99L349.97 339.01L350.04 339.03L350.11 339.05L350.17 339.08L350.24 339.1L350.31 339.12L350.37 339.15L350.44 339.17L350.44 299.47L350.33 299.57L350.22 299.66Z" id="b1TS5Uq4nU"></path><path d="M479.03 301.5C483.5 301.5 487.13 297.87 487.13 293.4C487.13 292.59 487.13 286.11 487.13 285.3C487.13 280.82 483.5 277.19 479.03 277.19C474.34 277.19 436.79 277.19 432.1 277.19C427.63 277.19 424 280.82 424 285.3C424 292.26 424 347.95 424 354.91C424 359.38 427.63 363.01 432.1 363.01C437.04 363.01 476.58 363.01 481.52 363.01C485.99 363.01 489.62 359.38 489.62 354.91C489.62 354.1 489.62 347.62 489.62 346.81C489.62 342.33 485.99 338.7 481.52 338.7C479.47 338.7 469.24 338.7 450.82 338.7L450.82 330.6C464.43 330.6 471.99 330.6 473.5 330.6C477.97 330.6 481.6 326.98 481.6 322.5C481.6 321.69 481.6 315.21 481.6 314.4C481.6 309.93 477.97 306.3 473.5 306.3C471.99 306.3 464.43 306.3 450.82 306.3L450.82 301.5C465.86 301.5 475.27 301.5 479.03 301.5Z" id="i8ofN5k4kr"></path><path d="M180.96 354.91L180.96 293.4L154.17 293.4L154.17 285.3L218.33 285.3L218.33 293.4L191.55 293.4L191.55 354.91L180.96 354.91Z" id="i1aANRbdTe"></path><path d="M227.71 354.91L227.71 285.38L238.38 285.38L238.38 315.76L267.81 315.76L267.81 285.38L278.5 285.38L278.5 354.91L267.81 354.91L267.81 323.8L238.38 323.8L238.38 354.91L227.71 354.91Z" id="c5UdkG7xsa"></path><path d="M298.27 354.91L298.27 285.38L345.26 285.38L345.26 293.48L308.94 293.48L308.94 314.4L339.73 314.4L339.73 322.5L308.94 322.5L308.94 346.81L347.75 346.81L347.75 354.91L298.27 354.91Z" id="b1z4uneOkA"></path><path d="M358.48 354.91L358.48 285.38L371.28 285.38L386.57 328.19L386.57 328.19L401.56 285.38L415.19 285.38L415.19 354.91L406.46 354.91L406.46 295.16L406.36 295.16L390.7 340.14L381.71 340.14L366.1 296.39L365.99 296.39L365.99 354.91L358.48 354.91Z" id="fh0kpXii9"></path><path d="M432.1 354.91L432.1 285.38L479.11 285.38L479.11 293.48L442.65 293.48L442.65 314.4L473.44 314.4L473.44 322.5L442.65 322.5L442.65 346.81L481.46 346.81L481.46 354.91L432.1 354.91Z" id="a1eJGM4cC"></path></defs><g><g><use xlink:href="#b1vKEi7euB" opacity="1" fill="#f5e929" fill-opacity="1"></use><g><use xlink:href="#b1vKEi7euB" opacity="1" fill-opacity="0" stroke="#231815" stroke-width="4" stroke-opacity="1"></use></g></g><g><use xlink:href="#ewAGneU2C" opacity="1" fill="#231815" fill-opacity="1"></use><g><use xlink:href="#ewAGneU2C" opacity="1" fill-opacity="0" stroke="#000000" stroke-width="1" stroke-opacity="0"></use></g></g><g><use xlink:href="#b1TS5Uq4nU" opacity="1" fill="#231815" fill-opacity="1"></use><g><use xlink:href="#b1TS5Uq4nU" opacity="1" fill-opacity="0" stroke="#000000" stroke-width="1" stroke-opacity="0"></use></g></g><g><use xlink:href="#i8ofN5k4kr" opacity="1" fill="#231815" fill-opacity="1"></use><g><use xlink:href="#i8ofN5k4kr" opacity="1" fill-opacity="0" stroke="#000000" stroke-width="1" stroke-opacity="0"></use></g></g><g><use xlink:href="#i1aANRbdTe" opacity="1" fill="#2096d5" fill-opacity="1"></use><g><use xlink:href="#i1aANRbdTe" opacity="1" fill-opacity="0" stroke="#000000" stroke-width="1" stroke-opacity="0"></use></g></g><g><use xlink:href="#c5UdkG7xsa" opacity="1" fill="#2096d5" fill-opacity="1"></use><g><use xlink:href="#c5UdkG7xsa" opacity="1" fill-opacity="0" stroke="#000000" stroke-width="1" stroke-opacity="0"></use></g></g><g><use xlink:href="#b1z4uneOkA" opacity="1" fill="#2096d5" fill-opacity="1"></use><g><use xlink:href="#b1z4uneOkA" opacity="1" fill-opacity="0" stroke="#000000" stroke-width="1" stroke-opacity="0"></use></g></g><g><use xlink:href="#fh0kpXii9" opacity="1" fill="#2096d5" fill-opacity="1"></use><g><use xlink:href="#fh0kpXii9" opacity="1" fill-opacity="0" stroke="#000000" stroke-width="1" stroke-opacity="0"></use></g></g><g><use xlink:href="#a1eJGM4cC" opacity="1" fill="#2096d5" fill-opacity="1"></use><g><use xlink:href="#a1eJGM4cC" opacity="1" fill-opacity="0" stroke="#000000" stroke-width="1" stroke-opacity="0"></use></g></g></g></svg>