<?xml version="1.0" encoding="UTF-8" standalone="no"?>
<!DOCTYPE svg PUBLIC "-//W3C//DTD SVG 1.1//EN" "http://www.w3.org/Graphics/SVG/1.1/DTD/svg11.dtd">
<svg version="1.1" xmlns="http://www.w3.org/2000/svg" xmlns:xlink="http://www.w3.org/1999/xlink" preserveAspectRatio="xMidYMid meet" viewBox="9.337837837837242 8.189189189189278 562.8500000000001 564" width="560" height="560"><defs><path d="M569.19 289.19C569.19 443.73 443.98 569.19 289.76 569.19C135.54 569.19 10.34 443.73 10.34 289.19C10.34 134.65 135.54 9.19 289.76 9.19C443.98 9.19 569.19 134.65 569.19 289.19Z" id="e2TnZ71PX"></path><path d="M224.96 431.42C356.77 431.42 428.86 321.99 428.86 227.1C428.86 223.99 428.86 220.9 428.65 217.82C442.68 207.65 454.78 195.07 464.4 180.65C451.32 186.45 437.45 190.26 423.24 191.95C438.2 182.97 449.4 168.86 454.75 152.23C440.68 160.59 425.29 166.49 409.24 169.66C382.11 140.74 336.71 139.34 307.85 166.54C289.24 184.08 281.35 210.21 287.12 235.15C229.5 232.25 175.82 204.98 139.43 160.12C120.41 192.93 130.13 234.91 161.62 255.98C150.21 255.64 139.06 252.56 129.09 246.99C129.09 247.29 129.09 247.6 129.09 247.9C129.1 282.09 153.15 311.53 186.59 318.3C176.04 321.18 164.97 321.6 154.23 319.53C163.62 348.78 190.52 368.82 221.18 369.4C195.8 389.38 164.46 400.23 132.18 400.2C126.48 400.18 120.78 399.84 115.12 399.16C147.89 420.23 186.03 431.41 224.96 431.36" id="e9t416LiC"></path></defs><g><g><use xlink:href="#e2TnZ71PX" opacity="1" fill="#1da1f2" fill-opacity="1"></use><g><use xlink:href="#e2TnZ71PX" opacity="1" fill-opacity="0" stroke="#1da1f2" stroke-width="1" stroke-opacity="1"></use></g></g><g><use xlink:href="#e9t416LiC" opacity="1" fill="#ffffff" fill-opacity="1"></use><g><use xlink:href="#e9t416LiC" opacity="1" fill-opacity="0" stroke="#000000" stroke-width="1" stroke-opacity="0"></use></g></g></g></svg>