<svg xmlns="http://www.w3.org/2000/svg" viewBox="0 0 287 291"><defs><style>.cls-1{fill:#3596d4;}.cls-2{fill:#fff;}.cls-3{fill:none;}</style></defs><title>twitter_b</title><g id="レイヤー_1" data-name="レイヤー 1"><circle class="cls-1" cx="143.5" cy="145.5" r="118"/><path class="cls-2" d="M116.38,211.92c59.4,0,91.9-49.22,91.9-91.9,0-1.4,0-2.79-.1-4.18A65.71,65.71,0,0,0,224.3,99.12a64.4,64.4,0,0,1-18.55,5.09A32.48,32.48,0,0,0,220,86.34a64.66,64.66,0,0,1-20.51,7.84,32.34,32.34,0,0,0-55.05,29.46A91.71,91.71,0,0,1,77.82,89.89a32.33,32.33,0,0,0,10,43.12,32.1,32.1,0,0,1-14.66-4v.41A32.33,32.33,0,0,0,99.08,161a32.12,32.12,0,0,1-14.59.55A32.34,32.34,0,0,0,114.67,184a64.85,64.85,0,0,1-40.11,13.86,65.86,65.86,0,0,1-7.69-.47,91.35,91.35,0,0,0,49.51,14.48"/><rect class="cls-3" x="279.37" y="152.63" width="400" height="400"/></g></svg>