<svg id="レイヤー_1" data-name="レイヤー 1" xmlns="http://www.w3.org/2000/svg" viewBox="0 0 316 72.53"><defs><style>.cls-1{fill:#f5e929;}.cls-2{fill:#231815;}.cls-3{fill:#2096d5;}</style></defs><title>ボタン　アバウト</title><path class="cls-1" d="M34.5-.73h247a37,37,0,0,1,37,37h0a37,37,0,0,1-37,37H34.5a37,37,0,0,1-37-37h0A37,37,0,0,1,34.5-.73Z"/><path class="cls-2" d="M281.5,75.27H34.5a39,39,0,0,1,0-78h247a39,39,0,0,1,0,78Zm-247-74a35,35,0,0,0,0,70h247a35,35,0,0,0,0-70Z"/><path class="cls-2" d="M75.77,56.77h4.58a4,4,0,0,0,3.73-2.57l2.31-6H96.57l2.26,6a4,4,0,0,0,3.71,2.57h5.58a4,4,0,0,0,2.67-1,4,4,0,0,0,2.63,1h10.36a42.93,42.93,0,0,0,8.32-.59A13.42,13.42,0,0,0,138,53.35a11.42,11.42,0,0,0,3.77-5.78,19.69,19.69,0,0,0,2.38,3.69,18.46,18.46,0,0,0,26,1.81,19.33,19.33,0,0,0,1.81-1.81,20.22,20.22,0,0,0,3.3-5.82,16.2,16.2,0,0,0,3.45,7.26c2.84,3.25,7.06,4.9,12.55,4.9,6.42,0,11.33-2.79,14.19-8.06,1.35-2.49,2-6.15,2-11.17v-12a4.78,4.78,0,0,0,.76.08h9.2V52.77a4,4,0,0,0,4,4h5.27a4,4,0,0,0,4-4V26.4h9.22a4,4,0,0,0,4-4h0v-4a4,4,0,0,0-4-4H208.2a3.94,3.94,0,0,0-2.38.8,3.86,3.86,0,0,0-2.38-.8h-4.6a4,4,0,0,0-4,4V39.15c0,3.86-.72,5.26-1,5.68a3.46,3.46,0,0,1-2.63.81c-1.78,0-2.17-.55-2.31-.76-.3-.42-1-1.82-1-5.6V18.44a4,4,0,0,0-4-4h-5.27a4,4,0,0,0-4,4v5.81A20.14,20.14,0,0,0,172,19.94a18.46,18.46,0,0,0-26.06-1.78,17.59,17.59,0,0,0-1.78,1.78,20.21,20.21,0,0,0-3.56,6.52h0c0-4.47-2.08-12-16-12H113.42a4,4,0,0,0-4,4v26.7L98.35,17a4,4,0,0,0-3.73-2.53H89.35A4,4,0,0,0,85.63,17L72.05,51.3a4,4,0,0,0,2.25,5.19A4.13,4.13,0,0,0,75.77,56.77Zm78.74-29.36a4.24,4.24,0,0,1,5.91-1.09,4,4,0,0,1,1.09,1.09c1.16,1.76,1.74,4.51,1.74,8.17s-.58,6.43-1.74,8.19a4.24,4.24,0,0,1-5.89,1.1,4.15,4.15,0,0,1-1.11-1.1c-1.15-1.76-1.74-4.52-1.74-8.2S153.35,29.17,154.51,27.41Zm-15.09,4a31.9,31.9,0,0,0-.27,4.15v.16a11.56,11.56,0,0,0-1.64-1.49,11.33,11.33,0,0,0,1.91-2.79Zm-16.72-5a16.81,16.81,0,0,1,4.47.51,2.94,2.94,0,0,1,0,.42c0,1.24-2.51,1.69-4.49,1.85Zm0,14.25A10.66,10.66,0,0,1,127.35,42c1.3.79,1.3,1.43,1.3,1.85a2,2,0,0,1,0,.49,16.62,16.62,0,0,1-5.11.52h-.76ZM91.45,35l.46,1.2H91Z"/><path class="cls-3" d="M75.77,52.77,89.35,18.44h5.27l13.5,34.33h-5.58l-3.19-8.59H83.61l-3.26,8.59Zm9.42-12.55H97.73l-6.3-16.45Z"/><path class="cls-3" d="M113.42,52.77V18.44H124.5q12,0,12,8a7.44,7.44,0,0,1-2.07,5.26,11.66,11.66,0,0,1-5.75,3.07q9.56,2,9.55,9.07a7.79,7.79,0,0,1-2.81,6.37,9.5,9.5,0,0,1-4.15,2,40.83,40.83,0,0,1-7.49.5Zm5.28-19.48h1.84q10.65,0,10.65-5.94c0-2-.69-3.26-2.06-3.94s-4-1-8-1h-2.46Zm0,15.52h4.76q5.22,0,7.18-1.07a4.09,4.09,0,0,0,2-3.94,6,6,0,0,0-3.29-5.27c-2.15-1.34-5.07-2-8.77-2h-1.92Z"/><path class="cls-3" d="M143.15,35.59q0-8.22,4-13.1a14.47,14.47,0,0,1,20.43-1.25,14.63,14.63,0,0,1,1.24,1.25q4,4.89,4,13.1t-4,13.12A14.46,14.46,0,0,1,148.42,50a15.22,15.22,0,0,1-1.27-1.27Q143.16,43.84,143.15,35.59Zm5.62,0q0,6.73,2.4,10.39a8.23,8.23,0,0,0,11.4,2.28A8.39,8.39,0,0,0,164.85,46q2.42-3.65,2.41-10.39t-2.41-10.37a8.22,8.22,0,0,0-13.68,0Q148.77,28.87,148.77,35.59Z"/><path class="cls-3" d="M178.61,18.44h5.27V39.28c0,3.64.58,6.27,1.73,7.91s3,2.45,5.58,2.45,4.67-.82,5.86-2.45,1.79-4.3,1.79-8V18.44h4.6V38.37c0,4.3-.51,7.38-1.52,9.26q-3.24,6-10.68,6-6.45,0-9.54-3.54t-3.09-10.86Z"/><path class="cls-3" d="M221.4,52.77V22.4H208.2v-4h31.69v4H226.67V52.77Z"/></svg>