<svg id="レイヤー_1" data-name="レイヤー 1" xmlns="http://www.w3.org/2000/svg" viewBox="0 0 316 72.53"><defs><style>.cls-1{fill:#d31577;}.cls-2{fill:#231815;}.cls-3{fill:#f5e929;}</style></defs><title>ボタン　エントリー</title><path class="cls-1" d="M34.5-.73h247a37,37,0,0,1,37,37h0a37,37,0,0,1-37,37H34.5a37,37,0,0,1-37-37h0A37,37,0,0,1,34.5-.73Z"/><path class="cls-2" d="M281.5,75.27H34.5a39,39,0,0,1,0-78h247a39,39,0,0,1,0,78Zm-247-74a35,35,0,0,0,0,70h247a35,35,0,0,0,0-70Z"/><path class="cls-2" d="M81.23,56.77h24.43a4,4,0,0,0,3.39-1.89,4,4,0,0,0,3.38,1.89h4.31a4,4,0,0,0,4-4V41.33l8.54,13.57a4,4,0,0,0,3.38,1.87h4.87a4,4,0,0,0,4-4V26.33c.21,0,.42.06.63.07h9.19V52.77a4,4,0,0,0,4,4h5.28a4,4,0,0,0,4-4V26.4h9.22a4.12,4.12,0,0,0,1.59-.34V52.77a4,4,0,0,0,4,4h5.27a4,4,0,0,0,4-4V44.09l8.41,11.09a4,4,0,0,0,3.23,1.59h6.38a4,4,0,0,0,3.19-6.42l-9.2-12.13A15.51,15.51,0,0,0,203.9,35a14,14,0,0,0,2.45-8.33,11.28,11.28,0,0,0-7.41-11c-2.1-.9-5.24-1.31-9.89-1.31h-9.6a3.92,3.92,0,0,0-2.8,1.14,4,4,0,0,0-2.79-1.14h-31.7a3.93,3.93,0,0,0-2.25.69,3.86,3.86,0,0,0-2.38-.8h-4.31a4,4,0,0,0-4,4V29.52l-8.4-13.33a4,4,0,0,0-3.39-1.86h-5a4,4,0,0,0-4,4v27.6a4,4,0,0,0-2.77-1.16H90.5v-4h11.2a4,4,0,0,0,4-4v-4a4,4,0,0,0-4-4H90.5V26.4h13.93a4,4,0,0,0,4-4v-4a4,4,0,0,0-4-4H81.23a4,4,0,0,0-4,4V52.77A4,4,0,0,0,81.23,56.77ZM188.71,26.4a12.56,12.56,0,0,1,3.95.48,2.61,2.61,0,0,1,.06.69,2.08,2.08,0,0,1-.89,1.88,6.19,6.19,0,0,1-3.12,1Z"/><path class="cls-2" d="M217.42,39.89V52.77a4,4,0,0,0,4,4h5.27a4,4,0,0,0,4-4V39.94l13-19.27a4,4,0,0,0-3.34-6.23h-5a4,4,0,0,0-3.29,1.73L224.59,27,217.85,16.3a4,4,0,0,0-3.38-1.86h-6.12a4,4,0,0,0-4,4A4,4,0,0,0,205,20.6Z"/><path class="cls-3" d="M81.23,52.77V18.44h23.2v4H86.5V32.77h15.2v4H86.5v12h19.16v4Z"/><path class="cls-3" d="M112.43,52.77V18.33h5l15.74,24.94h.05V18.33h4.31V52.77h-4.87L116.82,27.59h-.08V52.77Z"/><path class="cls-3" d="M155.35,52.77V22.4H142.16v-4h31.69v4H160.63V52.77Z"/><path class="cls-3" d="M179.44,52.77V18.44H189c4,0,6.77.33,8.33,1a7.33,7.33,0,0,1,5,7.27,10,10,0,0,1-1.72,6,15.9,15.9,0,0,1-5.78,4.46l11.82,15.6h-6.34L189.47,38.48h-4.76V52.77Zm5.27-18.25h2.78a11.08,11.08,0,0,0,6.75-1.88,6,6,0,0,0,2.48-5.07c0-2-.62-3.34-1.87-4.07s-3.55-1.1-6.9-1.1h-3.24Z"/><path class="cls-3" d="M221.42,52.77v-14L208.35,18.44h6.08l10,15.84,10.92-15.84h5L226.69,38.77v14Z"/></svg>