<svg id="レイヤー_1" data-name="レイヤー 1" xmlns="http://www.w3.org/2000/svg" viewBox="0 0 316 72.53"><defs><style>.cls-1{fill:#f5e929;}.cls-2{fill:#231815;}.cls-3{fill:#2096d5;}</style></defs><title>ボタン　スポンサー</title><path class="cls-1" d="M34.5-.73h247a37,37,0,0,1,37,37h0a37,37,0,0,1-37,37H34.5a37,37,0,0,1-37-37h0A37,37,0,0,1,34.5-.73Z"/><path class="cls-2" d="M281.5,75.27H34.5a39,39,0,0,1,0-78h247a39,39,0,0,1,0,78Zm-247-74a35,35,0,0,0,0,70h247a35,35,0,0,0,0-70Z"/><path class="cls-2" d="M66.15,30.46,63,29.38,59.59,28.2A15.23,15.23,0,0,1,56,26.59a.74.74,0,0,1,0-.21,1.31,1.31,0,0,1,0-.28c.14-.1.9-.53,3.13-.53a25.17,25.17,0,0,1,8.88,2,4,4,0,0,0,5.45-3.73v-4.6a4,4,0,0,0-2.91-3.85,42.64,42.64,0,0,0-11.5-1.78c-4.72,0-8.54,1.15-11.36,3.43a12.71,12.71,0,0,0-4.63,10.28,11.53,11.53,0,0,0,3.21,8.31c1.8,1.8,4.67,3.42,8.79,5l3.52,1.28a19.49,19.49,0,0,1,4.44,2V44c0,.27,0,.45-.53.8a7.72,7.72,0,0,1-4,.88c-2.5,0-5.87-1-10-2.81a4,4,0,0,0-5.64,3.65v5.22a4,4,0,0,0,3,3.86,49.66,49.66,0,0,0,12.52,2c5.13,0,9.37-1.23,12.6-3.65a13,13,0,0,0,5.38-10.83C76.35,39.77,75,33.58,66.15,30.46Z"/><path class="cls-2" d="M170.55,14.33h-4.3a4,4,0,0,0-4,4V29.52l-8.41-13.33a4,4,0,0,0-3.38-1.86h-5a4,4,0,0,0-4,4V24a19.36,19.36,0,0,0-2.54-4,18.46,18.46,0,0,0-26-1.79A17.7,17.7,0,0,0,111.09,20a18.23,18.23,0,0,0-1.7,2.46,12,12,0,0,0-6.59-6.58c-2.24-.94-5.44-1.38-10.07-1.38H81.55a4,4,0,0,0-4,4V52.77a4,4,0,0,0,4,4h5.27a4,4,0,0,0,4-4v-9c5.7,0,10.34-1.32,13.79-3.86a17.15,17.15,0,0,0,1.65-1.42,22.65,22.65,0,0,0,4.82,12.8,18.46,18.46,0,0,0,26,1.81,19.33,19.33,0,0,0,1.81-1.81,20.14,20.14,0,0,0,2.53-4v5.48a4,4,0,0,0,4,4h4.31a4,4,0,0,0,4-4V41.33l8.59,13.57a4,4,0,0,0,3.34,1.87h4.86a4,4,0,0,0,4-4V18.33A4,4,0,0,0,170.55,14.33ZM90.82,31.77V26.4h1.25c3.39,0,4.39.6,4.49.68a2.54,2.54,0,0,1,.26,1.2C96.82,29.46,96.82,31.61,90.82,31.77Zm37.67,12a4.23,4.23,0,0,1-7,0c-1.15-1.76-1.74-4.52-1.74-8.2s.59-6.42,1.74-8.18a4.23,4.23,0,0,1,5.89-1.11,4.19,4.19,0,0,1,1.11,1.11c1.17,1.76,1.75,4.51,1.75,8.17S129.66,42,128.49,43.77Z"/><path class="cls-2" d="M266.72,38.22A15.51,15.51,0,0,0,269.9,35a14,14,0,0,0,2.45-8.33,11.28,11.28,0,0,0-7.41-11c-2.1-.9-5.24-1.31-9.88-1.31h-9.61a4,4,0,0,0-4,4v7.86a20.28,20.28,0,0,0-3.5-6.36,18.46,18.46,0,0,0-26.06-1.78,17.59,17.59,0,0,0-1.78,1.78c-3.12,3.88-4.76,8.88-4.89,14.93a16.6,16.6,0,0,0-7-4.36L195,29.38l-3.38-1.18a14.24,14.24,0,0,1-3.58-1.61.74.74,0,0,1,0-.21V26.1a6.39,6.39,0,0,1,3.13-.53,25.22,25.22,0,0,1,8.89,2,4,4,0,0,0,3.7-.43,4,4,0,0,0,1.74-3.3v-4.6a4,4,0,0,0-2.91-3.85,42.64,42.64,0,0,0-11.5-1.78c-4.72,0-8.54,1.15-11.36,3.43a12.71,12.71,0,0,0-4.63,10.28,11.53,11.53,0,0,0,3.21,8.31c1.8,1.8,4.67,3.42,8.79,5l3.52,1.28a19.49,19.49,0,0,1,4.44,2V44c0,.27,0,.45-.54.8a7.62,7.62,0,0,1-4,.88c-2.5,0-5.86-1-10-2.81a4.07,4.07,0,0,0-1.65-.35,4,4,0,0,0-4,4v5.22a4,4,0,0,0,3,3.86,49.66,49.66,0,0,0,12.52,2c5.13,0,9.37-1.23,12.61-3.65a13.15,13.15,0,0,0,4.73-6.47,20.05,20.05,0,0,0,2.42,3.78,18.46,18.46,0,0,0,26,1.81A19.33,19.33,0,0,0,238,51.27a20.35,20.35,0,0,0,3.5-6.37v7.87a4,4,0,0,0,4,4h5.27a4,4,0,0,0,4-4V44.09l8.41,11.09a4,4,0,0,0,3.14,1.59h6.38a4,4,0,0,0,3.19-6.42Zm-39.16,5.55a4.24,4.24,0,0,1-5.89,1.1,4.15,4.15,0,0,1-1.11-1.1c-1.15-1.76-1.74-4.52-1.74-8.2s.59-6.42,1.74-8.18a4.24,4.24,0,0,1,5.91-1.09,4,4,0,0,1,1.09,1.09c1.16,1.76,1.74,4.51,1.74,8.17S228.72,42,227.56,43.77Zm30.31-14.33a6.1,6.1,0,0,1-3.12,1v-4a12.87,12.87,0,0,1,4,.48,3.11,3.11,0,0,1,.07.69,2.07,2.07,0,0,1-.95,1.88Z"/><path class="cls-3" d="M69.46,19.24v4.53a29.1,29.1,0,0,0-10.33-2.2c-4.76,0-7.15,1.6-7.15,4.81a4,4,0,0,0,1.37,3.15,16.06,16.06,0,0,0,5,2.45l3.37,1.17,3.22,1.1q7.41,2.63,7.41,8.88a9,9,0,0,1-3.84,7.64Q64.7,53.59,58.35,53.6a46.56,46.56,0,0,1-11.48-1.9V46.48q7,3.15,11.64,3.16a11.36,11.36,0,0,0,6.24-1.54A4.75,4.75,0,0,0,67.07,44a3.86,3.86,0,0,0-1.38-3.13A21.72,21.72,0,0,0,60,38.1l-3.53-1.28q-5.28-2-7.32-4a7.45,7.45,0,0,1-2-5.49,8.69,8.69,0,0,1,3.14-7.17c2.1-1.7,5.05-2.54,8.85-2.54A38.38,38.38,0,0,1,69.46,19.24Z"/><path class="cls-3" d="M81.55,52.77V18.44H92.72c4,0,6.83.35,8.52,1.07q5.2,2.22,5.2,8.67a10,10,0,0,1-4.19,8.48q-4.2,3.11-11.57,3.11H86.82v13Zm5.27-17h3.3q10.69,0,10.7-7.5a5,5,0,0,0-2-4.52c-1.33-.92-3.58-1.37-6.73-1.36H86.82Z"/><path class="cls-3" d="M110.13,35.59q0-8.22,4-13.1a14.47,14.47,0,0,1,20.43-1.25,14.63,14.63,0,0,1,1.24,1.25q4,4.89,4,13.1t-4,13.12A14.46,14.46,0,0,1,115.4,50a15.22,15.22,0,0,1-1.27-1.27Q110.14,43.84,110.13,35.59Zm5.62,0q0,6.73,2.4,10.39a8.23,8.23,0,0,0,11.4,2.28A8.39,8.39,0,0,0,131.83,46q2.41-3.65,2.41-10.39t-2.41-10.37a8.22,8.22,0,0,0-13.68,0Q115.75,28.87,115.75,35.59Z"/><path class="cls-3" d="M145.45,52.77V18.33h5l15.74,24.94h.06V18.33h4.3V52.77h-4.86L149.84,27.59h-.08V52.77Z"/><path class="cls-3" d="M201.54,19.24v4.53a29.14,29.14,0,0,0-10.33-2.24q-7.14,0-7.14,4.81a4,4,0,0,0,1.34,3.15A16.07,16.07,0,0,0,190.35,32l3.37,1.17,3.21,1.1q7.47,2.63,7.46,8.88a9,9,0,0,1-3.8,7.64q-3.81,2.85-10.21,2.85a46.56,46.56,0,0,1-11.48-1.9V46.48q7,3.15,11.64,3.16a11.28,11.28,0,0,0,6.24-1.54A4.76,4.76,0,0,0,199.11,44a3.86,3.86,0,0,0-1.38-3.13A21.94,21.94,0,0,0,192,38.1l-3.53-1.28c-3.52-1.3-5.95-2.64-7.32-4a7.51,7.51,0,0,1-2.05-5.49,8.67,8.67,0,0,1,3.15-7.17c2.09-1.7,5-2.54,8.84-2.54A38.26,38.26,0,0,1,201.54,19.24Z"/><path class="cls-3" d="M209.19,35.59q0-8.22,4-13.1a14.47,14.47,0,0,1,20.43-1.25,14.63,14.63,0,0,1,1.24,1.25q4,4.89,4,13.1t-4,13.12A14.46,14.46,0,0,1,214.46,50a15.22,15.22,0,0,1-1.27-1.27Q209.2,43.84,209.19,35.59Zm5.62,0q0,6.73,2.4,10.39a8.23,8.23,0,0,0,11.41,2.27A8.08,8.08,0,0,0,230.9,46q2.4-3.65,2.4-10.39t-2.4-10.37a8.24,8.24,0,0,0-13.69,0q-2.4,3.64-2.4,10.37Z"/><path class="cls-3" d="M245.48,52.77V18.44h9.61q6,0,8.32,1a7.31,7.31,0,0,1,5,7.27,10,10,0,0,1-1.72,6,15.9,15.9,0,0,1-5.78,4.46l11.82,15.6h-6.38L255.51,38.48h-4.76V52.77Zm5.27-18.25h2.78a11.08,11.08,0,0,0,6.75-1.88,6,6,0,0,0,2.49-5.07c0-2-.63-3.34-1.88-4.07s-3.55-1.1-6.9-1.1h-3.24Z"/></svg>