<svg id="レイヤー_1" data-name="レイヤー 1" xmlns="http://www.w3.org/2000/svg" viewBox="0 0 316 72.53"><defs><style>.cls-1{fill:#f5e929;}.cls-2{fill:#231815;}.cls-3{fill:#2096d5;}</style></defs><title>ボタン　サマリー</title><path class="cls-1" d="M34.5-.73h247a37,37,0,0,1,37,37h0a37,37,0,0,1-37,37H34.5a37,37,0,0,1-37-37h0A37,37,0,0,1,34.5-.73Z"/><path class="cls-2" d="M281.5,75.27H34.5a39,39,0,0,1,0-78h247a39,39,0,0,1,0,78Zm-247-74a35,35,0,0,0,0,70h247a35,35,0,0,0,0-70Z"/><path class="cls-2" d="M183.12,54.2l2.31-6H195.6l2.27,6a4,4,0,0,0,3.74,2.57h5.58a4.07,4.07,0,0,0,2.64-1,4,4,0,0,0,2.63,1h5.27a4,4,0,0,0,4-4V44.09l8.41,11.09a4,4,0,0,0,3.21,1.59h6.38a4,4,0,0,0,3.19-6.42l-9.2-12.13A15.51,15.51,0,0,0,236.9,35a14,14,0,0,0,2.45-8.33,11.28,11.28,0,0,0-7.41-11c-2.1-.9-5.24-1.31-9.88-1.31h-9.61a4,4,0,0,0-4,4v26.7L197.35,17a4,4,0,0,0-3.72-2.53h-5.28A4,4,0,0,0,184.63,17l-8.69,22V18.44a4,4,0,0,0-4-4h-6.59a4,4,0,0,0-3.77,2.67l-3.7,10.55-3.77-10.57a4,4,0,0,0-3.76-2.65H144a3.9,3.9,0,0,0-2.53.92,3.9,3.9,0,0,0-2.53-.92h-6.6a4,4,0,0,0-3.77,2.67l-3.7,10.55-3.77-10.57a4,4,0,0,0-3.76-2.65H111a4,4,0,0,0-3.31,1.74,4,4,0,0,0-3.3-1.74H99.8a4,4,0,0,0-4,4V39.15c0,3.86-.72,5.26-1,5.68a3.47,3.47,0,0,1-2.64.81c-1.78,0-2.16-.55-2.31-.76-.3-.42-1-1.82-1-5.6V18.44a4,4,0,0,0-4-4h-5.3a4,4,0,0,0-4,4V38.77c-1.11-3-3.67-6.28-9.4-8.3L63,29.39l-3.37-1.18A15.23,15.23,0,0,1,56,26.6a.74.74,0,0,1,0-.21,1.31,1.31,0,0,1,0-.28c.14-.1.9-.53,3.13-.53a25.17,25.17,0,0,1,8.88,2,4,4,0,0,0,5.45-3.73V19.24a4,4,0,0,0-2.91-3.85,42.64,42.64,0,0,0-11.5-1.78c-4.72,0-8.54,1.15-11.36,3.43a12.71,12.71,0,0,0-4.63,10.28,11.53,11.53,0,0,0,3.21,8.31c1.8,1.8,4.67,3.42,8.79,5l3.52,1.28a19.49,19.49,0,0,1,4.44,2V44c0,.27,0,.45-.53.8a7.72,7.72,0,0,1-4,.88c-2.5,0-5.87-1-10-2.81a4,4,0,0,0-5.64,3.65v5.22a4,4,0,0,0,3,3.86,49.66,49.66,0,0,0,12.52,2c5.13,0,9.37-1.23,12.6-3.65a12.91,12.91,0,0,0,5.24-8.64,16.16,16.16,0,0,0,3.49,7.39c2.84,3.25,7.06,4.9,12.55,4.9,6.42,0,11.33-2.79,14.19-8.06a12.14,12.14,0,0,0,.62-1.38v4.6a4,4,0,0,0,4,4h3.67a4,4,0,0,0,4-4V46.88a4,4,0,0,0,3.75,2.64h4.45a4,4,0,0,0,3.77-2.69v5.94a4,4,0,0,0,4,4H139a4,4,0,0,0,2.53-.93,4,4,0,0,0,2.53.93h3.67a4,4,0,0,0,4-4V46.88a4,4,0,0,0,3.76,2.64h4.44a4,4,0,0,0,3.78-2.69v5.94a4,4,0,0,0,4,4H172a4.26,4.26,0,0,0,1.42-.27,4.44,4.44,0,0,0,1.45.27h4.45A4,4,0,0,0,183.12,54.2Zm38.61-27.8a12.87,12.87,0,0,1,4,.48,2.61,2.61,0,0,1,.06.69,2.08,2.08,0,0,1-.89,1.88,6.1,6.1,0,0,1-3.12,1ZM190.51,35l.46,1.2h-.92Z"/><path class="cls-2" d="M237.9,16.52a4,4,0,0,0,.15,4.08l12.39,19.29V52.77a4,4,0,0,0,4,4h5.27a4,4,0,0,0,4-4V39.94l13-19.27a4,4,0,0,0-1.09-5.56,4,4,0,0,0-2.27-.67h-5a4,4,0,0,0-3.29,1.73L257.59,27,250.84,16.3a4,4,0,0,0-3.38-1.86h-6.08A4,4,0,0,0,237.9,16.52Z"/><path class="cls-3" d="M69.46,19.24v4.53a29.1,29.1,0,0,0-10.33-2.2c-4.76,0-7.15,1.6-7.15,4.81a4,4,0,0,0,1.37,3.15,16.06,16.06,0,0,0,5,2.45l3.37,1.17,3.22,1.1q7.41,2.63,7.41,8.88a9,9,0,0,1-3.84,7.64Q64.7,53.59,58.35,53.6a46.56,46.56,0,0,1-11.48-1.9V46.48q7,3.15,11.64,3.16a11.36,11.36,0,0,0,6.24-1.54A4.75,4.75,0,0,0,67.07,44a3.86,3.86,0,0,0-1.38-3.13A21.72,21.72,0,0,0,60,38.1l-3.53-1.28q-5.28-2-7.32-4a7.45,7.45,0,0,1-2-5.49,8.69,8.69,0,0,1,3.14-7.17c2.1-1.7,5.05-2.54,8.85-2.54A38.38,38.38,0,0,1,69.46,19.24Z"/><path class="cls-3" d="M79.55,18.44h5.27V39.28c0,3.64.57,6.27,1.72,7.91s3,2.45,5.58,2.45,4.67-.82,5.86-2.45,1.79-4.3,1.8-8V18.44h4.57V38.37c0,4.3-.51,7.38-1.53,9.26q-3.22,6-10.67,6-6.45,0-9.54-3.54T79.55,39.2Z"/><path class="cls-3" d="M111,52.77V18.44h6.36l7.55,21.14h0l7.4-21.14H139V52.77h-4.31V23.31h0l-7.73,22.21h-4.45l-7.7-21.6h0V52.77Z"/><path class="cls-3" d="M144,52.77V18.44h6.34l7.55,21.14h0l7.45-21.14H172V52.77h-4.31V23.31h-.05l-7.73,22.21h-4.44l-7.71-21.6h0V52.77Z"/><path class="cls-3" d="M174.84,52.77l13.51-34.33h5.27l13.57,34.33h-5.58l-3.26-8.59H182.68l-3.33,8.59Zm9.41-12.55h12.54l-6.3-16.45Z"/><path class="cls-3" d="M212.46,52.77V18.44h9.61q6,0,8.32,1a7.31,7.31,0,0,1,5,7.27,10,10,0,0,1-1.72,6,15.9,15.9,0,0,1-5.78,4.46l11.82,15.6h-6.36L222.49,38.48h-4.76V52.77Zm5.27-18.25h2.78a11.08,11.08,0,0,0,6.75-1.88,6,6,0,0,0,2.48-5.07c0-2-.62-3.34-1.87-4.07s-3.55-1.1-6.9-1.1h-3.24Z"/><path class="cls-3" d="M254.44,52.77v-14l-13-20.28h6.08l10,15.84,10.83-15.89h5L259.71,38.77v14Z"/></svg>