<svg id="レイヤー_1" data-name="レイヤー 1" xmlns="http://www.w3.org/2000/svg" viewBox="0 0 316 72.53"><defs><style>.cls-1{fill:#f5e929;}.cls-2{fill:#231815;}.cls-3{fill:#2096d5;}</style></defs><title>ボタン　スケジュール</title><path class="cls-1" d="M34.5-.73h247a37,37,0,0,1,37,37h0a37,37,0,0,1-37,37H34.5a37,37,0,0,1-37-37h0A37,37,0,0,1,34.5-.73Z"/><path class="cls-2" d="M281.5,75.27H34.5a39,39,0,0,1,0-78h247a39,39,0,0,1,0,78Zm-247-74a35,35,0,0,0,0,70h247a35,35,0,0,0,0-70Z"/><path class="cls-2" d="M121,14.44h-5.28a4,4,0,0,0-4,4v11h-6.53v-11a4,4,0,0,0-4-4H95.92a4,4,0,0,0-3.51,2.11,3.85,3.85,0,0,0-1.87-1.22,38,38,0,0,0-10.89-1.72c-6.43,0-11.76,2.09-15.85,6.21s-6.13,9.49-6.13,16v.38a15.62,15.62,0,0,0-8.05-5.7l-3.17-1.12L43.08,28.2a15.23,15.23,0,0,1-3.59-1.61.74.74,0,0,1,0-.21V26.1c.15-.1.9-.53,3.14-.53a25.17,25.17,0,0,1,8.88,2,4.12,4.12,0,0,0,1.44.2,4,4,0,0,0,4-4V19.24A4,4,0,0,0,54,15.39a42.24,42.24,0,0,0-11.49-1.78c-4.73,0-8.55,1.15-11.36,3.43a12.71,12.71,0,0,0-4.63,10.28,11.53,11.53,0,0,0,3.21,8.31c1.8,1.8,4.66,3.42,8.79,5l3.52,1.28a20.83,20.83,0,0,1,4.44,2V44c0,.27,0,.45-.53.8a7.72,7.72,0,0,1-4,.88c-2.5,0-5.87-1-10-2.81a3.84,3.84,0,0,0-1.63-.4,4,4,0,0,0-4,4V51.7a4,4,0,0,0,3,3.86,49.66,49.66,0,0,0,12.52,2c5.12,0,9.37-1.23,12.6-3.65a13,13,0,0,0,5.22-8.55A20.09,20.09,0,0,0,64,51.5c4.1,4,9.48,6.06,16,6.06a33.77,33.77,0,0,0,11.33-2.14,4.07,4.07,0,0,0,1.17-.65,4,4,0,0,0,3.47,2h5.27a4,4,0,0,0,4-4V41.41h6.53V52.77a4,4,0,0,0,4,4H121a4,4,0,0,0,4-4V18.44A4,4,0,0,0,121,14.44ZM89.85,43.36a4,4,0,0,0-1.44.27,21.1,21.1,0,0,1-7.26,1.66,9.32,9.32,0,0,1-9.86-8.73,10.65,10.65,0,0,1,0-1.13,10.56,10.56,0,0,1,2.44-7.31,7.13,7.13,0,0,1,5.76-2.55,19.79,19.79,0,0,1,8.23,2.07,4.14,4.14,0,0,0,1.67.36,4,4,0,0,0,2.16-.63l.37-.27V44A3.89,3.89,0,0,0,89.85,43.36Z"/><path class="cls-2" d="M220,14.44h-4.6a4,4,0,0,0-4,4V39.15c0,3.86-.72,5.26-1,5.68a3.46,3.46,0,0,1-2.63.81c-1.78,0-2.17-.55-2.31-.76-.3-.42-1-1.82-1-5.6V18.44a4,4,0,0,0-4-4h-5.27a4,4,0,0,0-4,4v6.61c-3-6.9-9.57-10.61-19.28-10.61H161.48a4,4,0,0,0-3.76,2.68A4,4,0,0,0,154,14.44h-23.2a4,4,0,0,0-4,4V52.77a4,4,0,0,0,4,4h24.43a4,4,0,0,0,3.16-1.56,4,4,0,0,0,3.13,1.56h8.94a30.54,30.54,0,0,0,10.48-1.52,16.88,16.88,0,0,0,7.45-5.48,20.14,20.14,0,0,0,3.11-5.7,17,17,0,0,0,3.71,8.67c2.84,3.25,7.06,4.9,12.55,4.9,6.42,0,11.33-2.79,14.19-8.06,1.35-2.49,2-6.15,2-11.17v-20A4,4,0,0,0,220,14.44ZM140,44.77v-4h11.2a4,4,0,0,0,4-4v-4a4,4,0,0,0-4-4H140V26.4H154a4,4,0,0,0,3.52-2.14V45.53a4,4,0,0,0-2.29-.72Zm37.38-1.92c-1.16,1.09-3.5,1.74-6.66,1.89V26.4h.07c3.28,0,5.6.63,6.71,1.82s1.82,3.92,1.82,7.55-.67,5.94-1.94,7.12Z"/><path class="cls-2" d="M253.75,44.77H239.26V18.44a4,4,0,0,0-4-4H230a4,4,0,0,0-4,4V52.77a4,4,0,0,0,4,4h23.76a4,4,0,0,0,4-4v-4A4,4,0,0,0,253.75,44.77Z"/><path class="cls-2" d="M287.28,44.77H272.12v-4h11.23a4,4,0,0,0,4-4v-4a4,4,0,0,0-4-4h-11.2V26.4h13.9a4,4,0,0,0,4-4v-4a4,4,0,0,0-4-4h-23.2a4,4,0,0,0-4,4V52.77a4,4,0,0,0,4,4h24.43a4,4,0,0,0,4-4v-4A4,4,0,0,0,287.28,44.77Z"/><path class="cls-3" d="M53,19.24v4.53a29.1,29.1,0,0,0-10.33-2.2c-4.77,0-7.16,1.6-7.15,4.81a4,4,0,0,0,1.34,3.15A15.8,15.8,0,0,0,41.76,32l3.37,1.17,3.22,1.1q7.47,2.63,7.47,8.88A9,9,0,0,1,52,50.77q-3.82,2.85-10.21,2.85A46.74,46.74,0,0,1,30.35,51.7V46.48q7,3.15,11.64,3.16a11.25,11.25,0,0,0,6.23-1.54A4.76,4.76,0,0,0,50.55,44a3.86,3.86,0,0,0-1.38-3.13,21.88,21.88,0,0,0-5.68-2.73L40,36.82q-5.27-2-7.31-4a7.45,7.45,0,0,1-2-5.49,8.69,8.69,0,0,1,3.14-7.17c2.1-1.7,5-2.54,8.85-2.54A38.39,38.39,0,0,1,53,19.24Z"/><path class="cls-3" d="M89.85,51.7a30,30,0,0,1-10,1.9q-8.19,0-13.2-4.91t-5-12.92q0-8.13,5-13.14t13-5a33.52,33.52,0,0,1,9.68,1.53V24a23.65,23.65,0,0,0-9.9-2.43,11.11,11.11,0,0,0-8.76,3.9,14.53,14.53,0,0,0-3.44,10A13.29,13.29,0,0,0,80,49.29h1.17a25.05,25.05,0,0,0,8.7-1.93Z"/><path class="cls-3" d="M95.92,52.77V18.44h5.27v15h14.53v-15H121V52.77h-5.28V37.41H101.19V52.77Z"/><path class="cls-3" d="M130.76,52.77V18.44H154v4H136V32.77h15.2v4H136v12h19.16v4Z"/><path class="cls-3" d="M161.48,52.77V18.44h10.36Q189,18.44,189,34.92c0,5.08-1.24,9.2-3.72,12.33a12.85,12.85,0,0,1-5.74,4.25,26.86,26.86,0,0,1-9.08,1.27Zm5.27-4h2.65q7.54,0,10.75-3t3.2-10q0-7.17-2.89-10.26t-9.63-3.09h-4.08Z"/><path class="cls-3" d="M195.12,18.44h5.23V39.28c0,3.64.58,6.27,1.73,7.91s3,2.45,5.58,2.45,4.67-.82,5.86-2.45,1.79-4.3,1.79-8V18.44h4.6V38.37c0,4.3-.51,7.38-1.52,9.26q-3.24,6-10.68,6-6.45,0-9.54-3.54t-3.09-10.86Z"/><path class="cls-3" d="M230,52.77V18.44h5.27V48.77h18.49v4Z"/><path class="cls-3" d="M262.85,52.77V18.44h23.2v4H268.12V32.77h15.23v4h-15.2v12h19.16v4Z"/></svg>