<svg id="レイヤー_1" data-name="レイヤー 1" xmlns="http://www.w3.org/2000/svg" viewBox="0 0 1220.88 305"><defs><style>.cls-1{fill:#f5e929;}.cls-2{fill:#231815;}.cls-3{fill:#2096d5;}.cls-4{fill:#fff100;}</style></defs><title>見出し　テーマ</title><rect class="cls-1" x="-1" y="0.53" width="316" height="72"/><path class="cls-2" d="M317,74.53H-3v-76H317Zm-316-4H313v-68H1Z"/><path class="cls-2" d="M77.24,26h9.24V52.4a4,4,0,0,0,4,4h5.26a4,4,0,0,0,4-4V26H109a4.2,4.2,0,0,0,.62-.07V52.4a4,4,0,0,0,4,4h5.28a4,4,0,0,0,4-4V41h6.53V52.4a4,4,0,0,0,4,4h5.28a4,4,0,0,0,4-4V18.07a4,4,0,0,0-4-4H133.4a4,4,0,0,0-4,4v11h-6.53v-11a4,4,0,0,0-4-4H113.6a4,4,0,0,0-2.31.74,4,4,0,0,0-2.32-.74H77.24a4,4,0,0,0-4,4v4A4,4,0,0,0,77.24,26Z"/><path class="cls-2" d="M201.81,56.4h4.31a4,4,0,0,0,4-4V18.07a4,4,0,0,0-4-4h-6.64a4,4,0,0,0-3.78,2.67L192,27.29l-3.78-10.57a4,4,0,0,0-3.75-2.65h-6.34a4,4,0,0,0-3.28,1.71,4,4,0,0,0-3.28-1.71h-23.2a4,4,0,0,0-4,4V52.4a4,4,0,0,0,4,4h24.43a4,4,0,0,0,2.67-1,3.93,3.93,0,0,0,2.66,1h3.67a4,4,0,0,0,4-4V46.51a4,4,0,0,0,3.75,2.64H194a4,4,0,0,0,3.78-2.69V52.4a4,4,0,0,0,4,4Zm-44.14-12v-4h11.2a4,4,0,0,0,4-4v-4a4,4,0,0,0-4-4h-11.2V26h13.92a3.94,3.94,0,0,0,2.56-1v19.6a3.73,3.73,0,0,0-1.33-.24Z"/><path class="cls-2" d="M237.65,26a4,4,0,0,0,4-4V18a4,4,0,0,0-4-4H214.48a4,4,0,0,0-4,4V52.4a4,4,0,0,0,4,4h24.39a4,4,0,0,0,4-4v-4a4,4,0,0,0-4-4H223.72v-4h11.2a4,4,0,0,0,4-4v-4a4,4,0,0,0-4-4h-11.2V26Z"/><path class="cls-3" d="M90.48,52.4V22H77.24V18h31.69v4H95.71V52.4Z"/><path class="cls-3" d="M113.56,52.4V18.07h5.27v15h14.53v-15h5.28V52.4h-5.28V37H118.83V52.4Z"/><path class="cls-3" d="M148.4,52.4V18.07h23.19v4H153.67V32.4h15.2v4h-15.2v12h19.16v4Z"/><path class="cls-3" d="M178.15,52.4V18.07h6.33L192,39.21h.05l7.4-21.14h6.61V52.4h-4.31V22.94h-.05L194,45.15h-4.44l-7.72-21.6h-.05V52.4Z"/><path class="cls-3" d="M214.48,52.4V18.07h23.2v4h-18V32.4h15.2v4h-15.2v12h19.15v4Z"/><path class="cls-2" d="M152.93,165.3c-25.34-12.51-44.68-29.43-57.51-50.31a4.25,4.25,0,0,0-3.62-2H79.2a4.26,4.26,0,0,0-3.75,2.25C62.9,138.6,44.17,156.83,19.8,169.38a4.26,4.26,0,0,0-1.47,6.31l6.75,9.15a4.24,4.24,0,0,0,5.47,1.2,184.64,184.64,0,0,0,23-14.8v.13a4.25,4.25,0,0,0,4.25,4.25h59.1a4.26,4.26,0,0,0,4.25-4.25v-2a189.65,189.65,0,0,0,21,13.12,4.25,4.25,0,0,0,5.47-1.26l6.9-9.6a4.26,4.26,0,0,0-1.57-6.3Zm-84-7.94a136.41,136.41,0,0,0,17.21-22.21,152.62,152.62,0,0,0,20.14,22.21Z"/><path class="cls-2" d="M78.12,239.33a4.26,4.26,0,0,0,.33,6.54l9.45,7a4.27,4.27,0,0,0,5.49-.34c15.9-15.21,30-33.83,43.2-56.91a4.24,4.24,0,0,0-.5-4.91l-6.6-7.5a4.25,4.25,0,0,0-3.19-1.45H40.8a4.25,4.25,0,0,0-4.25,4.25v9.75a4.25,4.25,0,0,0,4.25,4.26h70A194.12,194.12,0,0,1,78.12,239.33Z"/><path class="cls-2" d="M265.5,148.36H206.85a4.25,4.25,0,0,0-4.25,4.26v57.89a4.25,4.25,0,0,0,4.25,4.26H265.5a4.26,4.26,0,0,0,4.25-4.26V152.62A4.26,4.26,0,0,0,265.5,148.36ZM250.74,197H221.6V166.17h29.14Z"/><path class="cls-2" d="M180.3,253h10.95a4.25,4.25,0,0,0,4.25-4.25v-4h81.34v4A4.25,4.25,0,0,0,281.1,253H292a4.25,4.25,0,0,0,4.26-4.25V123.52a4.26,4.26,0,0,0-4.26-4.26H180.3a4.25,4.25,0,0,0-4.25,4.26V248.76A4.25,4.25,0,0,0,180.3,253Zm15.2-115.49h81.34v89H195.5Z"/><path class="cls-2" d="M354.48,234c9.19,0,17.63-5.11,23.73-14.36,7.91-11.63,12.1-25.71,15.15-37.92a177.69,177.69,0,0,0,5.12-33.66,35.39,35.39,0,0,1,22.13,15.38c6.88,10.79,7.46,23.64,1.56,35.31-7.27,15.05-18.39,21.87-38.38,23.57a4.25,4.25,0,0,0-3.89,4.41l.45,10.95a4.25,4.25,0,0,0,4.24,4.07h.17c25.94-1,44.63-12.48,55.56-34.19,8.71-17.9,7.66-38.3-2.81-54.58C427.46,137.6,409.7,128.41,390,128.41c-29.53,0-62,21.71-64.1,61.93-.39,7.33,0,25.6,11.85,36.93A24.48,24.48,0,0,0,354.48,234Zm-2.94-20.42c-5.66-5.43-6.07-17.8-5.74-22.21,1.2-23.56,16.77-38,32.4-42.66A192,192,0,0,1,374,176.81c-2.23,9.15-5.93,22.46-12.52,32.49-2.17,3.43-5,5.66-7.15,5.66A4,4,0,0,1,351.54,213.59Z"/><rect class="cls-2" x="494.8" y="123.91" width="81.4" height="19.75" rx="4.25" ry="4.25"/><path class="cls-2" d="M483,177.12h46.08c-.47,21.47-3,31.62-25.37,56.18a4.26,4.26,0,0,0-1.11,3.1,4.31,4.31,0,0,0,1.44,3l8.55,7.5a4.27,4.27,0,0,0,5.93-.31c26.41-28.57,30.18-42.64,30.76-69.43h38.86a4.26,4.26,0,0,0,4.26-4.25V161.62a4.26,4.26,0,0,0-4.26-4.26H483a4.25,4.25,0,0,0-4.25,4.26v11.25A4.25,4.25,0,0,0,483,177.12Z"/><rect class="cls-2" x="626.65" y="171.46" width="119.2" height="19.9" rx="4.25" ry="4.25"/><path class="cls-2" d="M782.7,157.47h85.21C866,172.9,853,181.6,832.34,194.62l-13.2-13.08-.22-.2-7.5-6.45a4.25,4.25,0,0,0-5.57,0l-8.25,7.2a4.26,4.26,0,0,0-.07,6.34c7.69,7,25.71,23.5,51.39,53.48a4.24,4.24,0,0,0,3.23,1.48,4.29,4.29,0,0,0,2.71-1l8.7-7.2a4.25,4.25,0,0,0,1.52-2.93,4.2,4.2,0,0,0-1-3.13c-8.21-9.47-13.22-15.12-17.25-19.66l-.19-.21C873.06,192.19,889,178.9,889,152.17v-9.3a4.26,4.26,0,0,0-4.25-4.26h-102a4.25,4.25,0,0,0-4.25,4.26v10.35A4.25,4.25,0,0,0,782.7,157.47Z"/><path class="cls-4" d="M57.75,162.37A173.88,173.88,0,0,1,28.5,182.31l-6.75-9.15C46.5,160.41,66,141.82,79.2,117.22H91.8c14.1,22.95,35.25,40.05,59.24,51.9l-6.9,9.59c-23.39-12.59-43.64-29.54-58.34-51.44a130.73,130.73,0,0,1-27.3,34.35h58.35v9.75H57.75Zm32.7,87.14-9.45-7a200.4,200.4,0,0,0,37.35-46.65H40.8v-9.75h85.5l6.6,7.5C121.35,213.81,107.7,233,90.45,249.51Z"/><path class="cls-4" d="M191.25,240.51v8.25H180.3V123.52H292V248.76H281.1v-8.25Zm0-107.24v97.49H281.1V133.27Zm74.25,19.35v57.89H206.85V152.62Zm-48.15,9.29v39.3H255v-39.3Z"/><path class="cls-4" d="M426,200.61a39.12,39.12,0,0,0-1.8-39.45C417.75,151,407.1,144.67,394.5,143a180.7,180.7,0,0,1-5.25,37.64c-2.55,10.2-6.6,24.9-14.55,36.6-9.9,15-24.9,15.45-34.05,6.9-9.9-9.45-10.95-25.2-10.5-33.6,2-37.79,32.7-57.89,59.85-57.89,18.45,0,34.65,8.4,43.95,22.65,9.74,15.14,10.64,33.74,2.55,50.39-10.5,20.85-28.5,30.9-51.9,31.8l-.45-10.95C403.65,224.91,417.3,218.61,426,200.61Zm-43.2-57.29c-17.85,2.85-39.75,18.45-41.25,47.84-.3,4.05-.3,18.45,7.05,25.5,5.4,5.25,12.15,1.8,16.5-5.1,6.6-10.05,10.5-23.25,13-33.75A197.47,197.47,0,0,0,382.8,143.32Z"/><path class="cls-4" d="M515.4,243.66l-8.55-7.5C531.6,209,533.1,197.91,533.4,172.87H483V161.62H588.14v11.25h-43C544.8,200.16,543,213.81,515.4,243.66ZM499.05,139.42V128.17H572v11.25Z"/><path class="cls-4" d="M630.9,175.71H741.59v11.4H630.9Z"/><path class="cls-4" d="M840.15,208.41c4.5,5.1,9.9,11.1,20.7,23.55l-8.7,7.2c-25-29.25-43-45.9-51.75-53.85l8.25-7.2,7.5,6.45L831.75,200c24.3-15.3,40.8-25.5,40.65-46.79H782.7V142.87h102v9.3C884.7,178.26,868.35,190.41,840.15,208.41Z"/></svg>