<svg id="レイヤー_1" data-name="レイヤー 1" xmlns="http://www.w3.org/2000/svg" viewBox="0 0 1220.88 305"><defs><style>.cls-1{fill:#f5e929;}.cls-2{fill:#231815;}.cls-3{fill:#2096d5;}.cls-4{fill:#fff100;}</style></defs><title>見出し　スポンサー</title><rect class="cls-1" x="-1" y="0.53" width="316" height="72"/><path class="cls-2" d="M317,74.53H-3v-76H317Zm-316-4H313v-68H1Z"/><path class="cls-2" d="M67.28,29.36l-3.19-1.08L60.72,27.1a14.88,14.88,0,0,1-3.59-1.61.74.74,0,0,1,0-.21,1.31,1.31,0,0,1,0-.28c.14-.1.9-.53,3.13-.53a25.12,25.12,0,0,1,8.87,2,4,4,0,0,0,1.45.27,4,4,0,0,0,4-4v-4.6a4,4,0,0,0-2.91-3.85,42.64,42.64,0,0,0-11.5-1.78c-4.72,0-8.54,1.15-11.36,3.43a12.72,12.72,0,0,0-4.63,10.28,11.56,11.56,0,0,0,3.21,8.31c1.8,1.8,4.67,3.42,8.79,5l3.52,1.28a19.49,19.49,0,0,1,4.44,2v.1c0,.27,0,.45-.53.8a7.6,7.6,0,0,1-4,.88c-2.5,0-5.87-1-10-2.81A4,4,0,0,0,44,45.43v5.22a4,4,0,0,0,3,3.86,49.73,49.73,0,0,0,12.52,2c5.13,0,9.37-1.23,12.6-3.65A13,13,0,0,0,77.48,42C77.48,38.67,76.13,32.48,67.28,29.36Z"/><path class="cls-2" d="M171.68,13.23h-4.31a4,4,0,0,0-4,4V28.42L155,15.09a4,4,0,0,0-3.38-1.86h-5a4,4,0,0,0-4,4v5.63a19.21,19.21,0,0,0-2.54-4,18.45,18.45,0,0,0-26-1.79,18.9,18.9,0,0,0-1.79,1.79,19.19,19.19,0,0,0-1.7,2.46,12,12,0,0,0-6.58-6.58c-2.24-.94-5.45-1.38-10.07-1.38H82.68a4,4,0,0,0-4,4V51.67a4,4,0,0,0,4,4h5.26a4,4,0,0,0,4-4v-9c5.7,0,10.35-1.32,13.79-3.86a15,15,0,0,0,1.65-1.42,22.79,22.79,0,0,0,4.82,12.8,18.46,18.46,0,0,0,26,1.81A18.19,18.19,0,0,0,140,50.19a19.86,19.86,0,0,0,2.53-4v5.48a4,4,0,0,0,4,4h4.31a4,4,0,0,0,4-4V40.23l8.6,13.57a4,4,0,0,0,3.33,1.87h4.87a4,4,0,0,0,4-4V17.23A4,4,0,0,0,171.68,13.23ZM92,30.67V25.3H93.2c3.39,0,4.39.6,4.49.68a2.54,2.54,0,0,1,.26,1.2C98,28.36,98,30.51,92,30.67Zm37.67,12a4.23,4.23,0,0,1-7,0c-1.15-1.76-1.75-4.52-1.75-8.2s.59-6.42,1.75-8.18a4.23,4.23,0,0,1,5.89-1.11,4.34,4.34,0,0,1,1.11,1.11c1.17,1.76,1.75,4.51,1.75,8.17S130.79,40.92,129.62,42.67Z"/><path class="cls-2" d="M267.84,37.12A15,15,0,0,0,271,33.93a13.93,13.93,0,0,0,2.46-8.33,11.31,11.31,0,0,0-7.42-11c-2.1-.9-5.23-1.31-9.88-1.31h-9.6a4,4,0,0,0-4,4v7.86a20.48,20.48,0,0,0-3.5-6.36A18.46,18.46,0,0,0,213,17a16.62,16.62,0,0,0-1.78,1.78c-3.12,3.88-4.76,8.88-4.9,14.93a16.6,16.6,0,0,0-7-4.36l-3.17-1.08-3.38-1.18a14.3,14.3,0,0,1-3.59-1.61V25a6.41,6.41,0,0,1,3.14-.53,25.27,25.27,0,0,1,8.89,2,3.88,3.88,0,0,0,1.44.27,4,4,0,0,0,2.26-.7,4.05,4.05,0,0,0,1.74-3.3v-4.6a4,4,0,0,0-2.91-3.85,42.76,42.76,0,0,0-11.5-1.78c-4.72,0-8.54,1.15-11.36,3.43a12.7,12.7,0,0,0-4.64,10.28,11.53,11.53,0,0,0,3.22,8.31c1.8,1.8,4.67,3.42,8.78,5l3.53,1.28a19.89,19.89,0,0,1,4.44,2v.1c0,.27,0,.45-.54.8a7.64,7.64,0,0,1-4,.88c-2.5,0-5.86-1-10-2.81a4.14,4.14,0,0,0-1.65-.35,4,4,0,0,0-4,4v5.22a4,4,0,0,0,3,3.86,49.59,49.59,0,0,0,12.52,2c5.13,0,9.37-1.23,12.61-3.65a13.21,13.21,0,0,0,4.73-6.47,20.05,20.05,0,0,0,2.42,3.78,18.44,18.44,0,0,0,26,1.81,19.43,19.43,0,0,0,1.82-1.81,20.55,20.55,0,0,0,3.5-6.37v7.87a4,4,0,0,0,4,4h5.27a4,4,0,0,0,4-4V43l8.41,11.09a4.05,4.05,0,0,0,3.15,1.59h6.38a4,4,0,0,0,4-4,4,4,0,0,0-.81-2.42Zm-39.15,5.55a4.24,4.24,0,0,1-5.9,1.1,4.11,4.11,0,0,1-1.1-1.1c-1.15-1.76-1.74-4.52-1.74-8.2s.59-6.42,1.74-8.18a4.24,4.24,0,0,1,5.91-1.09,4.34,4.34,0,0,1,1.09,1.09c1.16,1.76,1.74,4.51,1.74,8.17S229.84,40.92,228.69,42.67ZM259,28.34a6.1,6.1,0,0,1-3.12,1v-4a12.91,12.91,0,0,1,4,.48,3.11,3.11,0,0,1,.07.69,2.1,2.1,0,0,1-1,1.88Z"/><path class="cls-3" d="M70.59,18.14v4.53a29.19,29.19,0,0,0-10.33-2.2q-7.15,0-7.15,4.81a4,4,0,0,0,1.37,3.15,16,16,0,0,0,5,2.45l3.37,1.17,3.22,1.1q7.41,2.63,7.41,8.88a9,9,0,0,1-3.84,7.64q-3.81,2.82-10.16,2.83A46.48,46.48,0,0,1,48,50.6V45.38q7,3.15,11.64,3.16A11.3,11.3,0,0,0,65.88,47a4.78,4.78,0,0,0,2.32-4.14,3.88,3.88,0,0,0-1.38-3.13A22,22,0,0,0,61.14,37l-3.53-1.28q-5.28-2-7.32-4a7.44,7.44,0,0,1-2-5.49,8.66,8.66,0,0,1,3.14-7.17c2.1-1.7,5-2.54,8.85-2.54A38.38,38.38,0,0,1,70.59,18.14Z"/><path class="cls-3" d="M82.68,51.67V17.34H93.84c4,0,6.84.35,8.53,1.07q5.19,2.22,5.19,8.67a10,10,0,0,1-4.19,8.48q-4.19,3.11-11.56,3.11H88v13Zm5.26-17h3.3q10.71,0,10.7-7.5a5,5,0,0,0-2-4.52q-2-1.38-6.73-1.36H88Z"/><path class="cls-3" d="M111.26,34.49q0-8.22,4-13.1a14.46,14.46,0,0,1,20.42-1.25,14.74,14.74,0,0,1,1.25,1.25q4,4.89,4,13.1t-4,13.12a14.46,14.46,0,0,1-20.4,1.27,13.84,13.84,0,0,1-1.27-1.27Q111.26,42.74,111.26,34.49Zm5.61,0c0,4.49.81,7.95,2.4,10.39a8.23,8.23,0,0,0,11.4,2.28A8.12,8.12,0,0,0,133,44.88q2.43-3.65,2.41-10.39T133,24.12a8.23,8.23,0,0,0-13.68,0C117.68,26.55,116.87,30,116.87,34.49Z"/><path class="cls-3" d="M146.58,51.67V17.23h5l15.73,24.94h.06V17.23h4.31V51.67h-4.87L151,26.49h-.08V51.67Z"/><path class="cls-3" d="M202.67,18.14v4.53a29.14,29.14,0,0,0-10.33-2.24c-4.77,0-7.14,1.6-7.14,4.81a4,4,0,0,0,1.34,3.15,15.64,15.64,0,0,0,4.94,2.49l3.36,1.17,3.22,1.1q7.47,2.63,7.46,8.88a9,9,0,0,1-3.8,7.64q-3.81,2.85-10.21,2.85A46.48,46.48,0,0,1,180,50.62V45.38q7,3.15,11.64,3.16A11.3,11.3,0,0,0,197.91,47a4.81,4.81,0,0,0,2.33-4.14,3.88,3.88,0,0,0-1.38-3.13A22.09,22.09,0,0,0,193.17,37l-3.53-1.28c-3.52-1.3-5.95-2.64-7.33-4a7.51,7.51,0,0,1-2.05-5.49,8.72,8.72,0,0,1,3.15-7.17c2.09-1.7,5-2.54,8.84-2.54A38.33,38.33,0,0,1,202.67,18.14Z"/><path class="cls-3" d="M210.31,34.49q0-8.22,4-13.1a14.48,14.48,0,0,1,20.43-1.25A13.3,13.3,0,0,1,236,21.39q4,4.89,4,13.1t-4,13.12a14.45,14.45,0,0,1-20.39,1.27,15.34,15.34,0,0,1-1.28-1.27Q210.33,42.74,210.31,34.49Zm5.62,0c0,4.49.8,7.95,2.4,10.39a8.23,8.23,0,0,0,13.69,0c1.6-2.43,2.41-5.89,2.4-10.39s-.8-8-2.4-10.37a8.24,8.24,0,0,0-13.69,0q-2.39,3.64-2.39,10.37Z"/><path class="cls-3" d="M246.61,51.67V17.34h9.6c4,0,6.77.33,8.33,1a7.33,7.33,0,0,1,5,7.27,10,10,0,0,1-1.73,6A16,16,0,0,1,262,36.07l11.82,15.6h-6.38L256.64,37.38h-4.77V51.67Zm5.26-18.25h2.78a11.06,11.06,0,0,0,6.75-1.88,6,6,0,0,0,2.49-5.07c0-2-.63-3.34-1.88-4.07s-3.55-1.1-6.9-1.1h-3.24Z"/><path class="cls-2" d="M139.78,231.58A406.11,406.11,0,0,0,106.33,195c13.22-15.76,18.67-29.79,18.67-47.6V136a4.26,4.26,0,0,0-4.25-4.25H49.2A4.25,4.25,0,0,0,45,136v10.8a4.25,4.25,0,0,0,4.25,4.26h55.2c-1,19.71-10.2,34.44-68.4,78a4.25,4.25,0,0,0-.81,6l7.2,9.3a4.24,4.24,0,0,0,5.89.81c19-14.09,32.66-25.26,43.79-35.75a382.26,382.26,0,0,1,32.14,35.13l.88,1.09a4.26,4.26,0,0,0,5.91.68l9.3-7.2a4.25,4.25,0,0,0,.69-6.05Z"/><path class="cls-2" d="M272.34,181.16a4.24,4.24,0,0,0-5.82-.94l-9.3,6.45a4.26,4.26,0,0,0-1,6c11.58,15.49,13.67,19.83,22.44,38.1l.38.79a4.27,4.27,0,0,0,5.56,2.05l10.5-4.65a4.26,4.26,0,0,0,2.13-5.68C288.2,203.83,285.06,198.05,272.34,181.16Z"/><path class="cls-2" d="M210.3,179.61H198.6a4.25,4.25,0,0,0-4.25,4.25v7.8c0,6-.82,10.72-17,30a4.27,4.27,0,0,0,.61,6.07l8.85,7.05a4.27,4.27,0,0,0,5.92-.61c16.11-19.36,21.83-28.69,21.83-42.47v-7.8A4.25,4.25,0,0,0,210.3,179.61Z"/><path class="cls-2" d="M289.55,165.56v-10.8a4.26,4.26,0,0,0-4.26-4.25h-3.54a20.07,20.07,0,0,0,13.95-19,20.38,20.38,0,1,0-40.76,0,20.08,20.08,0,0,0,14.05,19H246.65V122.67a4.26,4.26,0,0,0-4.25-4.26h-12a4.25,4.25,0,0,0-4.25,4.26v27.84H186.3a4.25,4.25,0,0,0-4.25,4.25v10.8a4.25,4.25,0,0,0,4.25,4.26h39.85v74.94A4.25,4.25,0,0,0,230.4,249h12a4.25,4.25,0,0,0,4.25-4.25V169.82h38.64A4.26,4.26,0,0,0,289.55,165.56Zm-14.15-29a5,5,0,0,1-5-5.05,5.12,5.12,0,0,1,5-5.19,5.55,5.55,0,0,1,5.19,5.19A5.2,5.2,0,0,1,275.4,136.56Z"/><path class="cls-2" d="M441.09,166.64l-10.65-5.85a4.22,4.22,0,0,0-2-.53,4.4,4.4,0,0,0-1.2.17,4.26,4.26,0,0,0-2.54,2l-.19.36c-26.09,48-34,62.52-77.82,62.52a4.25,4.25,0,0,0-4.25,4.25v11.1a4.25,4.25,0,0,0,4.25,4.25c57,0,69.82-23.76,95.34-71.09l.8-1.49A4.24,4.24,0,0,0,441.09,166.64Z"/><rect class="cls-2" x="338.35" y="135.81" width="50.2" height="19.9" rx="4.25" ry="4.25"/><path class="cls-2" d="M592.64,150.81h-23V123.72a4.26,4.26,0,0,0-4.25-4.26H554a4.26,4.26,0,0,0-4.26,4.26v27.09H522.35V123.42a4.25,4.25,0,0,0-4.25-4.26H506.7a4.25,4.25,0,0,0-4.25,4.26v27.39H480.3a4.25,4.25,0,0,0-4.25,4.25v10.65A4.25,4.25,0,0,0,480.3,170h22.15v32.19a4.25,4.25,0,0,0,4.25,4.25h11.4a4.25,4.25,0,0,0,4.25-4.25V170h27.3c-.5,26.82-4.9,39.18-28.62,66.61a4.21,4.21,0,0,0-1,3.09,4.26,4.26,0,0,0,1.46,2.91l8.7,7.5a4.25,4.25,0,0,0,2.78,1h.32a4.26,4.26,0,0,0,2.91-1.48C562,219.4,569,203,569.56,170h23.08a4.26,4.26,0,0,0,4.26-4.26V155.06A4.26,4.26,0,0,0,592.64,150.81Z"/><rect class="cls-2" x="626.65" y="174.06" width="119.2" height="19.9" rx="4.25" ry="4.25"/><path class="cls-4" d="M108.75,146.81H49.2V136h71.55v11.4c0,18-5.85,31.65-20.25,47.85,22.2,21.45,33.15,35.55,37.19,40.5L128.4,243c-3.9-4.8-14.7-18.6-36.3-39.45C81.6,213.71,68,225.26,45.75,241.76l-7.2-9.3C99.3,187,108.75,171.86,108.75,146.81Z"/><path class="cls-4" d="M189.45,231.41l-8.85-7c16.65-19.8,18-25.35,18-32.7v-7.8h11.7v7.8C210.3,203.66,205.8,211.76,189.45,231.41Zm41-76.65V122.67h12v32.09h42.89v10.8H242.4v79.2h-12v-79.2H186.3v-10.8Zm45-7.5c-8.7,0-16.2-6.9-16.2-15.75a16.12,16.12,0,1,1,32.24,0A16,16,0,0,1,275.4,147.26Zm18,77.85-10.49,4.65c-9.15-19-11.25-23.55-23.25-39.6l9.3-6.45C281.7,200.66,284.54,206.06,293.39,225.11Zm-18-103a9.38,9.38,0,0,0-9.3,9.45,9.25,9.25,0,0,0,9.3,9.3,9.47,9.47,0,0,0,9.44-9.3A9.81,9.81,0,0,0,275.4,122.06Z"/><path class="cls-4" d="M384.3,140.06v11.4H342.6v-11.4ZM346.65,240.71v-11.1c46.5,0,55.35-16.5,81.75-65.1L439,170.36C413.25,218.21,401.7,240.71,346.65,240.71Z"/><path class="cls-4" d="M554,165.71H518.1v36.45H506.7V165.71H480.3V155.06h26.4V123.42h11.4v31.64H554V123.72h11.4v31.34h27.29v10.65H565.35c0,35.4-6.3,50.55-32.4,81.15l-8.7-7.5C549.15,210.56,553.8,197.51,554,165.71Z"/><path class="cls-4" d="M630.9,178.31H741.59v11.4H630.9Z"/></svg>