<svg id="レイヤー_1" data-name="レイヤー 1" xmlns="http://www.w3.org/2000/svg" viewBox="0 0 1220.88 305"><defs><style>.cls-1{fill:#f5e929;}.cls-2{fill:#231815;}.cls-3{fill:#2096d5;}.cls-4{fill:#fff100;}</style></defs><title>見出し　サマリー</title><rect class="cls-1" width="316" height="72"/><path class="cls-2" d="M318,74H-2V-2H318ZM2,70H314V2H2Z"/><path class="cls-2" d="M184.25,53.1l2.31-6h10.17l2.27,6a4,4,0,0,0,3.73,2.57h5.58a4,4,0,0,0,2.64-1,4.07,4.07,0,0,0,2.64,1h5.27a4,4,0,0,0,4-4V43l8.41,11.09a4,4,0,0,0,3.21,1.59h6.38a4,4,0,0,0,4-4,4,4,0,0,0-.81-2.42l-9.2-12.13A15.51,15.51,0,0,0,238,33.93a14,14,0,0,0,2.45-8.33,11.31,11.31,0,0,0-7.42-11c-2.1-.9-5.24-1.31-9.88-1.31h-9.61a4,4,0,0,0-4,4V44L198.48,15.87a4,4,0,0,0-3.72-2.53h-5.28a4,4,0,0,0-3.72,2.53l-8.7,22V17.34a4,4,0,0,0-4-4h-6.58A4,4,0,0,0,162.7,16L159,26.56,155.23,16a4,4,0,0,0-3.75-2.65h-6.34a3.88,3.88,0,0,0-2.53.92,3.92,3.92,0,0,0-2.53-.92h-6.6A4,4,0,0,0,129.7,16L126,26.56,122.23,16a4,4,0,0,0-3.75-2.65h-6.34a3.94,3.94,0,0,0-3.31,1.74,4,4,0,0,0-3.3-1.74h-4.6a4,4,0,0,0-4,4V38.05c0,3.86-.72,5.26-1,5.68a3.47,3.47,0,0,1-2.64.81c-1.78,0-2.16-.55-2.31-.76-.3-.42-1-1.82-1-5.6V17.34a4,4,0,0,0-4-4h-5.3a4,4,0,0,0-4,4V37.67c-1.12-3-3.67-6.28-9.41-8.3l-3.19-1.08-3.37-1.18a15.23,15.23,0,0,1-3.59-1.61V25c.14-.1.9-.53,3.13-.53a25.12,25.12,0,0,1,8.88,2,4,4,0,0,0,1.45.27,4,4,0,0,0,4-4V18.14a4,4,0,0,0-2.91-3.85,42.64,42.64,0,0,0-11.5-1.78c-4.72,0-8.54,1.15-11.36,3.43a12.72,12.72,0,0,0-4.63,10.28,11.56,11.56,0,0,0,3.21,8.31c1.8,1.8,4.67,3.42,8.79,5l3.52,1.28a19.49,19.49,0,0,1,4.44,2v.1c0,.27,0,.45-.53.8a7.6,7.6,0,0,1-4,.88c-2.5,0-5.87-1-10-2.81A4,4,0,0,0,44,45.43v5.22a4,4,0,0,0,3,3.86,49.73,49.73,0,0,0,12.52,2c5.13,0,9.37-1.23,12.6-3.65a12.91,12.91,0,0,0,5.24-8.64,16.37,16.37,0,0,0,3.49,7.39c2.84,3.25,7.06,4.9,12.55,4.9,6.42,0,11.33-2.79,14.19-8.06a10.6,10.6,0,0,0,.62-1.38v4.6a4,4,0,0,0,4,4h3.67a4,4,0,0,0,4-4V45.78a4,4,0,0,0,3.75,2.64h4.45a4,4,0,0,0,3.77-2.69v5.94a4,4,0,0,0,4,4h4.31a4,4,0,0,0,2.53-.93,4.06,4.06,0,0,0,2.53.93h3.67a4,4,0,0,0,4-4V45.78a4,4,0,0,0,3.76,2.64h4.44a4,4,0,0,0,3.78-2.69v5.94a4,4,0,0,0,4,4h4.31a4.26,4.26,0,0,0,1.42-.27,4.54,4.54,0,0,0,1.45.27h4.46A4,4,0,0,0,184.25,53.1Zm38.61-27.8a12.91,12.91,0,0,1,4,.48,3.93,3.93,0,0,1,.06.69,2.08,2.08,0,0,1-.89,1.88,6.1,6.1,0,0,1-3.12,1Zm-31.22,8.62.46,1.2h-.92Z"/><path class="cls-2" d="M239,15.42a4,4,0,0,0,.15,4.08l12.38,19.29V51.67a4,4,0,0,0,4,4h5.27a4,4,0,0,0,4-4V38.84l13-19.27a4,4,0,0,0-3.35-6.23h-5a4,4,0,0,0-3.3,1.73l-7.47,10.84L252,15.2a4,4,0,0,0-3.38-1.86H242.5A4,4,0,0,0,239,15.42Z"/><path class="cls-3" d="M70.59,18.14v4.53a29.19,29.19,0,0,0-10.33-2.2q-7.15,0-7.15,4.81a4,4,0,0,0,1.37,3.15,16,16,0,0,0,5,2.45l3.37,1.17,3.22,1.1q7.41,2.63,7.41,8.88a9,9,0,0,1-3.84,7.64q-3.81,2.82-10.16,2.83A46.48,46.48,0,0,1,48,50.6V45.38q7,3.15,11.64,3.16A11.3,11.3,0,0,0,65.88,47a4.78,4.78,0,0,0,2.32-4.14,3.88,3.88,0,0,0-1.38-3.13A22,22,0,0,0,61.14,37l-3.53-1.28q-5.28-2-7.32-4a7.44,7.44,0,0,1-2-5.49,8.66,8.66,0,0,1,3.14-7.17c2.1-1.7,5-2.54,8.85-2.54A38.38,38.38,0,0,1,70.59,18.14Z"/><path class="cls-3" d="M80.68,17.34h5.26V38.18c0,3.64.58,6.27,1.72,7.91s3,2.45,5.58,2.45c2.73,0,4.68-.82,5.87-2.45s1.78-4.3,1.8-8V17.34h4.57V37.27c0,4.3-.51,7.38-1.53,9.26q-3.24,6-10.67,6-6.45,0-9.54-3.54c-2.06-2.36-3.09-6-3.06-10.89Z"/><path class="cls-3" d="M112.12,51.67V17.34h6.36L126,38.48h0l7.4-21.14h6.61V51.67h-4.31V22.21h0l-7.73,22.21H123.6l-7.7-21.6h0V51.67Z"/><path class="cls-3" d="M145.14,51.67V17.34h6.34L159,38.48h0l7.45-21.14h6.61V51.67h-4.31V22.21h-.05L161,44.42h-4.44l-7.72-21.6h0V51.67Z"/><path class="cls-3" d="M176,51.67l13.51-34.33h5.27l13.56,34.33h-5.58l-3.25-8.59H183.81l-3.33,8.59Zm9.41-12.55h12.54l-6.3-16.45Z"/><path class="cls-3" d="M213.59,51.67V17.34h9.61q6,0,8.32,1a7.33,7.33,0,0,1,5,7.27,10.09,10.09,0,0,1-1.72,6A16.07,16.07,0,0,1,229,36.07l11.82,15.6h-6.36L223.62,37.38h-4.76V51.67Zm5.27-18.25h2.78a11.09,11.09,0,0,0,6.75-1.88,6.06,6.06,0,0,0,2.48-5.07c0-2-.62-3.34-1.87-4.07s-3.55-1.1-6.9-1.1h-3.24Z"/><path class="cls-3" d="M255.56,51.67v-14l-13-20.28h6.08l10,15.84,10.84-15.89h5L260.83,37.67v14Z"/><path class="cls-2" d="M30.64,196.63a4.22,4.22,0,0,0,.6,3.21l6.3,9.6a4.27,4.27,0,0,0,2.7,1.84,5,5,0,0,0,.86.08,4.25,4.25,0,0,0,2.34-.7l7.75-5.12c12.24-8.09,21.84-14.43,30.06-20.17V247a4.25,4.25,0,0,0,4.25,4.25H97.2a4.25,4.25,0,0,0,4.25-4.25V170.08c19.79-15.1,27.9-28.16,27.9-44.72a4.26,4.26,0,0,0-4.25-4.25H113.55a4.26,4.26,0,0,0-4.26,4.25c0,19.06-21.88,33.16-65.48,61.27l-11.32,7.31A4.27,4.27,0,0,0,30.64,196.63Z"/><path class="cls-2" d="M223.57,141.32a4.24,4.24,0,0,0-2.92-1.16l-.37,0a4.24,4.24,0,0,0-3.05,1.7l-42.3,57a4.26,4.26,0,0,0,.93,6l9.75,7a4.29,4.29,0,0,0,2.49.8,5.62,5.62,0,0,0,.7-.05,4.3,4.3,0,0,0,2.77-1.74l30.85-43.6,61.53,61a4.27,4.27,0,0,0,3,1.23H287a4.25,4.25,0,0,0,3-1.34l9-9.6a4.26,4.26,0,0,0-.18-6Z"/><rect class="cls-2" x="250.89" y="132.81" width="17.35" height="31.75" rx="4.25" ry="4.25"/><rect class="cls-2" x="269.49" y="132.96" width="17.35" height="31.75" rx="4.25" ry="4.25"/><path class="cls-2" d="M442.79,172.38a4.24,4.24,0,0,0-1.7-5.74l-10.65-5.85a4.22,4.22,0,0,0-2-.53,4.4,4.4,0,0,0-1.2.17,4.26,4.26,0,0,0-2.54,2l-.19.35c-26.09,48-34,62.53-77.82,62.53a4.25,4.25,0,0,0-4.25,4.25v11.1a4.25,4.25,0,0,0,4.25,4.25c57,0,69.82-23.76,95.34-71.1Z"/><rect class="cls-2" x="338.35" y="135.81" width="50.2" height="19.9" rx="4.25" ry="4.25"/><path class="cls-2" d="M523.5,118.41H512a4.25,4.25,0,0,0-4.25,4.25v122.7a4.25,4.25,0,0,0,4.25,4.25H523.5a4.25,4.25,0,0,0,4.25-4.25v-60c13.75,7.62,27.18,15.36,42.74,26.68a4.29,4.29,0,0,0,2.51.81,4.49,4.49,0,0,0,.73-.06,4.27,4.27,0,0,0,2.79-1.81l6.6-9.75a4.26,4.26,0,0,0-1.2-5.94,486.72,486.72,0,0,0-54.17-31.2V122.66A4.25,4.25,0,0,0,523.5,118.41Z"/><path class="cls-2" d="M749.84,169h-13c1-10.13,1.63-21,1.87-30.94h6.77a4.26,4.26,0,0,0,4.26-4.26v-9.15a4.26,4.26,0,0,0-4.26-4.25H701.25a4.26,4.26,0,0,0-3.75-2.25H665a4.25,4.25,0,0,0-4.25,4.25v20h-7.1v-26a4.25,4.25,0,0,0-4.25-4.25h-9.3a4.25,4.25,0,0,0-4.25,4.25v26.05H621.9a4.25,4.25,0,0,0-4.25,4.25v9.6a4.25,4.25,0,0,0,4.25,4.26h11.58c-4.48,18.19-10.67,34.19-18.41,47.62a4.24,4.24,0,0,0-.15,4l5.25,11a4.23,4.23,0,0,0,3.69,2.41H624a4.24,4.24,0,0,0,3.7-2.16,154.58,154.58,0,0,0,8.1-16.63v44.54a4.25,4.25,0,0,0,4.25,4.25h9.3a4.25,4.25,0,0,0,4.25-4.25v-13.7l2.76,5.42a4.26,4.26,0,0,0,5.87,1.79,297.57,297.57,0,0,0,29.83-19.13l.56,1.47a4,4,0,0,0,.61,1.09,110.11,110.11,0,0,1-15,13.18,4.25,4.25,0,0,0-.76,6.15l6.6,8A4.22,4.22,0,0,0,687.3,257a4.18,4.18,0,0,0,2.61-.9A123.36,123.36,0,0,0,719,224.39v15.87c0,13.55,9.57,13.55,16.55,13.55,2.48,0,10,0,14.17-6.21,3.38-5,3.89-18.48,3.89-26.09a4.25,4.25,0,0,0-2.62-3.92l-9-3.75a4.24,4.24,0,0,0-4,.38,4.19,4.19,0,0,0-1.34,1.44v-23.4a4.27,4.27,0,0,0-3.09-4.09l.38-1.56h15.85a4.25,4.25,0,0,0,4.26-4.25v-9.15A4.25,4.25,0,0,0,749.84,169ZM660.7,224c-.66.31-1.33.6-2,.9-1,.42-2,.86-3,1.36l-2.1,1.05V197.39q1.18,2.06,2.35,4.23a4.25,4.25,0,0,0,3.75,2.24h0a4.07,4.07,0,0,0,1-.12Zm0-46.14c-2.45-2.86-4.85-5.57-7.1-8.08v-9.26h7.1Zm17.35-42.24h6.49v11h-6.49Zm0,28.2h6.49v11.89h-6.49Zm0,50.5V193.21h5.07l-1.59.94a4.26,4.26,0,0,0-1.47,5.87c1.79,2.95,3.59,6.19,5.36,9.67C683,211.3,680.48,212.84,678.05,214.32Zm23.7-76.3h1.09V169h-1.09Zm4,73.58a177.73,177.73,0,0,0-9.88-18.39h1.59a4.25,4.25,0,0,0,4.25-4.25v-2.35H716A92.38,92.38,0,0,1,705.79,211.6Zm14.11-50.72V138h1.42C721.06,145.11,720.59,152.75,719.9,160.88Z"/><path class="cls-2" d="M897,191.91H835.47q1.15-2.34,2.27-4.84a4.34,4.34,0,0,0,.36-1.81h49.44A4.25,4.25,0,0,0,891.8,181V146.36a4.26,4.26,0,0,0-4.26-4.25H860.15v-4.54H895a4.26,4.26,0,0,0,4.26-4.26V124a4.26,4.26,0,0,0-4.26-4.25H777.15A4.25,4.25,0,0,0,772.9,124v9.3a4.25,4.25,0,0,0,4.25,4.26h34.3v4.54h-27a4.25,4.25,0,0,0-4.25,4.25V181a4.25,4.25,0,0,0,4.25,4.25h32.87c-1.06,2.2-2.18,4.47-3.32,6.65h-38.7a4.25,4.25,0,0,0-4.25,4.25v9.3a4.25,4.25,0,0,0,4.25,4.25H803c-2.56,3.65-5.13,7.11-7.59,10.21a4.25,4.25,0,0,0,2.14,6.72l14,4.06,8,2.28c-11.36,3.15-24.92,5.07-40.47,5.73a4.25,4.25,0,0,0-3.58,6.24l5.4,10.2a4.25,4.25,0,0,0,3.76,2.26h.3c14.54-1,41.37-4.45,60.66-15.92,13.82,4.79,26.79,10.1,37.74,14.7a4.26,4.26,0,0,0,4.8-1.07l8.55-9.45a4.27,4.27,0,0,0-1.77-6.87c-11.06-3.9-22.45-7.91-33.86-11.62a82.28,82.28,0,0,0,9.56-17.46H897a4.25,4.25,0,0,0,4.26-4.25v-9.3A4.25,4.25,0,0,0,897,191.91Zm-85.54-23.55h-12.2V159h12.2Zm48.7-9.34h12.94v9.34H860.15Zm-30.6-21.45h12.34v4.54H829.55Zm0,21.45h12.34v9.34H829.55Zm12.15,62.3-1-.29-1.38-.43a4.14,4.14,0,0,0-1-.19l-16.74-4.55c1.31-1.9,2.71-4,4.06-6.15h24.32A62.21,62.21,0,0,1,841.7,221.32Z"/><path class="cls-4" d="M97.2,168v79H85.5v-69.9c-11.1,8.1-24.45,16.8-44.4,30l-6.3-9.6c52.35-33.9,78.75-49,78.75-72.15H125.1C125.1,141,117.15,153.11,97.2,168Z"/><path class="cls-4" d="M188.1,208.46l-9.75-7.05,42.3-57,75.29,71.25-9,9.6-65.1-64.5ZM264,160.31h-8.85V137.06H264Zm18.59.15h-8.84V137.21h8.84Z"/><path class="cls-4" d="M384.3,140.06v11.4H342.6v-11.4ZM346.65,240.71v-11.1c46.5,0,55.35-16.5,81.75-65.1L439,170.36C413.25,218.21,401.7,240.71,346.65,240.71Z"/><path class="cls-4" d="M579.59,198.86,573,208.61c-18.15-13.2-33.45-21.6-49.5-30.45v67.2H512V122.66H523.5v44.1A479.31,479.31,0,0,1,579.59,198.86Z"/><path class="cls-4" d="M624,221.21l-5.25-11c9.6-16.65,15.9-35.25,20.1-54h-17v-9.6h18.15v-30.3h9.3v30.3h12.3v9.6h-12.3v15.15c5.4,6,10.65,12,15.6,18.3l-5.25,9.9a130.16,130.16,0,0,0-10.35-16.5v68.1h-9.3V181.16C636.15,195,631.2,208.46,624,221.21Zm108.15-48h17.69v9.15H730.65l-2.4,9.9h4.2v44c0,2.25,1,3.3,3,3.3,2.25,0,3-1.35,3.59-3.45.9-3.75,1.35-14.25,1.35-18.3l9,3.75c0,4.8-.3,19.5-3.15,23.7-2.4,3.6-6.6,4.35-10.65,4.35-7.94,0-12.29-.3-12.29-9.3v-33.6c-7.35,18.45-20.25,33.75-36,46.05l-6.6-8c21.15-15.45,35.55-36.3,40.65-62.4H697.5V189H673.8v32.85c5.85-3.45,11.55-6.9,17.1-10.65-2.25-4.65-4.65-9.15-7.2-13.35l7.35-4.35A172.12,172.12,0,0,1,704.4,219l-7.8,6.6-2.55-6.75a293.2,293.2,0,0,1-33.9,22.2l-4.95-9.75,2.4-1.2c2.4-1.2,5.1-2.1,7.5-3.6H665V122.36H697.5v50.85h9.6V133.76h-6.3v-9.15h44.69v9.15h-11C734.39,146.21,733.5,160.76,732.15,173.21ZM688.8,131.36h-15v19.5h15Zm0,28.2h-15V180h15Zm36.9-25.8H715.65v39.45H723C724.35,160.31,725.4,146.66,725.7,133.76Z"/><path class="cls-4" d="M853.8,229.31c13.35,4.2,26.54,8.85,39.74,13.5L885,252.26c-13.2-5.55-26.25-10.8-39.9-15.45-16.5,10.5-41.25,15-60.45,16.35l-5.4-10.2c17.7-.75,37.65-3.3,54-10.2-6.75-2.25-13.65-4.2-20.55-6.15l-14-4.05c4-5.1,8.25-10.95,12.3-17.1h-35.7v-9.3H816.6c2.55-4.65,4.95-9.75,7.2-14.55l10.05,3.75c-1.65,3.75-3.45,7.2-5.4,10.8H897v9.3H867.75C864.45,214,860.1,222.56,853.8,229.31Zm-76.65-96V124H895v9.3H855.9v13.05h31.64V181h-103V146.36h31.2V133.31ZM795,154.76v17.85h20.7V154.76Zm61.65,50.7H823.2c-2.4,4-5.1,7.95-7.8,11.7h.15l-.9,1.2h-.15l26,7,1,.3,1.5.45A66.28,66.28,0,0,0,856.65,205.46Zm-10.5-59.1V133.31H825.3v13.05Zm0,26.25V154.76H825.3v17.85Zm-8.1,52c.9.3,2,.6,3,.9l-.6-.15Zm39.3-52V154.76H855.9v17.85Z"/></svg>