<svg id="レイヤー_1" data-name="レイヤー 1" xmlns="http://www.w3.org/2000/svg" viewBox="0 0 1220.88 305"><defs><style>.cls-1{fill:#f5e929;}.cls-2{fill:#231815;}.cls-3{fill:#2096d5;}.cls-4{fill:#fff100;}.cls-5{fill:#00a0e9;}.cls-6{fill:#e4007f;}</style></defs><title>見出し　アバウト</title><rect class="cls-1" x="-1" y="0.53" width="316" height="72"/><path class="cls-2" d="M317,74.53H-3v-76H317Zm-316-4H313v-68H1Z"/><path class="cls-2" d="M76.9,55.67h4.58a4,4,0,0,0,3.73-2.57l2.31-6H97.7l2.26,6a4,4,0,0,0,3.71,2.57h5.58a4,4,0,0,0,2.67-1,4,4,0,0,0,2.63,1H124.9a42.26,42.26,0,0,0,8.33-.59,13.42,13.42,0,0,0,5.85-2.83,11.42,11.42,0,0,0,3.77-5.78,19.2,19.2,0,0,0,2.38,3.69,18.44,18.44,0,0,0,26,1.81,19.43,19.43,0,0,0,1.82-1.81,20.46,20.46,0,0,0,3.3-5.82,16,16,0,0,0,3.45,7.26c2.84,3.25,7.06,4.9,12.55,4.9,6.42,0,11.33-2.79,14.19-8.06,1.35-2.49,2-6.15,2-11.17v-12a3.84,3.84,0,0,0,.76.08h9.2V51.67a4,4,0,0,0,4,4h5.27a4,4,0,0,0,4-4V25.3H241a4,4,0,0,0,4-4h0v-4a4,4,0,0,0-4-4H209.33a3.92,3.92,0,0,0-2.38.8,4,4,0,0,0-2.39-.8H200a4,4,0,0,0-4,4V38.05c0,3.86-.72,5.26-1,5.68a3.46,3.46,0,0,1-2.63.81c-1.78,0-2.17-.55-2.31-.76-.3-.42-1-1.82-1-5.6V17.34a4,4,0,0,0-4-4h-5.27a4,4,0,0,0-4,4v5.81a19.75,19.75,0,0,0-2.67-4.31A18.45,18.45,0,0,0,147,17.06a17.69,17.69,0,0,0-1.79,1.78,20.41,20.41,0,0,0-3.56,6.52h0c0-4.47-2.08-12-16-12H114.55a4,4,0,0,0-4,4v26.7L99.48,15.87a4,4,0,0,0-3.74-2.53H90.48a4,4,0,0,0-3.72,2.53L73.18,50.2a4,4,0,0,0,2.25,5.19A4,4,0,0,0,76.9,55.67Zm78.74-29.36a4.24,4.24,0,0,1,5.91-1.09,4.34,4.34,0,0,1,1.09,1.09c1.16,1.76,1.74,4.51,1.74,8.17s-.58,6.43-1.74,8.19a4.24,4.24,0,0,1-5.9,1.1,4.11,4.11,0,0,1-1.1-1.1c-1.15-1.76-1.74-4.52-1.74-8.2S154.48,28.07,155.64,26.31Zm-15.09,4a31.9,31.9,0,0,0-.27,4.15v.16a12.76,12.76,0,0,0-1.64-1.49,11.61,11.61,0,0,0,1.91-2.79Zm-16.72-5a16.91,16.91,0,0,1,4.47.51v.42c0,1.24-2.51,1.69-4.49,1.85Zm0,14.25a10.74,10.74,0,0,1,4.65,1.29c1.3.79,1.3,1.43,1.3,1.85a4,4,0,0,1,0,.49,16.62,16.62,0,0,1-5.11.52h-.76ZM92.58,33.92l.46,1.2h-.92Z"/><path class="cls-3" d="M76.9,51.67,90.48,17.34h5.26l13.5,34.33h-5.58l-3.18-8.59H84.74l-3.26,8.59Zm9.41-12.55H98.86l-6.3-16.45Z"/><path class="cls-3" d="M114.55,51.67V17.34h11.07q12,0,12,8a7.44,7.44,0,0,1-2.07,5.26,11.55,11.55,0,0,1-5.74,3.07q9.54,2,9.55,9.07a7.85,7.85,0,0,1-2.81,6.37,9.44,9.44,0,0,1-4.15,2,40,40,0,0,1-7.49.5Zm5.28-19.48h1.84q10.63,0,10.64-5.94,0-2.92-2.05-3.94c-1.38-.68-4-1-8-1h-2.47Zm0,15.52h4.76q5.22,0,7.17-1.07a4.08,4.08,0,0,0,2-3.94,6,6,0,0,0-3.28-5.27c-2.15-1.34-5.08-2-8.78-2h-1.91Z"/><path class="cls-3" d="M144.28,34.49q0-8.22,4-13.1a14.46,14.46,0,0,1,20.42-1.25A14.74,14.74,0,0,1,170,21.39q4,4.89,4,13.1t-4,13.12a14.46,14.46,0,0,1-20.4,1.27,13.84,13.84,0,0,1-1.27-1.27Q144.29,42.74,144.28,34.49Zm5.62,0q0,6.73,2.39,10.39a8.24,8.24,0,0,0,13.69,0q2.42-3.65,2.41-10.39T166,24.12a8.24,8.24,0,0,0-11.42-2.27,8,8,0,0,0-2.26,2.27Q149.9,27.77,149.9,34.49Z"/><path class="cls-3" d="M179.73,17.34H185V38.18c0,3.64.57,6.27,1.72,7.91s3,2.45,5.58,2.45c2.72,0,4.67-.82,5.87-2.45s1.78-4.3,1.78-8V17.34h4.6V37.27c0,4.3-.5,7.38-1.52,9.26q-3.24,6-10.68,6-6.45,0-9.54-3.54t-3.09-10.86Z"/><path class="cls-3" d="M222.53,51.67V21.3h-13.2v-4H241v4H227.8V51.67Z"/><path class="cls-2" d="M45.68,218.66v-94H69.93a4.25,4.25,0,0,0,4.25-4.25v-10.5a4.25,4.25,0,0,0-4.25-4.25H31.23A4.25,4.25,0,0,0,27,109.91V218.66a4.25,4.25,0,0,0,4.25,4.25h10.2A4.25,4.25,0,0,0,45.68,218.66Z"/><path class="cls-2" d="M416.23,244.31V135.41a4.25,4.25,0,0,0-4.25-4.25h-10.2a4.25,4.25,0,0,0-4.25,4.25v94.15H373.28a4.25,4.25,0,0,0-4.25,4.25v10.5a4.25,4.25,0,0,0,4.25,4.25H412A4.25,4.25,0,0,0,416.23,244.31Z"/><path class="cls-2" d="M526.13,179.13c2.44,2.53,3.53,6.24,3.35,11.31-.64,15.84-21.74,23.22-35.8,23.22h-8.85a4.25,4.25,0,0,0-4.25,4.25V229a4.25,4.25,0,0,0,4.25,4.25h8.85c39.51,0,55.22-25.88,55.84-42.2.37-10.26-2.54-18.67-8.63-25-7.28-7.54-18.83-11.52-33.41-11.52h-45a4.25,4.25,0,0,0-4.25,4.25v10.95a4.25,4.25,0,0,0,4.25,4.25h45C516.71,174,522.81,175.69,526.13,179.13Z"/><path class="cls-2" d="M628.07,190.18c-2.05,14.81.87,27.25,8.46,36,7.91,9.08,20.65,13.87,36.85,13.87,2.49,0,6.4-.15,11.93-.46a4.25,4.25,0,0,0,4-4.24V225a4.26,4.26,0,0,0-4.26-4.25h-.36c-5,.43-9.4.59-11,.59-9.68,0-17.07-2.64-21.38-7.62-4.11-4.76-5.55-11.66-4.26-20.51,2.18-14.75,14-29.49,22.57-40.26,2.55-3.19,4.82-6,6.66-8.61h20.56a4.25,4.25,0,0,0,4.26-4.25V129.71a4.25,4.25,0,0,0-4.26-4.25H600.93a4.25,4.25,0,0,0-4.25,4.25v10.35a4.23,4.23,0,0,0,4.25,4.25l52.35-.12C640.46,160.23,630.46,173.25,628.07,190.18Z"/><rect class="cls-2" x="788.07" y="214.71" width="25.15" height="25.9" rx="4.25" ry="4.25"/><path class="cls-2" d="M844.13,145.61c0-21.14-16.62-35.9-40.4-35.9-25.2,0-41.83,16.65-43.4,43.45a4.24,4.24,0,0,0,4.25,4.5h13.2a4.25,4.25,0,0,0,4.25-4.09c.26-7.16,2.9-23.81,21.55-23.81,5.75,0,19.14,1.55,19.14,15.85,0,6.64-2.69,11.39-9.06,15.92-6.7,4.91-14.22,10.84-18.78,19.12-4,7.5-4.86,17.55-4.86,24.66a4.25,4.25,0,0,0,4.26,4.25h12.9a4.25,4.25,0,0,0,4.25-4.25c0-4.64.12-9.54,1.56-13.9,1.88-5.14,5.55-9.4,11.89-13.8C837.83,168.72,844.13,158.26,844.13,145.61Z"/><polygon class="cls-4" points="126.44 120.72 111.53 120.72 104.16 120.72 104.16 137.27 126.44 137.27 126.44 129.53 126.44 120.72"/><path class="cls-2" d="M126.44,138.75H104.16a1.48,1.48,0,0,1-1.48-1.48V120.72a1.48,1.48,0,0,1,1.48-1.48h22.28a1.48,1.48,0,0,1,1.48,1.48v16.55A1.48,1.48,0,0,1,126.44,138.75Zm-20.81-2.95H125V122.19H105.63Z"/><polygon class="cls-4" points="126.44 153.62 92.82 153.62 85.45 153.62 85.45 168.5 110.83 168.5 110.83 232.6 126.44 232.6 126.44 224.85 126.44 153.62"/><path class="cls-2" d="M126.44,234.07H110.83a1.47,1.47,0,0,1-1.48-1.47V170H85.45A1.48,1.48,0,0,1,84,168.5V153.62a1.47,1.47,0,0,1,1.48-1.47h41a1.47,1.47,0,0,1,1.48,1.47v79A1.47,1.47,0,0,1,126.44,234.07Zm-14.14-2.95H125v-76h-38V167h23.91a1.47,1.47,0,0,1,1.47,1.47Z"/><path class="cls-4" d="M247.88,181.19q0-13.17-8-21.06t-21.44-7.89q-15.45,0-25.78,10.41v-9H177.93v79h14.72V189.65q0-11,6.63-17.73a21.63,21.63,0,0,1,3.95-3.17,24.72,24.72,0,0,1,13.5-3.58q7.8,0,12.12,4t4.31,10.93V232.6h14.72V181.19Z"/><path class="cls-2" d="M247.88,234.07H233.16a1.47,1.47,0,0,1-1.48-1.47V180.05c0-4.26-1.25-7.49-3.83-9.85s-6.32-3.55-11.12-3.55A23.37,23.37,0,0,0,204,170a20.56,20.56,0,0,0-3.69,3c-4.11,4.19-6.2,9.81-6.2,16.69V232.6a1.47,1.47,0,0,1-1.48,1.47H177.93a1.47,1.47,0,0,1-1.48-1.47v-79a1.47,1.47,0,0,1,1.48-1.47h14.72a1.47,1.47,0,0,1,1.48,1.47v5.66c6.7-5.65,14.86-8.52,24.31-8.52s16.86,2.8,22.46,8.32,8.46,13,8.46,22.11V232.6A1.47,1.47,0,0,1,247.88,234.07Zm-13.25-2.95H246.4V181.19c0-8.33-2.54-15.06-7.57-20s-11.89-7.47-20.39-7.47c-9.85,0-18.18,3.36-24.74,10a1.48,1.48,0,0,1-1.61.32,1.46,1.46,0,0,1-.91-1.36V155.1H179.4v76h11.78V189.65c0-7.68,2.37-14,7-18.76a23.25,23.25,0,0,1,4.21-3.39,26.4,26.4,0,0,1,14.29-3.81c5.56,0,10,1.46,13.11,4.34s4.79,6.95,4.79,12Z"/><path class="cls-4" d="M342.56,214.79a34.18,34.18,0,0,1-8.83,4.43,28.74,28.74,0,0,1-9.31,1.83q-5.54,0-8.54-3.7t-3-10.45V165.58h29.69V152.73H312.87V132.31H298.15v20.43H281.8v12.85h16.35v39.85q0,14,6.62,21.27T324.09,234q11.39,0,18.47-4.63V214.79Z"/><path class="cls-2" d="M324.09,235.46c-8.85,0-15.72-2.61-20.41-7.77s-7-12.59-7-22.26V167.05H281.8a1.47,1.47,0,0,1-1.48-1.47V152.73a1.48,1.48,0,0,1,1.48-1.48h14.87V132.3a1.47,1.47,0,0,1,1.48-1.47h14.72a1.47,1.47,0,0,1,1.47,1.47v18.94h28.22a1.47,1.47,0,0,1,1.47,1.48v12.85a1.47,1.47,0,0,1-1.47,1.47H314.34V206.9c0,4.13.9,7.33,2.68,9.52s4.15,3.15,7.4,3.15a27.34,27.34,0,0,0,8.82-1.74,32.52,32.52,0,0,0,8.45-4.24,1.5,1.5,0,0,1,1.54-.12,1.48,1.48,0,0,1,.8,1.32v14.56a1.47,1.47,0,0,1-.67,1.23C338.42,233.82,331.94,235.46,324.09,235.46ZM283.27,164.1h14.88a1.47,1.47,0,0,1,1.47,1.48v39.85c0,8.91,2.1,15.73,6.25,20.28s10.23,6.8,18.22,6.8c6.91,0,12.62-1.34,17-4v-11a38.86,38.86,0,0,1-6.86,3.11c-8.88,3.1-15.61,2.44-19.49-2.33-2.21-2.73-3.34-6.56-3.34-11.38V165.58a1.48,1.48,0,0,1,1.48-1.48h28.21v-9.9H312.87a1.47,1.47,0,0,1-1.48-1.47V133.79H299.62v18.95a1.47,1.47,0,0,1-1.47,1.47H283.27Z"/><path class="cls-5" d="M324.42,221.05a28.74,28.74,0,0,0,9.31-1.83,34.18,34.18,0,0,0,8.83-4.43l7.37-7.75a33.64,33.64,0,0,1-8.82,4.43,28.79,28.79,0,0,1-9.32,1.83q-5.52,0-8.54-3.7l-7.37,7.75Q318.88,221.06,324.42,221.05Z"/><path class="cls-2" d="M324.42,222.52c-4.14,0-7.4-1.42-9.69-4.24a1.48,1.48,0,0,1,.08-1.95l7.37-7.74a1.48,1.48,0,0,1,2.22.08c1.72,2.13,4.14,3.16,7.39,3.16a27.39,27.39,0,0,0,8.83-1.75,32.82,32.82,0,0,0,8.45-4.23,1.47,1.47,0,0,1,1.93,2.21l-7.37,7.74a1.18,1.18,0,0,1-.21.18,35.63,35.63,0,0,1-9.2,4.63A30.32,30.32,0,0,1,324.42,222.52Zm-6.51-5.17c3.16,2.88,8.43,2.88,15.33.48a32.77,32.77,0,0,0,8.34-4.16l1.16-1.22-1.15.42c-8.06,2.81-14.36,2.54-18.34-1.12Z"/><polygon class="cls-5" points="104.16 120.72 111.53 120.72 126.44 120.72 133.82 112.97 111.53 112.97 104.16 120.72"/><path class="cls-2" d="M126.44,122.19H104.16a1.47,1.47,0,0,1-1.07-2.49l7.37-7.75a1.49,1.49,0,0,1,1.07-.45h22.29a1.48,1.48,0,0,1,1.07,2.49l-7.38,7.74A1.44,1.44,0,0,1,126.44,122.19Zm-18.84-3h18.21l4.57-4.79H112.16Z"/><polygon class="cls-5" points="192.65 153.62 200.03 145.88 185.31 145.88 177.93 153.62 185.31 153.62 192.65 153.62"/><path class="cls-2" d="M192.65,155.1H177.93a1.5,1.5,0,0,1-1.36-.9,1.48,1.48,0,0,1,.29-1.6l7.38-7.74a1.48,1.48,0,0,1,1.07-.46H200a1.48,1.48,0,0,1,1.07,2.49l-7.38,7.75A1.5,1.5,0,0,1,192.65,155.1Zm-11.28-2.95H192l4.57-4.8H185.94Z"/><polygon class="cls-5" points="85.45 153.62 92.82 153.62 126.44 153.62 133.82 145.88 92.82 145.88 85.45 153.62"/><path class="cls-2" d="M126.44,155.1h-41a1.48,1.48,0,0,1-1.07-2.5l7.38-7.74a1.46,1.46,0,0,1,1.06-.46h41a1.48,1.48,0,0,1,1.07,2.49l-7.38,7.75A1.48,1.48,0,0,1,126.44,155.1Zm-37.55-2.95h36.92l4.57-4.8H93.46Z"/><polygon class="cls-5" points="298.15 152.72 298.15 144.98 289.17 144.98 281.8 152.72 289.17 152.72 298.15 152.72"/><path class="cls-2" d="M298.15,154.2H281.8a1.47,1.47,0,0,1-1.07-2.49L288.1,144a1.5,1.5,0,0,1,1.07-.46h9a1.48,1.48,0,0,1,1.47,1.48v7.75A1.47,1.47,0,0,1,298.15,154.2Zm-12.91-2.95h11.43v-4.79h-6.86Z"/><polygon class="cls-5" points="312.87 132.31 320.24 124.57 305.52 124.56 298.15 132.3 305.52 132.31 312.87 132.31"/><path class="cls-2" d="M312.87,133.79H298.14a1.48,1.48,0,0,1-1.06-2.5l7.37-7.74a1.5,1.5,0,0,1,1.07-.46h14.73a1.48,1.48,0,0,1,1.06,2.5l-7.37,7.74A1.5,1.5,0,0,1,312.87,133.79Zm-11.28-3h10.64l4.57-4.8H306.16Z"/><polygon class="cls-5" points="342.56 152.72 349.93 144.98 320.24 144.98 312.87 152.72 342.56 152.72"/><path class="cls-2" d="M342.56,154.2H312.87a1.47,1.47,0,0,1-1.07-2.49l7.37-7.75a1.5,1.5,0,0,1,1.07-.46h29.69A1.48,1.48,0,0,1,351,146l-7.37,7.74A1.5,1.5,0,0,1,342.56,154.2Zm-26.25-2.95h25.61l4.57-4.79H320.88Z"/><path class="cls-5" d="M247.24,152.38q-8-7.89-21.43-7.89-15.45,0-25.78,10.41l-7.38,7.75q10.33-10.41,25.78-10.41,13.42,0,21.44,7.89t8,21.06l7.38-7.74Q255.26,160.26,247.24,152.38Z"/><path class="cls-2" d="M247.88,182.67a1.54,1.54,0,0,1-.55-.11,1.47,1.47,0,0,1-.93-1.37c0-8.33-2.54-15.06-7.57-20s-11.89-7.47-20.39-7.47c-9.85,0-18.18,3.36-24.74,10a1.48,1.48,0,0,1-2.12-2.06l7.38-7.74c7.16-7.22,16.19-10.87,26.85-10.87,9.31,0,16.87,2.79,22.47,8.31h0c5.61,5.53,8.45,13,8.45,22.12a1.49,1.49,0,0,1-.4,1L249,182.21A1.48,1.48,0,0,1,247.88,182.67Zm-29.44-31.91c9.3,0,16.86,2.8,22.46,8.32,4.87,4.79,7.66,11,8.31,18.58l4.57-4.8c-.12-8.06-2.66-14.59-7.57-19.43h0c-5-5-11.9-7.46-20.4-7.46a33.74,33.74,0,0,0-22,7.46A38.88,38.88,0,0,1,218.44,150.76Z"/><polygon class="cls-6" points="126.44 129.53 126.44 137.27 133.82 129.53 133.82 112.97 126.44 120.72 126.44 129.53"/><path class="cls-2" d="M126.44,138.75a1.54,1.54,0,0,1-.55-.11,1.47,1.47,0,0,1-.92-1.37V120.72a1.47,1.47,0,0,1,.4-1l7.38-7.75a1.5,1.5,0,0,1,1.62-.35,1.48,1.48,0,0,1,.92,1.37v16.56a1.45,1.45,0,0,1-.4,1l-7.38,7.75A1.46,1.46,0,0,1,126.44,138.75Zm1.48-17.44v12.27l4.42-4.64V116.66Z"/><path class="cls-6" d="M192.65,189.65V232.6l7.38-7.75V181.91a26.1,26.1,0,0,1,3.2-13.16,21.63,21.63,0,0,0-3.95,3.17Q192.65,178.67,192.65,189.65Z"/><path class="cls-2" d="M192.65,234.07a1.52,1.52,0,0,1-.55-.1,1.48,1.48,0,0,1-.92-1.37V189.65c0-7.68,2.37-14,7-18.76a23.25,23.25,0,0,1,4.21-3.39,1.49,1.49,0,0,1,1.81.18,1.47,1.47,0,0,1,.26,1.8,24.84,24.84,0,0,0-3,12.43v42.94a1.47,1.47,0,0,1-.4,1l-7.38,7.75A1.49,1.49,0,0,1,192.65,234.07Zm6.94-60.32c-3.63,4.1-5.46,9.44-5.46,15.9v39.26l4.42-4.65V181.91A30.85,30.85,0,0,1,199.59,173.75Z"/><polygon class="cls-6" points="192.65 162.65 200.03 154.9 200.03 145.88 192.65 153.62 192.65 162.65"/><path class="cls-2" d="M192.65,164.12a1.52,1.52,0,0,1-.55-.1,1.47,1.47,0,0,1-.92-1.37v-9a1.49,1.49,0,0,1,.4-1l7.38-7.74a1.47,1.47,0,0,1,2.54,1v9a1.47,1.47,0,0,1-.4,1l-7.38,7.75A1.49,1.49,0,0,1,192.65,164.12Zm1.48-9.91V159l4.42-4.65v-4.75Z"/><polygon class="cls-6" points="126.44 224.85 126.44 232.6 133.82 224.85 133.82 145.88 126.44 153.62 126.44 224.85"/><path class="cls-2" d="M126.44,234.07a1.52,1.52,0,0,1-.55-.1,1.48,1.48,0,0,1-.92-1.37v-79a1.49,1.49,0,0,1,.4-1l7.38-7.74a1.47,1.47,0,0,1,2.54,1v79a1.47,1.47,0,0,1-.4,1l-7.38,7.75A1.49,1.49,0,0,1,126.44,234.07Zm1.48-79.86v74.7l4.42-4.65v-74.7Z"/><polygon class="cls-6" points="342.56 224.85 342.56 229.34 349.93 221.6 349.93 207.04 342.56 214.79 342.56 224.85"/><path class="cls-2" d="M342.56,230.82a1.46,1.46,0,0,1-1.48-1.47V214.79a1.48,1.48,0,0,1,.41-1l7.37-7.75a1.48,1.48,0,0,1,2.55,1V221.6a1.5,1.5,0,0,1-.41,1l-7.37,7.74A1.49,1.49,0,0,1,342.56,230.82ZM344,215.38v10.28l4.43-4.65V210.73Z"/><path class="cls-6" d="M312.87,165.58V206.9q0,6.75,3,10.45l7.37-7.75q-3-3.69-3-10.45V165.58Z"/><path class="cls-2" d="M315.88,218.82h-.06a1.46,1.46,0,0,1-1.09-.54c-2.21-2.73-3.34-6.56-3.34-11.38V165.58a1.48,1.48,0,0,1,1.48-1.48h7.37a1.48,1.48,0,0,1,1.48,1.48v33.57c0,4.13.9,7.34,2.68,9.52a1.48,1.48,0,0,1-.08,2L317,218.36A1.46,1.46,0,0,1,315.88,218.82Zm-1.54-51.77V206.9a16.73,16.73,0,0,0,1.73,8.11l5.27-5.54c-1.71-2.62-2.57-6.09-2.57-10.32v-32.1Z"/><polygon class="cls-6" points="342.56 157.83 342.56 165.58 349.93 157.83 349.93 144.98 342.56 152.72 342.56 157.83"/><path class="cls-2" d="M342.56,167.05a1.46,1.46,0,0,1-1.48-1.47V152.73a1.48,1.48,0,0,1,.41-1l7.37-7.75a1.5,1.5,0,0,1,1.62-.35,1.48,1.48,0,0,1,.93,1.37v12.85a1.48,1.48,0,0,1-.41,1l-7.37,7.74A1.49,1.49,0,0,1,342.56,167.05ZM344,153.32v8.57l4.43-4.65v-8.57Z"/><polygon class="cls-6" points="312.87 152.72 320.24 144.98 320.24 124.57 312.87 132.31 312.87 152.72"/><path class="cls-2" d="M312.87,154.2a1.46,1.46,0,0,1-1.48-1.47V132.31a1.46,1.46,0,0,1,.41-1l7.37-7.75a1.48,1.48,0,0,1,2.55,1V145a1.5,1.5,0,0,1-.41,1l-7.37,7.74A1.49,1.49,0,0,1,312.87,154.2Zm1.47-21.3V149l4.43-4.65V128.26Z"/><polygon class="cls-6" points="247.88 181.19 247.88 224.85 247.88 232.6 255.26 224.85 255.26 173.45 247.88 181.19"/><path class="cls-2" d="M247.88,234.07a1.52,1.52,0,0,1-.55-.1,1.49,1.49,0,0,1-.93-1.37V181.19a1.46,1.46,0,0,1,.41-1l7.38-7.75a1.48,1.48,0,0,1,2.54,1v51.4a1.47,1.47,0,0,1-.4,1L249,233.62A1.51,1.51,0,0,1,247.88,234.07Zm1.48-52.29v47.13l4.42-4.65V177.14Z"/><path class="cls-4" d="M41.43,218.66H31.23V109.91h38.7v10.5H41.43Z"/><path class="cls-4" d="M373.28,233.81h28.5v-98.4H412v108.9h-38.7Z"/><path class="cls-4" d="M545.27,190.91c-.6,15.75-16.35,38.1-51.59,38.1h-8.85v-11.1h8.85c16.35,0,39.29-8.55,40-27.3.61-16.2-10.49-20.85-26.24-20.85h-45V158.81h45C531.17,158.81,546,169.76,545.27,190.91Z"/><path class="cls-4" d="M643.83,192.56c-3.15,21.6,8.85,33,29.84,33,1.66,0,6.16-.15,11.4-.6v10.35q-8.1.45-11.69.45c-29.85,0-45-16.8-41.1-45,2.55-18,14.25-31.2,29.85-50.85l-61.2.15V129.71h96.89v10.35H675C667.53,151.46,647,171.26,643.83,192.56Z"/><path class="cls-4" d="M803.73,114c19.19,0,36.15,11,36.15,31.65,0,12.75-7.36,21.6-17.4,28.5-5.85,4-11,8.85-13.5,15.9-1.65,5-1.8,10.2-1.8,15.3h-12.9c0-7.2.9-16.2,4.35-22.65,4-7.35,10.8-12.75,17.55-17.7S827,154.31,827,145.61c0-14.1-10.79-20.1-23.39-20.1-16.8,0-25.2,11.85-25.8,27.9h-13.2C765.93,130.31,779.43,114,803.73,114Zm-11.4,105H809v17.4H792.33Z"/></svg>