<svg id="レイヤー_1" data-name="レイヤー 1" xmlns="http://www.w3.org/2000/svg" viewBox="0 0 1220.88 305"><defs><style>.cls-1{fill:#f5e929;}.cls-2{fill:#231815;}.cls-3{fill:#2096d5;}.cls-4{fill:#fff100;}</style></defs><title>見出し　スケジュール</title><rect class="cls-1" x="-1" y="0.53" width="316" height="72"/><path class="cls-2" d="M317,74.53H-3v-76H317Zm-316-4H313v-68H1Z"/><path class="cls-2" d="M122.12,13.34h-5.28a4,4,0,0,0-4,4v11h-6.53v-11a4,4,0,0,0-4-4H97.05a4,4,0,0,0-3.51,2.11,3.93,3.93,0,0,0-1.88-1.22,37.87,37.87,0,0,0-10.88-1.72c-6.43,0-11.76,2.09-15.85,6.21s-6.13,9.49-6.13,16v.38a15.66,15.66,0,0,0-8-5.7l-3.17-1.12L44.21,27.1a14.5,14.5,0,0,1-3.59-1.61.74.74,0,0,1,0-.21V25c.15-.1.9-.53,3.14-.53a25.12,25.12,0,0,1,8.87,2,4.21,4.21,0,0,0,1.45.2,4,4,0,0,0,4-4V18.14a4,4,0,0,0-2.92-3.85,42.69,42.69,0,0,0-11.49-1.78c-4.73,0-8.55,1.15-11.36,3.43a12.66,12.66,0,0,0-4.63,10.28,11.47,11.47,0,0,0,3.21,8.31c1.8,1.8,4.66,3.42,8.79,5l3.52,1.28a20.83,20.83,0,0,1,4.44,2v.1c0,.27,0,.45-.53.8a7.64,7.64,0,0,1-4,.88c-2.5,0-5.87-1-10-2.81a3.88,3.88,0,0,0-1.63-.4,4,4,0,0,0-4,4V50.6a4,4,0,0,0,3,3.86,49.59,49.59,0,0,0,12.52,2c5.12,0,9.37-1.23,12.6-3.65a13,13,0,0,0,5.22-8.55,19.92,19.92,0,0,0,4.26,6.14c4.1,4,9.48,6.06,16,6.06a33.77,33.77,0,0,0,11.33-2.14,4.21,4.21,0,0,0,1.17-.65,4,4,0,0,0,3.47,2h5.26a4,4,0,0,0,4-4V40.31h6.53V51.67a4,4,0,0,0,4,4h5.28a4,4,0,0,0,4-4V17.34A4,4,0,0,0,122.12,13.34ZM91,42.26a3.88,3.88,0,0,0-1.44.27,21.21,21.21,0,0,1-7.27,1.66,9.32,9.32,0,0,1-9.86-8.73,10.65,10.65,0,0,1,0-1.13A10.57,10.57,0,0,1,74.86,27a7.11,7.11,0,0,1,5.76-2.55,19.75,19.75,0,0,1,8.22,2.07,4.05,4.05,0,0,0,3.84-.27l.37-.27V42.85A3.91,3.91,0,0,0,91,42.26Z"/><path class="cls-2" d="M221.08,13.34h-4.6a4,4,0,0,0-4,4V38.05c0,3.86-.72,5.26-1,5.68a3.47,3.47,0,0,1-2.64.81c-1.78,0-2.16-.55-2.3-.76-.31-.42-1-1.82-1-5.6V17.34a4,4,0,0,0-4-4h-5.28a4,4,0,0,0-4,4V24c-3-6.9-9.56-10.61-19.28-10.61H162.61A4,4,0,0,0,158.85,16a4,4,0,0,0-3.76-2.68h-23.2a4,4,0,0,0-4,4V51.67a4,4,0,0,0,4,4h24.43a4,4,0,0,0,3.16-1.56,4,4,0,0,0,3.13,1.56h8.94A30.58,30.58,0,0,0,182,54.15a17,17,0,0,0,7.45-5.48,20.14,20.14,0,0,0,3.11-5.7,16.88,16.88,0,0,0,3.71,8.67c2.84,3.25,7.06,4.9,12.55,4.9,6.42,0,11.33-2.79,14.19-8.06,1.35-2.49,2-6.15,2-11.17v-20A4,4,0,0,0,221.08,13.34ZM141.15,43.67v-4h11.2a4,4,0,0,0,4-4v-4a4,4,0,0,0-4-4h-11.2V25.3h13.93a4,4,0,0,0,3.52-2.14V44.43a4,4,0,0,0-2.29-.72Zm37.39-1.92c-1.17,1.09-3.5,1.74-6.67,1.89V25.3H172c3.28,0,5.6.63,6.71,1.82s1.82,3.92,1.82,7.55-.67,5.94-1.94,7.12Z"/><path class="cls-2" d="M254.87,43.67H240.39V17.34a4,4,0,0,0-4-4h-5.27a4,4,0,0,0-4,4V51.67a4,4,0,0,0,4,4h23.75a4,4,0,0,0,4-4v-4A4,4,0,0,0,254.87,43.67Z"/><path class="cls-2" d="M288.4,43.67H273.24v-4h11.24a4,4,0,0,0,4-4v-4a4,4,0,0,0-4-4H273.27V25.3h13.91a4,4,0,0,0,4-4v-4a4,4,0,0,0-4-4H264a4,4,0,0,0-4,4V51.67a4,4,0,0,0,4,4H288.4a4,4,0,0,0,4-4v-4A4,4,0,0,0,288.4,43.67Z"/><path class="cls-3" d="M54.08,18.14v4.53a29.19,29.19,0,0,0-10.33-2.2q-7.17,0-7.15,4.81a4,4,0,0,0,1.34,3.15,15.7,15.7,0,0,0,5,2.45l3.37,1.17,3.22,1.1Q57,35.78,57,42a9,9,0,0,1-3.82,7.64q-3.84,2.85-10.21,2.85A46.66,46.66,0,0,1,31.48,50.6V45.38q7,3.15,11.64,3.16A11.27,11.27,0,0,0,49.35,47a4.75,4.75,0,0,0,2.33-4.14,3.85,3.85,0,0,0-1.39-3.13A21.72,21.72,0,0,0,44.61,37l-3.54-1.28q-5.26-2-7.31-4a7.52,7.52,0,0,1-2-5.49,8.71,8.71,0,0,1,3.14-7.17c2.1-1.7,5-2.54,8.85-2.54A38.53,38.53,0,0,1,54.08,18.14Z"/><path class="cls-3" d="M91,50.6a30,30,0,0,1-10,1.9q-8.19,0-13.2-4.91t-5-12.92q0-8.13,5-13.14t13-5a33.87,33.87,0,0,1,9.68,1.53V22.9a23.69,23.69,0,0,0-9.9-2.43,11.14,11.14,0,0,0-8.77,3.9,14.58,14.58,0,0,0-3.44,10A13.3,13.3,0,0,0,81.11,48.19c.39,0,.78,0,1.17,0A24.83,24.83,0,0,0,91,46.26Z"/><path class="cls-3" d="M97.05,51.67V17.34h5.26v15h14.53v-15h5.28V51.67h-5.28V36.31H102.31V51.67Z"/><path class="cls-3" d="M131.89,51.67V17.34h23.2v4H137.15V31.67h15.2v4h-15.2v12h19.16v4Z"/><path class="cls-3" d="M162.61,51.67V17.34H173q17.11,0,17.12,16.48c0,5.08-1.25,9.2-3.72,12.33a12.93,12.93,0,0,1-5.75,4.25,26.84,26.84,0,0,1-9.07,1.27Zm5.27-4h2.65q7.54,0,10.75-3t3.2-10q0-7.17-2.89-10.26T172,21.32h-4.08Z"/><path class="cls-3" d="M196.25,17.34h5.23V38.18c0,3.64.57,6.27,1.72,7.91s3,2.45,5.59,2.45,4.66-.82,5.86-2.45,1.79-4.3,1.78-8V17.34H221V37.27c0,4.3-.51,7.38-1.53,9.26q-3.24,6-10.68,6-6.45,0-9.54-3.54T196.2,38.13Z"/><path class="cls-3" d="M231.12,51.67V17.34h5.27V47.67h18.48v4Z"/><path class="cls-3" d="M264,51.67V17.34h23.2v4H269.24V31.67h15.24v4H269.27v12h19.16v4Z"/><path class="cls-2" d="M139.78,231.58A404.66,404.66,0,0,0,106.33,195c13.22-15.76,18.67-29.79,18.67-47.6V136a4.26,4.26,0,0,0-4.25-4.25H49.2A4.25,4.25,0,0,0,45,136v10.8a4.25,4.25,0,0,0,4.25,4.25h55.2c-1,19.72-10.2,34.45-68.4,78a4.25,4.25,0,0,0-.81,6l7.2,9.3a4.24,4.24,0,0,0,5.89.81c19-14.09,32.66-25.27,43.79-35.75a382.26,382.26,0,0,1,32.14,35.13l.88,1.09a4.26,4.26,0,0,0,5.91.68l9.3-7.2a4.25,4.25,0,0,0,.69-6.05Z"/><path class="cls-2" d="M294,145.86H231c2.29-7.1,3.23-14.18,3.23-23.5a4.25,4.25,0,0,0-4.25-4.25H218a4.25,4.25,0,0,0-4.25,4.25c0,18.45-1.65,26.39-34.08,57.22a4.26,4.26,0,0,0,0,6.2l8.4,7.8a4.26,4.26,0,0,0,5.84-.06c15.42-14.85,21.24-21.05,26.42-28.36h24.26c-.42,35.53-8.32,43.43-35,70.14a4.27,4.27,0,0,0,.08,6.1l8.55,8.1a4.28,4.28,0,0,0,2.93,1.16,4.23,4.23,0,0,0,3-1.27c30-30.44,40.16-42.75,40.79-84.23H294a4.25,4.25,0,0,0,4.26-4.25v-10.8A4.25,4.25,0,0,0,294,145.86Z"/><path class="cls-2" d="M442.19,128.16h-8.55a4.25,4.25,0,0,0-4.25,4.25v23.1a4.1,4.1,0,0,0,.26,1.45,4.32,4.32,0,0,0-1.42.28,4.22,4.22,0,0,0-2.39,2.3c0,.07-3.14,7.29-7.25,15.22l-1.21,2.42C402.72,206.55,393,226,361.5,226H350.55a4.25,4.25,0,0,0-4.25,4.25v10.95a4.25,4.25,0,0,0,4.25,4.25H361.5c45.14,0,59.75-29.64,75.22-61l.46-.93c1.65-3.46,6.87-15,7.09-15.54a4.24,4.24,0,0,0-2.08-5.6l-5.47-2.54h5.47a4.26,4.26,0,0,0,4.26-4.26v-23.1A4.25,4.25,0,0,0,442.19,128.16Z"/><rect class="cls-2" x="410.64" y="128.01" width="17.05" height="31.6" rx="4.25" ry="4.25"/><rect class="cls-2" x="342.85" y="159.96" width="47.05" height="19.75" rx="4.25" ry="4.25"/><rect class="cls-2" x="342.85" y="131.31" width="47.05" height="20.2" rx="4.25" ry="4.25"/><path class="cls-2" d="M488.85,216.51a4.25,4.25,0,0,0-4.25,4.25v10.65a4.25,4.25,0,0,0,4.25,4.25h94a4.25,4.25,0,0,0,4.25-4.25V220.76a4.25,4.25,0,0,0-4.25-4.25H564.65v-51.1a4.25,4.25,0,0,0-4.25-4.25H506a4.25,4.25,0,0,0-4.25,4.25v10.5a4.25,4.25,0,0,0,4.25,4.25h38.79v36.35Z"/><rect class="cls-2" x="626.65" y="174.06" width="119.2" height="19.9" rx="4.25" ry="4.25"/><path class="cls-2" d="M898,199.12l-9.9-6a4.32,4.32,0,0,0-3.34-.46,4.26,4.26,0,0,0-2.62,2.11c-12.53,23.7-19.12,29.32-31.59,30.38V131.66a4.25,4.25,0,0,0-4.25-4.25H834.6a4.25,4.25,0,0,0-4.26,4.25v108.9a4.25,4.25,0,0,0,4.26,4.25h10.8c28,0,38.86-11.8,54.13-40A4.26,4.26,0,0,0,898,199.12Z"/><path class="cls-2" d="M814.35,141.81H802.5a4.25,4.25,0,0,0-4.25,4.25v17.4c0,29.31-2.29,39.84-23.32,68.27a4.25,4.25,0,0,0,.94,6l9.6,6.9a4.25,4.25,0,0,0,5.88-.9c23.86-31.81,27.25-45.72,27.25-80.4V146.06A4.25,4.25,0,0,0,814.35,141.81Z"/><path class="cls-4" d="M108.75,146.81H49.2V136h71.55v11.4c0,18-5.85,31.65-20.25,47.85,22.2,21.45,33.15,35.55,37.19,40.5L128.4,243c-3.9-4.8-14.7-18.6-36.3-39.45C81.6,213.71,68,225.26,45.75,241.76l-7.2-9.3C99.3,187,108.75,171.86,108.75,146.81Z"/><path class="cls-4" d="M221.1,246.41l-8.55-8.1c28.65-28.65,36.45-37.35,36.3-77.4H218.1c-5.4,8-10.8,13.8-27.15,29.55l-8.4-7.8c33.45-31.8,35.4-40.95,35.4-60.3h12c0,11.55-1.5,19.2-5.1,27.75H294v10.8H260.7C260.7,204.11,252.15,214.91,221.1,246.41Z"/><path class="cls-4" d="M385.65,135.56v11.7H347.1v-11.7Zm-38.55,39.9V164.21h38.55v11.25Zm86.24,6.15c-15.74,31.95-28.94,59.55-71.84,59.55H350.55V230.21H361.5c35.1,0,45.6-23,60.9-53.55,4.2-8.1,7.35-15.45,7.35-15.45l10.64,4.95S435,178.16,433.34,181.61Zm-9.89-26.25H414.9v-23.1h8.55Zm18.74.15h-8.55v-23.1h8.55Z"/><path class="cls-4" d="M506,175.91v-10.5H560.4v55.35h22.5v10.65h-94V220.76H549V175.91Z"/><path class="cls-4" d="M630.9,178.31H741.59v11.4H630.9Z"/><path class="cls-4" d="M788,241.16l-9.6-6.9c21.3-28.8,24.15-40,24.15-70.8v-17.4h11.85v17.25C814.35,197.36,810.9,210.56,788,241.16Zm97.94-44.4,9.9,6c-15.75,29.1-26.09,37.8-50.39,37.8H834.6V131.66h11.7v98C864.45,229.31,872.1,222.86,885.89,196.76Z"/></svg>